<?xml version="1.0" encoding="UTF-8"?><svg xmlns="http://www.w3.org/2000/svg" xmlns:xlink="http://www.w3.org/1999/xlink" contentScriptType="application/ecmascript" contentStyleType="text/css" height="530pt" preserveAspectRatio="xMidYMid meet" version="1.1" viewBox="0 0 1700 500" width="1148pt" zoomAndPan="magnify">
<g class="graph" id="graph0" transform="scale(1 1) rotate(0) translate(4 526)">
<title>PROV</title>
<polygon fill="white" points="-4,4 -4,-526 1144,-526 1144,4 -4,4" stroke="transparent"/>
<g class="cluster" id="clust1">
<title>clusterurn:uuid:390f3ba9-d41c-4784-b330-3dc036abc0fb</title>
<g id="a_clust1">
<a xlink:actuate="onRequest" xlink:href="urn:uuid:390f3ba9-d41c-4784-b330-3dc036abc0fb" xlink:show="replace" xlink:title="390f3ba9-d41c-4784-b330-3dc036abc0fb" xlink:type="simple" xmlns:xlink="http://www.w3.org/1999/xlink">
<polygon fill="none" points="8,-8 8,-514 1132,-514 1132,-8 8,-8" stroke="black"/>
<text font-family="Times,serif" font-size="14.00" text-anchor="middle" x="570" y="-15.8">390f3ba9-d41c-4784-b330-3dc036abc0fb</text>
</a>
</g>
</g>
<!-- http://twitter.com/post_1366200664402006016 -->
<g class="node" id="node1">
<title>http://twitter.com/post_1366200664402006016</title>
<g id="a_node1">
<a xlink:actuate="onRequest" xlink:href="http://twitter.com/post_1366200664402006016" xlink:show="replace" xlink:title="post_1366200664402006016" xlink:type="simple" xmlns:xlink="http://www.w3.org/1999/xlink">
<polygon fill="#9fb1fc" points="972.5,-434 747.5,-434 747.5,-398 972.5,-398 972.5,-434" stroke="#0000ff"/>
<text font-family="Times,serif" font-size="14.00" text-anchor="middle" x="860" y="-412.3">post_1366200664402006016</text>
</a>
</g>
</g>
<!-- http://twitter.com/ORIGINAL_TWEET_author_18839785 -->
<g class="node" id="node11">
<title>http://twitter.com/ORIGINAL_TWEET_author_18839785</title>
<g id="a_node11">
<a xlink:actuate="onRequest" xlink:href="http://twitter.com/ORIGINAL_TWEET_author_18839785" xlink:show="replace" xlink:title="ORIGINAL_TWEET_author_18839785" xlink:type="simple" xmlns:xlink="http://www.w3.org/1999/xlink">
<polygon fill="#fdb266" points="1088.32,-493.56 860,-506 631.68,-493.56 631.9,-473.44 1088.1,-473.44 1088.32,-493.56" stroke="black"/>
<text font-family="Times,serif" font-size="14.00" text-anchor="middle" x="860" y="-484.3">ORIGINAL_TWEET_author_18839785</text>
</a>
</g>
</g>
<!-- http://twitter.com/post_1366200664402006016&#45;&gt;http://twitter.com/ORIGINAL_TWEET_author_18839785 -->
<g class="edge" id="edge9">
<title>http://twitter.com/post_1366200664402006016-&gt;http://twitter.com/ORIGINAL_TWEET_author_18839785</title>
<path d="M860,-434.3C860,-443.01 860,-453.7 860,-463.17" fill="none" stroke="black"/>
<polygon fill="black" points="856.5,-463.18 860,-473.18 863.5,-463.18 856.5,-463.18" stroke="black"/>
<text font-family="Times,serif" font-size="8.00" text-anchor="middle" x="872.99" y="-439.9">assoc</text>
</g>
<!-- &#45;attrs0 -->
<g class="node" id="node2">
<title>-attrs0</title>
<polygon fill="none" points="829.5,-336 748.5,-336 748.5,-300 835.5,-300 835.5,-330 829.5,-336" stroke="gray"/>
<polyline fill="none" points="829.5,-336 829.5,-330 " stroke="gray"/>
<polyline fill="none" points="835.5,-330 829.5,-330 " stroke="gray"/>
<text font-family="Times,serif" font-size="10.00" text-anchor="start" x="759" y="-315">type:</text>
<text font-family="Times,serif" font-size="10.00" text-anchor="start" x="787" y="-315">publish</text>
</g>
<!-- &#45;attrs0&#45;&gt;http://twitter.com/post_1366200664402006016 -->
<g class="edge" id="edge1">
<title>-attrs0-&gt;http://twitter.com/post_1366200664402006016</title>
<path d="M804.16,-336.16C816.53,-353.64 835.61,-380.57 847.95,-397.99" fill="none" stroke="gray" stroke-dasharray="5,2"/>
</g>
<!-- http://twitter.com/reacts_for_6h_12h -->
<g class="node" id="node3">
<title>http://twitter.com/reacts_for_6h_12h</title>
<g id="a_node3">
<a xlink:actuate="onRequest" xlink:href="http://twitter.com/reacts_for_6h_12h" xlink:show="replace" xlink:title="reacts_for_6h_12h" xlink:type="simple" xmlns:xlink="http://www.w3.org/1999/xlink">
<polygon fill="#9fb1fc" points="730,-336 584,-336 584,-300 730,-300 730,-336" stroke="#0000ff"/>
<text font-family="Times,serif" font-size="14.00" text-anchor="middle" x="657" y="-314.3">reacts_for_6h_12h</text>
</a>
</g>
</g>
<!-- http://twitter.com/reacts_for_6h_12h&#45;&gt;http://twitter.com/post_1366200664402006016 -->
<g class="edge" id="edge11">
<title>http://twitter.com/reacts_for_6h_12h-&gt;http://twitter.com/post_1366200664402006016</title>
<path d="M688.69,-336.01C704.07,-344.11 722.88,-353.79 740,-362 762.9,-372.98 788.62,-384.44 810.35,-393.9" fill="none" stroke="black"/>
<polygon fill="black" points="809.15,-397.19 819.72,-397.95 811.93,-390.76 809.15,-397.19" stroke="black"/>
<text font-family="Times,serif" font-size="8.00" text-anchor="middle" x="701.37" y="-326.09">inf</text>
</g>
<!-- http://twitter.com/reactions_authors_for_6h_12h -->
<g class="node" id="node13">
<title>http://twitter.com/reactions_authors_for_6h_12h</title>
<g id="a_node13">
<a xlink:actuate="onRequest" xlink:href="http://twitter.com/reactions_authors_for_6h_12h" xlink:show="replace" xlink:title="reactions_authors_for_6h_12h" xlink:type="simple" xmlns:xlink="http://www.w3.org/1999/xlink">
<polygon fill="#fdb266" points="729.55,-421.56 545,-434 360.45,-421.56 360.62,-401.44 729.38,-401.44 729.55,-421.56" stroke="black"/>
<text font-family="Times,serif" font-size="14.00" text-anchor="middle" x="545" y="-412.3">reactions_authors_for_6h_12h</text>
</a>
</g>
</g>
<!-- http://twitter.com/reacts_for_6h_12h&#45;&gt;http://twitter.com/reactions_authors_for_6h_12h -->
<g class="edge" id="edge12">
<title>http://twitter.com/reacts_for_6h_12h-&gt;http://twitter.com/reactions_authors_for_6h_12h</title>
<path d="M636.98,-336.16C617.84,-352.56 588.99,-377.29 568.71,-394.67" fill="none" stroke="black"/>
<polygon fill="black" points="566.19,-392.23 560.87,-401.4 570.74,-397.55 566.19,-392.23" stroke="black"/>
<text font-family="Times,serif" font-size="8.00" text-anchor="middle" x="639.74" y="-349.01">assoc</text>
</g>
<!-- &#45;attrs1 -->
<g class="node" id="node4">
<title>-attrs1</title>
<polygon fill="none" points="500.5,-225 419.5,-225 419.5,-189 506.5,-189 506.5,-219 500.5,-225" stroke="gray"/>
<polyline fill="none" points="500.5,-225 500.5,-219 " stroke="gray"/>
<polyline fill="none" points="506.5,-219 500.5,-219 " stroke="gray"/>
<text font-family="Times,serif" font-size="10.00" text-anchor="start" x="430" y="-204">type:</text>
<text font-family="Times,serif" font-size="10.00" text-anchor="start" x="458" y="-204">publish</text>
</g>
<!-- &#45;attrs1&#45;&gt;http://twitter.com/reacts_for_6h_12h -->
<g class="edge" id="edge2">
<title>-attrs1-&gt;http://twitter.com/reacts_for_6h_12h</title>
<path d="M493.26,-225.16C500.69,-229.36 508.63,-233.85 516,-238 554.02,-259.41 597.87,-283.96 626.45,-299.93" fill="none" stroke="gray" stroke-dasharray="5,2"/>
</g>
<!-- http://twitter.com/1366200664402006016 -->
<g class="node" id="node5">
<title>http://twitter.com/1366200664402006016</title>
<g id="a_node5">
<a xlink:actuate="onRequest" xlink:href="http://twitter.com/1366200664402006016" xlink:show="replace" xlink:title="1366200664402006016" xlink:type="simple" xmlns:xlink="http://www.w3.org/1999/xlink">
<ellipse cx="976" cy="-318" fill="#fffc87" rx="122.38" ry="18" stroke="#808080"/>
<text font-family="Times,serif" font-size="14.00" text-anchor="middle" x="976" y="-314.3">1366200664402006016</text>
</a>
</g>
</g>
<!-- http://twitter.com/1366200664402006016&#45;&gt;http://twitter.com/post_1366200664402006016 -->
<g class="edge" id="edge8">
<title>http://twitter.com/1366200664402006016-&gt;http://twitter.com/post_1366200664402006016</title>
<path d="M955.53,-335.94C936.92,-351.34 909.29,-374.21 888.53,-391.39" fill="none" stroke="black"/>
<polygon fill="black" points="886.13,-388.83 880.66,-397.9 890.59,-394.23 886.13,-388.83" stroke="black"/>
<text font-family="Times,serif" font-size="8.00" text-anchor="middle" x="958.03" y="-348.83">gen</text>
</g>
<!-- &#45;attrs2 -->
<g class="node" id="node6">
<title>-attrs2</title>
<polygon fill="none" points="1117.5,-238 524.5,-238 524.5,-176 1123.5,-176 1123.5,-232 1117.5,-238" stroke="gray"/>
<polyline fill="none" points="1117.5,-238 1117.5,-232 " stroke="gray"/>
<polyline fill="none" points="1123.5,-232 1117.5,-232 " stroke="gray"/>
<text font-family="Times,serif" font-size="10.00" text-anchor="start" x="535" y="-224">type:</text>
<text font-family="Times,serif" font-size="10.00" text-anchor="start" x="580" y="-224">ORIGINAL TWEET</text>
<text font-family="Times,serif" font-size="10.00" text-anchor="start" x="535" y="-211">value:</text>
<text font-family="Times,serif" font-size="10.00" text-anchor="start" x="580" y="-211">Took my first dose of the COVID-19 vaccine at AIIMS. Remarkable how our doctors and scientists have ...</text>
<text font-family="Times,serif" font-size="10.00" text-anchor="start" x="535" y="-198">created:</text>
<text font-family="Times,serif" font-size="10.00" text-anchor="start" x="580" y="-198">2021-03-01 01:36:35+00:00</text>
<text font-family="Times,serif" font-size="10.00" text-anchor="start" x="535" y="-185">location:</text>
<text font-family="Times,serif" font-size="10.00" text-anchor="start" x="580" y="-185">India</text>
</g>
<!-- &#45;attrs2&#45;&gt;http://twitter.com/1366200664402006016 -->
<g class="edge" id="edge3">
<title>-attrs2-&gt;http://twitter.com/1366200664402006016</title>
<path d="M865.94,-238.07C893.88,-258.11 929.57,-283.71 952.61,-300.22" fill="none" stroke="gray" stroke-dasharray="5,2"/>
</g>
<!-- http://twitter.com/original_author_props_18839785 -->
<g class="node" id="node7">
<title>http://twitter.com/original_author_props_18839785</title>
<g id="a_node7">
<a xlink:actuate="onRequest" xlink:href="http://twitter.com/original_author_props_18839785" xlink:show="replace" xlink:title="original_author_props_18839785" xlink:type="simple" xmlns:xlink="http://www.w3.org/1999/xlink">
<ellipse cx="179" cy="-416" fill="#fffc87" rx="163.27" ry="18" stroke="#808080"/>
<text font-family="Times,serif" font-size="14.00" text-anchor="middle" x="179" y="-412.3">original_author_props_18839785</text>
</a>
</g>
</g>
<!-- http://twitter.com/original_author_props_18839785&#45;&gt;http://twitter.com/ORIGINAL_TWEET_author_18839785 -->
<g class="edge" id="edge10">
<title>http://twitter.com/original_author_props_18839785-&gt;http://twitter.com/ORIGINAL_TWEET_author_18839785</title>
<path d="M293.75,-428.8C410.56,-440.8 591.88,-459.44 717.75,-472.38" fill="none" stroke="black"/>
<polygon fill="black" points="717.54,-475.88 727.85,-473.42 718.26,-468.91 717.54,-475.88" stroke="black"/>
<text font-family="Times,serif" font-size="8.00" text-anchor="middle" x="302.54" y="-414.74">att</text>
</g>
<!-- &#45;attrs3 -->
<g class="node" id="node8">
<title>-attrs3</title>
<polygon fill="none" points="276,-362 16,-362 16,-274 282,-274 282,-356 276,-362" stroke="gray"/>
<polyline fill="none" points="276,-362 276,-356 " stroke="gray"/>
<polyline fill="none" points="282,-356 276,-356 " stroke="gray"/>
<text font-family="Times,serif" font-size="10.00" text-anchor="start" x="26" y="-348">type:</text>
<text font-family="Times,serif" font-size="10.00" text-anchor="start" x="112" y="-348">ORIGINAL USER PROPERTIES</text>
<text font-family="Times,serif" font-size="10.00" text-anchor="start" x="26" y="-335">credible:</text>
<text font-family="Times,serif" font-size="10.00" text-anchor="start" x="112" y="-335">1</text>
<text font-family="Times,serif" font-size="10.00" text-anchor="start" x="26" y="-322">username:</text>
<text font-family="Times,serif" font-size="10.00" text-anchor="start" x="112" y="-322">narendramodi</text>
<text font-family="Times,serif" font-size="10.00" text-anchor="start" x="26" y="-309">verified:</text>
<text font-family="Times,serif" font-size="10.00" text-anchor="start" x="112" y="-309">True</text>
<text font-family="Times,serif" font-size="10.00" text-anchor="start" x="26" y="-296">followers_count:</text>
<text font-family="Times,serif" font-size="10.00" text-anchor="start" x="112" y="-296">82431058</text>
<text font-family="Times,serif" font-size="10.00" text-anchor="start" x="26" y="-283">following_count:</text>
<text font-family="Times,serif" font-size="10.00" text-anchor="start" x="112" y="-283">2448</text>
</g>
<!-- &#45;attrs3&#45;&gt;http://twitter.com/original_author_props_18839785 -->
<g class="edge" id="edge4">
<title>-attrs3-&gt;http://twitter.com/original_author_props_18839785</title>
<path d="M162.51,-362.23C166.43,-374.77 170.48,-387.75 173.59,-397.7" fill="none" stroke="gray" stroke-dasharray="5,2"/>
</g>
<!-- http://twitter.com/reactions_for_6h_12h -->
<g class="node" id="node9">
<title>http://twitter.com/reactions_for_6h_12h</title>
<g id="a_node9">
<a xlink:actuate="onRequest" xlink:href="http://twitter.com/reactions_for_6h_12h" xlink:show="replace" xlink:title="reactions_for_6h_12h" xlink:type="simple" xmlns:xlink="http://www.w3.org/1999/xlink">
<ellipse cx="292" cy="-207" fill="#fffc87" rx="109.38" ry="18" stroke="#808080"/>
<text font-family="Times,serif" font-size="14.00" text-anchor="middle" x="292" y="-203.3">reactions_for_6h_12h</text>
</a>
</g>
</g>
<!-- http://twitter.com/reactions_for_6h_12h&#45;&gt;http://twitter.com/reacts_for_6h_12h -->
<g class="edge" id="edge13">
<title>http://twitter.com/reactions_for_6h_12h-&gt;http://twitter.com/reacts_for_6h_12h</title>
<path d="M347.91,-222.47C367.79,-227.52 390.37,-233.14 411,-238 483.63,-255.12 504.89,-248.44 575,-274 590.22,-279.55 606.16,-287.39 619.89,-294.86" fill="none" stroke="black"/>
<polygon fill="black" points="618.58,-298.13 629.02,-299.94 621.98,-292.01 618.58,-298.13" stroke="black"/>
<text font-family="Times,serif" font-size="8.00" text-anchor="middle" x="358.37" y="-209.82">gen</text>
</g>
<!-- &#45;attrs4 -->
<g class="node" id="node10">
<title>-attrs4</title>
<polygon fill="none" points="469.5,-140 108.5,-140 108.5,-39 475.5,-39 475.5,-134 469.5,-140" stroke="gray"/>
<polyline fill="none" points="469.5,-140 469.5,-134 " stroke="gray"/>
<polyline fill="none" points="475.5,-134 469.5,-134 " stroke="gray"/>
<text font-family="Times,serif" font-size="10.00" text-anchor="start" x="119" y="-125.5">type:</text>
<text font-family="Times,serif" font-size="10.00" text-anchor="start" x="299" y="-125.5">GROUP OF REACTION TWEETS</text>
<text font-family="Times,serif" font-size="10.00" text-anchor="start" x="119" y="-112.5">time_interval:</text>
<text font-family="Times,serif" font-size="10.00" text-anchor="start" x="299" y="-112.5">6h - 12h</text>
<text font-family="Times,serif" font-size="10.00" text-anchor="start" x="119" y="-99.5">number_of_reactions:</text>
<text font-family="Times,serif" font-size="10.00" text-anchor="start" x="299" y="-99.5">6447</text>
<text font-family="Times,serif" font-size="10.00" text-anchor="start" x="119" y="-86.5">percentage_out_of_total_reactions:</text>
<text font-family="Times,serif" font-size="10.00" text-anchor="start" x="299" y="-86.5">14.97%</text>
<text font-family="Times,serif" font-size="10.00" text-anchor="start" x="119" y="-73.5">number_of_replies:</text>
<text font-family="Times,serif" font-size="10.00" text-anchor="start" x="299" y="-73.5">147</text>
<text font-family="Times,serif" font-size="10.00" text-anchor="start" x="119" y="-60.5">number_of_quotes:</text>
<text font-family="Times,serif" font-size="10.00" text-anchor="start" x="299" y="-60.5">262</text>
<text font-family="Times,serif" font-size="10.00" text-anchor="start" x="119" y="-47.5">number_of_retweets:</text>
<text font-family="Times,serif" font-size="10.00" text-anchor="start" x="299" y="-47.5">6038</text>
</g>
<!-- &#45;attrs4&#45;&gt;http://twitter.com/reactions_for_6h_12h -->
<g class="edge" id="edge5">
<title>-attrs4-&gt;http://twitter.com/reactions_for_6h_12h</title>
<path d="M292,-140.15C292,-157.52 292,-175.88 292,-188.79" fill="none" stroke="gray" stroke-dasharray="5,2"/>
</g>
<!-- &#45;attrs5 -->
<g class="node" id="node12">
<title>-attrs5</title>
<polygon fill="none" points="1117.5,-434 990.5,-434 990.5,-398 1123.5,-398 1123.5,-428 1117.5,-434" stroke="gray"/>
<polyline fill="none" points="1117.5,-434 1117.5,-428 " stroke="gray"/>
<polyline fill="none" points="1123.5,-428 1117.5,-428 " stroke="gray"/>
<text font-family="Times,serif" font-size="10.00" text-anchor="start" x="1001" y="-420">type:</text>
<text font-family="Times,serif" font-size="10.00" text-anchor="start" x="1035" y="-420">prov:Person</text>
<text font-family="Times,serif" font-size="10.00" text-anchor="start" x="1001" y="-407">name:</text>
<text font-family="Times,serif" font-size="10.00" text-anchor="start" x="1035" y="-407">Narendra Modi</text>
</g>
<!-- &#45;attrs5&#45;&gt;http://twitter.com/ORIGINAL_TWEET_author_18839785 -->
<g class="edge" id="edge6">
<title>-attrs5-&gt;http://twitter.com/ORIGINAL_TWEET_author_18839785</title>
<path d="M1009.06,-434.03C975.01,-446.13 929.89,-462.17 898.25,-473.41" fill="none" stroke="gray" stroke-dasharray="5,2"/>
</g>
<!-- &#45;attrs6 -->
<g class="node" id="node14">
<title>-attrs6</title>
<polygon fill="none" points="559.5,-336 300.5,-336 300.5,-300 565.5,-300 565.5,-330 559.5,-336" stroke="gray"/>
<polyline fill="none" points="559.5,-336 559.5,-330 " stroke="gray"/>
<polyline fill="none" points="565.5,-330 559.5,-330 " stroke="gray"/>
<text font-family="Times,serif" font-size="10.00" text-anchor="start" x="311" y="-322">type:</text>
<text font-family="Times,serif" font-size="10.00" text-anchor="start" x="459" y="-322">GROUP OF USERS</text>
<text font-family="Times,serif" font-size="10.00" text-anchor="start" x="311" y="-309">number_of_distinct_authors:</text>
<text font-family="Times,serif" font-size="10.00" text-anchor="start" x="459" y="-309">6420</text>
</g>
<!-- &#45;attrs6&#45;&gt;http://twitter.com/reactions_authors_for_6h_12h -->
<g class="edge" id="edge7">
<title>-attrs6-&gt;http://twitter.com/reactions_authors_for_6h_12h</title>
<path d="M453.02,-336.16C474.79,-354.82 509.14,-384.27 529.13,-401.4" fill="none" stroke="gray" stroke-dasharray="5,2"/>
</g>
</g>
</svg>
