<?xml version="1.0" encoding="UTF-8"?><svg xmlns="http://www.w3.org/2000/svg" xmlns:xlink="http://www.w3.org/1999/xlink" contentScriptType="application/ecmascript" contentStyleType="text/css" height="467pt" preserveAspectRatio="xMidYMid meet" version="1.1" viewBox="0 0 1500 500" width="1152pt" zoomAndPan="magnify">
<g class="graph" id="graph0" transform="scale(1.08 1.08) rotate(0) translate(4 500)">
<title>PROV</title>
<polygon fill="white" points="-4,4 -4,-500 1238,-500 1238,4 -4,4" stroke="transparent"/>
<g class="cluster" id="clust1">
<title>clusterurn:uuid:19f3b8f4-10a1-4b05-b980-e0dbad14c79c</title>
<g id="a_clust1">
<a xlink:actuate="onRequest" xlink:href="urn:uuid:19f3b8f4-10a1-4b05-b980-e0dbad14c79c" xlink:show="replace" xlink:title="19f3b8f4-10a1-4b05-b980-e0dbad14c79c" xlink:type="simple" xmlns:xlink="http://www.w3.org/1999/xlink">
<polygon fill="none" points="8,-8 8,-488 1226,-488 1226,-8 8,-8" stroke="black"/>
<text font-family="Times,serif" font-size="14.00" text-anchor="middle" x="617" y="-15.8">19f3b8f4-10a1-4b05-b980-e0dbad14c79c</text>
</a>
</g>
</g>
<!-- http://twitter.com/post_1366200664402006016 -->
<g class="node" id="node1">
<title>http://twitter.com/post_1366200664402006016</title>
<g id="a_node1">
<a xlink:actuate="onRequest" xlink:href="http://twitter.com/post_1366200664402006016" xlink:show="replace" xlink:title="post_1366200664402006016" xlink:type="simple" xmlns:xlink="http://www.w3.org/1999/xlink">
<polygon fill="#9fb1fc" points="1020.5,-408 795.5,-408 795.5,-372 1020.5,-372 1020.5,-408" stroke="#0000ff"/>
<text font-family="Times,serif" font-size="14.00" text-anchor="middle" x="908" y="-386.3">post_1366200664402006016</text>
</a>
</g>
</g>
<!-- http://twitter.com/ORIGINAL_TWEET_author_18839785 -->
<g class="node" id="node11">
<title>http://twitter.com/ORIGINAL_TWEET_author_18839785</title>
<g id="a_node11">
<a xlink:actuate="onRequest" xlink:href="http://twitter.com/ORIGINAL_TWEET_author_18839785" xlink:show="replace" xlink:title="ORIGINAL_TWEET_author_18839785" xlink:type="simple" xmlns:xlink="http://www.w3.org/1999/xlink">
<polygon fill="#fdb266" points="1136.32,-467.56 908,-480 679.68,-467.56 679.9,-447.44 1136.1,-447.44 1136.32,-467.56" stroke="black"/>
<text font-family="Times,serif" font-size="14.00" text-anchor="middle" x="908" y="-458.3">ORIGINAL_TWEET_author_18839785</text>
</a>
</g>
</g>
<!-- http://twitter.com/post_1366200664402006016&#45;&gt;http://twitter.com/ORIGINAL_TWEET_author_18839785 -->
<g class="edge" id="edge9">
<title>http://twitter.com/post_1366200664402006016-&gt;http://twitter.com/ORIGINAL_TWEET_author_18839785</title>
<path d="M908,-408.3C908,-417.01 908,-427.7 908,-437.17" fill="none" stroke="black"/>
<polygon fill="black" points="904.5,-437.18 908,-447.18 911.5,-437.18 904.5,-437.18" stroke="black"/>
<text font-family="Times,serif" font-size="8.00" text-anchor="middle" x="920.99" y="-413.9">assoc</text>
</g>
<!-- &#45;attrs0 -->
<g class="node" id="node2">
<title>-attrs0</title>
<polygon fill="none" points="949.5,-310 868.5,-310 868.5,-274 955.5,-274 955.5,-304 949.5,-310" stroke="gray"/>
<polyline fill="none" points="949.5,-310 949.5,-304 " stroke="gray"/>
<polyline fill="none" points="955.5,-304 949.5,-304 " stroke="gray"/>
<text font-family="Times,serif" font-size="10.00" text-anchor="start" x="879" y="-289">type:</text>
<text font-family="Times,serif" font-size="10.00" text-anchor="start" x="907" y="-289">publish</text>
</g>
<!-- &#45;attrs0&#45;&gt;http://twitter.com/post_1366200664402006016 -->
<g class="edge" id="edge1">
<title>-attrs0-&gt;http://twitter.com/post_1366200664402006016</title>
<path d="M911.28,-310.16C910.56,-327.64 909.43,-354.57 908.71,-371.99" fill="none" stroke="gray" stroke-dasharray="5,2"/>
</g>
<!-- http://twitter.com/react_REPLY_1366237793727381504 -->
<g class="node" id="node3">
<title>http://twitter.com/react_REPLY_1366237793727381504</title>
<g id="a_node3">
<a xlink:actuate="onRequest" xlink:href="http://twitter.com/react_REPLY_1366237793727381504" xlink:show="replace" xlink:title="react_REPLY_1366237793727381504" xlink:type="simple" xmlns:xlink="http://www.w3.org/1999/xlink">
<polygon fill="#9fb1fc" points="850,-310 564,-310 564,-274 850,-274 850,-310" stroke="#0000ff"/>
<text font-family="Times,serif" font-size="14.00" text-anchor="middle" x="707" y="-288.3">react_REPLY_1366237793727381504</text>
</a>
</g>
</g>
<!-- http://twitter.com/react_REPLY_1366237793727381504&#45;&gt;http://twitter.com/post_1366200664402006016 -->
<g class="edge" id="edge11">
<title>http://twitter.com/react_REPLY_1366237793727381504-&gt;http://twitter.com/post_1366200664402006016</title>
<path d="M742.93,-310.16C776.52,-326.2 826.79,-350.21 863.02,-367.52" fill="none" stroke="black"/>
<polygon fill="black" points="861.84,-370.83 872.38,-371.99 864.86,-364.52 861.84,-370.83" stroke="black"/>
<text font-family="Times,serif" font-size="8.00" text-anchor="middle" x="755.3" y="-299.77">inf</text>
</g>
<!-- http://twitter.com/REPLY_author_755672251832217602 -->
<g class="node" id="node13">
<title>http://twitter.com/REPLY_author_755672251832217602</title>
<g id="a_node13">
<a xlink:actuate="onRequest" xlink:href="http://twitter.com/REPLY_author_755672251832217602" xlink:show="replace" xlink:title="REPLY_author_755672251832217602" xlink:type="simple" xmlns:xlink="http://www.w3.org/1999/xlink">
<polygon fill="#fdb266" points="770.64,-395.56 540,-408 309.36,-395.56 309.58,-375.44 770.42,-375.44 770.64,-395.56" stroke="black"/>
<text font-family="Times,serif" font-size="14.00" text-anchor="middle" x="540" y="-386.3">REPLY_author_755672251832217602</text>
</a>
</g>
</g>
<!-- http://twitter.com/react_REPLY_1366237793727381504&#45;&gt;http://twitter.com/REPLY_author_755672251832217602 -->
<g class="edge" id="edge12">
<title>http://twitter.com/react_REPLY_1366237793727381504-&gt;http://twitter.com/REPLY_author_755672251832217602</title>
<path d="M677.14,-310.16C647.73,-327.07 602.9,-352.84 572.58,-370.27" fill="none" stroke="black"/>
<polygon fill="black" points="570.59,-367.38 563.66,-375.4 574.08,-373.45 570.59,-367.38" stroke="black"/>
<text font-family="Times,serif" font-size="8.00" text-anchor="middle" x="677.12" y="-323.26">assoc</text>
</g>
<!-- &#45;attrs1 -->
<g class="node" id="node4">
<title>-attrs1</title>
<polygon fill="none" points="594.5,-199 513.5,-199 513.5,-163 600.5,-163 600.5,-193 594.5,-199" stroke="gray"/>
<polyline fill="none" points="594.5,-199 594.5,-193 " stroke="gray"/>
<polyline fill="none" points="600.5,-193 594.5,-193 " stroke="gray"/>
<text font-family="Times,serif" font-size="10.00" text-anchor="start" x="524" y="-178">type:</text>
<text font-family="Times,serif" font-size="10.00" text-anchor="start" x="552" y="-178">publish</text>
</g>
<!-- &#45;attrs1&#45;&gt;http://twitter.com/react_REPLY_1366237793727381504 -->
<g class="edge" id="edge2">
<title>-attrs1-&gt;http://twitter.com/react_REPLY_1366237793727381504</title>
<path d="M580.44,-199.03C608.45,-219.39 655.07,-253.27 683.23,-273.73" fill="none" stroke="gray" stroke-dasharray="5,2"/>
</g>
<!-- http://twitter.com/1366200664402006016 -->
<g class="node" id="node5">
<title>http://twitter.com/1366200664402006016</title>
<g id="a_node5">
<a xlink:actuate="onRequest" xlink:href="http://twitter.com/1366200664402006016" xlink:show="replace" xlink:title="1366200664402006016" xlink:type="simple" xmlns:xlink="http://www.w3.org/1999/xlink">
<ellipse cx="1096" cy="-292" fill="#fffc87" rx="122.38" ry="18" stroke="#808080"/>
<text font-family="Times,serif" font-size="14.00" text-anchor="middle" x="1096" y="-288.3">1366200664402006016</text>
</a>
</g>
</g>
<!-- http://twitter.com/1366200664402006016&#45;&gt;http://twitter.com/post_1366200664402006016 -->
<g class="edge" id="edge8">
<title>http://twitter.com/1366200664402006016-&gt;http://twitter.com/post_1366200664402006016</title>
<path d="M1063.68,-309.5C1032.49,-325.43 985.09,-349.64 950.78,-367.15" fill="none" stroke="black"/>
<polygon fill="black" points="948.79,-364.24 941.48,-371.9 951.98,-370.47 948.79,-364.24" stroke="black"/>
<text font-family="Times,serif" font-size="8.00" text-anchor="middle" x="1062.91" y="-322.58">gen</text>
</g>
<!-- &#45;attrs2 -->
<g class="node" id="node6">
<title>-attrs2</title>
<polygon fill="none" points="1211.5,-212 618.5,-212 618.5,-150 1217.5,-150 1217.5,-206 1211.5,-212" stroke="gray"/>
<polyline fill="none" points="1211.5,-212 1211.5,-206 " stroke="gray"/>
<polyline fill="none" points="1217.5,-206 1211.5,-206 " stroke="gray"/>
<text font-family="Times,serif" font-size="10.00" text-anchor="start" x="629" y="-198">type:</text>
<text font-family="Times,serif" font-size="10.00" text-anchor="start" x="674" y="-198">ORIGINAL TWEET</text>
<text font-family="Times,serif" font-size="10.00" text-anchor="start" x="629" y="-185">value:</text>
<text font-family="Times,serif" font-size="10.00" text-anchor="start" x="674" y="-185">Took my first dose of the COVID-19 vaccine at AIIMS. Remarkable how our doctors and scientists have ...</text>
<text font-family="Times,serif" font-size="10.00" text-anchor="start" x="629" y="-172">created:</text>
<text font-family="Times,serif" font-size="10.00" text-anchor="start" x="674" y="-172">2021-03-01 01:36:35+00:00</text>
<text font-family="Times,serif" font-size="10.00" text-anchor="start" x="629" y="-159">location:</text>
<text font-family="Times,serif" font-size="10.00" text-anchor="start" x="674" y="-159">India</text>
</g>
<!-- &#45;attrs2&#45;&gt;http://twitter.com/1366200664402006016 -->
<g class="edge" id="edge3">
<title>-attrs2-&gt;http://twitter.com/1366200664402006016</title>
<path d="M967.11,-212.07C999.94,-232.17 1041.89,-257.87 1068.86,-274.38" fill="none" stroke="gray" stroke-dasharray="5,2"/>
</g>
<!-- http://twitter.com/author_props_18839785 -->
<g class="node" id="node7">
<title>http://twitter.com/author_props_18839785</title>
<g id="a_node7">
<a xlink:actuate="onRequest" xlink:href="http://twitter.com/author_props_18839785" xlink:show="replace" xlink:title="author_props_18839785" xlink:type="simple" xmlns:xlink="http://www.w3.org/1999/xlink">
<ellipse cx="153" cy="-390" fill="#fffc87" rx="123.48" ry="18" stroke="#808080"/>
<text font-family="Times,serif" font-size="14.00" text-anchor="middle" x="153" y="-386.3">author_props_18839785</text>
</a>
</g>
</g>
<!-- http://twitter.com/author_props_18839785&#45;&gt;http://twitter.com/ORIGINAL_TWEET_author_18839785 -->
<g class="edge" id="edge10">
<title>http://twitter.com/author_props_18839785-&gt;http://twitter.com/ORIGINAL_TWEET_author_18839785</title>
<path d="M245.1,-402.05C263.28,-404.12 282.24,-406.2 300,-408 443.55,-422.55 606.41,-436.62 727.42,-446.6" fill="none" stroke="black"/>
<polygon fill="black" points="727.28,-450.1 737.53,-447.43 727.85,-443.12 727.28,-450.1" stroke="black"/>
<text font-family="Times,serif" font-size="8.00" text-anchor="middle" x="254.01" y="-388.09">att</text>
</g>
<!-- &#45;attrs3 -->
<g class="node" id="node8">
<title>-attrs3</title>
<polygon fill="none" points="276,-336 16,-336 16,-248 282,-248 282,-330 276,-336" stroke="gray"/>
<polyline fill="none" points="276,-336 276,-330 " stroke="gray"/>
<polyline fill="none" points="282,-330 276,-330 " stroke="gray"/>
<text font-family="Times,serif" font-size="10.00" text-anchor="start" x="26" y="-322">type:</text>
<text font-family="Times,serif" font-size="10.00" text-anchor="start" x="112" y="-322">ORIGINAL USER PROPERTIES</text>
<text font-family="Times,serif" font-size="10.00" text-anchor="start" x="26" y="-309">credible:</text>
<text font-family="Times,serif" font-size="10.00" text-anchor="start" x="112" y="-309">1</text>
<text font-family="Times,serif" font-size="10.00" text-anchor="start" x="26" y="-296">username:</text>
<text font-family="Times,serif" font-size="10.00" text-anchor="start" x="112" y="-296">narendramodi</text>
<text font-family="Times,serif" font-size="10.00" text-anchor="start" x="26" y="-283">verified:</text>
<text font-family="Times,serif" font-size="10.00" text-anchor="start" x="112" y="-283">True</text>
<text font-family="Times,serif" font-size="10.00" text-anchor="start" x="26" y="-270">followers_count:</text>
<text font-family="Times,serif" font-size="10.00" text-anchor="start" x="112" y="-270">82431058</text>
<text font-family="Times,serif" font-size="10.00" text-anchor="start" x="26" y="-257">following_count:</text>
<text font-family="Times,serif" font-size="10.00" text-anchor="start" x="112" y="-257">2448</text>
</g>
<!-- &#45;attrs3&#45;&gt;http://twitter.com/author_props_18839785 -->
<g class="edge" id="edge4">
<title>-attrs3-&gt;http://twitter.com/author_props_18839785</title>
<path d="M150.8,-336.23C151.32,-348.77 151.86,-361.75 152.28,-371.7" fill="none" stroke="gray" stroke-dasharray="5,2"/>
</g>
<!-- http://twitter.com/1366237793727381504 -->
<g class="node" id="node9">
<title>http://twitter.com/1366237793727381504</title>
<g id="a_node9">
<a xlink:actuate="onRequest" xlink:href="http://twitter.com/1366237793727381504" xlink:show="replace" xlink:title="1366237793727381504" xlink:type="simple" xmlns:xlink="http://www.w3.org/1999/xlink">
<ellipse cx="373" cy="-181" fill="#fffc87" rx="122.38" ry="18" stroke="#808080"/>
<text font-family="Times,serif" font-size="14.00" text-anchor="middle" x="373" y="-177.3">1366237793727381504</text>
</a>
</g>
</g>
<!-- http://twitter.com/1366237793727381504&#45;&gt;http://twitter.com/react_REPLY_1366237793727381504 -->
<g class="edge" id="edge13">
<title>http://twitter.com/1366237793727381504-&gt;http://twitter.com/react_REPLY_1366237793727381504</title>
<path d="M420.85,-197.62C479.87,-216.88 580.32,-249.66 645.14,-270.81" fill="none" stroke="black"/>
<polygon fill="black" points="644.24,-274.2 654.84,-273.98 646.41,-267.55 644.24,-274.2" stroke="black"/>
<text font-family="Times,serif" font-size="8.00" text-anchor="middle" x="432.01" y="-185.69">gen</text>
</g>
<!-- &#45;attrs4 -->
<g class="node" id="node10">
<title>-attrs4</title>
<polygon fill="none" points="515.5,-114 224.5,-114 224.5,-39 521.5,-39 521.5,-108 515.5,-114" stroke="gray"/>
<polyline fill="none" points="515.5,-114 515.5,-108 " stroke="gray"/>
<polyline fill="none" points="521.5,-108 515.5,-108 " stroke="gray"/>
<text font-family="Times,serif" font-size="10.00" text-anchor="start" x="235" y="-99.5">type:</text>
<text font-family="Times,serif" font-size="10.00" text-anchor="start" x="345" y="-99.5">GROUP OF REACTION TWEETS</text>
<text font-family="Times,serif" font-size="10.00" text-anchor="start" x="235" y="-86.5">time_interval:</text>
<text font-family="Times,serif" font-size="10.00" text-anchor="start" x="345" y="-86.5">15' - 1h</text>
<text font-family="Times,serif" font-size="10.00" text-anchor="start" x="235" y="-73.5">number_of_replies:</text>
<text font-family="Times,serif" font-size="10.00" text-anchor="start" x="345" y="-73.5">4342</text>
<text font-family="Times,serif" font-size="10.00" text-anchor="start" x="235" y="-60.5">number_of_quotes:</text>
<text font-family="Times,serif" font-size="10.00" text-anchor="start" x="345" y="-60.5">2435</text>
<text font-family="Times,serif" font-size="10.00" text-anchor="start" x="235" y="-47.5">number_of_retweets:</text>
<text font-family="Times,serif" font-size="10.00" text-anchor="start" x="345" y="-47.5">54363</text>
</g>
<!-- &#45;attrs4&#45;&gt;http://twitter.com/1366237793727381504 -->
<g class="edge" id="edge5">
<title>-attrs4-&gt;http://twitter.com/1366237793727381504</title>
<path d="M373,-114.22C373,-130.76 373,-149.51 373,-162.74" fill="none" stroke="gray" stroke-dasharray="5,2"/>
</g>
<!-- &#45;attrs5 -->
<g class="node" id="node12">
<title>-attrs5</title>
<polygon fill="none" points="1165.5,-408 1038.5,-408 1038.5,-372 1171.5,-372 1171.5,-402 1165.5,-408" stroke="gray"/>
<polyline fill="none" points="1165.5,-408 1165.5,-402 " stroke="gray"/>
<polyline fill="none" points="1171.5,-402 1165.5,-402 " stroke="gray"/>
<text font-family="Times,serif" font-size="10.00" text-anchor="start" x="1049" y="-394">type:</text>
<text font-family="Times,serif" font-size="10.00" text-anchor="start" x="1083" y="-394">prov:Person</text>
<text font-family="Times,serif" font-size="10.00" text-anchor="start" x="1049" y="-381">name:</text>
<text font-family="Times,serif" font-size="10.00" text-anchor="start" x="1083" y="-381">Narendra Modi</text>
</g>
<!-- &#45;attrs5&#45;&gt;http://twitter.com/ORIGINAL_TWEET_author_18839785 -->
<g class="edge" id="edge6">
<title>-attrs5-&gt;http://twitter.com/ORIGINAL_TWEET_author_18839785</title>
<path d="M1057.06,-408.03C1023.01,-420.13 977.89,-436.17 946.25,-447.41" fill="none" stroke="gray" stroke-dasharray="5,2"/>
</g>
<!-- &#45;attrs6 -->
<g class="node" id="node14">
<title>-attrs6</title>
<polygon fill="none" points="540,-310 300,-310 300,-274 546,-274 546,-304 540,-310" stroke="gray"/>
<polyline fill="none" points="540,-310 540,-304 " stroke="gray"/>
<polyline fill="none" points="546,-304 540,-304 " stroke="gray"/>
<text font-family="Times,serif" font-size="10.00" text-anchor="start" x="310" y="-296">type:</text>
<text font-family="Times,serif" font-size="10.00" text-anchor="start" x="458" y="-296">Group of Users</text>
<text font-family="Times,serif" font-size="10.00" text-anchor="start" x="310" y="-283">number_of_distinct_authors:</text>
<text font-family="Times,serif" font-size="10.00" text-anchor="start" x="458" y="-283">5266</text>
</g>
<!-- &#45;attrs6&#45;&gt;http://twitter.com/REPLY_author_755672251832217602 -->
<g class="edge" id="edge7">
<title>-attrs6-&gt;http://twitter.com/REPLY_author_755672251832217602</title>
<path d="M443.92,-310.16C466.66,-328.82 502.54,-358.27 523.42,-375.4" fill="none" stroke="gray" stroke-dasharray="5,2"/>
</g>
</g>
</svg>
