<?xml version="1.0" encoding="UTF-8"?><svg xmlns="http://www.w3.org/2000/svg" xmlns:xlink="http://www.w3.org/1999/xlink" contentScriptType="application/ecmascript" contentStyleType="text/css" height="530pt" preserveAspectRatio="xMidYMid meet" version="1.1" viewBox="0 0 1700 500" width="1134pt" zoomAndPan="magnify">
<g class="graph" id="graph0" transform="scale(1 1) rotate(0) translate(4 526)">
<title>PROV</title>
<polygon fill="white" points="-4,4 -4,-526 1130,-526 1130,4 -4,4" stroke="transparent"/>
<g class="cluster" id="clust1">
<title>clusterurn:uuid:f64825ed-582d-4936-83b8-dc5e8515d886</title>
<g id="a_clust1">
<a xlink:actuate="onRequest" xlink:href="urn:uuid:f64825ed-582d-4936-83b8-dc5e8515d886" xlink:show="replace" xlink:title="f64825ed-582d-4936-83b8-dc5e8515d886" xlink:type="simple" xmlns:xlink="http://www.w3.org/1999/xlink">
<polygon fill="none" points="8,-8 8,-514 1118,-514 1118,-8 8,-8" stroke="black"/>
<text font-family="Times,serif" font-size="14.00" text-anchor="middle" x="563" y="-15.8">f64825ed-582d-4936-83b8-dc5e8515d886</text>
</a>
</g>
</g>
<!-- http://twitter.com/post_1366200664402006016 -->
<g class="node" id="node1">
<title>http://twitter.com/post_1366200664402006016</title>
<g id="a_node1">
<a xlink:actuate="onRequest" xlink:href="http://twitter.com/post_1366200664402006016" xlink:show="replace" xlink:title="post_1366200664402006016" xlink:type="simple" xmlns:xlink="http://www.w3.org/1999/xlink">
<polygon fill="#9fb1fc" points="958.5,-434 733.5,-434 733.5,-398 958.5,-398 958.5,-434" stroke="#0000ff"/>
<text font-family="Times,serif" font-size="14.00" text-anchor="middle" x="846" y="-412.3">post_1366200664402006016</text>
</a>
</g>
</g>
<!-- http://twitter.com/ORIGINAL_TWEET_author_18839785 -->
<g class="node" id="node11">
<title>http://twitter.com/ORIGINAL_TWEET_author_18839785</title>
<g id="a_node11">
<a xlink:actuate="onRequest" xlink:href="http://twitter.com/ORIGINAL_TWEET_author_18839785" xlink:show="replace" xlink:title="ORIGINAL_TWEET_author_18839785" xlink:type="simple" xmlns:xlink="http://www.w3.org/1999/xlink">
<polygon fill="#fdb266" points="1074.32,-493.56 846,-506 617.68,-493.56 617.9,-473.44 1074.1,-473.44 1074.32,-493.56" stroke="black"/>
<text font-family="Times,serif" font-size="14.00" text-anchor="middle" x="846" y="-484.3">ORIGINAL_TWEET_author_18839785</text>
</a>
</g>
</g>
<!-- http://twitter.com/post_1366200664402006016&#45;&gt;http://twitter.com/ORIGINAL_TWEET_author_18839785 -->
<g class="edge" id="edge9">
<title>http://twitter.com/post_1366200664402006016-&gt;http://twitter.com/ORIGINAL_TWEET_author_18839785</title>
<path d="M846,-434.3C846,-443.01 846,-453.7 846,-463.17" fill="none" stroke="black"/>
<polygon fill="black" points="842.5,-463.18 846,-473.18 849.5,-463.18 842.5,-463.18" stroke="black"/>
<text font-family="Times,serif" font-size="8.00" text-anchor="middle" x="858.99" y="-439.9">assoc</text>
</g>
<!-- &#45;attrs0 -->
<g class="node" id="node2">
<title>-attrs0</title>
<polygon fill="none" points="819.5,-336 738.5,-336 738.5,-300 825.5,-300 825.5,-330 819.5,-336" stroke="gray"/>
<polyline fill="none" points="819.5,-336 819.5,-330 " stroke="gray"/>
<polyline fill="none" points="825.5,-330 819.5,-330 " stroke="gray"/>
<text font-family="Times,serif" font-size="10.00" text-anchor="start" x="749" y="-315">type:</text>
<text font-family="Times,serif" font-size="10.00" text-anchor="start" x="777" y="-315">publish</text>
</g>
<!-- &#45;attrs0&#45;&gt;http://twitter.com/post_1366200664402006016 -->
<g class="edge" id="edge1">
<title>-attrs0-&gt;http://twitter.com/post_1366200664402006016</title>
<path d="M793.44,-336.16C805.09,-353.64 823.04,-380.57 834.66,-397.99" fill="none" stroke="gray" stroke-dasharray="5,2"/>
</g>
<!-- http://twitter.com/reacts_for_2h_3h -->
<g class="node" id="node3">
<title>http://twitter.com/reacts_for_2h_3h</title>
<g id="a_node3">
<a xlink:actuate="onRequest" xlink:href="http://twitter.com/reacts_for_2h_3h" xlink:show="replace" xlink:title="reacts_for_2h_3h" xlink:type="simple" xmlns:xlink="http://www.w3.org/1999/xlink">
<polygon fill="#9fb1fc" points="720.5,-336 583.5,-336 583.5,-300 720.5,-300 720.5,-336" stroke="#0000ff"/>
<text font-family="Times,serif" font-size="14.00" text-anchor="middle" x="652" y="-314.3">reacts_for_2h_3h</text>
</a>
</g>
</g>
<!-- http://twitter.com/reacts_for_2h_3h&#45;&gt;http://twitter.com/post_1366200664402006016 -->
<g class="edge" id="edge11">
<title>http://twitter.com/reacts_for_2h_3h-&gt;http://twitter.com/post_1366200664402006016</title>
<path d="M681.72,-336.07C696.16,-344.19 713.84,-353.87 730,-362 751.87,-373 776.49,-384.39 797.4,-393.77" fill="none" stroke="black"/>
<polygon fill="black" points="796.16,-397.06 806.72,-397.94 799.02,-390.66 796.16,-397.06" stroke="black"/>
<text font-family="Times,serif" font-size="8.00" text-anchor="middle" x="694.61" y="-326.51">inf</text>
</g>
<!-- http://twitter.com/reactions_authors_for_2h_3h -->
<g class="node" id="node13">
<title>http://twitter.com/reactions_authors_for_2h_3h</title>
<g id="a_node13">
<a xlink:actuate="onRequest" xlink:href="http://twitter.com/reactions_authors_for_2h_3h" xlink:show="replace" xlink:title="reactions_authors_for_2h_3h" xlink:type="simple" xmlns:xlink="http://www.w3.org/1999/xlink">
<polygon fill="#fdb266" points="715.59,-421.56 538,-434 360.41,-421.56 360.57,-401.44 715.43,-401.44 715.59,-421.56" stroke="black"/>
<text font-family="Times,serif" font-size="14.00" text-anchor="middle" x="538" y="-412.3">reactions_authors_for_2h_3h</text>
</a>
</g>
</g>
<!-- http://twitter.com/reacts_for_2h_3h&#45;&gt;http://twitter.com/reactions_authors_for_2h_3h -->
<g class="edge" id="edge12">
<title>http://twitter.com/reacts_for_2h_3h-&gt;http://twitter.com/reactions_authors_for_2h_3h</title>
<path d="M631.62,-336.16C612.06,-352.64 582.52,-377.51 561.86,-394.9" fill="none" stroke="black"/>
<polygon fill="black" points="559.55,-392.28 554.15,-401.4 564.06,-397.63 559.55,-392.28" stroke="black"/>
<text font-family="Times,serif" font-size="8.00" text-anchor="middle" x="634.25" y="-349.03">assoc</text>
</g>
<!-- &#45;attrs1 -->
<g class="node" id="node4">
<title>-attrs1</title>
<polygon fill="none" points="486.5,-225 405.5,-225 405.5,-189 492.5,-189 492.5,-219 486.5,-225" stroke="gray"/>
<polyline fill="none" points="486.5,-225 486.5,-219 " stroke="gray"/>
<polyline fill="none" points="492.5,-219 486.5,-219 " stroke="gray"/>
<text font-family="Times,serif" font-size="10.00" text-anchor="start" x="416" y="-204">type:</text>
<text font-family="Times,serif" font-size="10.00" text-anchor="start" x="444" y="-204">publish</text>
</g>
<!-- &#45;attrs1&#45;&gt;http://twitter.com/reacts_for_2h_3h -->
<g class="edge" id="edge2">
<title>-attrs1-&gt;http://twitter.com/reacts_for_2h_3h</title>
<path d="M478.55,-225.12C486.14,-229.41 494.34,-233.95 502,-238 533.98,-254.92 542.98,-257.18 575,-274 590.72,-282.26 608.01,-291.86 622.21,-299.9" fill="none" stroke="gray" stroke-dasharray="5,2"/>
</g>
<!-- http://twitter.com/1366200664402006016 -->
<g class="node" id="node5">
<title>http://twitter.com/1366200664402006016</title>
<g id="a_node5">
<a xlink:actuate="onRequest" xlink:href="http://twitter.com/1366200664402006016" xlink:show="replace" xlink:title="1366200664402006016" xlink:type="simple" xmlns:xlink="http://www.w3.org/1999/xlink">
<ellipse cx="966" cy="-318" fill="#fffc87" rx="122.38" ry="18" stroke="#808080"/>
<text font-family="Times,serif" font-size="14.00" text-anchor="middle" x="966" y="-314.3">1366200664402006016</text>
</a>
</g>
</g>
<!-- http://twitter.com/1366200664402006016&#45;&gt;http://twitter.com/post_1366200664402006016 -->
<g class="edge" id="edge8">
<title>http://twitter.com/1366200664402006016-&gt;http://twitter.com/post_1366200664402006016</title>
<path d="M944.82,-335.94C925.49,-351.41 896.74,-374.41 875.23,-391.62" fill="none" stroke="black"/>
<polygon fill="black" points="872.99,-388.92 867.37,-397.9 877.36,-394.39 872.99,-388.92" stroke="black"/>
<text font-family="Times,serif" font-size="8.00" text-anchor="middle" x="947.08" y="-348.87">gen</text>
</g>
<!-- &#45;attrs2 -->
<g class="node" id="node6">
<title>-attrs2</title>
<polygon fill="none" points="1103.5,-238 510.5,-238 510.5,-176 1109.5,-176 1109.5,-232 1103.5,-238" stroke="gray"/>
<polyline fill="none" points="1103.5,-238 1103.5,-232 " stroke="gray"/>
<polyline fill="none" points="1109.5,-232 1103.5,-232 " stroke="gray"/>
<text font-family="Times,serif" font-size="10.00" text-anchor="start" x="521" y="-224">type:</text>
<text font-family="Times,serif" font-size="10.00" text-anchor="start" x="566" y="-224">ORIGINAL TWEET</text>
<text font-family="Times,serif" font-size="10.00" text-anchor="start" x="521" y="-211">value:</text>
<text font-family="Times,serif" font-size="10.00" text-anchor="start" x="566" y="-211">Took my first dose of the COVID-19 vaccine at AIIMS. Remarkable how our doctors and scientists have ...</text>
<text font-family="Times,serif" font-size="10.00" text-anchor="start" x="521" y="-198">created:</text>
<text font-family="Times,serif" font-size="10.00" text-anchor="start" x="566" y="-198">2021-03-01 01:36:35+00:00</text>
<text font-family="Times,serif" font-size="10.00" text-anchor="start" x="521" y="-185">location:</text>
<text font-family="Times,serif" font-size="10.00" text-anchor="start" x="566" y="-185">India</text>
</g>
<!-- &#45;attrs2&#45;&gt;http://twitter.com/1366200664402006016 -->
<g class="edge" id="edge3">
<title>-attrs2-&gt;http://twitter.com/1366200664402006016</title>
<path d="M853.04,-238.07C881.72,-258.11 918.35,-283.71 941.99,-300.22" fill="none" stroke="gray" stroke-dasharray="5,2"/>
</g>
<!-- http://twitter.com/original_author_props_18839785 -->
<g class="node" id="node7">
<title>http://twitter.com/original_author_props_18839785</title>
<g id="a_node7">
<a xlink:actuate="onRequest" xlink:href="http://twitter.com/original_author_props_18839785" xlink:show="replace" xlink:title="original_author_props_18839785" xlink:type="simple" xmlns:xlink="http://www.w3.org/1999/xlink">
<ellipse cx="179" cy="-416" fill="#fffc87" rx="163.27" ry="18" stroke="#808080"/>
<text font-family="Times,serif" font-size="14.00" text-anchor="middle" x="179" y="-412.3">original_author_props_18839785</text>
</a>
</g>
</g>
<!-- http://twitter.com/original_author_props_18839785&#45;&gt;http://twitter.com/ORIGINAL_TWEET_author_18839785 -->
<g class="edge" id="edge10">
<title>http://twitter.com/original_author_props_18839785-&gt;http://twitter.com/ORIGINAL_TWEET_author_18839785</title>
<path d="M292.9,-428.95C407.26,-440.96 583.64,-459.47 706.37,-472.35" fill="none" stroke="black"/>
<polygon fill="black" points="706.28,-475.86 716.59,-473.42 707.01,-468.89 706.28,-475.86" stroke="black"/>
<text font-family="Times,serif" font-size="8.00" text-anchor="middle" x="301.72" y="-414.92">att</text>
</g>
<!-- &#45;attrs3 -->
<g class="node" id="node8">
<title>-attrs3</title>
<polygon fill="none" points="276,-362 16,-362 16,-274 282,-274 282,-356 276,-362" stroke="gray"/>
<polyline fill="none" points="276,-362 276,-356 " stroke="gray"/>
<polyline fill="none" points="282,-356 276,-356 " stroke="gray"/>
<text font-family="Times,serif" font-size="10.00" text-anchor="start" x="26" y="-348">type:</text>
<text font-family="Times,serif" font-size="10.00" text-anchor="start" x="112" y="-348">ORIGINAL USER PROPERTIES</text>
<text font-family="Times,serif" font-size="10.00" text-anchor="start" x="26" y="-335">credible:</text>
<text font-family="Times,serif" font-size="10.00" text-anchor="start" x="112" y="-335">1</text>
<text font-family="Times,serif" font-size="10.00" text-anchor="start" x="26" y="-322">username:</text>
<text font-family="Times,serif" font-size="10.00" text-anchor="start" x="112" y="-322">narendramodi</text>
<text font-family="Times,serif" font-size="10.00" text-anchor="start" x="26" y="-309">verified:</text>
<text font-family="Times,serif" font-size="10.00" text-anchor="start" x="112" y="-309">True</text>
<text font-family="Times,serif" font-size="10.00" text-anchor="start" x="26" y="-296">followers_count:</text>
<text font-family="Times,serif" font-size="10.00" text-anchor="start" x="112" y="-296">82431058</text>
<text font-family="Times,serif" font-size="10.00" text-anchor="start" x="26" y="-283">following_count:</text>
<text font-family="Times,serif" font-size="10.00" text-anchor="start" x="112" y="-283">2448</text>
</g>
<!-- &#45;attrs3&#45;&gt;http://twitter.com/original_author_props_18839785 -->
<g class="edge" id="edge4">
<title>-attrs3-&gt;http://twitter.com/original_author_props_18839785</title>
<path d="M162.51,-362.23C166.43,-374.77 170.48,-387.75 173.59,-397.7" fill="none" stroke="gray" stroke-dasharray="5,2"/>
</g>
<!-- http://twitter.com/reactions_for_2h_3h -->
<g class="node" id="node9">
<title>http://twitter.com/reactions_for_2h_3h</title>
<g id="a_node9">
<a xlink:actuate="onRequest" xlink:href="http://twitter.com/reactions_for_2h_3h" xlink:show="replace" xlink:title="reactions_for_2h_3h" xlink:type="simple" xmlns:xlink="http://www.w3.org/1999/xlink">
<ellipse cx="284" cy="-207" fill="#fffc87" rx="103.18" ry="18" stroke="#808080"/>
<text font-family="Times,serif" font-size="14.00" text-anchor="middle" x="284" y="-203.3">reactions_for_2h_3h</text>
</a>
</g>
</g>
<!-- http://twitter.com/reactions_for_2h_3h&#45;&gt;http://twitter.com/reacts_for_2h_3h -->
<g class="edge" id="edge13">
<title>http://twitter.com/reactions_for_2h_3h-&gt;http://twitter.com/reacts_for_2h_3h</title>
<path d="M336.16,-222.55C355.24,-227.68 377.04,-233.34 397,-238 475.6,-256.36 499.3,-245.99 575,-274 589.58,-279.4 604.72,-287.28 617.66,-294.83" fill="none" stroke="black"/>
<polygon fill="black" points="615.87,-297.83 626.25,-299.96 619.46,-291.82 615.87,-297.83" stroke="black"/>
<text font-family="Times,serif" font-size="8.00" text-anchor="middle" x="346.76" y="-210.04">gen</text>
</g>
<!-- &#45;attrs4 -->
<g class="node" id="node10">
<title>-attrs4</title>
<polygon fill="none" points="461.5,-140 100.5,-140 100.5,-39 467.5,-39 467.5,-134 461.5,-140" stroke="gray"/>
<polyline fill="none" points="461.5,-140 461.5,-134 " stroke="gray"/>
<polyline fill="none" points="467.5,-134 461.5,-134 " stroke="gray"/>
<text font-family="Times,serif" font-size="10.00" text-anchor="start" x="111" y="-125.5">type:</text>
<text font-family="Times,serif" font-size="10.00" text-anchor="start" x="291" y="-125.5">GROUP OF REACTION TWEETS</text>
<text font-family="Times,serif" font-size="10.00" text-anchor="start" x="111" y="-112.5">time_interval:</text>
<text font-family="Times,serif" font-size="10.00" text-anchor="start" x="291" y="-112.5">2h - 3h</text>
<text font-family="Times,serif" font-size="10.00" text-anchor="start" x="111" y="-99.5">number_of_reactions:</text>
<text font-family="Times,serif" font-size="10.00" text-anchor="start" x="291" y="-99.5">5557</text>
<text font-family="Times,serif" font-size="10.00" text-anchor="start" x="111" y="-86.5">percentage_out_of_total_reactions:</text>
<text font-family="Times,serif" font-size="10.00" text-anchor="start" x="291" y="-86.5">13.95%</text>
<text font-family="Times,serif" font-size="10.00" text-anchor="start" x="111" y="-73.5">number_of_replies:</text>
<text font-family="Times,serif" font-size="10.00" text-anchor="start" x="291" y="-73.5">97</text>
<text font-family="Times,serif" font-size="10.00" text-anchor="start" x="111" y="-60.5">number_of_quotes:</text>
<text font-family="Times,serif" font-size="10.00" text-anchor="start" x="291" y="-60.5">265</text>
<text font-family="Times,serif" font-size="10.00" text-anchor="start" x="111" y="-47.5">number_of_retweets:</text>
<text font-family="Times,serif" font-size="10.00" text-anchor="start" x="291" y="-47.5">5195</text>
</g>
<!-- &#45;attrs4&#45;&gt;http://twitter.com/reactions_for_2h_3h -->
<g class="edge" id="edge5">
<title>-attrs4-&gt;http://twitter.com/reactions_for_2h_3h</title>
<path d="M284,-140.15C284,-157.52 284,-175.88 284,-188.79" fill="none" stroke="gray" stroke-dasharray="5,2"/>
</g>
<!-- &#45;attrs5 -->
<g class="node" id="node12">
<title>-attrs5</title>
<polygon fill="none" points="1103.5,-434 976.5,-434 976.5,-398 1109.5,-398 1109.5,-428 1103.5,-434" stroke="gray"/>
<polyline fill="none" points="1103.5,-434 1103.5,-428 " stroke="gray"/>
<polyline fill="none" points="1109.5,-428 1103.5,-428 " stroke="gray"/>
<text font-family="Times,serif" font-size="10.00" text-anchor="start" x="987" y="-420">type:</text>
<text font-family="Times,serif" font-size="10.00" text-anchor="start" x="1021" y="-420">prov:Person</text>
<text font-family="Times,serif" font-size="10.00" text-anchor="start" x="987" y="-407">name:</text>
<text font-family="Times,serif" font-size="10.00" text-anchor="start" x="1021" y="-407">Narendra Modi</text>
</g>
<!-- &#45;attrs5&#45;&gt;http://twitter.com/ORIGINAL_TWEET_author_18839785 -->
<g class="edge" id="edge6">
<title>-attrs5-&gt;http://twitter.com/ORIGINAL_TWEET_author_18839785</title>
<path d="M995.06,-434.03C961.01,-446.13 915.89,-462.17 884.25,-473.41" fill="none" stroke="gray" stroke-dasharray="5,2"/>
</g>
<!-- &#45;attrs6 -->
<g class="node" id="node14">
<title>-attrs6</title>
<polygon fill="none" points="559.5,-336 300.5,-336 300.5,-300 565.5,-300 565.5,-330 559.5,-336" stroke="gray"/>
<polyline fill="none" points="559.5,-336 559.5,-330 " stroke="gray"/>
<polyline fill="none" points="565.5,-330 559.5,-330 " stroke="gray"/>
<text font-family="Times,serif" font-size="10.00" text-anchor="start" x="311" y="-322">type:</text>
<text font-family="Times,serif" font-size="10.00" text-anchor="start" x="459" y="-322">GROUP OF USERS</text>
<text font-family="Times,serif" font-size="10.00" text-anchor="start" x="311" y="-309">number_of_distinct_authors:</text>
<text font-family="Times,serif" font-size="10.00" text-anchor="start" x="459" y="-309">5522</text>
</g>
<!-- &#45;attrs6&#45;&gt;http://twitter.com/reactions_authors_for_2h_3h -->
<g class="edge" id="edge7">
<title>-attrs6-&gt;http://twitter.com/reactions_authors_for_2h_3h</title>
<path d="M451.77,-336.16C472.18,-354.82 504.39,-384.27 523.12,-401.4" fill="none" stroke="gray" stroke-dasharray="5,2"/>
</g>
</g>
</svg>
