<?xml version="1.0" encoding="UTF-8"?><svg xmlns="http://www.w3.org/2000/svg" xmlns:xlink="http://www.w3.org/1999/xlink" contentScriptType="application/ecmascript" contentStyleType="text/css" height="525pt" preserveAspectRatio="xMidYMid meet" version="1.1" viewBox="0 0 1700 500" width="1152pt" zoomAndPan="magnify">
<g class="graph" id="graph0" transform="scale(1.01 1.01) rotate(0) translate(4 526)">
<title>PROV</title>
<polygon fill="white" points="-4,4 -4,-526 1159,-526 1159,4 -4,4" stroke="transparent"/>
<g class="cluster" id="clust1">
<title>clusterurn:uuid:90c9edfe-210a-4370-b96d-d522d73f695d</title>
<g id="a_clust1">
<a xlink:actuate="onRequest" xlink:href="urn:uuid:90c9edfe-210a-4370-b96d-d522d73f695d" xlink:show="replace" xlink:title="90c9edfe-210a-4370-b96d-d522d73f695d" xlink:type="simple" xmlns:xlink="http://www.w3.org/1999/xlink">
<polygon fill="none" points="8,-8 8,-514 1147,-514 1147,-8 8,-8" stroke="black"/>
<text font-family="Times,serif" font-size="14.00" text-anchor="middle" x="577.5" y="-15.8">90c9edfe-210a-4370-b96d-d522d73f695d</text>
</a>
</g>
</g>
<!-- http://twitter.com/post_1366200664402006016 -->
<g class="node" id="node1">
<title>http://twitter.com/post_1366200664402006016</title>
<g id="a_node1">
<a xlink:actuate="onRequest" xlink:href="http://twitter.com/post_1366200664402006016" xlink:show="replace" xlink:title="post_1366200664402006016" xlink:type="simple" xmlns:xlink="http://www.w3.org/1999/xlink">
<polygon fill="#9fb1fc" points="987.5,-434 762.5,-434 762.5,-398 987.5,-398 987.5,-434" stroke="#0000ff"/>
<text font-family="Times,serif" font-size="14.00" text-anchor="middle" x="875" y="-412.3">post_1366200664402006016</text>
</a>
</g>
</g>
<!-- http://twitter.com/ORIGINAL_TWEET_author_18839785 -->
<g class="node" id="node11">
<title>http://twitter.com/ORIGINAL_TWEET_author_18839785</title>
<g id="a_node11">
<a xlink:actuate="onRequest" xlink:href="http://twitter.com/ORIGINAL_TWEET_author_18839785" xlink:show="replace" xlink:title="ORIGINAL_TWEET_author_18839785" xlink:type="simple" xmlns:xlink="http://www.w3.org/1999/xlink">
<polygon fill="#fdb266" points="1103.32,-493.56 875,-506 646.68,-493.56 646.9,-473.44 1103.1,-473.44 1103.32,-493.56" stroke="black"/>
<text font-family="Times,serif" font-size="14.00" text-anchor="middle" x="875" y="-484.3">ORIGINAL_TWEET_author_18839785</text>
</a>
</g>
</g>
<!-- http://twitter.com/post_1366200664402006016&#45;&gt;http://twitter.com/ORIGINAL_TWEET_author_18839785 -->
<g class="edge" id="edge9">
<title>http://twitter.com/post_1366200664402006016-&gt;http://twitter.com/ORIGINAL_TWEET_author_18839785</title>
<path d="M875,-434.3C875,-443.01 875,-453.7 875,-463.17" fill="none" stroke="black"/>
<polygon fill="black" points="871.5,-463.18 875,-473.18 878.5,-463.18 871.5,-463.18" stroke="black"/>
<text font-family="Times,serif" font-size="8.00" text-anchor="middle" x="887.99" y="-439.9">assoc</text>
</g>
<!-- &#45;attrs0 -->
<g class="node" id="node2">
<title>-attrs0</title>
<polygon fill="none" points="837.5,-336 756.5,-336 756.5,-300 843.5,-300 843.5,-330 837.5,-336" stroke="gray"/>
<polyline fill="none" points="837.5,-336 837.5,-330 " stroke="gray"/>
<polyline fill="none" points="843.5,-330 837.5,-330 " stroke="gray"/>
<text font-family="Times,serif" font-size="10.00" text-anchor="start" x="767" y="-315">type:</text>
<text font-family="Times,serif" font-size="10.00" text-anchor="start" x="795" y="-315">publish</text>
</g>
<!-- &#45;attrs0&#45;&gt;http://twitter.com/post_1366200664402006016 -->
<g class="edge" id="edge1">
<title>-attrs0-&gt;http://twitter.com/post_1366200664402006016</title>
<path d="M813.41,-336.16C827.06,-353.64 848.1,-380.57 861.71,-397.99" fill="none" stroke="gray" stroke-dasharray="5,2"/>
</g>
<!-- http://twitter.com/reacts_for_12h_24h -->
<g class="node" id="node3">
<title>http://twitter.com/reacts_for_12h_24h</title>
<g id="a_node3">
<a xlink:actuate="onRequest" xlink:href="http://twitter.com/reacts_for_12h_24h" xlink:show="replace" xlink:title="reacts_for_12h_24h" xlink:type="simple" xmlns:xlink="http://www.w3.org/1999/xlink">
<polygon fill="#9fb1fc" points="738.5,-336 583.5,-336 583.5,-300 738.5,-300 738.5,-336" stroke="#0000ff"/>
<text font-family="Times,serif" font-size="14.00" text-anchor="middle" x="661" y="-314.3">reacts_for_12h_24h</text>
</a>
</g>
</g>
<!-- http://twitter.com/reacts_for_12h_24h&#45;&gt;http://twitter.com/post_1366200664402006016 -->
<g class="edge" id="edge11">
<title>http://twitter.com/reacts_for_12h_24h-&gt;http://twitter.com/post_1366200664402006016</title>
<path d="M694.23,-336.04C710.34,-344.15 730.06,-353.83 748,-362 772.37,-373.09 799.74,-384.63 822.81,-394.1" fill="none" stroke="black"/>
<polygon fill="black" points="821.5,-397.34 832.08,-397.88 824.15,-390.86 821.5,-397.34" stroke="black"/>
<text font-family="Times,serif" font-size="8.00" text-anchor="middle" x="706.75" y="-325.89">inf</text>
</g>
<!-- http://twitter.com/reactions_authors_for_12h_24h -->
<g class="node" id="node13">
<title>http://twitter.com/reactions_authors_for_12h_24h</title>
<g id="a_node13">
<a xlink:actuate="onRequest" xlink:href="http://twitter.com/reactions_authors_for_12h_24h" xlink:show="replace" xlink:title="reactions_authors_for_12h_24h" xlink:type="simple" xmlns:xlink="http://www.w3.org/1999/xlink">
<polygon fill="#fdb266" points="744.01,-421.56 552,-434 359.99,-421.56 360.17,-401.44 743.83,-401.44 744.01,-421.56" stroke="black"/>
<text font-family="Times,serif" font-size="14.00" text-anchor="middle" x="552" y="-412.3">reactions_authors_for_12h_24h</text>
</a>
</g>
</g>
<!-- http://twitter.com/reacts_for_12h_24h&#45;&gt;http://twitter.com/reactions_authors_for_12h_24h -->
<g class="edge" id="edge12">
<title>http://twitter.com/reacts_for_12h_24h-&gt;http://twitter.com/reactions_authors_for_12h_24h</title>
<path d="M641.51,-336.16C622.89,-352.56 594.81,-377.29 575.08,-394.67" fill="none" stroke="black"/>
<polygon fill="black" points="572.64,-392.16 567.45,-401.4 577.26,-397.41 572.64,-392.16" stroke="black"/>
<text font-family="Times,serif" font-size="8.00" text-anchor="middle" x="644.47" y="-348.97">assoc</text>
</g>
<!-- &#45;attrs1 -->
<g class="node" id="node4">
<title>-attrs1</title>
<polygon fill="none" points="515.5,-225 434.5,-225 434.5,-189 521.5,-189 521.5,-219 515.5,-225" stroke="gray"/>
<polyline fill="none" points="515.5,-225 515.5,-219 " stroke="gray"/>
<polyline fill="none" points="521.5,-219 515.5,-219 " stroke="gray"/>
<text font-family="Times,serif" font-size="10.00" text-anchor="start" x="445" y="-204">type:</text>
<text font-family="Times,serif" font-size="10.00" text-anchor="start" x="473" y="-204">publish</text>
</g>
<!-- &#45;attrs1&#45;&gt;http://twitter.com/reacts_for_12h_24h -->
<g class="edge" id="edge2">
<title>-attrs1-&gt;http://twitter.com/reacts_for_12h_24h</title>
<path d="M506.59,-225.03C540.87,-245.45 597.98,-279.46 632.31,-299.91" fill="none" stroke="gray" stroke-dasharray="5,2"/>
</g>
<!-- http://twitter.com/1366200664402006016 -->
<g class="node" id="node5">
<title>http://twitter.com/1366200664402006016</title>
<g id="a_node5">
<a xlink:actuate="onRequest" xlink:href="http://twitter.com/1366200664402006016" xlink:show="replace" xlink:title="1366200664402006016" xlink:type="simple" xmlns:xlink="http://www.w3.org/1999/xlink">
<ellipse cx="984" cy="-318" fill="#fffc87" rx="122.38" ry="18" stroke="#808080"/>
<text font-family="Times,serif" font-size="14.00" text-anchor="middle" x="984" y="-314.3">1366200664402006016</text>
</a>
</g>
</g>
<!-- http://twitter.com/1366200664402006016&#45;&gt;http://twitter.com/post_1366200664402006016 -->
<g class="edge" id="edge8">
<title>http://twitter.com/1366200664402006016-&gt;http://twitter.com/post_1366200664402006016</title>
<path d="M964.76,-335.94C947.36,-351.27 921.55,-374 902.06,-391.16" fill="none" stroke="black"/>
<polygon fill="black" points="899.6,-388.67 894.41,-397.9 904.23,-393.92 899.6,-388.67" stroke="black"/>
<text font-family="Times,serif" font-size="8.00" text-anchor="middle" x="967.72" y="-348.75">gen</text>
</g>
<!-- &#45;attrs2 -->
<g class="node" id="node6">
<title>-attrs2</title>
<polygon fill="none" points="1132.5,-238 539.5,-238 539.5,-176 1138.5,-176 1138.5,-232 1132.5,-238" stroke="gray"/>
<polyline fill="none" points="1132.5,-238 1132.5,-232 " stroke="gray"/>
<polyline fill="none" points="1138.5,-232 1132.5,-232 " stroke="gray"/>
<text font-family="Times,serif" font-size="10.00" text-anchor="start" x="550" y="-224">type:</text>
<text font-family="Times,serif" font-size="10.00" text-anchor="start" x="595" y="-224">ORIGINAL TWEET</text>
<text font-family="Times,serif" font-size="10.00" text-anchor="start" x="550" y="-211">value:</text>
<text font-family="Times,serif" font-size="10.00" text-anchor="start" x="595" y="-211">Took my first dose of the COVID-19 vaccine at AIIMS. Remarkable how our doctors and scientists have ...</text>
<text font-family="Times,serif" font-size="10.00" text-anchor="start" x="550" y="-198">created:</text>
<text font-family="Times,serif" font-size="10.00" text-anchor="start" x="595" y="-198">2021-03-01 01:36:35+00:00</text>
<text font-family="Times,serif" font-size="10.00" text-anchor="start" x="550" y="-185">location:</text>
<text font-family="Times,serif" font-size="10.00" text-anchor="start" x="595" y="-185">India</text>
</g>
<!-- &#45;attrs2&#45;&gt;http://twitter.com/1366200664402006016 -->
<g class="edge" id="edge3">
<title>-attrs2-&gt;http://twitter.com/1366200664402006016</title>
<path d="M879.01,-238.07C905.66,-258.11 939.71,-283.71 961.68,-300.22" fill="none" stroke="gray" stroke-dasharray="5,2"/>
</g>
<!-- http://twitter.com/original_author_props_18839785 -->
<g class="node" id="node7">
<title>http://twitter.com/original_author_props_18839785</title>
<g id="a_node7">
<a xlink:actuate="onRequest" xlink:href="http://twitter.com/original_author_props_18839785" xlink:show="replace" xlink:title="original_author_props_18839785" xlink:type="simple" xmlns:xlink="http://www.w3.org/1999/xlink">
<ellipse cx="179" cy="-416" fill="#fffc87" rx="163.27" ry="18" stroke="#808080"/>
<text font-family="Times,serif" font-size="14.00" text-anchor="middle" x="179" y="-412.3">original_author_props_18839785</text>
</a>
</g>
</g>
<!-- http://twitter.com/original_author_props_18839785&#45;&gt;http://twitter.com/ORIGINAL_TWEET_author_18839785 -->
<g class="edge" id="edge10">
<title>http://twitter.com/original_author_props_18839785-&gt;http://twitter.com/ORIGINAL_TWEET_author_18839785</title>
<path d="M295.1,-428.68C414.59,-440.69 601.03,-459.45 730.11,-472.43" fill="none" stroke="black"/>
<polygon fill="black" points="729.78,-475.91 740.08,-473.43 730.48,-468.95 729.78,-475.91" stroke="black"/>
<text font-family="Times,serif" font-size="8.00" text-anchor="middle" x="303.87" y="-414.6">att</text>
</g>
<!-- &#45;attrs3 -->
<g class="node" id="node8">
<title>-attrs3</title>
<polygon fill="none" points="276,-362 16,-362 16,-274 282,-274 282,-356 276,-362" stroke="gray"/>
<polyline fill="none" points="276,-362 276,-356 " stroke="gray"/>
<polyline fill="none" points="282,-356 276,-356 " stroke="gray"/>
<text font-family="Times,serif" font-size="10.00" text-anchor="start" x="26" y="-348">type:</text>
<text font-family="Times,serif" font-size="10.00" text-anchor="start" x="112" y="-348">ORIGINAL USER PROPERTIES</text>
<text font-family="Times,serif" font-size="10.00" text-anchor="start" x="26" y="-335">credible:</text>
<text font-family="Times,serif" font-size="10.00" text-anchor="start" x="112" y="-335">1</text>
<text font-family="Times,serif" font-size="10.00" text-anchor="start" x="26" y="-322">username:</text>
<text font-family="Times,serif" font-size="10.00" text-anchor="start" x="112" y="-322">narendramodi</text>
<text font-family="Times,serif" font-size="10.00" text-anchor="start" x="26" y="-309">verified:</text>
<text font-family="Times,serif" font-size="10.00" text-anchor="start" x="112" y="-309">True</text>
<text font-family="Times,serif" font-size="10.00" text-anchor="start" x="26" y="-296">followers_count:</text>
<text font-family="Times,serif" font-size="10.00" text-anchor="start" x="112" y="-296">82431058</text>
<text font-family="Times,serif" font-size="10.00" text-anchor="start" x="26" y="-283">following_count:</text>
<text font-family="Times,serif" font-size="10.00" text-anchor="start" x="112" y="-283">2448</text>
</g>
<!-- &#45;attrs3&#45;&gt;http://twitter.com/original_author_props_18839785 -->
<g class="edge" id="edge4">
<title>-attrs3-&gt;http://twitter.com/original_author_props_18839785</title>
<path d="M162.51,-362.23C166.43,-374.77 170.48,-387.75 173.59,-397.7" fill="none" stroke="gray" stroke-dasharray="5,2"/>
</g>
<!-- http://twitter.com/reactions_for_12h_24h -->
<g class="node" id="node9">
<title>http://twitter.com/reactions_for_12h_24h</title>
<g id="a_node9">
<a xlink:actuate="onRequest" xlink:href="http://twitter.com/reactions_for_12h_24h" xlink:show="replace" xlink:title="reactions_for_12h_24h" xlink:type="simple" xmlns:xlink="http://www.w3.org/1999/xlink">
<ellipse cx="301" cy="-207" fill="#fffc87" rx="115.08" ry="18" stroke="#808080"/>
<text font-family="Times,serif" font-size="14.00" text-anchor="middle" x="301" y="-203.3">reactions_for_12h_24h</text>
</a>
</g>
</g>
<!-- http://twitter.com/reactions_for_12h_24h&#45;&gt;http://twitter.com/reacts_for_12h_24h -->
<g class="edge" id="edge13">
<title>http://twitter.com/reactions_for_12h_24h-&gt;http://twitter.com/reacts_for_12h_24h</title>
<path d="M361.12,-222.44C441.38,-241.72 573.72,-273.53 575,-274 590.82,-279.78 607.53,-287.68 621.97,-295.13" fill="none" stroke="black"/>
<polygon fill="black" points="620.62,-298.38 631.1,-299.94 623.88,-292.19 620.62,-298.38" stroke="black"/>
<text font-family="Times,serif" font-size="8.00" text-anchor="middle" x="371.44" y="-209.66">gen</text>
</g>
<!-- &#45;attrs4 -->
<g class="node" id="node10">
<title>-attrs4</title>
<polygon fill="none" points="478.5,-140 117.5,-140 117.5,-39 484.5,-39 484.5,-134 478.5,-140" stroke="gray"/>
<polyline fill="none" points="478.5,-140 478.5,-134 " stroke="gray"/>
<polyline fill="none" points="484.5,-134 478.5,-134 " stroke="gray"/>
<text font-family="Times,serif" font-size="10.00" text-anchor="start" x="128" y="-125.5">type:</text>
<text font-family="Times,serif" font-size="10.00" text-anchor="start" x="308" y="-125.5">GROUP OF REACTION TWEETS</text>
<text font-family="Times,serif" font-size="10.00" text-anchor="start" x="128" y="-112.5">time_interval:</text>
<text font-family="Times,serif" font-size="10.00" text-anchor="start" x="308" y="-112.5">12h - 24h</text>
<text font-family="Times,serif" font-size="10.00" text-anchor="start" x="128" y="-99.5">number_of_reactions:</text>
<text font-family="Times,serif" font-size="10.00" text-anchor="start" x="308" y="-99.5">2974</text>
<text font-family="Times,serif" font-size="10.00" text-anchor="start" x="128" y="-86.5">percentage_out_of_total_reactions:</text>
<text font-family="Times,serif" font-size="10.00" text-anchor="start" x="308" y="-86.5">7.46%</text>
<text font-family="Times,serif" font-size="10.00" text-anchor="start" x="128" y="-73.5">number_of_replies:</text>
<text font-family="Times,serif" font-size="10.00" text-anchor="start" x="308" y="-73.5">68</text>
<text font-family="Times,serif" font-size="10.00" text-anchor="start" x="128" y="-60.5">number_of_quotes:</text>
<text font-family="Times,serif" font-size="10.00" text-anchor="start" x="308" y="-60.5">118</text>
<text font-family="Times,serif" font-size="10.00" text-anchor="start" x="128" y="-47.5">number_of_retweets:</text>
<text font-family="Times,serif" font-size="10.00" text-anchor="start" x="308" y="-47.5">2788</text>
</g>
<!-- &#45;attrs4&#45;&gt;http://twitter.com/reactions_for_12h_24h -->
<g class="edge" id="edge5">
<title>-attrs4-&gt;http://twitter.com/reactions_for_12h_24h</title>
<path d="M301,-140.15C301,-157.52 301,-175.88 301,-188.79" fill="none" stroke="gray" stroke-dasharray="5,2"/>
</g>
<!-- &#45;attrs5 -->
<g class="node" id="node12">
<title>-attrs5</title>
<polygon fill="none" points="1132.5,-434 1005.5,-434 1005.5,-398 1138.5,-398 1138.5,-428 1132.5,-434" stroke="gray"/>
<polyline fill="none" points="1132.5,-434 1132.5,-428 " stroke="gray"/>
<polyline fill="none" points="1138.5,-428 1132.5,-428 " stroke="gray"/>
<text font-family="Times,serif" font-size="10.00" text-anchor="start" x="1016" y="-420">type:</text>
<text font-family="Times,serif" font-size="10.00" text-anchor="start" x="1050" y="-420">prov:Person</text>
<text font-family="Times,serif" font-size="10.00" text-anchor="start" x="1016" y="-407">name:</text>
<text font-family="Times,serif" font-size="10.00" text-anchor="start" x="1050" y="-407">Narendra Modi</text>
</g>
<!-- &#45;attrs5&#45;&gt;http://twitter.com/ORIGINAL_TWEET_author_18839785 -->
<g class="edge" id="edge6">
<title>-attrs5-&gt;http://twitter.com/ORIGINAL_TWEET_author_18839785</title>
<path d="M1024.06,-434.03C990.01,-446.13 944.89,-462.17 913.25,-473.41" fill="none" stroke="gray" stroke-dasharray="5,2"/>
</g>
<!-- &#45;attrs6 -->
<g class="node" id="node14">
<title>-attrs6</title>
<polygon fill="none" points="559.5,-336 300.5,-336 300.5,-300 565.5,-300 565.5,-330 559.5,-336" stroke="gray"/>
<polyline fill="none" points="559.5,-336 559.5,-330 " stroke="gray"/>
<polyline fill="none" points="565.5,-330 559.5,-330 " stroke="gray"/>
<text font-family="Times,serif" font-size="10.00" text-anchor="start" x="311" y="-322">type:</text>
<text font-family="Times,serif" font-size="10.00" text-anchor="start" x="459" y="-322">GROUP OF USERS</text>
<text font-family="Times,serif" font-size="10.00" text-anchor="start" x="311" y="-309">number_of_distinct_authors:</text>
<text font-family="Times,serif" font-size="10.00" text-anchor="start" x="459" y="-309">2952</text>
</g>
<!-- &#45;attrs6&#45;&gt;http://twitter.com/reactions_authors_for_12h_24h -->
<g class="edge" id="edge7">
<title>-attrs6-&gt;http://twitter.com/reactions_authors_for_12h_24h</title>
<path d="M454.27,-336.16C477.41,-354.82 513.9,-384.27 535.14,-401.4" fill="none" stroke="gray" stroke-dasharray="5,2"/>
</g>
</g>
</svg>
