<?xml version="1.0" encoding="UTF-8"?><svg xmlns="http://www.w3.org/2000/svg" xmlns:xlink="http://www.w3.org/1999/xlink" contentScriptType="application/ecmascript" contentStyleType="text/css" height="472pt" preserveAspectRatio="xMidYMid meet" version="1.1" viewBox="0 0 1500 500" width="1152pt" zoomAndPan="magnify">
<g class="graph" id="graph0" transform="scale(1.1 1.1) rotate(0) translate(4 513)">
<title>PROV</title>
<polygon fill="white" points="-4,4 -4,-513 1258,-513 1258,4 -4,4" stroke="transparent"/>
<g class="cluster" id="clust1">
<title>clusterurn:uuid:c7177704-d1e0-4b58-954b-835e3c5d23fe</title>
<g id="a_clust1">
<a xlink:actuate="onRequest" xlink:href="urn:uuid:c7177704-d1e0-4b58-954b-835e3c5d23fe" xlink:show="replace" xlink:title="c7177704-d1e0-4b58-954b-835e3c5d23fe" xlink:type="simple" xmlns:xlink="http://www.w3.org/1999/xlink">
<polygon fill="none" points="8,-8 8,-501 1246,-501 1246,-8 8,-8" stroke="black"/>
<text font-family="Times,serif" font-size="14.00" text-anchor="middle" x="627" y="-15.8">c7177704-d1e0-4b58-954b-835e3c5d23fe</text>
</a>
</g>
</g>
<!-- http://twitter.com/post_1366200664402006016 -->
<g class="node" id="node1">
<title>http://twitter.com/post_1366200664402006016</title>
<g id="a_node1">
<a xlink:actuate="onRequest" xlink:href="http://twitter.com/post_1366200664402006016" xlink:show="replace" xlink:title="post_1366200664402006016" xlink:type="simple" xmlns:xlink="http://www.w3.org/1999/xlink">
<polygon fill="#9fb1fc" points="1037.5,-421 812.5,-421 812.5,-385 1037.5,-385 1037.5,-421" stroke="#0000ff"/>
<text font-family="Times,serif" font-size="14.00" text-anchor="middle" x="925" y="-399.3">post_1366200664402006016</text>
</a>
</g>
</g>
<!-- http://twitter.com/ORIGINAL_TWEET_author_18839785 -->
<g class="node" id="node11">
<title>http://twitter.com/ORIGINAL_TWEET_author_18839785</title>
<g id="a_node11">
<a xlink:actuate="onRequest" xlink:href="http://twitter.com/ORIGINAL_TWEET_author_18839785" xlink:show="replace" xlink:title="ORIGINAL_TWEET_author_18839785" xlink:type="simple" xmlns:xlink="http://www.w3.org/1999/xlink">
<polygon fill="#fdb266" points="1153.32,-480.56 925,-493 696.68,-480.56 696.9,-460.44 1153.1,-460.44 1153.32,-480.56" stroke="black"/>
<text font-family="Times,serif" font-size="14.00" text-anchor="middle" x="925" y="-471.3">ORIGINAL_TWEET_author_18839785</text>
</a>
</g>
</g>
<!-- http://twitter.com/post_1366200664402006016&#45;&gt;http://twitter.com/ORIGINAL_TWEET_author_18839785 -->
<g class="edge" id="edge9">
<title>http://twitter.com/post_1366200664402006016-&gt;http://twitter.com/ORIGINAL_TWEET_author_18839785</title>
<path d="M925,-421.3C925,-430.01 925,-440.7 925,-450.17" fill="none" stroke="black"/>
<polygon fill="black" points="921.5,-450.18 925,-460.18 928.5,-450.18 921.5,-450.18" stroke="black"/>
<text font-family="Times,serif" font-size="8.00" text-anchor="middle" x="937.99" y="-426.9">assoc</text>
</g>
<!-- &#45;attrs0 -->
<g class="node" id="node2">
<title>-attrs0</title>
<polygon fill="none" points="969.5,-323 888.5,-323 888.5,-287 975.5,-287 975.5,-317 969.5,-323" stroke="gray"/>
<polyline fill="none" points="969.5,-323 969.5,-317 " stroke="gray"/>
<polyline fill="none" points="975.5,-317 969.5,-317 " stroke="gray"/>
<text font-family="Times,serif" font-size="10.00" text-anchor="start" x="899" y="-302">type:</text>
<text font-family="Times,serif" font-size="10.00" text-anchor="start" x="927" y="-302">publish</text>
</g>
<!-- &#45;attrs0&#45;&gt;http://twitter.com/post_1366200664402006016 -->
<g class="edge" id="edge1">
<title>-attrs0-&gt;http://twitter.com/post_1366200664402006016</title>
<path d="M930.75,-323.16C929.47,-340.64 927.51,-367.57 926.24,-384.99" fill="none" stroke="gray" stroke-dasharray="5,2"/>
</g>
<!-- http://twitter.com/react_REPLY_1366237793727381504 -->
<g class="node" id="node3">
<title>http://twitter.com/react_REPLY_1366237793727381504</title>
<g id="a_node3">
<a xlink:actuate="onRequest" xlink:href="http://twitter.com/react_REPLY_1366237793727381504" xlink:show="replace" xlink:title="react_REPLY_1366237793727381504" xlink:type="simple" xmlns:xlink="http://www.w3.org/1999/xlink">
<polygon fill="#9fb1fc" points="870,-323 584,-323 584,-287 870,-287 870,-323" stroke="#0000ff"/>
<text font-family="Times,serif" font-size="14.00" text-anchor="middle" x="727" y="-301.3">react_REPLY_1366237793727381504</text>
</a>
</g>
</g>
<!-- http://twitter.com/react_REPLY_1366237793727381504&#45;&gt;http://twitter.com/post_1366200664402006016 -->
<g class="edge" id="edge11">
<title>http://twitter.com/react_REPLY_1366237793727381504-&gt;http://twitter.com/post_1366200664402006016</title>
<path d="M762.4,-323.16C795.48,-339.2 845,-363.21 880.69,-380.52" fill="none" stroke="black"/>
<polygon fill="black" points="879.38,-383.77 889.91,-384.99 882.44,-377.47 879.38,-383.77" stroke="black"/>
<text font-family="Times,serif" font-size="8.00" text-anchor="middle" x="774.81" y="-312.85">inf</text>
</g>
<!-- http://twitter.com/REPLY_author_755672251832217602 -->
<g class="node" id="node13">
<title>http://twitter.com/REPLY_author_755672251832217602</title>
<g id="a_node13">
<a xlink:actuate="onRequest" xlink:href="http://twitter.com/REPLY_author_755672251832217602" xlink:show="replace" xlink:title="REPLY_author_755672251832217602" xlink:type="simple" xmlns:xlink="http://www.w3.org/1999/xlink">
<polygon fill="#fdb266" points="782.64,-408.56 552,-421 321.36,-408.56 321.58,-388.44 782.42,-388.44 782.64,-408.56" stroke="black"/>
<text font-family="Times,serif" font-size="14.00" text-anchor="middle" x="552" y="-399.3">REPLY_author_755672251832217602</text>
</a>
</g>
</g>
<!-- http://twitter.com/react_REPLY_1366237793727381504&#45;&gt;http://twitter.com/REPLY_author_755672251832217602 -->
<g class="edge" id="edge12">
<title>http://twitter.com/react_REPLY_1366237793727381504-&gt;http://twitter.com/REPLY_author_755672251832217602</title>
<path d="M695.71,-323.16C664.75,-340.15 617.51,-366.06 585.73,-383.5" fill="none" stroke="black"/>
<polygon fill="black" points="583.88,-380.52 576.8,-388.4 587.25,-386.66 583.88,-380.52" stroke="black"/>
<text font-family="Times,serif" font-size="8.00" text-anchor="middle" x="695.39" y="-336.26">assoc</text>
</g>
<!-- &#45;attrs1 -->
<g class="node" id="node4">
<title>-attrs1</title>
<polygon fill="none" points="614.5,-212 533.5,-212 533.5,-176 620.5,-176 620.5,-206 614.5,-212" stroke="gray"/>
<polyline fill="none" points="614.5,-212 614.5,-206 " stroke="gray"/>
<polyline fill="none" points="620.5,-206 614.5,-206 " stroke="gray"/>
<text font-family="Times,serif" font-size="10.00" text-anchor="start" x="544" y="-191">type:</text>
<text font-family="Times,serif" font-size="10.00" text-anchor="start" x="572" y="-191">publish</text>
</g>
<!-- &#45;attrs1&#45;&gt;http://twitter.com/react_REPLY_1366237793727381504 -->
<g class="edge" id="edge2">
<title>-attrs1-&gt;http://twitter.com/react_REPLY_1366237793727381504</title>
<path d="M600.44,-212.03C628.45,-232.39 675.07,-266.27 703.23,-286.73" fill="none" stroke="gray" stroke-dasharray="5,2"/>
</g>
<!-- http://twitter.com/1366200664402006016 -->
<g class="node" id="node5">
<title>http://twitter.com/1366200664402006016</title>
<g id="a_node5">
<a xlink:actuate="onRequest" xlink:href="http://twitter.com/1366200664402006016" xlink:show="replace" xlink:title="1366200664402006016" xlink:type="simple" xmlns:xlink="http://www.w3.org/1999/xlink">
<ellipse cx="1116" cy="-305" fill="#fffc87" rx="122.38" ry="18" stroke="#808080"/>
<text font-family="Times,serif" font-size="14.00" text-anchor="middle" x="1116" y="-301.3">1366200664402006016</text>
</a>
</g>
</g>
<!-- http://twitter.com/1366200664402006016&#45;&gt;http://twitter.com/post_1366200664402006016 -->
<g class="edge" id="edge8">
<title>http://twitter.com/1366200664402006016-&gt;http://twitter.com/post_1366200664402006016</title>
<path d="M1083.17,-322.5C1051.35,-338.5 1002.91,-362.84 968.02,-380.38" fill="none" stroke="black"/>
<polygon fill="black" points="966.38,-377.29 959.01,-384.9 969.52,-383.54 966.38,-377.29" stroke="black"/>
<text font-family="Times,serif" font-size="8.00" text-anchor="middle" x="1082.3" y="-335.58">gen</text>
</g>
<!-- &#45;attrs2 -->
<g class="node" id="node6">
<title>-attrs2</title>
<polygon fill="none" points="1231.5,-225 638.5,-225 638.5,-163 1237.5,-163 1237.5,-219 1231.5,-225" stroke="gray"/>
<polyline fill="none" points="1231.5,-225 1231.5,-219 " stroke="gray"/>
<polyline fill="none" points="1237.5,-219 1231.5,-219 " stroke="gray"/>
<text font-family="Times,serif" font-size="10.00" text-anchor="start" x="649" y="-211">type:</text>
<text font-family="Times,serif" font-size="10.00" text-anchor="start" x="694" y="-211">ORIGINAL TWEET</text>
<text font-family="Times,serif" font-size="10.00" text-anchor="start" x="649" y="-198">value:</text>
<text font-family="Times,serif" font-size="10.00" text-anchor="start" x="694" y="-198">Took my first dose of the COVID-19 vaccine at AIIMS. Remarkable how our doctors and scientists have ...</text>
<text font-family="Times,serif" font-size="10.00" text-anchor="start" x="649" y="-185">created:</text>
<text font-family="Times,serif" font-size="10.00" text-anchor="start" x="694" y="-185">2021-03-01 01:36:35+00:00</text>
<text font-family="Times,serif" font-size="10.00" text-anchor="start" x="649" y="-172">location:</text>
<text font-family="Times,serif" font-size="10.00" text-anchor="start" x="694" y="-172">India</text>
</g>
<!-- &#45;attrs2&#45;&gt;http://twitter.com/1366200664402006016 -->
<g class="edge" id="edge3">
<title>-attrs2-&gt;http://twitter.com/1366200664402006016</title>
<path d="M987.11,-225.07C1019.94,-245.17 1061.89,-270.87 1088.86,-287.38" fill="none" stroke="gray" stroke-dasharray="5,2"/>
</g>
<!-- http://twitter.com/author_props_18839785 -->
<g class="node" id="node7">
<title>http://twitter.com/author_props_18839785</title>
<g id="a_node7">
<a xlink:actuate="onRequest" xlink:href="http://twitter.com/author_props_18839785" xlink:show="replace" xlink:title="author_props_18839785" xlink:type="simple" xmlns:xlink="http://www.w3.org/1999/xlink">
<ellipse cx="155" cy="-403" fill="#fffc87" rx="123.48" ry="18" stroke="#808080"/>
<text font-family="Times,serif" font-size="14.00" text-anchor="middle" x="155" y="-399.3">author_props_18839785</text>
</a>
</g>
</g>
<!-- http://twitter.com/author_props_18839785&#45;&gt;http://twitter.com/ORIGINAL_TWEET_author_18839785 -->
<g class="edge" id="edge10">
<title>http://twitter.com/author_props_18839785-&gt;http://twitter.com/ORIGINAL_TWEET_author_18839785</title>
<path d="M249.61,-414.58C270.17,-416.78 291.81,-419.03 312,-421 458.07,-435.22 623.91,-449.44 746.23,-459.57" fill="none" stroke="black"/>
<polygon fill="black" points="746.19,-463.08 756.44,-460.41 746.76,-456.1 746.19,-463.08" stroke="black"/>
<text font-family="Times,serif" font-size="8.00" text-anchor="middle" x="258.45" y="-400.56">att</text>
</g>
<!-- &#45;attrs3 -->
<g class="node" id="node8">
<title>-attrs3</title>
<polygon fill="none" points="276,-349 16,-349 16,-261 282,-261 282,-343 276,-349" stroke="gray"/>
<polyline fill="none" points="276,-349 276,-343 " stroke="gray"/>
<polyline fill="none" points="282,-343 276,-343 " stroke="gray"/>
<text font-family="Times,serif" font-size="10.00" text-anchor="start" x="26" y="-335">type:</text>
<text font-family="Times,serif" font-size="10.00" text-anchor="start" x="112" y="-335">ORIGINAL USER PROPERTIES</text>
<text font-family="Times,serif" font-size="10.00" text-anchor="start" x="26" y="-322">credible:</text>
<text font-family="Times,serif" font-size="10.00" text-anchor="start" x="112" y="-322">1</text>
<text font-family="Times,serif" font-size="10.00" text-anchor="start" x="26" y="-309">username:</text>
<text font-family="Times,serif" font-size="10.00" text-anchor="start" x="112" y="-309">narendramodi</text>
<text font-family="Times,serif" font-size="10.00" text-anchor="start" x="26" y="-296">verified:</text>
<text font-family="Times,serif" font-size="10.00" text-anchor="start" x="112" y="-296">True</text>
<text font-family="Times,serif" font-size="10.00" text-anchor="start" x="26" y="-283">followers_count:</text>
<text font-family="Times,serif" font-size="10.00" text-anchor="start" x="112" y="-283">82431058</text>
<text font-family="Times,serif" font-size="10.00" text-anchor="start" x="26" y="-270">following_count:</text>
<text font-family="Times,serif" font-size="10.00" text-anchor="start" x="112" y="-270">2448</text>
</g>
<!-- &#45;attrs3&#45;&gt;http://twitter.com/author_props_18839785 -->
<g class="edge" id="edge4">
<title>-attrs3-&gt;http://twitter.com/author_props_18839785</title>
<path d="M151.7,-349.23C152.49,-361.77 153.3,-374.75 153.92,-384.7" fill="none" stroke="gray" stroke-dasharray="5,2"/>
</g>
<!-- http://twitter.com/1366237793727381504 -->
<g class="node" id="node9">
<title>http://twitter.com/1366237793727381504</title>
<g id="a_node9">
<a xlink:actuate="onRequest" xlink:href="http://twitter.com/1366237793727381504" xlink:show="replace" xlink:title="1366237793727381504" xlink:type="simple" xmlns:xlink="http://www.w3.org/1999/xlink">
<ellipse cx="393" cy="-194" fill="#fffc87" rx="122.38" ry="18" stroke="#808080"/>
<text font-family="Times,serif" font-size="14.00" text-anchor="middle" x="393" y="-190.3">1366237793727381504</text>
</a>
</g>
</g>
<!-- http://twitter.com/1366237793727381504&#45;&gt;http://twitter.com/react_REPLY_1366237793727381504 -->
<g class="edge" id="edge13">
<title>http://twitter.com/1366237793727381504-&gt;http://twitter.com/react_REPLY_1366237793727381504</title>
<path d="M440.85,-210.62C499.87,-229.88 600.32,-262.66 665.14,-283.81" fill="none" stroke="black"/>
<polygon fill="black" points="664.24,-287.2 674.84,-286.98 666.41,-280.55 664.24,-287.2" stroke="black"/>
<text font-family="Times,serif" font-size="8.00" text-anchor="middle" x="452.01" y="-198.69">gen</text>
</g>
<!-- &#45;attrs4 -->
<g class="node" id="node10">
<title>-attrs4</title>
<polygon fill="none" points="551,-127 229,-127 229,-39 557,-39 557,-121 551,-127" stroke="gray"/>
<polyline fill="none" points="551,-127 551,-121 " stroke="gray"/>
<polyline fill="none" points="557,-121 551,-121 " stroke="gray"/>
<text font-family="Times,serif" font-size="10.00" text-anchor="start" x="239" y="-113">type:</text>
<text font-family="Times,serif" font-size="10.00" text-anchor="start" x="380" y="-113">GROUP OF REACTION TWEETS</text>
<text font-family="Times,serif" font-size="10.00" text-anchor="start" x="239" y="-100">time_interval:</text>
<text font-family="Times,serif" font-size="10.00" text-anchor="start" x="380" y="-100">15' - 1h</text>
<text font-family="Times,serif" font-size="10.00" text-anchor="start" x="239" y="-87">total_number_of_reactions:</text>
<text font-family="Times,serif" font-size="10.00" text-anchor="start" x="380" y="-87">543463465346</text>
<text font-family="Times,serif" font-size="10.00" text-anchor="start" x="239" y="-74">number_of_replies:</text>
<text font-family="Times,serif" font-size="10.00" text-anchor="start" x="380" y="-74">4342</text>
<text font-family="Times,serif" font-size="10.00" text-anchor="start" x="239" y="-61">number_of_quotes:</text>
<text font-family="Times,serif" font-size="10.00" text-anchor="start" x="380" y="-61">2435</text>
<text font-family="Times,serif" font-size="10.00" text-anchor="start" x="239" y="-48">number_of_retweets:</text>
<text font-family="Times,serif" font-size="10.00" text-anchor="start" x="380" y="-48">54363</text>
</g>
<!-- &#45;attrs4&#45;&gt;http://twitter.com/1366237793727381504 -->
<g class="edge" id="edge5">
<title>-attrs4-&gt;http://twitter.com/1366237793727381504</title>
<path d="M393,-127.08C393,-144.1 393,-162.67 393,-175.75" fill="none" stroke="gray" stroke-dasharray="5,2"/>
</g>
<!-- &#45;attrs5 -->
<g class="node" id="node12">
<title>-attrs5</title>
<polygon fill="none" points="1182.5,-421 1055.5,-421 1055.5,-385 1188.5,-385 1188.5,-415 1182.5,-421" stroke="gray"/>
<polyline fill="none" points="1182.5,-421 1182.5,-415 " stroke="gray"/>
<polyline fill="none" points="1188.5,-415 1182.5,-415 " stroke="gray"/>
<text font-family="Times,serif" font-size="10.00" text-anchor="start" x="1066" y="-407">type:</text>
<text font-family="Times,serif" font-size="10.00" text-anchor="start" x="1100" y="-407">prov:Person</text>
<text font-family="Times,serif" font-size="10.00" text-anchor="start" x="1066" y="-394">name:</text>
<text font-family="Times,serif" font-size="10.00" text-anchor="start" x="1100" y="-394">Narendra Modi</text>
</g>
<!-- &#45;attrs5&#45;&gt;http://twitter.com/ORIGINAL_TWEET_author_18839785 -->
<g class="edge" id="edge6">
<title>-attrs5-&gt;http://twitter.com/ORIGINAL_TWEET_author_18839785</title>
<path d="M1074.06,-421.03C1040.01,-433.13 994.89,-449.17 963.25,-460.41" fill="none" stroke="gray" stroke-dasharray="5,2"/>
</g>
<!-- &#45;attrs6 -->
<g class="node" id="node14">
<title>-attrs6</title>
<polygon fill="none" points="559.5,-323 300.5,-323 300.5,-287 565.5,-287 565.5,-317 559.5,-323" stroke="gray"/>
<polyline fill="none" points="559.5,-323 559.5,-317 " stroke="gray"/>
<polyline fill="none" points="565.5,-317 559.5,-317 " stroke="gray"/>
<text font-family="Times,serif" font-size="10.00" text-anchor="start" x="311" y="-309">type:</text>
<text font-family="Times,serif" font-size="10.00" text-anchor="start" x="459" y="-309">GROUP OF USERS</text>
<text font-family="Times,serif" font-size="10.00" text-anchor="start" x="311" y="-296">number_of_distinct_authors:</text>
<text font-family="Times,serif" font-size="10.00" text-anchor="start" x="459" y="-296">5266</text>
</g>
<!-- &#45;attrs6&#45;&gt;http://twitter.com/REPLY_author_755672251832217602 -->
<g class="edge" id="edge7">
<title>-attrs6-&gt;http://twitter.com/REPLY_author_755672251832217602</title>
<path d="M454.27,-323.16C477.41,-341.82 513.9,-371.27 535.14,-388.4" fill="none" stroke="gray" stroke-dasharray="5,2"/>
</g>
</g>
</svg>
