<?xml version="1.0" encoding="UTF-8" standalone="no"?>
<!DOCTYPE svg PUBLIC "-//W3C//DTD SVG 1.1//EN"
 "http://www.w3.org/Graphics/SVG/1.1/DTD/svg11.dtd">
<!-- Generated by graphviz version 2.43.0 (0)
 -->
<!-- Title: PROV Pages: 1 -->
<svg width="720pt" height="419pt"
 viewBox="0.00 0.00 720.00 419.00" xmlns="http://www.w3.org/2000/svg" xmlns:xlink="http://www.w3.org/1999/xlink">
<g id="graph0" class="graph" transform="scale(1 1) rotate(0) translate(4 415)">
<title>PROV</title>
<polygon fill="white" stroke="transparent" points="-4,4 -4,-415 716,-415 716,4 -4,4"/>
<g id="clust1" class="cluster">
<title>clusterurn:uuid:dce2f47a&#45;b1ea&#45;4583&#45;9d37&#45;7847e31bb3cc</title>
<g id="a_clust1"><a xlink:href="urn:uuid:dce2f47a-b1ea-4583-9d37-7847e31bb3cc" xlink:title="dce2f47a&#45;b1ea&#45;4583&#45;9d37&#45;7847e31bb3cc">
<polygon fill="none" stroke="black" points="8,-8 8,-403 704,-403 704,-8 8,-8"/>
<text text-anchor="middle" x="356" y="-15.8" font-family="Times,serif" font-size="14.00">dce2f47a&#45;b1ea&#45;4583&#45;9d37&#45;7847e31bb3cc</text>
</a>
</g>
</g>
<!-- http://twitter.com/post_or_react_on_March_1_9AM_5PM -->
<g id="node1" class="node">
<title>http://twitter.com/post_or_react_on_March_1_9AM_5PM</title>
<g id="a_node1"><a xlink:href="http://twitter.com/post_or_react_on_March_1_9AM_5PM" xlink:title="post_or_react_on_March_1_9AM_5PM">
<polygon fill="#9fb1fc" stroke="#0000ff" points="696,-310 412,-310 412,-274 696,-274 696,-310"/>
<text text-anchor="middle" x="554" y="-288.3" font-family="Times,serif" font-size="14.00">post_or_react_on_March_1_9AM_5PM</text>
</a>
</g>
</g>
<!-- http://twitter.com/group_of_authors_on_March_1_9AM_5PM -->
<g id="node5" class="node">
<title>http://twitter.com/group_of_authors_on_March_1_9AM_5PM</title>
<g id="a_node5"><a xlink:href="http://twitter.com/group_of_authors_on_March_1_9AM_5PM" xlink:title="group_of_authors_on_March_1_9AM_5PM">
<polygon fill="#fdb266" stroke="black" points="606.8,-382.56 356,-395 105.2,-382.56 105.43,-362.44 606.57,-362.44 606.8,-382.56"/>
<text text-anchor="middle" x="356" y="-373.3" font-family="Times,serif" font-size="14.00">group_of_authors_on_March_1_9AM_5PM</text>
</a>
</g>
</g>
<!-- http://twitter.com/post_or_react_on_March_1_9AM_5PM&#45;&gt;http://twitter.com/group_of_authors_on_March_1_9AM_5PM -->
<g id="edge5" class="edge">
<title>http://twitter.com/post_or_react_on_March_1_9AM_5PM&#45;&gt;http://twitter.com/group_of_authors_on_March_1_9AM_5PM</title>
<path fill="none" stroke="black" d="M512.97,-310.2C479.37,-324.29 431.99,-344.14 398.1,-358.35"/>
<polygon fill="black" stroke="black" points="396.35,-355.29 388.48,-362.39 399.05,-361.75 396.35,-355.29"/>
<text text-anchor="middle" x="511.08" y="-323.18" font-family="Times,serif" font-size="8.00">assoc</text>
</g>
<!-- &#45;attrs0 -->
<g id="node2" class="node">
<title>&#45;attrs0</title>
<polygon fill="none" stroke="gray" points="640.5,-225 559.5,-225 559.5,-189 646.5,-189 646.5,-219 640.5,-225"/>
<polyline fill="none" stroke="gray" points="640.5,-225 640.5,-219 "/>
<polyline fill="none" stroke="gray" points="646.5,-219 640.5,-219 "/>
<text text-anchor="start" x="570" y="-204" font-family="Times,serif" font-size="10.00">type:</text>
<text text-anchor="start" x="598" y="-204" font-family="Times,serif" font-size="10.00">publish</text>
</g>
<!-- &#45;attrs0&#45;&gt;http://twitter.com/post_or_react_on_March_1_9AM_5PM -->
<g id="edge1" class="edge">
<title>&#45;attrs0&#45;&gt;http://twitter.com/post_or_react_on_March_1_9AM_5PM</title>
<path fill="none" stroke="gray" stroke-dasharray="5,2" d="M592.85,-225.2C584.44,-239.44 572.55,-259.59 564.14,-273.82"/>
</g>
<!-- http://twitter.com/all_tweets_on_March_1_9AM_5PM -->
<g id="node3" class="node">
<title>http://twitter.com/all_tweets_on_March_1_9AM_5PM</title>
<g id="a_node3"><a xlink:href="http://twitter.com/all_tweets_on_March_1_9AM_5PM" xlink:title="all_tweets_on_March_1_9AM_5PM">
<ellipse fill="#fffc87" stroke="#808080" cx="373" cy="-207" rx="168.97" ry="18"/>
<text text-anchor="middle" x="373" y="-203.3" font-family="Times,serif" font-size="14.00">all_tweets_on_March_1_9AM_5PM</text>
</a>
</g>
</g>
<!-- http://twitter.com/all_tweets_on_March_1_9AM_5PM&#45;&gt;http://twitter.com/post_or_react_on_March_1_9AM_5PM -->
<g id="edge4" class="edge">
<title>http://twitter.com/all_tweets_on_March_1_9AM_5PM&#45;&gt;http://twitter.com/post_or_react_on_March_1_9AM_5PM</title>
<path fill="none" stroke="black" d="M409.19,-224.6C437.43,-237.54 476.85,-255.62 507.44,-269.65"/>
<polygon fill="black" stroke="black" points="506.08,-272.87 516.63,-273.86 508.99,-266.51 506.08,-272.87"/>
<text text-anchor="middle" x="421.43" y="-214.01" font-family="Times,serif" font-size="8.00">gen</text>
</g>
<!-- &#45;attrs1 -->
<g id="node4" class="node">
<title>&#45;attrs1</title>
<polygon fill="none" stroke="gray" points="534.5,-153 205.5,-153 205.5,-39 540.5,-39 540.5,-147 534.5,-153"/>
<polyline fill="none" stroke="gray" points="534.5,-153 534.5,-147 "/>
<polyline fill="none" stroke="gray" points="540.5,-147 534.5,-147 "/>
<text text-anchor="start" x="216" y="-139" font-family="Times,serif" font-size="10.00">type:</text>
<text text-anchor="start" x="378" y="-139" font-family="Times,serif" font-size="10.00">ALL TWEETS AT TIMEPOINT</text>
<text text-anchor="start" x="216" y="-126" font-family="Times,serif" font-size="10.00">date:</text>
<text text-anchor="start" x="378" y="-126" font-family="Times,serif" font-size="10.00">March 1, 2021</text>
<text text-anchor="start" x="216" y="-113" font-family="Times,serif" font-size="10.00">time_interval:</text>
<text text-anchor="start" x="378" y="-113" font-family="Times,serif" font-size="10.00">9AM &#45; 5PM</text>
<text text-anchor="start" x="216" y="-100" font-family="Times,serif" font-size="10.00">percentage_out_of_day_tweets:</text>
<text text-anchor="start" x="378" y="-100" font-family="Times,serif" font-size="10.00">60%</text>
<text text-anchor="start" x="216" y="-87" font-family="Times,serif" font-size="10.00">number_of_original_tweets:</text>
<text text-anchor="start" x="378" y="-87" font-family="Times,serif" font-size="10.00">423</text>
<text text-anchor="start" x="216" y="-74" font-family="Times,serif" font-size="10.00">number_of_replies:</text>
<text text-anchor="start" x="378" y="-74" font-family="Times,serif" font-size="10.00">4234</text>
<text text-anchor="start" x="216" y="-61" font-family="Times,serif" font-size="10.00">number_of_quotes:</text>
<text text-anchor="start" x="378" y="-61" font-family="Times,serif" font-size="10.00">35</text>
<text text-anchor="start" x="216" y="-48" font-family="Times,serif" font-size="10.00">number_of_retweets:</text>
<text text-anchor="start" x="378" y="-48" font-family="Times,serif" font-size="10.00">32542</text>
</g>
<!-- &#45;attrs1&#45;&gt;http://twitter.com/all_tweets_on_March_1_9AM_5PM -->
<g id="edge2" class="edge">
<title>&#45;attrs1&#45;&gt;http://twitter.com/all_tweets_on_March_1_9AM_5PM</title>
<path fill="none" stroke="gray" stroke-dasharray="5,2" d="M373,-153.1C373,-166.03 373,-178.85 373,-188.63"/>
</g>
<!-- &#45;attrs2 -->
<g id="node6" class="node">
<title>&#45;attrs2</title>
<polygon fill="none" stroke="gray" points="387.5,-323 16.5,-323 16.5,-261 393.5,-261 393.5,-317 387.5,-323"/>
<polyline fill="none" stroke="gray" points="387.5,-323 387.5,-317 "/>
<polyline fill="none" stroke="gray" points="393.5,-317 387.5,-317 "/>
<text text-anchor="start" x="27" y="-309" font-family="Times,serif" font-size="10.00">type:</text>
<text text-anchor="start" x="287" y="-309" font-family="Times,serif" font-size="10.00">GROUP OF USERS</text>
<text text-anchor="start" x="27" y="-296" font-family="Times,serif" font-size="10.00">number_of_distinct_authors:</text>
<text text-anchor="start" x="287" y="-296" font-family="Times,serif" font-size="10.00">3252</text>
<text text-anchor="start" x="27" y="-283" font-family="Times,serif" font-size="10.00">average_number_of_followers_top_10_influencers:</text>
<text text-anchor="start" x="287" y="-283" font-family="Times,serif" font-size="10.00">532524</text>
<text text-anchor="start" x="27" y="-270" font-family="Times,serif" font-size="10.00">average_number_of_followers_all_users:</text>
<text text-anchor="start" x="287" y="-270" font-family="Times,serif" font-size="10.00">5432</text>
</g>
<!-- &#45;attrs2&#45;&gt;http://twitter.com/group_of_authors_on_March_1_9AM_5PM -->
<g id="edge3" class="edge">
<title>&#45;attrs2&#45;&gt;http://twitter.com/group_of_authors_on_March_1_9AM_5PM</title>
<path fill="none" stroke="gray" stroke-dasharray="5,2" d="M259.94,-323.2C284.4,-336.64 311.97,-351.8 331.28,-362.41"/>
</g>
</g>
</svg>
