<?xml version="1.0" encoding="UTF-8" standalone="no"?>
<!DOCTYPE svg PUBLIC "-//W3C//DTD SVG 1.1//EN"
 "http://www.w3.org/Graphics/SVG/1.1/DTD/svg11.dtd">
<!-- Generated by graphviz version 2.43.0 (0)
 -->
<!-- Title: PROV Pages: 1 -->
<svg width="248pt" height="243pt"
 viewBox="0.00 0.00 248.00 243.00" xmlns="http://www.w3.org/2000/svg" xmlns:xlink="http://www.w3.org/1999/xlink">
<g id="graph0" class="graph" transform="scale(1 1) rotate(0) translate(4 239)">
<title>PROV</title>
<polygon fill="white" stroke="transparent" points="-4,4 -4,-239 244,-239 244,4 -4,4"/>
<g id="clust1" class="cluster">
<title>clusterhttp://openprovenance.org/vargen#bundleId</title>
<g id="a_clust1"><a xlink:href="http://openprovenance.org/vargen#bundleId" xlink:title="bundleId">
<polygon fill="none" stroke="black" points="8,-8 8,-227 232,-227 232,-8 8,-8"/>
<text text-anchor="middle" x="120" y="-15.8" font-family="Times,serif" font-size="14.00">bundleId</text>
</a>
</g>
</g>
<!-- http://openprovenance.org/var#tweet -->
<g id="node1" class="node">
<title>http://openprovenance.org/var#tweet</title>
<g id="a_node1"><a xlink:href="http://openprovenance.org/var#tweet" xlink:title="tweet">
<ellipse fill="#fffc87" stroke="#808080" cx="187" cy="-129" rx="37.09" ry="18"/>
<text text-anchor="middle" x="187" y="-125.3" font-family="Times,serif" font-size="14.00">tweet</text>
</a>
</g>
</g>
<!-- http://openprovenance.org/var#authorId -->
<g id="node3" class="node">
<title>http://openprovenance.org/var#authorId</title>
<g id="a_node3"><a xlink:href="http://openprovenance.org/var#authorId" xlink:title="authorId">
<polygon fill="#fdb266" stroke="black" points="182.83,-206.56 120,-219 57.17,-206.56 57.23,-186.44 182.77,-186.44 182.83,-206.56"/>
<text text-anchor="middle" x="120" y="-197.3" font-family="Times,serif" font-size="14.00">authorId</text>
</a>
</g>
</g>
<!-- http://openprovenance.org/var#tweet&#45;&gt;http://openprovenance.org/var#authorId -->
<g id="edge3" class="edge">
<title>http://openprovenance.org/var#tweet&#45;&gt;http://openprovenance.org/var#authorId</title>
<path fill="none" stroke="black" d="M172.13,-145.54C162.7,-155.39 150.38,-168.26 140.09,-179.01"/>
<polygon fill="black" stroke="black" points="137.4,-176.76 133.02,-186.4 142.46,-181.6 137.4,-176.76"/>
<text text-anchor="middle" x="176.33" y="-158.04" font-family="Times,serif" font-size="8.00">att</text>
</g>
<!-- &#45;attrs0 -->
<g id="node2" class="node">
<title>&#45;attrs0</title>
<polygon fill="none" stroke="gray" points="218.5,-75 131.5,-75 131.5,-39 224.5,-39 224.5,-69 218.5,-75"/>
<polyline fill="none" stroke="gray" points="218.5,-75 218.5,-69 "/>
<polyline fill="none" stroke="gray" points="224.5,-69 218.5,-69 "/>
<text text-anchor="start" x="142" y="-54" font-family="Times,serif" font-size="10.00">value:</text>
<text text-anchor="start" x="175" y="-54" font-family="Times,serif" font-size="10.00">var:text</text>
</g>
<!-- &#45;attrs0&#45;&gt;http://openprovenance.org/var#tweet -->
<g id="edge1" class="edge">
<title>&#45;attrs0&#45;&gt;http://openprovenance.org/var#tweet</title>
<path fill="none" stroke="gray" stroke-dasharray="5,2" d="M180.22,-75.3C181.62,-86.15 183.41,-100.08 184.8,-110.9"/>
</g>
<!-- &#45;attrs1 -->
<g id="node4" class="node">
<title>&#45;attrs1</title>
<polygon fill="none" stroke="gray" points="125.5,-147 16.5,-147 16.5,-111 131.5,-111 131.5,-141 125.5,-147"/>
<polyline fill="none" stroke="gray" points="125.5,-147 125.5,-141 "/>
<polyline fill="none" stroke="gray" points="131.5,-141 125.5,-141 "/>
<text text-anchor="start" x="27" y="-133" font-family="Times,serif" font-size="10.00">type:</text>
<text text-anchor="start" x="61" y="-133" font-family="Times,serif" font-size="10.00">prov:Person</text>
<text text-anchor="start" x="27" y="-120" font-family="Times,serif" font-size="10.00">name:</text>
<text text-anchor="start" x="61" y="-120" font-family="Times,serif" font-size="10.00">var:name</text>
</g>
<!-- &#45;attrs1&#45;&gt;http://openprovenance.org/var#authorId -->
<g id="edge2" class="edge">
<title>&#45;attrs1&#45;&gt;http://openprovenance.org/var#authorId</title>
<path fill="none" stroke="gray" stroke-dasharray="5,2" d="M85.37,-147.3C93.25,-159.29 103.59,-175.03 110.92,-186.18"/>
</g>
</g>
</svg>
