<?xml version="1.0" encoding="UTF-8" standalone="no"?>
<!DOCTYPE svg PUBLIC "-//W3C//DTD SVG 1.1//EN"
 "http://www.w3.org/Graphics/SVG/1.1/DTD/svg11.dtd">
<!-- Generated by graphviz version 2.43.0 (0)
 -->
<!-- Title: PROV Pages: 1 -->
<svg width="299pt" height="260pt"
 viewBox="0.00 0.00 298.50 260.00" xmlns="http://www.w3.org/2000/svg" xmlns:xlink="http://www.w3.org/1999/xlink">
<g id="graph0" class="graph" transform="scale(1 1) rotate(0) translate(4 256)">
<title>PROV</title>
<polygon fill="white" stroke="transparent" points="-4,4 -4,-256 294.5,-256 294.5,4 -4,4"/>
<!-- https://twitter.comtweet&#45;id -->
<g id="node1" class="node">
<title>https://twitter.comtweet&#45;id</title>
<g id="a_node1"><a xlink:href="https://twitter.comtweet-id" xlink:title="tweet&#45;id">
<ellipse fill="#fffc87" stroke="#808080" cx="66" cy="-162" rx="48.99" ry="18"/>
<text text-anchor="middle" x="66" y="-158.3" font-family="Times,serif" font-size="14.00">tweet&#45;id</text>
</a>
</g>
</g>
<!-- https://twitter.comAndrei -->
<g id="node4" class="node">
<title>https://twitter.comAndrei</title>
<g id="a_node4"><a xlink:href="https://twitter.comAndrei" xlink:title="Andrei">
<polygon fill="#fdb266" stroke="black" points="194.33,-239.56 143,-252 91.67,-239.56 91.72,-219.44 194.28,-219.44 194.33,-239.56"/>
<text text-anchor="middle" x="143" y="-230.3" font-family="Times,serif" font-size="14.00">Andrei</text>
</a>
</g>
</g>
<!-- https://twitter.comtweet&#45;id&#45;&gt;https://twitter.comAndrei -->
<g id="edge3" class="edge">
<title>https://twitter.comtweet&#45;id&#45;&gt;https://twitter.comAndrei</title>
<path fill="none" stroke="black" d="M83.47,-178.88C94.36,-188.78 108.48,-201.62 120.24,-212.31"/>
<polygon fill="black" stroke="black" points="118.18,-215.17 127.94,-219.3 122.89,-209.99 118.18,-215.17"/>
<text text-anchor="middle" x="97.76" y="-172.42" font-family="Times,serif" font-size="8.00">att</text>
</g>
<!-- https://twitter.comedited&#45;source&#45;tweet -->
<g id="node2" class="node">
<title>https://twitter.comedited&#45;source&#45;tweet</title>
<g id="a_node2"><a xlink:href="https://twitter.comedited-source-tweet" xlink:title="edited&#45;source&#45;tweet">
<ellipse fill="#fffc87" stroke="#808080" cx="104" cy="-90" rx="102.88" ry="18"/>
<text text-anchor="middle" x="104" y="-86.3" font-family="Times,serif" font-size="14.00">edited&#45;source&#45;tweet</text>
</a>
</g>
</g>
<!-- https://twitter.comedited&#45;source&#45;tweet&#45;&gt;https://twitter.comtweet&#45;id -->
<g id="edge5" class="edge">
<title>https://twitter.comedited&#45;source&#45;tweet&#45;&gt;https://twitter.comtweet&#45;id</title>
<path fill="none" stroke="black" d="M94.8,-107.95C90.37,-116.11 84.95,-126.09 80.02,-135.18"/>
<polygon fill="black" stroke="black" points="76.81,-133.75 75.11,-144.21 82.96,-137.09 76.81,-133.75"/>
<text text-anchor="middle" x="102.64" y="-118.83" font-family="Times,serif" font-size="8.00">der</text>
</g>
<!-- https://twitter.comedited&#45;source&#45;tweet&#45;&gt;https://twitter.comAndrei -->
<g id="edge4" class="edge">
<title>https://twitter.comedited&#45;source&#45;tweet&#45;&gt;https://twitter.comAndrei</title>
<path fill="none" stroke="black" d="M111.15,-107.96C115.3,-118.26 120.4,-131.73 124,-144 130.41,-165.82 135.62,-191.24 138.95,-209.31"/>
<polygon fill="black" stroke="black" points="135.52,-210.04 140.73,-219.27 142.41,-208.81 135.52,-210.04"/>
<text text-anchor="middle" x="125.99" y="-108.21" font-family="Times,serif" font-size="8.00">att</text>
</g>
<!-- &#45;attrs0 -->
<g id="node3" class="node">
<title>&#45;attrs0</title>
<polygon fill="none" stroke="gray" points="202,-36 0,-36 0,0 208,0 208,-30 202,-36"/>
<polyline fill="none" stroke="gray" points="202,-36 202,-30 "/>
<polyline fill="none" stroke="gray" points="208,-30 202,-30 "/>
<text text-anchor="start" x="10" y="-15" font-family="Times,serif" font-size="10.00">value:</text>
<text text-anchor="start" x="43" y="-15" font-family="Times,serif" font-size="10.00">This is an edited source tweet.</text>
</g>
<!-- &#45;attrs0&#45;&gt;https://twitter.comedited&#45;source&#45;tweet -->
<g id="edge1" class="edge">
<title>&#45;attrs0&#45;&gt;https://twitter.comedited&#45;source&#45;tweet</title>
<path fill="none" stroke="gray" stroke-dasharray="5,2" d="M104,-36.3C104,-47.15 104,-61.08 104,-71.9"/>
</g>
<!-- &#45;attrs1 -->
<g id="node5" class="node">
<title>&#45;attrs1</title>
<polygon fill="none" stroke="gray" points="284.5,-180 171.5,-180 171.5,-144 290.5,-144 290.5,-174 284.5,-180"/>
<polyline fill="none" stroke="gray" points="284.5,-180 284.5,-174 "/>
<polyline fill="none" stroke="gray" points="290.5,-174 284.5,-174 "/>
<text text-anchor="start" x="182" y="-159" font-family="Times,serif" font-size="10.00">label:</text>
<text text-anchor="start" x="212" y="-159" font-family="Times,serif" font-size="10.00">Andrei Stoica</text>
</g>
<!-- &#45;attrs1&#45;&gt;https://twitter.comAndrei -->
<g id="edge2" class="edge">
<title>&#45;attrs1&#45;&gt;https://twitter.comAndrei</title>
<path fill="none" stroke="gray" stroke-dasharray="5,2" d="M209.25,-180.3C194.08,-192.37 174.13,-208.24 160.1,-219.4"/>
</g>
</g>
</svg>
