<?xml version="1.0" encoding="UTF-8" standalone="no"?>
<!DOCTYPE svg PUBLIC "-//W3C//DTD SVG 1.1//EN"
 "http://www.w3.org/Graphics/SVG/1.1/DTD/svg11.dtd">
<!-- Generated by graphviz version 2.43.0 (0)
 -->
<!-- Title: PROV Pages: 1 -->
<svg width="334pt" height="243pt"
 viewBox="0.00 0.00 334.00 243.00" xmlns="http://www.w3.org/2000/svg" xmlns:xlink="http://www.w3.org/1999/xlink">
<g id="graph0" class="graph" transform="scale(1 1) rotate(0) translate(4 239)">
<title>PROV</title>
<polygon fill="white" stroke="transparent" points="-4,4 -4,-239 330,-239 330,4 -4,4"/>
<g id="clust1" class="cluster">
<title>clusterurn:uuid:baaaca91&#45;f75a&#45;4529&#45;90a9&#45;4b35ea5ab68a</title>
<g id="a_clust1"><a xlink:href="urn:uuid:baaaca91-f75a-4529-90a9-4b35ea5ab68a" xlink:title="baaaca91&#45;f75a&#45;4529&#45;90a9&#45;4b35ea5ab68a">
<polygon fill="none" stroke="black" points="8,-8 8,-227 318,-227 318,-8 8,-8"/>
<text text-anchor="middle" x="163" y="-15.8" font-family="Times,serif" font-size="14.00">baaaca91&#45;f75a&#45;4529&#45;90a9&#45;4b35ea5ab68a</text>
</a>
</g>
</g>
<!-- https://www.digisport.ro/articol1 -->
<g id="node1" class="node">
<title>https://www.digisport.ro/articol1</title>
<g id="a_node1"><a xlink:href="https://www.digisport.ro/articol1" xlink:title="articol1">
<ellipse fill="#fffc87" stroke="#808080" cx="212" cy="-129" rx="46.29" ry="18"/>
<text text-anchor="middle" x="212" y="-125.3" font-family="Times,serif" font-size="14.00">articol1</text>
</a>
</g>
</g>
<!-- http://example.com/#andrei1233 -->
<g id="node3" class="node">
<title>http://example.com/#andrei1233</title>
<g id="a_node3"><a xlink:href="http://example.com/#andrei1233" xlink:title="andrei1233">
<polygon fill="#fdb266" stroke="black" points="231.96,-206.56 153,-219 74.04,-206.56 74.11,-186.44 231.89,-186.44 231.96,-206.56"/>
<text text-anchor="middle" x="153" y="-197.3" font-family="Times,serif" font-size="14.00">andrei1233</text>
</a>
</g>
</g>
<!-- https://www.digisport.ro/articol1&#45;&gt;http://example.com/#andrei1233 -->
<g id="edge3" class="edge">
<title>https://www.digisport.ro/articol1&#45;&gt;http://example.com/#andrei1233</title>
<path fill="none" stroke="black" d="M198.32,-146.24C190.26,-155.8 179.96,-168.01 171.22,-178.38"/>
<polygon fill="black" stroke="black" points="168.39,-176.31 164.62,-186.21 173.74,-180.82 168.39,-176.31"/>
<text text-anchor="middle" x="203.42" y="-158.44" font-family="Times,serif" font-size="8.00">att</text>
</g>
<!-- &#45;attrs0 -->
<g id="node2" class="node">
<title>&#45;attrs0</title>
<polygon fill="none" stroke="gray" points="264.5,-75 153.5,-75 153.5,-39 270.5,-39 270.5,-69 264.5,-75"/>
<polyline fill="none" stroke="gray" points="264.5,-75 264.5,-69 "/>
<polyline fill="none" stroke="gray" points="270.5,-69 264.5,-69 "/>
<text text-anchor="start" x="164" y="-54" font-family="Times,serif" font-size="10.00">value:</text>
<text text-anchor="start" x="197" y="-54" font-family="Times,serif" font-size="10.00">text of tweet</text>
</g>
<!-- &#45;attrs0&#45;&gt;https://www.digisport.ro/articol1 -->
<g id="edge1" class="edge">
<title>&#45;attrs0&#45;&gt;https://www.digisport.ro/articol1</title>
<path fill="none" stroke="gray" stroke-dasharray="5,2" d="M212,-75.3C212,-86.15 212,-100.08 212,-110.9"/>
</g>
<!-- &#45;attrs1 -->
<g id="node4" class="node">
<title>&#45;attrs1</title>
<polygon fill="none" stroke="gray" points="141.5,-147 24.5,-147 24.5,-111 147.5,-111 147.5,-141 141.5,-147"/>
<polyline fill="none" stroke="gray" points="141.5,-147 141.5,-141 "/>
<polyline fill="none" stroke="gray" points="147.5,-141 141.5,-141 "/>
<text text-anchor="start" x="35" y="-133" font-family="Times,serif" font-size="10.00">type:</text>
<text text-anchor="start" x="69" y="-133" font-family="Times,serif" font-size="10.00">prov:Person</text>
<text text-anchor="start" x="35" y="-120" font-family="Times,serif" font-size="10.00">name:</text>
<text text-anchor="start" x="69" y="-120" font-family="Times,serif" font-size="10.00">Andrei Stoica</text>
</g>
<!-- &#45;attrs1&#45;&gt;http://example.com/#andrei1233 -->
<g id="edge2" class="edge">
<title>&#45;attrs1&#45;&gt;http://example.com/#andrei1233</title>
<path fill="none" stroke="gray" stroke-dasharray="5,2" d="M102.56,-147.3C114.03,-159.29 129.1,-175.03 139.77,-186.18"/>
</g>
</g>
</svg>
