<?xml version="1.0" encoding="UTF-8" standalone="no"?>
<!DOCTYPE svg PUBLIC "-//W3C//DTD SVG 1.1//EN"
 "http://www.w3.org/Graphics/SVG/1.1/DTD/svg11.dtd">
<!-- Generated by graphviz version 2.43.0 (0)
 -->
<!-- Title: PROV Pages: 1 -->
<svg width="695pt" height="419pt"
 viewBox="0.00 0.00 695.00 419.00" xmlns="http://www.w3.org/2000/svg" xmlns:xlink="http://www.w3.org/1999/xlink">
<g id="graph0" class="graph" transform="scale(1 1) rotate(0) translate(4 415)">
<title>PROV</title>
<polygon fill="white" stroke="transparent" points="-4,4 -4,-415 691,-415 691,4 -4,4"/>
<g id="clust1" class="cluster">
<title>clusterhttp://openprovenance.org/vargen#bundle_id</title>
<g id="a_clust1"><a xlink:href="http://openprovenance.org/vargen#bundle_id" xlink:title="bundle_id">
<polygon fill="none" stroke="black" points="8,-8 8,-403 679,-403 679,-8 8,-8"/>
<text text-anchor="middle" x="343.5" y="-15.8" font-family="Times,serif" font-size="14.00">bundle_id</text>
</a>
</g>
</g>
<!-- http://openprovenance.org/var#post_or_react_id -->
<g id="node1" class="node">
<title>http://openprovenance.org/var#post_or_react_id</title>
<g id="a_node1"><a xlink:href="http://openprovenance.org/var#post_or_react_id" xlink:title="post_or_react_id">
<polygon fill="#9fb1fc" stroke="#0000ff" points="670.5,-310 537.5,-310 537.5,-274 670.5,-274 670.5,-310"/>
<text text-anchor="middle" x="604" y="-288.3" font-family="Times,serif" font-size="14.00">post_or_react_id</text>
</a>
</g>
</g>
<!-- http://openprovenance.org/var#group_of_authors_id -->
<g id="node5" class="node">
<title>http://openprovenance.org/var#group_of_authors_id</title>
<g id="a_node5"><a xlink:href="http://openprovenance.org/var#group_of_authors_id" xlink:title="group_of_authors_id">
<polygon fill="#fdb266" stroke="black" points="534.19,-382.56 405,-395 275.81,-382.56 275.93,-362.44 534.07,-362.44 534.19,-382.56"/>
<text text-anchor="middle" x="405" y="-373.3" font-family="Times,serif" font-size="14.00">group_of_authors_id</text>
</a>
</g>
</g>
<!-- http://openprovenance.org/var#post_or_react_id&#45;&gt;http://openprovenance.org/var#group_of_authors_id -->
<g id="edge5" class="edge">
<title>http://openprovenance.org/var#post_or_react_id&#45;&gt;http://openprovenance.org/var#group_of_authors_id</title>
<path fill="none" stroke="black" d="M562.77,-310.2C528.99,-324.29 481.38,-344.14 447.31,-358.35"/>
<polygon fill="black" stroke="black" points="445.52,-355.31 437.64,-362.39 448.22,-361.77 445.52,-355.31"/>
<text text-anchor="middle" x="560.85" y="-323.17" font-family="Times,serif" font-size="8.00">assoc</text>
</g>
<!-- &#45;attrs0 -->
<g id="node2" class="node">
<title>&#45;attrs0</title>
<polygon fill="none" stroke="gray" points="652.5,-225 571.5,-225 571.5,-189 658.5,-189 658.5,-219 652.5,-225"/>
<polyline fill="none" stroke="gray" points="652.5,-225 652.5,-219 "/>
<polyline fill="none" stroke="gray" points="658.5,-219 652.5,-219 "/>
<text text-anchor="start" x="582" y="-204" font-family="Times,serif" font-size="10.00">type:</text>
<text text-anchor="start" x="610" y="-204" font-family="Times,serif" font-size="10.00">publish</text>
</g>
<!-- &#45;attrs0&#45;&gt;http://openprovenance.org/var#post_or_react_id -->
<g id="edge1" class="edge">
<title>&#45;attrs0&#45;&gt;http://openprovenance.org/var#post_or_react_id</title>
<path fill="none" stroke="gray" stroke-dasharray="5,2" d="M612.72,-225.2C610.83,-239.44 608.16,-259.59 606.28,-273.82"/>
</g>
<!-- http://openprovenance.org/var#all_tweets_at_timepoint_id -->
<g id="node3" class="node">
<title>http://openprovenance.org/var#all_tweets_at_timepoint_id</title>
<g id="a_node3"><a xlink:href="http://openprovenance.org/var#all_tweets_at_timepoint_id" xlink:title="all_tweets_at_timepoint_id">
<ellipse fill="#fffc87" stroke="#808080" cx="420" cy="-207" rx="133.78" ry="18"/>
<text text-anchor="middle" x="420" y="-203.3" font-family="Times,serif" font-size="14.00">all_tweets_at_timepoint_id</text>
</a>
</g>
</g>
<!-- http://openprovenance.org/var#all_tweets_at_timepoint_id&#45;&gt;http://openprovenance.org/var#post_or_react_id -->
<g id="edge4" class="edge">
<title>http://openprovenance.org/var#all_tweets_at_timepoint_id&#45;&gt;http://openprovenance.org/var#post_or_react_id</title>
<path fill="none" stroke="black" d="M456.35,-224.4C485.11,-237.37 525.49,-255.59 556.75,-269.69"/>
<polygon fill="black" stroke="black" points="555.59,-273 566.14,-273.92 558.47,-266.62 555.59,-273"/>
<text text-anchor="middle" x="468.53" y="-213.74" font-family="Times,serif" font-size="8.00">gen</text>
</g>
<!-- &#45;attrs1 -->
<g id="node4" class="node">
<title>&#45;attrs1</title>
<polygon fill="none" stroke="gray" points="593.5,-153 240.5,-153 240.5,-39 599.5,-39 599.5,-147 593.5,-153"/>
<polyline fill="none" stroke="gray" points="593.5,-153 593.5,-147 "/>
<polyline fill="none" stroke="gray" points="599.5,-147 593.5,-147 "/>
<text text-anchor="start" x="251" y="-139" font-family="Times,serif" font-size="10.00">type:</text>
<text text-anchor="start" x="413" y="-139" font-family="Times,serif" font-size="10.00">ALL TWEETS AT TIMEPOINT</text>
<text text-anchor="start" x="251" y="-126" font-family="Times,serif" font-size="10.00">date:</text>
<text text-anchor="start" x="413" y="-126" font-family="Times,serif" font-size="10.00">var:date</text>
<text text-anchor="start" x="251" y="-113" font-family="Times,serif" font-size="10.00">time_interval:</text>
<text text-anchor="start" x="413" y="-113" font-family="Times,serif" font-size="10.00">var:time_interval</text>
<text text-anchor="start" x="251" y="-100" font-family="Times,serif" font-size="10.00">percentage_out_of_day_tweets:</text>
<text text-anchor="start" x="413" y="-100" font-family="Times,serif" font-size="10.00">var:percentage_out_of_day_tweets</text>
<text text-anchor="start" x="251" y="-87" font-family="Times,serif" font-size="10.00">number_of_original_tweets:</text>
<text text-anchor="start" x="413" y="-87" font-family="Times,serif" font-size="10.00">var:nr_of_original_tweets</text>
<text text-anchor="start" x="251" y="-74" font-family="Times,serif" font-size="10.00">number_of_replies:</text>
<text text-anchor="start" x="413" y="-74" font-family="Times,serif" font-size="10.00">var:nr_of_replies</text>
<text text-anchor="start" x="251" y="-61" font-family="Times,serif" font-size="10.00">number_of_quotes:</text>
<text text-anchor="start" x="413" y="-61" font-family="Times,serif" font-size="10.00">var:nr_of_quotes</text>
<text text-anchor="start" x="251" y="-48" font-family="Times,serif" font-size="10.00">number_of_retweets:</text>
<text text-anchor="start" x="413" y="-48" font-family="Times,serif" font-size="10.00">var:nr_of_retweets</text>
</g>
<!-- &#45;attrs1&#45;&gt;http://openprovenance.org/var#all_tweets_at_timepoint_id -->
<g id="edge2" class="edge">
<title>&#45;attrs1&#45;&gt;http://openprovenance.org/var#all_tweets_at_timepoint_id</title>
<path fill="none" stroke="gray" stroke-dasharray="5,2" d="M420,-153.1C420,-166.03 420,-178.85 420,-188.63"/>
</g>
<!-- &#45;attrs2 -->
<g id="node6" class="node">
<title>&#45;attrs2</title>
<polygon fill="none" stroke="gray" points="513.5,-323 16.5,-323 16.5,-261 519.5,-261 519.5,-317 513.5,-323"/>
<polyline fill="none" stroke="gray" points="513.5,-323 513.5,-317 "/>
<polyline fill="none" stroke="gray" points="519.5,-317 513.5,-317 "/>
<text text-anchor="start" x="27" y="-309" font-family="Times,serif" font-size="10.00">type:</text>
<text text-anchor="start" x="287" y="-309" font-family="Times,serif" font-size="10.00">GROUP OF USERS</text>
<text text-anchor="start" x="27" y="-296" font-family="Times,serif" font-size="10.00">number_of_distinct_authors:</text>
<text text-anchor="start" x="287" y="-296" font-family="Times,serif" font-size="10.00">var:nr_of_distinct_authors</text>
<text text-anchor="start" x="27" y="-283" font-family="Times,serif" font-size="10.00">average_number_of_followers_top_10_influencers:</text>
<text text-anchor="start" x="287" y="-283" font-family="Times,serif" font-size="10.00">var:avg_nr_of_followers_top_10_influencers</text>
<text text-anchor="start" x="27" y="-270" font-family="Times,serif" font-size="10.00">average_number_of_followers_all_users:</text>
<text text-anchor="start" x="287" y="-270" font-family="Times,serif" font-size="10.00">var:avg_nr_of_followers_all_users</text>
</g>
<!-- &#45;attrs2&#45;&gt;http://openprovenance.org/var#group_of_authors_id -->
<g id="edge3" class="edge">
<title>&#45;attrs2&#45;&gt;http://openprovenance.org/var#group_of_authors_id</title>
<path fill="none" stroke="gray" stroke-dasharray="5,2" d="M317.85,-323.2C340.03,-336.64 365.05,-351.8 382.57,-362.41"/>
</g>
</g>
</svg>
