<?xml version="1.0" encoding="UTF-8" standalone="no"?>
<!DOCTYPE svg PUBLIC "-//W3C//DTD SVG 1.1//EN"
 "http://www.w3.org/Graphics/SVG/1.1/DTD/svg11.dtd">
<!-- Generated by graphviz version 2.43.0 (0)
 -->
<!-- Title: PROV Pages: 1 -->
<svg width="1022pt" height="530pt"
 viewBox="0.00 0.00 1022.00 530.00" xmlns="http://www.w3.org/2000/svg" xmlns:xlink="http://www.w3.org/1999/xlink">
<g id="graph0" class="graph" transform="scale(1 1) rotate(0) translate(4 526)">
<title>PROV</title>
<polygon fill="white" stroke="transparent" points="-4,4 -4,-526 1018,-526 1018,4 -4,4"/>
<g id="clust1" class="cluster">
<title>clusterhttp://openprovenance.org/vargen#bundle_id</title>
<g id="a_clust1"><a xlink:href="http://openprovenance.org/vargen#bundle_id" xlink:title="bundle_id">
<polygon fill="none" stroke="black" points="8,-8 8,-514 1006,-514 1006,-8 8,-8"/>
<text text-anchor="middle" x="507" y="-15.8" font-family="Times,serif" font-size="14.00">bundle_id</text>
</a>
</g>
</g>
<!-- http://openprovenance.org/var#post_id -->
<g id="node1" class="node">
<title>http://openprovenance.org/var#post_id</title>
<g id="a_node1"><a xlink:href="http://openprovenance.org/var#post_id" xlink:title="post_id">
<polygon fill="#9fb1fc" stroke="#0000ff" points="784,-434 716,-434 716,-398 784,-398 784,-434"/>
<text text-anchor="middle" x="750" y="-412.3" font-family="Times,serif" font-size="14.00">post_id</text>
</a>
</g>
</g>
<!-- http://openprovenance.org/var#original_author_id -->
<g id="node11" class="node">
<title>http://openprovenance.org/var#original_author_id</title>
<g id="a_node11"><a xlink:href="http://openprovenance.org/var#original_author_id" xlink:title="original_author_id">
<polygon fill="#fdb266" stroke="black" points="867.09,-493.56 750,-506 632.91,-493.56 633.02,-473.44 866.98,-473.44 867.09,-493.56"/>
<text text-anchor="middle" x="750" y="-484.3" font-family="Times,serif" font-size="14.00">original_author_id</text>
</a>
</g>
</g>
<!-- http://openprovenance.org/var#post_id&#45;&gt;http://openprovenance.org/var#original_author_id -->
<g id="edge9" class="edge">
<title>http://openprovenance.org/var#post_id&#45;&gt;http://openprovenance.org/var#original_author_id</title>
<path fill="none" stroke="black" d="M750,-434.3C750,-443.01 750,-453.7 750,-463.17"/>
<polygon fill="black" stroke="black" points="746.5,-463.18 750,-473.18 753.5,-463.18 746.5,-463.18"/>
<text text-anchor="middle" x="762.99" y="-439.9" font-family="Times,serif" font-size="8.00">assoc</text>
</g>
<!-- &#45;attrs0 -->
<g id="node2" class="node">
<title>&#45;attrs0</title>
<polygon fill="none" stroke="gray" points="793.5,-336 712.5,-336 712.5,-300 799.5,-300 799.5,-330 793.5,-336"/>
<polyline fill="none" stroke="gray" points="793.5,-336 793.5,-330 "/>
<polyline fill="none" stroke="gray" points="799.5,-330 793.5,-330 "/>
<text text-anchor="start" x="723" y="-315" font-family="Times,serif" font-size="10.00">type:</text>
<text text-anchor="start" x="751" y="-315" font-family="Times,serif" font-size="10.00">publish</text>
</g>
<!-- &#45;attrs0&#45;&gt;http://openprovenance.org/var#post_id -->
<g id="edge1" class="edge">
<title>&#45;attrs0&#45;&gt;http://openprovenance.org/var#post_id</title>
<path fill="none" stroke="gray" stroke-dasharray="5,2" d="M754.93,-336.16C753.84,-353.64 752.15,-380.57 751.06,-397.99"/>
</g>
<!-- http://openprovenance.org/var#react_id -->
<g id="node3" class="node">
<title>http://openprovenance.org/var#react_id</title>
<g id="a_node3"><a xlink:href="http://openprovenance.org/var#react_id" xlink:title="react_id">
<polygon fill="#9fb1fc" stroke="#0000ff" points="694,-336 620,-336 620,-300 694,-300 694,-336"/>
<text text-anchor="middle" x="657" y="-314.3" font-family="Times,serif" font-size="14.00">react_id</text>
</a>
</g>
</g>
<!-- http://openprovenance.org/var#react_id&#45;&gt;http://openprovenance.org/var#post_id -->
<g id="edge11" class="edge">
<title>http://openprovenance.org/var#react_id&#45;&gt;http://openprovenance.org/var#post_id</title>
<path fill="none" stroke="black" d="M673.63,-336.16C688.31,-351.32 709.87,-373.58 726.35,-390.59"/>
<polygon fill="black" stroke="black" points="724.05,-393.24 733.52,-397.99 729.07,-388.37 724.05,-393.24"/>
<text text-anchor="middle" x="688.18" y="-330.61" font-family="Times,serif" font-size="8.00">inf</text>
</g>
<!-- http://openprovenance.org/var#reaction_group_of_authors_id -->
<g id="node13" class="node">
<title>http://openprovenance.org/var#reaction_group_of_authors_id</title>
<g id="a_node13"><a xlink:href="http://openprovenance.org/var#reaction_group_of_authors_id" xlink:title="reaction_group_of_authors_id">
<polygon fill="#fdb266" stroke="black" points="685.62,-421.56 504,-434 322.38,-421.56 322.54,-401.44 685.46,-401.44 685.62,-421.56"/>
<text text-anchor="middle" x="504" y="-412.3" font-family="Times,serif" font-size="14.00">reaction_group_of_authors_id</text>
</a>
</g>
</g>
<!-- http://openprovenance.org/var#react_id&#45;&gt;http://openprovenance.org/var#reaction_group_of_authors_id -->
<g id="edge12" class="edge">
<title>http://openprovenance.org/var#react_id&#45;&gt;http://openprovenance.org/var#reaction_group_of_authors_id</title>
<path fill="none" stroke="black" d="M640.98,-336.19C632.57,-344.61 621.78,-354.53 611,-362 591.14,-375.76 567.19,-387.97 546.98,-397.2"/>
<polygon fill="black" stroke="black" points="545.4,-394.07 537.7,-401.35 548.25,-400.46 545.4,-394.07"/>
<text text-anchor="middle" x="644.79" y="-348.79" font-family="Times,serif" font-size="8.00">assoc</text>
</g>
<!-- &#45;attrs1 -->
<g id="node4" class="node">
<title>&#45;attrs1</title>
<polygon fill="none" stroke="gray" points="762.5,-225 545.5,-225 545.5,-189 768.5,-189 768.5,-219 762.5,-225"/>
<polyline fill="none" stroke="gray" points="762.5,-225 762.5,-219 "/>
<polyline fill="none" stroke="gray" points="768.5,-219 762.5,-219 "/>
<text text-anchor="start" x="556" y="-211" font-family="Times,serif" font-size="10.00">type:</text>
<text text-anchor="start" x="593" y="-211" font-family="Times,serif" font-size="10.00">publish</text>
<text text-anchor="start" x="556" y="-198" font-family="Times,serif" font-size="10.00">linked:</text>
<text text-anchor="start" x="593" y="-198" font-family="Times,serif" font-size="10.00">var:reaction_group_of_tweets_id</text>
</g>
<!-- &#45;attrs1&#45;&gt;http://openprovenance.org/var#react_id -->
<g id="edge2" class="edge">
<title>&#45;attrs1&#45;&gt;http://openprovenance.org/var#react_id</title>
<path fill="none" stroke="gray" stroke-dasharray="5,2" d="M657,-225.03C657,-245.39 657,-279.27 657,-299.73"/>
</g>
<!-- http://openprovenance.org/var#original_tweet_id -->
<g id="node5" class="node">
<title>http://openprovenance.org/var#original_tweet_id</title>
<g id="a_node5"><a xlink:href="http://openprovenance.org/var#original_tweet_id" xlink:title="original_tweet_id">
<ellipse fill="#fffc87" stroke="#808080" cx="908" cy="-318" rx="90.18" ry="18"/>
<text text-anchor="middle" x="908" y="-314.3" font-family="Times,serif" font-size="14.00">original_tweet_id</text>
</a>
</g>
</g>
<!-- http://openprovenance.org/var#original_tweet_id&#45;&gt;http://openprovenance.org/var#post_id -->
<g id="edge8" class="edge">
<title>http://openprovenance.org/var#original_tweet_id&#45;&gt;http://openprovenance.org/var#post_id</title>
<path fill="none" stroke="black" d="M881.2,-335.29C855.19,-351.09 815.51,-375.2 786.6,-392.76"/>
<polygon fill="black" stroke="black" points="784.73,-389.8 778,-397.99 788.36,-395.79 784.73,-389.8"/>
<text text-anchor="middle" x="881.53" y="-348.38" font-family="Times,serif" font-size="8.00">gen</text>
</g>
<!-- &#45;attrs2 -->
<g id="node6" class="node">
<title>&#45;attrs2</title>
<polygon fill="none" stroke="gray" points="992,-238 788,-238 788,-176 998,-176 998,-232 992,-238"/>
<polyline fill="none" stroke="gray" points="992,-238 992,-232 "/>
<polyline fill="none" stroke="gray" points="998,-232 992,-232 "/>
<text text-anchor="start" x="798" y="-224" font-family="Times,serif" font-size="10.00">type:</text>
<text text-anchor="start" x="855" y="-224" font-family="Times,serif" font-size="10.00">ORIGINAL TWEET</text>
<text text-anchor="start" x="798" y="-211" font-family="Times,serif" font-size="10.00">value:</text>
<text text-anchor="start" x="855" y="-211" font-family="Times,serif" font-size="10.00">var:original_text</text>
<text text-anchor="start" x="798" y="-198" font-family="Times,serif" font-size="10.00">created at:</text>
<text text-anchor="start" x="855" y="-198" font-family="Times,serif" font-size="10.00">var:ORIGINAL_created_at</text>
<text text-anchor="start" x="798" y="-185" font-family="Times,serif" font-size="10.00">location:</text>
<text text-anchor="start" x="855" y="-185" font-family="Times,serif" font-size="10.00">var:ORIGINAL_location</text>
</g>
<!-- &#45;attrs2&#45;&gt;http://openprovenance.org/var#original_tweet_id -->
<g id="edge3" class="edge">
<title>&#45;attrs2&#45;&gt;http://openprovenance.org/var#original_tweet_id</title>
<path fill="none" stroke="gray" stroke-dasharray="5,2" d="M897.14,-238.07C899.88,-257.99 903.37,-283.38 905.65,-299.91"/>
</g>
<!-- http://openprovenance.org/var#original_author_props_id -->
<g id="node7" class="node">
<title>http://openprovenance.org/var#original_author_props_id</title>
<g id="a_node7"><a xlink:href="http://openprovenance.org/var#original_author_props_id" xlink:title="original_author_props_id">
<ellipse fill="#fffc87" stroke="#808080" cx="155" cy="-416" rx="125.38" ry="18"/>
<text text-anchor="middle" x="155" y="-412.3" font-family="Times,serif" font-size="14.00">original_author_props_id</text>
</a>
</g>
</g>
<!-- http://openprovenance.org/var#original_author_props_id&#45;&gt;http://openprovenance.org/var#original_author_id -->
<g id="edge10" class="edge">
<title>http://openprovenance.org/var#original_author_props_id&#45;&gt;http://openprovenance.org/var#original_author_id</title>
<path fill="none" stroke="black" d="M248.62,-428.01C349.96,-439.94 512.11,-459.01 624.45,-472.23"/>
<polygon fill="black" stroke="black" points="624.15,-475.72 634.49,-473.41 624.96,-468.77 624.15,-475.72"/>
<text text-anchor="middle" x="257.59" y="-414.09" font-family="Times,serif" font-size="8.00">att</text>
</g>
<!-- &#45;attrs3 -->
<g id="node8" class="node">
<title>&#45;attrs3</title>
<polygon fill="none" stroke="gray" points="276,-362 16,-362 16,-274 282,-274 282,-356 276,-362"/>
<polyline fill="none" stroke="gray" points="276,-362 276,-356 "/>
<polyline fill="none" stroke="gray" points="282,-356 276,-356 "/>
<text text-anchor="start" x="26" y="-348" font-family="Times,serif" font-size="10.00">type:</text>
<text text-anchor="start" x="112" y="-348" font-family="Times,serif" font-size="10.00">ORIGINAL USER PROPERTIES</text>
<text text-anchor="start" x="26" y="-335" font-family="Times,serif" font-size="10.00">credible:</text>
<text text-anchor="start" x="112" y="-335" font-family="Times,serif" font-size="10.00">var:ORIGINAL_credible</text>
<text text-anchor="start" x="26" y="-322" font-family="Times,serif" font-size="10.00">username:</text>
<text text-anchor="start" x="112" y="-322" font-family="Times,serif" font-size="10.00">var:ORIGINAL_username</text>
<text text-anchor="start" x="26" y="-309" font-family="Times,serif" font-size="10.00">verified:</text>
<text text-anchor="start" x="112" y="-309" font-family="Times,serif" font-size="10.00">var:ORIGINAL_verified</text>
<text text-anchor="start" x="26" y="-296" font-family="Times,serif" font-size="10.00">followers_count:</text>
<text text-anchor="start" x="112" y="-296" font-family="Times,serif" font-size="10.00">var:ORIGINAL_followers_count</text>
<text text-anchor="start" x="26" y="-283" font-family="Times,serif" font-size="10.00">following_count:</text>
<text text-anchor="start" x="112" y="-283" font-family="Times,serif" font-size="10.00">var:ORIGINAL_following_count</text>
</g>
<!-- &#45;attrs3&#45;&gt;http://openprovenance.org/var#original_author_props_id -->
<g id="edge4" class="edge">
<title>&#45;attrs3&#45;&gt;http://openprovenance.org/var#original_author_props_id</title>
<path fill="none" stroke="gray" stroke-dasharray="5,2" d="M151.7,-362.23C152.49,-374.77 153.3,-387.75 153.92,-397.7"/>
</g>
<!-- http://openprovenance.org/var#reaction_group_of_tweets_id -->
<g id="node9" class="node">
<title>http://openprovenance.org/var#reaction_group_of_tweets_id</title>
<g id="a_node9"><a xlink:href="http://openprovenance.org/var#reaction_group_of_tweets_id" xlink:title="reaction_group_of_tweets_id">
<ellipse fill="#fffc87" stroke="#808080" cx="385" cy="-207" rx="142.17" ry="18"/>
<text text-anchor="middle" x="385" y="-203.3" font-family="Times,serif" font-size="14.00">reaction_group_of_tweets_id</text>
</a>
</g>
</g>
<!-- http://openprovenance.org/var#reaction_group_of_tweets_id&#45;&gt;http://openprovenance.org/var#react_id -->
<g id="edge13" class="edge">
<title>http://openprovenance.org/var#reaction_group_of_tweets_id&#45;&gt;http://openprovenance.org/var#react_id</title>
<path fill="none" stroke="black" d="M465.23,-221.87C510.14,-231.92 565.99,-248.35 611,-274 619.65,-278.93 627.97,-285.79 635.09,-292.59"/>
<polygon fill="black" stroke="black" points="632.78,-295.23 642.32,-299.85 637.74,-290.29 632.78,-295.23"/>
<text text-anchor="middle" x="475.48" y="-209.02" font-family="Times,serif" font-size="8.00">gen</text>
</g>
<!-- &#45;attrs4 -->
<g id="node10" class="node">
<title>&#45;attrs4</title>
<polygon fill="none" stroke="gray" points="576,-140 188,-140 188,-39 582,-39 582,-134 576,-140"/>
<polyline fill="none" stroke="gray" points="576,-140 576,-134 "/>
<polyline fill="none" stroke="gray" points="582,-134 576,-134 "/>
<text text-anchor="start" x="198" y="-125.5" font-family="Times,serif" font-size="10.00">type:</text>
<text text-anchor="start" x="378" y="-125.5" font-family="Times,serif" font-size="10.00">GROUP OF REACTION TWEETS</text>
<text text-anchor="start" x="198" y="-112.5" font-family="Times,serif" font-size="10.00">time_interval:</text>
<text text-anchor="start" x="378" y="-112.5" font-family="Times,serif" font-size="10.00">var:time_interval</text>
<text text-anchor="start" x="198" y="-99.5" font-family="Times,serif" font-size="10.00">number_of_reactions:</text>
<text text-anchor="start" x="378" y="-99.5" font-family="Times,serif" font-size="10.00">var:nr_of_reactions</text>
<text text-anchor="start" x="198" y="-86.5" font-family="Times,serif" font-size="10.00">percentage_out_of_total_reactions:</text>
<text text-anchor="start" x="378" y="-86.5" font-family="Times,serif" font-size="10.00">var:percentage_out_of_total_reactions</text>
<text text-anchor="start" x="198" y="-73.5" font-family="Times,serif" font-size="10.00">number_of_replies:</text>
<text text-anchor="start" x="378" y="-73.5" font-family="Times,serif" font-size="10.00">var:nr_of_replies</text>
<text text-anchor="start" x="198" y="-60.5" font-family="Times,serif" font-size="10.00">number_of_quotes:</text>
<text text-anchor="start" x="378" y="-60.5" font-family="Times,serif" font-size="10.00">var:nr_of_quotes</text>
<text text-anchor="start" x="198" y="-47.5" font-family="Times,serif" font-size="10.00">number_of_retweets:</text>
<text text-anchor="start" x="378" y="-47.5" font-family="Times,serif" font-size="10.00">var:nr_of_retweets</text>
</g>
<!-- &#45;attrs4&#45;&gt;http://openprovenance.org/var#reaction_group_of_tweets_id -->
<g id="edge5" class="edge">
<title>&#45;attrs4&#45;&gt;http://openprovenance.org/var#reaction_group_of_tweets_id</title>
<path fill="none" stroke="gray" stroke-dasharray="5,2" d="M385,-140.15C385,-157.52 385,-175.88 385,-188.79"/>
</g>
<!-- &#45;attrs5 -->
<g id="node12" class="node">
<title>&#45;attrs5</title>
<polygon fill="none" stroke="gray" points="928,-434 802,-434 802,-398 934,-398 934,-428 928,-434"/>
<polyline fill="none" stroke="gray" points="928,-434 928,-428 "/>
<polyline fill="none" stroke="gray" points="934,-428 928,-428 "/>
<text text-anchor="start" x="812" y="-420" font-family="Times,serif" font-size="10.00">type:</text>
<text text-anchor="start" x="846" y="-420" font-family="Times,serif" font-size="10.00">prov:Person</text>
<text text-anchor="start" x="812" y="-407" font-family="Times,serif" font-size="10.00">name:</text>
<text text-anchor="start" x="846" y="-407" font-family="Times,serif" font-size="10.00">var:ag_o_name</text>
</g>
<!-- &#45;attrs5&#45;&gt;http://openprovenance.org/var#original_author_id -->
<g id="edge6" class="edge">
<title>&#45;attrs5&#45;&gt;http://openprovenance.org/var#original_author_id</title>
<path fill="none" stroke="gray" stroke-dasharray="5,2" d="M839.13,-434.12C818.8,-446.19 791.94,-462.12 773.04,-473.33"/>
</g>
<!-- &#45;attrs6 -->
<g id="node14" class="node">
<title>&#45;attrs6</title>
<polygon fill="none" stroke="gray" points="595.5,-342.5 300.5,-342.5 300.5,-293.5 601.5,-293.5 601.5,-336.5 595.5,-342.5"/>
<polyline fill="none" stroke="gray" points="595.5,-342.5 595.5,-336.5 "/>
<polyline fill="none" stroke="gray" points="601.5,-336.5 595.5,-336.5 "/>
<text text-anchor="start" x="311" y="-328" font-family="Times,serif" font-size="10.00">type:</text>
<text text-anchor="start" x="459" y="-328" font-family="Times,serif" font-size="10.00">GROUP OF USERS</text>
<text text-anchor="start" x="311" y="-315" font-family="Times,serif" font-size="10.00">number_of_distinct_authors:</text>
<text text-anchor="start" x="459" y="-315" font-family="Times,serif" font-size="10.00">var:nr_of_distinct_authors</text>
<text text-anchor="start" x="311" y="-302" font-family="Times,serif" font-size="10.00">linked:</text>
<text text-anchor="start" x="459" y="-302" font-family="Times,serif" font-size="10.00">var:react_id</text>
</g>
<!-- &#45;attrs6&#45;&gt;http://openprovenance.org/var#reaction_group_of_authors_id -->
<g id="edge7" class="edge">
<title>&#45;attrs6&#45;&gt;http://openprovenance.org/var#reaction_group_of_authors_id</title>
<path fill="none" stroke="gray" stroke-dasharray="5,2" d="M464.1,-342.73C474.28,-361.16 488.03,-386.08 496.45,-401.32"/>
</g>
</g>
</svg>
