<?xml version="1.0" encoding="UTF-8" standalone="no"?>
<!DOCTYPE svg PUBLIC "-//W3C//DTD SVG 1.1//EN"
 "http://www.w3.org/Graphics/SVG/1.1/DTD/svg11.dtd">
<!-- Generated by graphviz version 2.43.0 (0)
 -->
<!-- Title: PROV Pages: 1 -->
<svg width="242pt" height="243pt"
 viewBox="0.00 0.00 242.00 243.00" xmlns="http://www.w3.org/2000/svg" xmlns:xlink="http://www.w3.org/1999/xlink">
<g id="graph0" class="graph" transform="scale(1 1) rotate(0) translate(4 239)">
<title>PROV</title>
<polygon fill="white" stroke="transparent" points="-4,4 -4,-239 238,-239 238,4 -4,4"/>
<g id="clust1" class="cluster">
<title>clusterhttp://openprovenance.org/vargen#id</title>
<g id="a_clust1"><a xlink:href="http://openprovenance.org/vargen#id" xlink:title="id">
<polygon fill="none" stroke="black" points="8,-8 8,-227 226,-227 226,-8 8,-8"/>
<text text-anchor="middle" x="117" y="-15.8" font-family="Times,serif" font-size="14.00">id</text>
</a>
</g>
</g>
<!-- http://openprovenance.org/var#tweet -->
<g id="node1" class="node">
<title>http://openprovenance.org/var#tweet</title>
<g id="a_node1"><a xlink:href="http://openprovenance.org/var#tweet" xlink:title="tweet">
<ellipse fill="#fffc87" stroke="#808080" cx="181" cy="-129" rx="37.09" ry="18"/>
<text text-anchor="middle" x="181" y="-125.3" font-family="Times,serif" font-size="14.00">tweet</text>
</a>
</g>
</g>
<!-- http://openprovenance.org/var#author -->
<g id="node3" class="node">
<title>http://openprovenance.org/var#author</title>
<g id="a_node3"><a xlink:href="http://openprovenance.org/var#author" xlink:title="author">
<polygon fill="#fdb266" stroke="black" points="170.33,-206.56 119,-219 67.67,-206.56 67.72,-186.44 170.28,-186.44 170.33,-206.56"/>
<text text-anchor="middle" x="119" y="-197.3" font-family="Times,serif" font-size="14.00">author</text>
</a>
</g>
</g>
<!-- http://openprovenance.org/var#tweet&#45;&gt;http://openprovenance.org/var#author -->
<g id="edge3" class="edge">
<title>http://openprovenance.org/var#tweet&#45;&gt;http://openprovenance.org/var#author</title>
<path fill="none" stroke="black" d="M166.93,-145.88C158.39,-155.53 147.38,-167.96 138.06,-178.48"/>
<polygon fill="black" stroke="black" points="135.35,-176.27 131.33,-186.07 140.59,-180.91 135.35,-176.27"/>
<text text-anchor="middle" x="171.68" y="-158.21" font-family="Times,serif" font-size="8.00">att</text>
</g>
<!-- &#45;attrs0 -->
<g id="node2" class="node">
<title>&#45;attrs0</title>
<polygon fill="none" stroke="gray" points="211.5,-75 116.5,-75 116.5,-39 217.5,-39 217.5,-69 211.5,-75"/>
<polyline fill="none" stroke="gray" points="211.5,-75 211.5,-69 "/>
<polyline fill="none" stroke="gray" points="217.5,-69 211.5,-69 "/>
<text text-anchor="start" x="127" y="-54" font-family="Times,serif" font-size="10.00">value:</text>
<text text-anchor="start" x="160" y="-54" font-family="Times,serif" font-size="10.00">var:value</text>
</g>
<!-- &#45;attrs0&#45;&gt;http://openprovenance.org/var#tweet -->
<g id="edge1" class="edge">
<title>&#45;attrs0&#45;&gt;http://openprovenance.org/var#tweet</title>
<path fill="none" stroke="gray" stroke-dasharray="5,2" d="M170.46,-75.3C172.63,-86.15 175.42,-100.08 177.58,-110.9"/>
</g>
<!-- &#45;attrs1 -->
<g id="node4" class="node">
<title>&#45;attrs1</title>
<polygon fill="none" stroke="gray" points="119.5,-147 16.5,-147 16.5,-111 125.5,-111 125.5,-141 119.5,-147"/>
<polyline fill="none" stroke="gray" points="119.5,-147 119.5,-141 "/>
<polyline fill="none" stroke="gray" points="125.5,-141 119.5,-141 "/>
<text text-anchor="start" x="27" y="-133" font-family="Times,serif" font-size="10.00">type:</text>
<text text-anchor="start" x="55" y="-133" font-family="Times,serif" font-size="10.00">prov:Person</text>
<text text-anchor="start" x="27" y="-120" font-family="Times,serif" font-size="10.00">type:</text>
<text text-anchor="start" x="55" y="-120" font-family="Times,serif" font-size="10.00">var:name</text>
</g>
<!-- &#45;attrs1&#45;&gt;http://openprovenance.org/var#author -->
<g id="edge2" class="edge">
<title>&#45;attrs1&#45;&gt;http://openprovenance.org/var#author</title>
<path fill="none" stroke="gray" stroke-dasharray="5,2" d="M82.87,-147.3C91.08,-159.29 101.88,-175.03 109.52,-186.18"/>
</g>
</g>
</svg>
