<?xml version="1.0" encoding="UTF-8" standalone="no"?>
<!DOCTYPE svg PUBLIC "-//W3C//DTD SVG 1.1//EN"
 "http://www.w3.org/Graphics/SVG/1.1/DTD/svg11.dtd">
<!-- Generated by graphviz version 2.43.0 (0)
 -->
<!-- Title: PROV Pages: 1 -->
<svg width="611pt" height="188pt"
 viewBox="0.00 0.00 610.50 188.00" xmlns="http://www.w3.org/2000/svg" xmlns:xlink="http://www.w3.org/1999/xlink">
<g id="graph0" class="graph" transform="scale(1 1) rotate(0) translate(4 184)">
<title>PROV</title>
<polygon fill="white" stroke="transparent" points="-4,4 -4,-184 606.5,-184 606.5,4 -4,4"/>
<!-- http://www.provbook.orga&#45;little&#45;provenance&#45;goes&#45;a&#45;long&#45;way -->
<g id="node1" class="node">
<title>http://www.provbook.orga&#45;little&#45;provenance&#45;goes&#45;a&#45;long&#45;way</title>
<g id="a_node1"><a xlink:href="http://www.provbook.orga-little-provenance-goes-a-long-way" xlink:title="a&#45;little&#45;provenance&#45;goes&#45;a&#45;long&#45;way">
<ellipse fill="#fffc87" stroke="#808080" cx="297.5" cy="-90" rx="174.67" ry="18"/>
<text text-anchor="middle" x="297.5" y="-86.3" font-family="Times,serif" font-size="14.00">a&#45;little&#45;provenance&#45;goes&#45;a&#45;long&#45;way</text>
</a>
</g>
</g>
<!-- http://www.cs.rpi.edu/~hendler/LittleSemanticsWeb.html -->
<g id="node3" class="node">
<title>http://www.cs.rpi.edu/~hendler/LittleSemanticsWeb.html</title>
<g id="a_node3"><a xlink:href="http://www.cs.rpi.edu/~hendler/LittleSemanticsWeb.html" xlink:title="LittleSemanticsWeb.html">
<ellipse fill="#fffc87" stroke="#808080" cx="297.5" cy="-162" rx="128.08" ry="18"/>
<text text-anchor="middle" x="297.5" y="-158.3" font-family="Times,serif" font-size="14.00">LittleSemanticsWeb.html</text>
</a>
</g>
</g>
<!-- http://www.provbook.orga&#45;little&#45;provenance&#45;goes&#45;a&#45;long&#45;way&#45;&gt;http://www.cs.rpi.edu/~hendler/LittleSemanticsWeb.html -->
<g id="edge6" class="edge">
<title>http://www.provbook.orga&#45;little&#45;provenance&#45;goes&#45;a&#45;long&#45;way&#45;&gt;http://www.cs.rpi.edu/~hendler/LittleSemanticsWeb.html</title>
<path fill="none" stroke="black" d="M297.5,-108.3C297.5,-116.02 297.5,-125.29 297.5,-133.89"/>
<polygon fill="black" stroke="black" points="294,-133.9 297.5,-143.9 301,-133.9 294,-133.9"/>
<text text-anchor="middle" x="310.49" y="-113.9" font-family="Times,serif" font-size="8.00">der</text>
</g>
<!-- http://www.provbook.orgPaul -->
<g id="node4" class="node">
<title>http://www.provbook.orgPaul</title>
<g id="a_node4"><a xlink:href="http://www.provbook.orgPaul" xlink:title="Paul">
<polygon fill="#fdb266" stroke="black" points="121.02,-167.56 83.5,-180 45.98,-167.56 46.02,-147.44 120.98,-147.44 121.02,-167.56"/>
<text text-anchor="middle" x="83.5" y="-158.3" font-family="Times,serif" font-size="14.00">Paul</text>
</a>
</g>
</g>
<!-- http://www.provbook.orga&#45;little&#45;provenance&#45;goes&#45;a&#45;long&#45;way&#45;&gt;http://www.provbook.orgPaul -->
<g id="edge4" class="edge">
<title>http://www.provbook.orga&#45;little&#45;provenance&#45;goes&#45;a&#45;long&#45;way&#45;&gt;http://www.provbook.orgPaul</title>
<path fill="none" stroke="black" d="M247.6,-107.32C212.41,-118.83 165.58,-134.15 130.95,-145.48"/>
<polygon fill="black" stroke="black" points="129.5,-142.27 121.08,-148.71 131.67,-148.93 129.5,-142.27"/>
<text text-anchor="middle" x="244.51" y="-120.1" font-family="Times,serif" font-size="8.00">att</text>
</g>
<!-- http://www.provbook.orgLuc -->
<g id="node6" class="node">
<title>http://www.provbook.orgLuc</title>
<g id="a_node6"><a xlink:href="http://www.provbook.orgLuc" xlink:title="Luc">
<polygon fill="#fdb266" stroke="black" points="545.49,-167.56 511.5,-180 477.51,-167.56 477.55,-147.44 545.45,-147.44 545.49,-167.56"/>
<text text-anchor="middle" x="511.5" y="-158.3" font-family="Times,serif" font-size="14.00">Luc</text>
</a>
</g>
</g>
<!-- http://www.provbook.orga&#45;little&#45;provenance&#45;goes&#45;a&#45;long&#45;way&#45;&gt;http://www.provbook.orgLuc -->
<g id="edge5" class="edge">
<title>http://www.provbook.orga&#45;little&#45;provenance&#45;goes&#45;a&#45;long&#45;way&#45;&gt;http://www.provbook.orgLuc</title>
<path fill="none" stroke="black" d="M347.4,-107.32C383.82,-119.24 432.73,-135.23 467.65,-146.66"/>
<polygon fill="black" stroke="black" points="466.97,-150.12 477.56,-149.9 469.14,-143.46 466.97,-150.12"/>
<text text-anchor="middle" x="358.57" y="-95.41" font-family="Times,serif" font-size="8.00">att</text>
</g>
<!-- &#45;attrs0 -->
<g id="node2" class="node">
<title>&#45;attrs0</title>
<polygon fill="none" stroke="gray" points="408.5,-36 180.5,-36 180.5,0 414.5,0 414.5,-30 408.5,-36"/>
<polyline fill="none" stroke="gray" points="408.5,-36 408.5,-30 "/>
<polyline fill="none" stroke="gray" points="414.5,-30 408.5,-30 "/>
<text text-anchor="start" x="190.5" y="-15" font-family="Times,serif" font-size="10.00">value:</text>
<text text-anchor="start" x="223.5" y="-15" font-family="Times,serif" font-size="10.00">A little provenance goes a long way</text>
</g>
<!-- &#45;attrs0&#45;&gt;http://www.provbook.orga&#45;little&#45;provenance&#45;goes&#45;a&#45;long&#45;way -->
<g id="edge1" class="edge">
<title>&#45;attrs0&#45;&gt;http://www.provbook.orga&#45;little&#45;provenance&#45;goes&#45;a&#45;long&#45;way</title>
<path fill="none" stroke="gray" stroke-dasharray="5,2" d="M297.5,-36.3C297.5,-47.15 297.5,-61.08 297.5,-71.9"/>
</g>
<!-- &#45;attrs1 -->
<g id="node5" class="node">
<title>&#45;attrs1</title>
<polygon fill="none" stroke="gray" points="99,-108 0,-108 0,-72 105,-72 105,-102 99,-108"/>
<polyline fill="none" stroke="gray" points="99,-108 99,-102 "/>
<polyline fill="none" stroke="gray" points="105,-102 99,-102 "/>
<text text-anchor="start" x="10.5" y="-87" font-family="Times,serif" font-size="10.00">label:</text>
<text text-anchor="start" x="40.5" y="-87" font-family="Times,serif" font-size="10.00">Paul Groth</text>
</g>
<!-- &#45;attrs1&#45;&gt;http://www.provbook.orgPaul -->
<g id="edge2" class="edge">
<title>&#45;attrs1&#45;&gt;http://www.provbook.orgPaul</title>
<path fill="none" stroke="gray" stroke-dasharray="5,2" d="M60.16,-108.3C65.47,-120.29 72.44,-136.03 77.38,-147.18"/>
</g>
<!-- &#45;attrs2 -->
<g id="node7" class="node">
<title>&#45;attrs2</title>
<polygon fill="none" stroke="gray" points="596.5,-108 490.5,-108 490.5,-72 602.5,-72 602.5,-102 596.5,-108"/>
<polyline fill="none" stroke="gray" points="596.5,-108 596.5,-102 "/>
<polyline fill="none" stroke="gray" points="602.5,-102 596.5,-102 "/>
<text text-anchor="start" x="500.5" y="-87" font-family="Times,serif" font-size="10.00">label:</text>
<text text-anchor="start" x="530.5" y="-87" font-family="Times,serif" font-size="10.00">Luc Moreau</text>
</g>
<!-- &#45;attrs2&#45;&gt;http://www.provbook.orgLuc -->
<g id="edge3" class="edge">
<title>&#45;attrs2&#45;&gt;http://www.provbook.orgLuc</title>
<path fill="none" stroke="gray" stroke-dasharray="5,2" d="M537.85,-108.3C531.86,-120.29 523.99,-136.03 518.41,-147.18"/>
</g>
</g>
</svg>
