<?xml version="1.0" encoding="UTF-8" standalone="no"?>
<!DOCTYPE svg PUBLIC "-//W3C//DTD SVG 1.1//EN"
 "http://www.w3.org/Graphics/SVG/1.1/DTD/svg11.dtd">
<!-- Generated by graphviz version 2.43.0 (0)
 -->
<!-- Title: PROV Pages: 1 -->
<svg width="1152pt" height="555pt"
 viewBox="0.00 0.00 1152.00 555.02" xmlns="http://www.w3.org/2000/svg" xmlns:xlink="http://www.w3.org/1999/xlink">
<g id="graph0" class="graph" transform="scale(1.05 1.05) rotate(0) translate(4 578)">
<title>PROV</title>
<polygon fill="white" stroke="transparent" points="-4,4 -4,-578 1204,-578 1204,4 -4,4"/>
<g id="clust1" class="cluster">
<title>clusterhttp://openprovenance.org/vargen#bundle_id</title>
<g id="a_clust1"><a xlink:href="http://openprovenance.org/vargen#bundle_id" xlink:title="bundle_id">
<polygon fill="none" stroke="black" points="8,-8 8,-566 1192,-566 1192,-8 8,-8"/>
<text text-anchor="middle" x="600" y="-15.8" font-family="Times,serif" font-size="14.00">bundle_id</text>
</a>
</g>
</g>
<!-- http://openprovenance.org/var#post_id -->
<g id="node1" class="node">
<title>http://openprovenance.org/var#post_id</title>
<g id="a_node1"><a xlink:href="http://openprovenance.org/var#post_id" xlink:title="post_id">
<polygon fill="#9fb1fc" stroke="#0000ff" points="878,-453.5 810,-453.5 810,-417.5 878,-417.5 878,-453.5"/>
<text text-anchor="middle" x="844" y="-431.8" font-family="Times,serif" font-size="14.00">post_id</text>
</a>
</g>
</g>
<!-- http://openprovenance.org/var#original_tweet_props_id -->
<g id="node9" class="node">
<title>http://openprovenance.org/var#original_tweet_props_id</title>
<g id="a_node9"><a xlink:href="http://openprovenance.org/var#original_tweet_props_id" xlink:title="original_tweet_props_id">
<ellipse fill="#fffc87" stroke="#808080" cx="929" cy="-540" rx="120.78" ry="18"/>
<text text-anchor="middle" x="929" y="-536.3" font-family="Times,serif" font-size="14.00">original_tweet_props_id</text>
</a>
</g>
</g>
<!-- http://openprovenance.org/var#post_id&#45;&gt;http://openprovenance.org/var#original_tweet_props_id -->
<g id="edge14" class="edge">
<title>http://openprovenance.org/var#post_id&#45;&gt;http://openprovenance.org/var#original_tweet_props_id</title>
<path fill="none" stroke="black" d="M858.42,-453.89C872.12,-470.41 892.86,-495.42 908.32,-514.06"/>
<polygon fill="black" stroke="black" points="905.72,-516.41 914.79,-521.87 911.1,-511.94 905.72,-516.41"/>
<text text-anchor="middle" x="873.21" y="-449.47" font-family="Times,serif" font-size="8.00">use</text>
</g>
<!-- http://openprovenance.org/var#original_author_id -->
<g id="node19" class="node">
<title>http://openprovenance.org/var#original_author_id</title>
<g id="a_node19"><a xlink:href="http://openprovenance.org/var#original_author_id" xlink:title="original_author_id">
<polygon fill="#fdb266" stroke="black" points="787.09,-545.56 670,-558 552.91,-545.56 553.02,-525.44 786.98,-525.44 787.09,-545.56"/>
<text text-anchor="middle" x="670" y="-536.3" font-family="Times,serif" font-size="14.00">original_author_id</text>
</a>
</g>
</g>
<!-- http://openprovenance.org/var#post_id&#45;&gt;http://openprovenance.org/var#original_author_id -->
<g id="edge13" class="edge">
<title>http://openprovenance.org/var#post_id&#45;&gt;http://openprovenance.org/var#original_author_id</title>
<path fill="none" stroke="black" d="M832.12,-453.95C824.28,-464.38 813.23,-477.27 801,-486 779.24,-501.54 752.26,-513.45 728.46,-522.01"/>
<polygon fill="black" stroke="black" points="727.12,-518.77 718.82,-525.36 729.42,-525.38 727.12,-518.77"/>
<text text-anchor="middle" x="837.88" y="-465.89" font-family="Times,serif" font-size="8.00">assoc</text>
</g>
<!-- &#45;attrs0 -->
<g id="node2" class="node">
<title>&#45;attrs0</title>
<polygon fill="none" stroke="gray" points="853.5,-316.5 772.5,-316.5 772.5,-280.5 859.5,-280.5 859.5,-310.5 853.5,-316.5"/>
<polyline fill="none" stroke="gray" points="853.5,-316.5 853.5,-310.5 "/>
<polyline fill="none" stroke="gray" points="859.5,-310.5 853.5,-310.5 "/>
<text text-anchor="start" x="783" y="-295.5" font-family="Times,serif" font-size="10.00">type:</text>
<text text-anchor="start" x="811" y="-295.5" font-family="Times,serif" font-size="10.00">publish</text>
</g>
<!-- &#45;attrs0&#45;&gt;http://openprovenance.org/var#post_id -->
<g id="edge1" class="edge">
<title>&#45;attrs0&#45;&gt;http://openprovenance.org/var#post_id</title>
<path fill="none" stroke="gray" stroke-dasharray="5,2" d="M819.55,-316.6C824.9,-342.42 835,-391.12 840.39,-417.11"/>
</g>
<!-- http://openprovenance.org/var#edit_id -->
<g id="node3" class="node">
<title>http://openprovenance.org/var#edit_id</title>
<g id="a_node3"><a xlink:href="http://openprovenance.org/var#edit_id" xlink:title="edit_id">
<polygon fill="#9fb1fc" stroke="#0000ff" points="961.5,-453.5 896.5,-453.5 896.5,-417.5 961.5,-417.5 961.5,-453.5"/>
<text text-anchor="middle" x="929" y="-431.8" font-family="Times,serif" font-size="14.00">edit_id</text>
</a>
</g>
</g>
<!-- http://openprovenance.org/var#edit_id&#45;&gt;http://openprovenance.org/var#original_tweet_props_id -->
<g id="edge18" class="edge">
<title>http://openprovenance.org/var#edit_id&#45;&gt;http://openprovenance.org/var#original_tweet_props_id</title>
<path fill="none" stroke="black" d="M929,-453.89C929,-469.74 929,-493.41 929,-511.77"/>
<polygon fill="black" stroke="black" points="925.5,-511.87 929,-521.87 932.5,-511.87 925.5,-511.87"/>
<text text-anchor="middle" x="941.99" y="-459.49" font-family="Times,serif" font-size="8.00">use</text>
</g>
<!-- http://openprovenance.org/var#edit_id&#45;&gt;http://openprovenance.org/var#original_author_id -->
<g id="edge17" class="edge">
<title>http://openprovenance.org/var#edit_id&#45;&gt;http://openprovenance.org/var#original_author_id</title>
<path fill="none" stroke="black" d="M918.56,-453.62C911.08,-464.48 900.04,-477.94 887,-486 858.67,-503.5 824.93,-515.22 792.6,-523.08"/>
<polygon fill="black" stroke="black" points="791.57,-519.72 782.62,-525.39 793.15,-526.54 791.57,-519.72"/>
<text text-anchor="middle" x="924.84" y="-465.34" font-family="Times,serif" font-size="8.00">assoc</text>
</g>
<!-- &#45;attrs1 -->
<g id="node4" class="node">
<title>&#45;attrs1</title>
<polygon fill="none" stroke="gray" points="1177.5,-316.5 1096.5,-316.5 1096.5,-280.5 1183.5,-280.5 1183.5,-310.5 1177.5,-316.5"/>
<polyline fill="none" stroke="gray" points="1177.5,-316.5 1177.5,-310.5 "/>
<polyline fill="none" stroke="gray" points="1183.5,-310.5 1177.5,-310.5 "/>
<text text-anchor="start" x="1107" y="-295.5" font-family="Times,serif" font-size="10.00">type:</text>
<text text-anchor="start" x="1135" y="-295.5" font-family="Times,serif" font-size="10.00">publish</text>
</g>
<!-- &#45;attrs1&#45;&gt;http://openprovenance.org/var#edit_id -->
<g id="edge2" class="edge">
<title>&#45;attrs1&#45;&gt;http://openprovenance.org/var#edit_id</title>
<path fill="none" stroke="gray" stroke-dasharray="5,2" d="M1123.59,-316.61C1112.65,-327.18 1097.48,-340.34 1082,-349 1036.74,-374.32 1014.08,-356.13 971,-385 958.45,-393.41 947.53,-406.58 939.98,-417.22"/>
</g>
<!-- http://openprovenance.org/var#react_id -->
<g id="node5" class="node">
<title>http://openprovenance.org/var#react_id</title>
<g id="a_node5"><a xlink:href="http://openprovenance.org/var#react_id" xlink:title="react_id">
<polygon fill="#9fb1fc" stroke="#0000ff" points="754,-316.5 680,-316.5 680,-280.5 754,-280.5 754,-316.5"/>
<text text-anchor="middle" x="717" y="-294.8" font-family="Times,serif" font-size="14.00">react_id</text>
</a>
</g>
</g>
<!-- http://openprovenance.org/var#react_id&#45;&gt;http://openprovenance.org/var#post_id -->
<g id="edge20" class="edge">
<title>http://openprovenance.org/var#react_id&#45;&gt;http://openprovenance.org/var#post_id</title>
<path fill="none" stroke="black" d="M732.93,-316.61C741.96,-326.22 753.51,-338.38 764,-349 780.12,-365.32 785.24,-368.32 801,-385 808.39,-392.82 816.18,-401.61 823.07,-409.59"/>
<polygon fill="black" stroke="black" points="820.46,-411.91 829.62,-417.23 825.77,-407.36 820.46,-411.91"/>
<text text-anchor="middle" x="747.53" y="-311.27" font-family="Times,serif" font-size="8.00">inf</text>
</g>
<!-- http://openprovenance.org/var#reaction_author_id -->
<g id="node21" class="node">
<title>http://openprovenance.org/var#reaction_author_id</title>
<g id="a_node21"><a xlink:href="http://openprovenance.org/var#reaction_author_id" xlink:title="reaction_author_id">
<polygon fill="#fdb266" stroke="black" points="373.91,-441.06 254,-453.5 134.09,-441.06 134.21,-420.94 373.79,-420.94 373.91,-441.06"/>
<text text-anchor="middle" x="254" y="-431.8" font-family="Times,serif" font-size="14.00">reaction_author_id</text>
</a>
</g>
</g>
<!-- http://openprovenance.org/var#react_id&#45;&gt;http://openprovenance.org/var#reaction_author_id -->
<g id="edge21" class="edge">
<title>http://openprovenance.org/var#react_id&#45;&gt;http://openprovenance.org/var#reaction_author_id</title>
<path fill="none" stroke="black" d="M705.88,-316.65C697.65,-327.81 685.41,-341.62 671,-349 556.18,-407.79 508.13,-353.66 383,-385 351.74,-392.83 317.77,-406.07 292.53,-416.89"/>
<polygon fill="black" stroke="black" points="291.09,-413.7 283.31,-420.9 293.88,-420.12 291.09,-413.7"/>
<text text-anchor="middle" x="711.71" y="-328.57" font-family="Times,serif" font-size="8.00">assoc</text>
</g>
<!-- &#45;attrs2 -->
<g id="node6" class="node">
<title>&#45;attrs2</title>
<polygon fill="none" stroke="gray" points="605.5,-179.5 524.5,-179.5 524.5,-143.5 611.5,-143.5 611.5,-173.5 605.5,-179.5"/>
<polyline fill="none" stroke="gray" points="605.5,-179.5 605.5,-173.5 "/>
<polyline fill="none" stroke="gray" points="611.5,-173.5 605.5,-173.5 "/>
<text text-anchor="start" x="535" y="-158.5" font-family="Times,serif" font-size="10.00">type:</text>
<text text-anchor="start" x="563" y="-158.5" font-family="Times,serif" font-size="10.00">publish</text>
</g>
<!-- &#45;attrs2&#45;&gt;http://openprovenance.org/var#react_id -->
<g id="edge3" class="edge">
<title>&#45;attrs2&#45;&gt;http://openprovenance.org/var#react_id</title>
<path fill="none" stroke="gray" stroke-dasharray="5,2" d="M584.75,-179.65C594.67,-189.5 607.67,-201.87 620,-212 641.44,-229.61 650.11,-229.74 671,-248 682.31,-257.88 693.81,-270.26 702.48,-280.16"/>
</g>
<!-- http://openprovenance.org/var#original_tweet_id -->
<g id="node7" class="node">
<title>http://openprovenance.org/var#original_tweet_id</title>
<g id="a_node7"><a xlink:href="http://openprovenance.org/var#original_tweet_id" xlink:title="original_tweet_id">
<ellipse fill="#fffc87" stroke="#808080" cx="968" cy="-298.5" rx="90.18" ry="18"/>
<text text-anchor="middle" x="968" y="-294.8" font-family="Times,serif" font-size="14.00">original_tweet_id</text>
</a>
</g>
</g>
<!-- http://openprovenance.org/var#original_tweet_id&#45;&gt;http://openprovenance.org/var#post_id -->
<g id="edge12" class="edge">
<title>http://openprovenance.org/var#original_tweet_id&#45;&gt;http://openprovenance.org/var#post_id</title>
<path fill="none" stroke="black" d="M951.93,-316.41C935.69,-333.58 909.92,-360.97 888,-385 880.68,-393.03 872.77,-401.87 865.7,-409.84"/>
<polygon fill="black" stroke="black" points="862.97,-407.64 858.96,-417.45 868.21,-412.28 862.97,-407.64"/>
<text text-anchor="middle" x="956.22" y="-328.89" font-family="Times,serif" font-size="8.00">gen</text>
</g>
<!-- &#45;attrs3 -->
<g id="node8" class="node">
<title>&#45;attrs3</title>
<polygon fill="none" stroke="gray" points="969.5,-179.5 838.5,-179.5 838.5,-143.5 975.5,-143.5 975.5,-173.5 969.5,-179.5"/>
<polyline fill="none" stroke="gray" points="969.5,-179.5 969.5,-173.5 "/>
<polyline fill="none" stroke="gray" points="975.5,-173.5 969.5,-173.5 "/>
<text text-anchor="start" x="849" y="-165.5" font-family="Times,serif" font-size="10.00">type:</text>
<text text-anchor="start" x="882" y="-165.5" font-family="Times,serif" font-size="10.00">original tweet</text>
<text text-anchor="start" x="849" y="-152.5" font-family="Times,serif" font-size="10.00">value:</text>
<text text-anchor="start" x="882" y="-152.5" font-family="Times,serif" font-size="10.00">var:original_text</text>
</g>
<!-- &#45;attrs3&#45;&gt;http://openprovenance.org/var#original_tweet_id -->
<g id="edge4" class="edge">
<title>&#45;attrs3&#45;&gt;http://openprovenance.org/var#original_tweet_id</title>
<path fill="none" stroke="gray" stroke-dasharray="5,2" d="M914.73,-179.6C926.46,-205.57 948.64,-254.66 960.34,-280.54"/>
</g>
<!-- &#45;attrs4 -->
<g id="node10" class="node">
<title>&#45;attrs4</title>
<polygon fill="none" stroke="gray" points="1178.5,-486 979.5,-486 979.5,-385 1184.5,-385 1184.5,-480 1178.5,-486"/>
<polyline fill="none" stroke="gray" points="1178.5,-486 1178.5,-480 "/>
<polyline fill="none" stroke="gray" points="1184.5,-480 1178.5,-480 "/>
<text text-anchor="start" x="990" y="-471.5" font-family="Times,serif" font-size="10.00">type:</text>
<text text-anchor="start" x="1068" y="-471.5" font-family="Times,serif" font-size="10.00">tweet properties</text>
<text text-anchor="start" x="990" y="-458.5" font-family="Times,serif" font-size="10.00">created_at:</text>
<text text-anchor="start" x="1068" y="-458.5" font-family="Times,serif" font-size="10.00">var:ot_created_at</text>
<text text-anchor="start" x="990" y="-445.5" font-family="Times,serif" font-size="10.00">location:</text>
<text text-anchor="start" x="1068" y="-445.5" font-family="Times,serif" font-size="10.00">var:ot_location</text>
<text text-anchor="start" x="990" y="-432.5" font-family="Times,serif" font-size="10.00">like_count:</text>
<text text-anchor="start" x="1068" y="-432.5" font-family="Times,serif" font-size="10.00">var:ot_like_count</text>
<text text-anchor="start" x="990" y="-419.5" font-family="Times,serif" font-size="10.00">quote_count:</text>
<text text-anchor="start" x="1068" y="-419.5" font-family="Times,serif" font-size="10.00">var:ot_quote_count</text>
<text text-anchor="start" x="990" y="-406.5" font-family="Times,serif" font-size="10.00">reply_count:</text>
<text text-anchor="start" x="1068" y="-406.5" font-family="Times,serif" font-size="10.00">var:ot_reply_count</text>
<text text-anchor="start" x="990" y="-393.5" font-family="Times,serif" font-size="10.00">retweet_count:</text>
<text text-anchor="start" x="1068" y="-393.5" font-family="Times,serif" font-size="10.00">var:ot_retweet_count</text>
</g>
<!-- &#45;attrs4&#45;&gt;http://openprovenance.org/var#original_tweet_props_id -->
<g id="edge5" class="edge">
<title>&#45;attrs4&#45;&gt;http://openprovenance.org/var#original_tweet_props_id</title>
<path fill="none" stroke="gray" stroke-dasharray="5,2" d="M1007.74,-486.25C988.4,-499.2 968.87,-512.29 954.1,-522.18"/>
</g>
<!-- http://openprovenance.org/var#edited_tweet_id -->
<g id="node11" class="node">
<title>http://openprovenance.org/var#edited_tweet_id</title>
<g id="a_node11"><a xlink:href="http://openprovenance.org/var#edited_tweet_id" xlink:title="edited_tweet_id">
<ellipse fill="#fffc87" stroke="#808080" cx="1077" cy="-161.5" rx="83.69" ry="18"/>
<text text-anchor="middle" x="1077" y="-157.8" font-family="Times,serif" font-size="14.00">edited_tweet_id</text>
</a>
</g>
</g>
<!-- http://openprovenance.org/var#edited_tweet_id&#45;&gt;http://openprovenance.org/var#edit_id -->
<g id="edge16" class="edge">
<title>http://openprovenance.org/var#edited_tweet_id&#45;&gt;http://openprovenance.org/var#edit_id</title>
<path fill="none" stroke="black" d="M1078.39,-179.76C1081.35,-220.74 1086.46,-322.46 1067,-349 1040.05,-385.74 1008.27,-358.78 971,-385 961.64,-391.58 953.1,-400.73 946.19,-409.38"/>
<polygon fill="black" stroke="black" points="943.36,-407.32 940.11,-417.41 948.94,-411.55 943.36,-407.32"/>
<text text-anchor="middle" x="1091.85" y="-184.49" font-family="Times,serif" font-size="8.00">gen</text>
</g>
<!-- http://openprovenance.org/var#edited_tweet_id&#45;&gt;http://openprovenance.org/var#original_tweet_id -->
<g id="edge15" class="edge">
<title>http://openprovenance.org/var#edited_tweet_id&#45;&gt;http://openprovenance.org/var#original_tweet_id</title>
<path fill="none" stroke="black" d="M1063.42,-179.32C1044.49,-202.77 1010.04,-245.43 988.12,-272.58"/>
<polygon fill="black" stroke="black" points="985.31,-270.48 981.76,-280.46 990.76,-274.88 985.31,-270.48"/>
<text text-anchor="middle" x="1068.81" y="-191.42" font-family="Times,serif" font-size="8.00">der</text>
</g>
<!-- &#45;attrs5 -->
<g id="node12" class="node">
<title>&#45;attrs5</title>
<polygon fill="none" stroke="gray" points="1136,-75 1012,-75 1012,-39 1142,-39 1142,-69 1136,-75"/>
<polyline fill="none" stroke="gray" points="1136,-75 1136,-69 "/>
<polyline fill="none" stroke="gray" points="1142,-69 1136,-69 "/>
<text text-anchor="start" x="1022" y="-61" font-family="Times,serif" font-size="10.00">type:</text>
<text text-anchor="start" x="1055" y="-61" font-family="Times,serif" font-size="10.00">edited tweet</text>
<text text-anchor="start" x="1022" y="-48" font-family="Times,serif" font-size="10.00">value:</text>
<text text-anchor="start" x="1055" y="-48" font-family="Times,serif" font-size="10.00">var:edited_text</text>
</g>
<!-- &#45;attrs5&#45;&gt;http://openprovenance.org/var#edited_tweet_id -->
<g id="edge6" class="edge">
<title>&#45;attrs5&#45;&gt;http://openprovenance.org/var#edited_tweet_id</title>
<path fill="none" stroke="gray" stroke-dasharray="5,2" d="M1077,-75.39C1077,-94.35 1077,-124.51 1077,-143.37"/>
</g>
<!-- http://openprovenance.org/var#original_author_props_id -->
<g id="node13" class="node">
<title>http://openprovenance.org/var#original_author_props_id</title>
<g id="a_node13"><a xlink:href="http://openprovenance.org/var#original_author_props_id" xlink:title="original_author_props_id">
<ellipse fill="#fffc87" stroke="#808080" cx="667" cy="-435.5" rx="125.38" ry="18"/>
<text text-anchor="middle" x="667" y="-431.8" font-family="Times,serif" font-size="14.00">original_author_props_id</text>
</a>
</g>
</g>
<!-- http://openprovenance.org/var#original_author_props_id&#45;&gt;http://openprovenance.org/var#original_author_id -->
<g id="edge19" class="edge">
<title>http://openprovenance.org/var#original_author_props_id&#45;&gt;http://openprovenance.org/var#original_author_id</title>
<path fill="none" stroke="black" d="M667.51,-453.89C668,-470.69 668.75,-496.29 669.3,-515.03"/>
<polygon fill="black" stroke="black" points="665.8,-515.26 669.59,-525.15 672.8,-515.05 665.8,-515.26"/>
<text text-anchor="middle" x="680.71" y="-459.1" font-family="Times,serif" font-size="8.00">att</text>
</g>
<!-- &#45;attrs6 -->
<g id="node14" class="node">
<title>&#45;attrs6</title>
<polygon fill="none" stroke="gray" points="656,-349 438,-349 438,-248 662,-248 662,-343 656,-349"/>
<polyline fill="none" stroke="gray" points="656,-349 656,-343 "/>
<polyline fill="none" stroke="gray" points="662,-343 656,-343 "/>
<text text-anchor="start" x="448" y="-334.5" font-family="Times,serif" font-size="10.00">type:</text>
<text text-anchor="start" x="534" y="-334.5" font-family="Times,serif" font-size="10.00">user properties</text>
<text text-anchor="start" x="448" y="-321.5" font-family="Times,serif" font-size="10.00">credible:</text>
<text text-anchor="start" x="534" y="-321.5" font-family="Times,serif" font-size="10.00">var:oa_credible</text>
<text text-anchor="start" x="448" y="-308.5" font-family="Times,serif" font-size="10.00">name:</text>
<text text-anchor="start" x="534" y="-308.5" font-family="Times,serif" font-size="10.00">var:oa_name</text>
<text text-anchor="start" x="448" y="-295.5" font-family="Times,serif" font-size="10.00">username:</text>
<text text-anchor="start" x="534" y="-295.5" font-family="Times,serif" font-size="10.00">var:oa_username</text>
<text text-anchor="start" x="448" y="-282.5" font-family="Times,serif" font-size="10.00">verified:</text>
<text text-anchor="start" x="534" y="-282.5" font-family="Times,serif" font-size="10.00">var:oa_verified</text>
<text text-anchor="start" x="448" y="-269.5" font-family="Times,serif" font-size="10.00">followers_count:</text>
<text text-anchor="start" x="534" y="-269.5" font-family="Times,serif" font-size="10.00">var:oa_followers_count</text>
<text text-anchor="start" x="448" y="-256.5" font-family="Times,serif" font-size="10.00">following_count:</text>
<text text-anchor="start" x="534" y="-256.5" font-family="Times,serif" font-size="10.00">var:oa_following_count</text>
</g>
<!-- &#45;attrs6&#45;&gt;http://openprovenance.org/var#original_author_props_id -->
<g id="edge7" class="edge">
<title>&#45;attrs6&#45;&gt;http://openprovenance.org/var#original_author_props_id</title>
<path fill="none" stroke="gray" stroke-dasharray="5,2" d="M592.9,-349C613.77,-373.08 637.5,-400.46 652.36,-417.61"/>
</g>
<!-- http://openprovenance.org/var#reaction_author_props_id -->
<g id="node15" class="node">
<title>http://openprovenance.org/var#reaction_author_props_id</title>
<g id="a_node15"><a xlink:href="http://openprovenance.org/var#reaction_author_props_id" xlink:title="reaction_author_props_id">
<ellipse fill="#fffc87" stroke="#808080" cx="292" cy="-298.5" rx="128.08" ry="18"/>
<text text-anchor="middle" x="292" y="-294.8" font-family="Times,serif" font-size="14.00">reaction_author_props_id</text>
</a>
</g>
</g>
<!-- http://openprovenance.org/var#reaction_author_props_id&#45;&gt;http://openprovenance.org/var#reaction_author_id -->
<g id="edge22" class="edge">
<title>http://openprovenance.org/var#reaction_author_props_id&#45;&gt;http://openprovenance.org/var#reaction_author_id</title>
<path fill="none" stroke="black" d="M287.19,-316.6C280.45,-340.52 268.19,-384.08 260.61,-411.03"/>
<polygon fill="black" stroke="black" points="257.2,-410.22 257.86,-420.8 263.94,-412.12 257.2,-410.22"/>
<text text-anchor="middle" x="297.66" y="-325.44" font-family="Times,serif" font-size="8.00">att</text>
</g>
<!-- &#45;attrs7 -->
<g id="node16" class="node">
<title>&#45;attrs7</title>
<polygon fill="none" stroke="gray" points="397,-212 181,-212 181,-111 403,-111 403,-206 397,-212"/>
<polyline fill="none" stroke="gray" points="397,-212 397,-206 "/>
<polyline fill="none" stroke="gray" points="403,-206 397,-206 "/>
<text text-anchor="start" x="191" y="-197.5" font-family="Times,serif" font-size="10.00">type:</text>
<text text-anchor="start" x="277" y="-197.5" font-family="Times,serif" font-size="10.00">user properties</text>
<text text-anchor="start" x="191" y="-184.5" font-family="Times,serif" font-size="10.00">credible:</text>
<text text-anchor="start" x="277" y="-184.5" font-family="Times,serif" font-size="10.00">var:ra_credible</text>
<text text-anchor="start" x="191" y="-171.5" font-family="Times,serif" font-size="10.00">name:</text>
<text text-anchor="start" x="277" y="-171.5" font-family="Times,serif" font-size="10.00">var:ra_name</text>
<text text-anchor="start" x="191" y="-158.5" font-family="Times,serif" font-size="10.00">username:</text>
<text text-anchor="start" x="277" y="-158.5" font-family="Times,serif" font-size="10.00">var:ra_username</text>
<text text-anchor="start" x="191" y="-145.5" font-family="Times,serif" font-size="10.00">verified:</text>
<text text-anchor="start" x="277" y="-145.5" font-family="Times,serif" font-size="10.00">var:ra_verified</text>
<text text-anchor="start" x="191" y="-132.5" font-family="Times,serif" font-size="10.00">followers_count:</text>
<text text-anchor="start" x="277" y="-132.5" font-family="Times,serif" font-size="10.00">var:ra_followers_count</text>
<text text-anchor="start" x="191" y="-119.5" font-family="Times,serif" font-size="10.00">following_count:</text>
<text text-anchor="start" x="277" y="-119.5" font-family="Times,serif" font-size="10.00">var:ra_following_count</text>
</g>
<!-- &#45;attrs7&#45;&gt;http://openprovenance.org/var#reaction_author_props_id -->
<g id="edge8" class="edge">
<title>&#45;attrs7&#45;&gt;http://openprovenance.org/var#reaction_author_props_id</title>
<path fill="none" stroke="gray" stroke-dasharray="5,2" d="M292,-212C292,-235.93 292,-263.12 292,-280.28"/>
</g>
<!-- http://openprovenance.org/var#reaction_tweet_id -->
<g id="node17" class="node">
<title>http://openprovenance.org/var#reaction_tweet_id</title>
<g id="a_node17"><a xlink:href="http://openprovenance.org/var#reaction_tweet_id" xlink:title="reaction_tweet_id">
<ellipse fill="#fffc87" stroke="#808080" cx="722" cy="-161.5" rx="92.88" ry="18"/>
<text text-anchor="middle" x="722" y="-157.8" font-family="Times,serif" font-size="14.00">reaction_tweet_id</text>
</a>
</g>
</g>
<!-- http://openprovenance.org/var#reaction_tweet_id&#45;&gt;http://openprovenance.org/var#react_id -->
<g id="edge23" class="edge">
<title>http://openprovenance.org/var#reaction_tweet_id&#45;&gt;http://openprovenance.org/var#react_id</title>
<path fill="none" stroke="black" d="M721.37,-179.6C720.52,-202.4 719.02,-243.02 718.01,-270.11"/>
<polygon fill="black" stroke="black" points="714.52,-269.99 717.64,-280.11 721.51,-270.25 714.52,-269.99"/>
<text text-anchor="middle" x="734.07" y="-185.67" font-family="Times,serif" font-size="8.00">gen</text>
</g>
<!-- &#45;attrs8 -->
<g id="node18" class="node">
<title>&#45;attrs8</title>
<polygon fill="none" stroke="gray" points="802.5,-75 635.5,-75 635.5,-39 808.5,-39 808.5,-69 802.5,-75"/>
<polyline fill="none" stroke="gray" points="802.5,-75 802.5,-69 "/>
<polyline fill="none" stroke="gray" points="808.5,-69 802.5,-69 "/>
<text text-anchor="start" x="646" y="-61" font-family="Times,serif" font-size="10.00">type:</text>
<text text-anchor="start" x="679" y="-61" font-family="Times,serif" font-size="10.00">var:reply/retweet/quote</text>
<text text-anchor="start" x="646" y="-48" font-family="Times,serif" font-size="10.00">value:</text>
<text text-anchor="start" x="679" y="-48" font-family="Times,serif" font-size="10.00">var:reaction_text</text>
</g>
<!-- &#45;attrs8&#45;&gt;http://openprovenance.org/var#reaction_tweet_id -->
<g id="edge9" class="edge">
<title>&#45;attrs8&#45;&gt;http://openprovenance.org/var#reaction_tweet_id</title>
<path fill="none" stroke="gray" stroke-dasharray="5,2" d="M722,-75.39C722,-94.35 722,-124.51 722,-143.37"/>
</g>
<!-- &#45;attrs9 -->
<g id="node20" class="node">
<title>&#45;attrs9</title>
<polygon fill="none" stroke="gray" points="518,-453.5 392,-453.5 392,-417.5 524,-417.5 524,-447.5 518,-453.5"/>
<polyline fill="none" stroke="gray" points="518,-453.5 518,-447.5 "/>
<polyline fill="none" stroke="gray" points="524,-447.5 518,-447.5 "/>
<text text-anchor="start" x="402" y="-439.5" font-family="Times,serif" font-size="10.00">type:</text>
<text text-anchor="start" x="436" y="-439.5" font-family="Times,serif" font-size="10.00">prov:Person</text>
<text text-anchor="start" x="402" y="-426.5" font-family="Times,serif" font-size="10.00">name:</text>
<text text-anchor="start" x="436" y="-426.5" font-family="Times,serif" font-size="10.00">var:ag_o_name</text>
</g>
<!-- &#45;attrs9&#45;&gt;http://openprovenance.org/var#original_author_id -->
<g id="edge10" class="edge">
<title>&#45;attrs9&#45;&gt;http://openprovenance.org/var#original_author_id</title>
<path fill="none" stroke="gray" stroke-dasharray="5,2" d="M481.19,-453.68C495.62,-463.89 514.84,-476.63 533,-486 563.71,-501.84 600.29,-515.76 627.93,-525.36"/>
</g>
<!-- &#45;attrs10 -->
<g id="node22" class="node">
<title>&#45;attrs10</title>
<polygon fill="none" stroke="gray" points="140,-316.5 16,-316.5 16,-280.5 146,-280.5 146,-310.5 140,-316.5"/>
<polyline fill="none" stroke="gray" points="140,-316.5 140,-310.5 "/>
<polyline fill="none" stroke="gray" points="146,-310.5 140,-310.5 "/>
<text text-anchor="start" x="26" y="-302.5" font-family="Times,serif" font-size="10.00">type:</text>
<text text-anchor="start" x="60" y="-302.5" font-family="Times,serif" font-size="10.00">prov:Person</text>
<text text-anchor="start" x="26" y="-289.5" font-family="Times,serif" font-size="10.00">name:</text>
<text text-anchor="start" x="60" y="-289.5" font-family="Times,serif" font-size="10.00">var:ag_r_name</text>
</g>
<!-- &#45;attrs10&#45;&gt;http://openprovenance.org/var#reaction_author_id -->
<g id="edge11" class="edge">
<title>&#45;attrs10&#45;&gt;http://openprovenance.org/var#reaction_author_id</title>
<path fill="none" stroke="gray" stroke-dasharray="5,2" d="M102.91,-316.6C137.64,-343.7 204.65,-395.99 236.44,-420.8"/>
</g>
</g>
</svg>
