<?xml version="1.0" encoding="UTF-8" standalone="no"?>
<!DOCTYPE svg PUBLIC "-//W3C//DTD SVG 1.1//EN"
 "http://www.w3.org/Graphics/SVG/1.1/DTD/svg11.dtd">
<!-- Generated by graphviz version 2.43.0 (0)
 -->
<!-- Title: PROV Pages: 1 -->
<svg width="1152pt" height="444pt"
 viewBox="0.00 0.00 1152.00 444.02" xmlns="http://www.w3.org/2000/svg" xmlns:xlink="http://www.w3.org/1999/xlink">
<g id="graph0" class="graph" transform="scale(1.31 1.31) rotate(0) translate(4 578)">
<title>PROV</title>
<polygon fill="white" stroke="transparent" points="-4,4 -4,-578 1506,-578 1506,4 -4,4"/>
<g id="clust1" class="cluster">
<title>clusterhttp://openprovenance.org/vargen#bundle_id</title>
<g id="a_clust1"><a xlink:href="http://openprovenance.org/vargen#bundle_id" xlink:title="bundle_id">
<polygon fill="none" stroke="black" points="8,-8 8,-566 1494,-566 1494,-8 8,-8"/>
<text text-anchor="middle" x="751" y="-15.8" font-family="Times,serif" font-size="14.00">bundle_id</text>
</a>
</g>
</g>
<!-- http://openprovenance.org/var#post_id -->
<g id="node1" class="node">
<title>http://openprovenance.org/var#post_id</title>
<g id="a_node1"><a xlink:href="http://openprovenance.org/var#post_id" xlink:title="post_id">
<polygon fill="#9fb1fc" stroke="#0000ff" points="1134,-453.5 1066,-453.5 1066,-417.5 1134,-417.5 1134,-453.5"/>
<text text-anchor="middle" x="1100" y="-431.8" font-family="Times,serif" font-size="14.00">post_id</text>
</a>
</g>
</g>
<!-- http://openprovenance.org/var#original_tweet_props_id -->
<g id="node9" class="node">
<title>http://openprovenance.org/var#original_tweet_props_id</title>
<g id="a_node9"><a xlink:href="http://openprovenance.org/var#original_tweet_props_id" xlink:title="original_tweet_props_id">
<ellipse fill="#fffc87" stroke="#808080" cx="1238" cy="-540" rx="120.78" ry="18"/>
<text text-anchor="middle" x="1238" y="-536.3" font-family="Times,serif" font-size="14.00">original_tweet_props_id</text>
</a>
</g>
</g>
<!-- http://openprovenance.org/var#post_id&#45;&gt;http://openprovenance.org/var#original_tweet_props_id -->
<g id="edge15" class="edge">
<title>http://openprovenance.org/var#post_id&#45;&gt;http://openprovenance.org/var#original_tweet_props_id</title>
<path fill="none" stroke="black" d="M1113.03,-453.85C1121.2,-464 1132.37,-476.62 1144,-486 1159.13,-498.21 1177.45,-509.23 1193.87,-518.02"/>
<polygon fill="black" stroke="black" points="1192.29,-521.14 1202.77,-522.66 1195.53,-514.93 1192.29,-521.14"/>
<text text-anchor="middle" x="1127.84" y="-449.55" font-family="Times,serif" font-size="8.00">use</text>
</g>
<!-- http://openprovenance.org/var#original_author_id -->
<g id="node21" class="node">
<title>http://openprovenance.org/var#original_author_id</title>
<g id="a_node21"><a xlink:href="http://openprovenance.org/var#original_author_id" xlink:title="original_author_id">
<polygon fill="#fdb266" stroke="black" points="1099.09,-545.56 982,-558 864.91,-545.56 865.02,-525.44 1098.98,-525.44 1099.09,-545.56"/>
<text text-anchor="middle" x="982" y="-536.3" font-family="Times,serif" font-size="14.00">original_author_id</text>
</a>
</g>
</g>
<!-- http://openprovenance.org/var#post_id&#45;&gt;http://openprovenance.org/var#original_author_id -->
<g id="edge14" class="edge">
<title>http://openprovenance.org/var#post_id&#45;&gt;http://openprovenance.org/var#original_author_id</title>
<path fill="none" stroke="black" d="M1086.6,-453.92C1078.56,-463.85 1067.81,-476.23 1057,-486 1043.39,-498.31 1026.86,-510.27 1012.78,-519.7"/>
<polygon fill="black" stroke="black" points="1010.81,-516.8 1004.38,-525.22 1014.66,-522.65 1010.81,-516.8"/>
<text text-anchor="middle" x="1091.91" y="-466.05" font-family="Times,serif" font-size="8.00">assoc</text>
</g>
<!-- &#45;attrs0 -->
<g id="node2" class="node">
<title>&#45;attrs0</title>
<polygon fill="none" stroke="gray" points="1155.5,-316.5 1074.5,-316.5 1074.5,-280.5 1161.5,-280.5 1161.5,-310.5 1155.5,-316.5"/>
<polyline fill="none" stroke="gray" points="1155.5,-316.5 1155.5,-310.5 "/>
<polyline fill="none" stroke="gray" points="1161.5,-310.5 1155.5,-310.5 "/>
<text text-anchor="start" x="1085" y="-295.5" font-family="Times,serif" font-size="10.00">type:</text>
<text text-anchor="start" x="1113" y="-295.5" font-family="Times,serif" font-size="10.00">publish</text>
</g>
<!-- &#45;attrs0&#45;&gt;http://openprovenance.org/var#post_id -->
<g id="edge1" class="edge">
<title>&#45;attrs0&#45;&gt;http://openprovenance.org/var#post_id</title>
<path fill="none" stroke="gray" stroke-dasharray="5,2" d="M1115.72,-316.6C1112.28,-342.42 1105.78,-391.12 1102.32,-417.11"/>
</g>
<!-- http://openprovenance.org/var#edit_id -->
<g id="node3" class="node">
<title>http://openprovenance.org/var#edit_id</title>
<g id="a_node3"><a xlink:href="http://openprovenance.org/var#edit_id" xlink:title="edit_id">
<polygon fill="#9fb1fc" stroke="#0000ff" points="1217.5,-453.5 1152.5,-453.5 1152.5,-417.5 1217.5,-417.5 1217.5,-453.5"/>
<text text-anchor="middle" x="1185" y="-431.8" font-family="Times,serif" font-size="14.00">edit_id</text>
</a>
</g>
</g>
<!-- http://openprovenance.org/var#edit_id&#45;&gt;http://openprovenance.org/var#original_tweet_props_id -->
<g id="edge19" class="edge">
<title>http://openprovenance.org/var#edit_id&#45;&gt;http://openprovenance.org/var#original_tweet_props_id</title>
<path fill="none" stroke="black" d="M1193.99,-453.89C1202.34,-470.04 1214.89,-494.3 1224.45,-512.8"/>
<polygon fill="black" stroke="black" points="1221.44,-514.59 1229.14,-521.87 1227.66,-511.38 1221.44,-514.59"/>
<text text-anchor="middle" x="1208.97" y="-452.68" font-family="Times,serif" font-size="8.00">use</text>
</g>
<!-- http://openprovenance.org/var#edit_id&#45;&gt;http://openprovenance.org/var#original_author_id -->
<g id="edge18" class="edge">
<title>http://openprovenance.org/var#edit_id&#45;&gt;http://openprovenance.org/var#original_author_id</title>
<path fill="none" stroke="black" d="M1174.01,-453.76C1166.45,-464.4 1155.53,-477.57 1143,-486 1118.22,-502.69 1087.77,-514.47 1060.05,-522.62"/>
<polygon fill="black" stroke="black" points="1059.04,-519.27 1050.37,-525.36 1060.94,-526.01 1059.04,-519.27"/>
<text text-anchor="middle" x="1180.11" y="-465.57" font-family="Times,serif" font-size="8.00">assoc</text>
</g>
<!-- &#45;attrs1 -->
<g id="node4" class="node">
<title>&#45;attrs1</title>
<polygon fill="none" stroke="gray" points="1459.5,-316.5 1378.5,-316.5 1378.5,-280.5 1465.5,-280.5 1465.5,-310.5 1459.5,-316.5"/>
<polyline fill="none" stroke="gray" points="1459.5,-316.5 1459.5,-310.5 "/>
<polyline fill="none" stroke="gray" points="1465.5,-310.5 1459.5,-310.5 "/>
<text text-anchor="start" x="1389" y="-295.5" font-family="Times,serif" font-size="10.00">type:</text>
<text text-anchor="start" x="1417" y="-295.5" font-family="Times,serif" font-size="10.00">publish</text>
</g>
<!-- &#45;attrs1&#45;&gt;http://openprovenance.org/var#edit_id -->
<g id="edge2" class="edge">
<title>&#45;attrs1&#45;&gt;http://openprovenance.org/var#edit_id</title>
<path fill="none" stroke="gray" stroke-dasharray="5,2" d="M1407.89,-316.52C1398.05,-327.34 1384.03,-340.79 1369,-349 1311.86,-380.2 1282.24,-350.54 1227,-385 1214,-393.11 1202.95,-406.58 1195.46,-417.41"/>
</g>
<!-- http://openprovenance.org/var#react_id -->
<g id="node5" class="node">
<title>http://openprovenance.org/var#react_id</title>
<g id="a_node5"><a xlink:href="http://openprovenance.org/var#react_id" xlink:title="react_id">
<polygon fill="#9fb1fc" stroke="#0000ff" points="1056,-316.5 982,-316.5 982,-280.5 1056,-280.5 1056,-316.5"/>
<text text-anchor="middle" x="1019" y="-294.8" font-family="Times,serif" font-size="14.00">react_id</text>
</a>
</g>
</g>
<!-- http://openprovenance.org/var#react_id&#45;&gt;http://openprovenance.org/var#post_id -->
<g id="edge21" class="edge">
<title>http://openprovenance.org/var#react_id&#45;&gt;http://openprovenance.org/var#post_id</title>
<path fill="none" stroke="black" d="M1029.26,-316.6C1043.18,-339.8 1068.18,-381.46 1084.42,-408.54"/>
<polygon fill="black" stroke="black" points="1081.42,-410.34 1089.57,-417.11 1087.42,-406.74 1081.42,-410.34"/>
<text text-anchor="middle" x="1044.26" y="-314.45" font-family="Times,serif" font-size="8.00">inf</text>
</g>
<!-- http://openprovenance.org/var#reaction_tweet_props_id -->
<g id="node19" class="node">
<title>http://openprovenance.org/var#reaction_tweet_props_id</title>
<g id="a_node19"><a xlink:href="http://openprovenance.org/var#reaction_tweet_props_id" xlink:title="reaction_tweet_props_id">
<ellipse fill="#fffc87" stroke="#808080" cx="775" cy="-435.5" rx="123.48" ry="18"/>
<text text-anchor="middle" x="775" y="-431.8" font-family="Times,serif" font-size="14.00">reaction_tweet_props_id</text>
</a>
</g>
</g>
<!-- http://openprovenance.org/var#react_id&#45;&gt;http://openprovenance.org/var#reaction_tweet_props_id -->
<g id="edge25" class="edge">
<title>http://openprovenance.org/var#react_id&#45;&gt;http://openprovenance.org/var#reaction_tweet_props_id</title>
<path fill="none" stroke="black" d="M1005.98,-316.8C997.48,-327.19 985.65,-340.07 973,-349 948.43,-366.35 876.73,-395.59 826.72,-414.97"/>
<polygon fill="black" stroke="black" points="825.41,-411.72 817.34,-418.59 827.93,-418.26 825.41,-411.72"/>
<text text-anchor="middle" x="1011.18" y="-328.97" font-family="Times,serif" font-size="8.00">use</text>
</g>
<!-- http://openprovenance.org/var#reaction_author_id -->
<g id="node23" class="node">
<title>http://openprovenance.org/var#reaction_author_id</title>
<g id="a_node23"><a xlink:href="http://openprovenance.org/var#reaction_author_id" xlink:title="reaction_author_id">
<polygon fill="#fdb266" stroke="black" points="364.91,-441.06 245,-453.5 125.09,-441.06 125.21,-420.94 364.79,-420.94 364.91,-441.06"/>
<text text-anchor="middle" x="245" y="-431.8" font-family="Times,serif" font-size="14.00">reaction_author_id</text>
</a>
</g>
</g>
<!-- http://openprovenance.org/var#react_id&#45;&gt;http://openprovenance.org/var#reaction_author_id -->
<g id="edge22" class="edge">
<title>http://openprovenance.org/var#react_id&#45;&gt;http://openprovenance.org/var#reaction_author_id</title>
<path fill="none" stroke="black" d="M1008.02,-316.95C999.86,-328.24 987.64,-342.09 973,-349 852.41,-405.92 504.33,-356.78 374,-385 341.98,-391.93 307.42,-405.55 282.13,-416.75"/>
<polygon fill="black" stroke="black" points="280.6,-413.61 272.92,-420.91 283.48,-419.99 280.6,-413.61"/>
<text text-anchor="middle" x="1013.97" y="-328.82" font-family="Times,serif" font-size="8.00">assoc</text>
</g>
<!-- &#45;attrs2 -->
<g id="node6" class="node">
<title>&#45;attrs2</title>
<polygon fill="none" stroke="gray" points="910,-179.5 750,-179.5 750,-143.5 916,-143.5 916,-173.5 910,-179.5"/>
<polyline fill="none" stroke="gray" points="910,-179.5 910,-173.5 "/>
<polyline fill="none" stroke="gray" points="916,-173.5 910,-173.5 "/>
<text text-anchor="start" x="760" y="-165.5" font-family="Times,serif" font-size="10.00">type:</text>
<text text-anchor="start" x="797" y="-165.5" font-family="Times,serif" font-size="10.00">publish</text>
<text text-anchor="start" x="760" y="-152.5" font-family="Times,serif" font-size="10.00">linked:</text>
<text text-anchor="start" x="797" y="-152.5" font-family="Times,serif" font-size="10.00">var:reaction_tweet_id</text>
</g>
<!-- &#45;attrs2&#45;&gt;http://openprovenance.org/var#react_id -->
<g id="edge3" class="edge">
<title>&#45;attrs2&#45;&gt;http://openprovenance.org/var#react_id</title>
<path fill="none" stroke="gray" stroke-dasharray="5,2" d="M866.66,-179.65C896.13,-195.44 939.37,-220.52 973,-248 984.81,-257.65 996.49,-270.26 1005.12,-280.34"/>
</g>
<!-- http://openprovenance.org/var#original_tweet_id -->
<g id="node7" class="node">
<title>http://openprovenance.org/var#original_tweet_id</title>
<g id="a_node7"><a xlink:href="http://openprovenance.org/var#original_tweet_id" xlink:title="original_tweet_id">
<ellipse fill="#fffc87" stroke="#808080" cx="1270" cy="-298.5" rx="90.18" ry="18"/>
<text text-anchor="middle" x="1270" y="-294.8" font-family="Times,serif" font-size="14.00">original_tweet_id</text>
</a>
</g>
</g>
<!-- http://openprovenance.org/var#original_tweet_id&#45;&gt;http://openprovenance.org/var#post_id -->
<g id="edge13" class="edge">
<title>http://openprovenance.org/var#original_tweet_id&#45;&gt;http://openprovenance.org/var#post_id</title>
<path fill="none" stroke="black" d="M1242.04,-315.69C1215.52,-331.67 1175.2,-357.63 1144,-385 1135.49,-392.47 1127.01,-401.52 1119.8,-409.83"/>
<polygon fill="black" stroke="black" points="1117.1,-407.6 1113.32,-417.49 1122.45,-412.12 1117.1,-407.6"/>
<text text-anchor="middle" x="1242.39" y="-328.79" font-family="Times,serif" font-size="8.00">gen</text>
</g>
<!-- &#45;attrs3 -->
<g id="node8" class="node">
<title>&#45;attrs3</title>
<polygon fill="none" stroke="gray" points="1294.5,-179.5 1163.5,-179.5 1163.5,-143.5 1300.5,-143.5 1300.5,-173.5 1294.5,-179.5"/>
<polyline fill="none" stroke="gray" points="1294.5,-179.5 1294.5,-173.5 "/>
<polyline fill="none" stroke="gray" points="1300.5,-173.5 1294.5,-173.5 "/>
<text text-anchor="start" x="1174" y="-165.5" font-family="Times,serif" font-size="10.00">type:</text>
<text text-anchor="start" x="1207" y="-165.5" font-family="Times,serif" font-size="10.00">original tweet</text>
<text text-anchor="start" x="1174" y="-152.5" font-family="Times,serif" font-size="10.00">value:</text>
<text text-anchor="start" x="1207" y="-152.5" font-family="Times,serif" font-size="10.00">var:original_text</text>
</g>
<!-- &#45;attrs3&#45;&gt;http://openprovenance.org/var#original_tweet_id -->
<g id="edge4" class="edge">
<title>&#45;attrs3&#45;&gt;http://openprovenance.org/var#original_tweet_id</title>
<path fill="none" stroke="gray" stroke-dasharray="5,2" d="M1236.81,-179.6C1244.08,-205.42 1257.79,-254.12 1265.11,-280.11"/>
</g>
<!-- &#45;attrs4 -->
<g id="node10" class="node">
<title>&#45;attrs4</title>
<polygon fill="none" stroke="gray" points="1480,-486 1236,-486 1236,-385 1486,-385 1486,-480 1480,-486"/>
<polyline fill="none" stroke="gray" points="1480,-486 1480,-480 "/>
<polyline fill="none" stroke="gray" points="1486,-480 1480,-480 "/>
<text text-anchor="start" x="1246" y="-471.5" font-family="Times,serif" font-size="10.00">type:</text>
<text text-anchor="start" x="1324" y="-471.5" font-family="Times,serif" font-size="10.00">tweet properties</text>
<text text-anchor="start" x="1246" y="-458.5" font-family="Times,serif" font-size="10.00">created_at:</text>
<text text-anchor="start" x="1324" y="-458.5" font-family="Times,serif" font-size="10.00">var:ORIGINAL_created_at</text>
<text text-anchor="start" x="1246" y="-445.5" font-family="Times,serif" font-size="10.00">location:</text>
<text text-anchor="start" x="1324" y="-445.5" font-family="Times,serif" font-size="10.00">var:ORIGINAL_location</text>
<text text-anchor="start" x="1246" y="-432.5" font-family="Times,serif" font-size="10.00">like_count:</text>
<text text-anchor="start" x="1324" y="-432.5" font-family="Times,serif" font-size="10.00">var:ORIGINAL_like_count</text>
<text text-anchor="start" x="1246" y="-419.5" font-family="Times,serif" font-size="10.00">quote_count:</text>
<text text-anchor="start" x="1324" y="-419.5" font-family="Times,serif" font-size="10.00">var:ORIGINAL_quote_count</text>
<text text-anchor="start" x="1246" y="-406.5" font-family="Times,serif" font-size="10.00">reply_count:</text>
<text text-anchor="start" x="1324" y="-406.5" font-family="Times,serif" font-size="10.00">var:ORIGINAL_reply_count</text>
<text text-anchor="start" x="1246" y="-393.5" font-family="Times,serif" font-size="10.00">retweet_count:</text>
<text text-anchor="start" x="1324" y="-393.5" font-family="Times,serif" font-size="10.00">var:ORIGINAL_retweet_count</text>
</g>
<!-- &#45;attrs4&#45;&gt;http://openprovenance.org/var#original_tweet_props_id -->
<g id="edge5" class="edge">
<title>&#45;attrs4&#45;&gt;http://openprovenance.org/var#original_tweet_props_id</title>
<path fill="none" stroke="gray" stroke-dasharray="5,2" d="M1301.3,-486.25C1285.75,-499.2 1270.05,-512.29 1258.18,-522.18"/>
</g>
<!-- http://openprovenance.org/var#edited_tweet_id -->
<g id="node11" class="node">
<title>http://openprovenance.org/var#edited_tweet_id</title>
<g id="a_node11"><a xlink:href="http://openprovenance.org/var#edited_tweet_id" xlink:title="edited_tweet_id">
<ellipse fill="#fffc87" stroke="#808080" cx="1402" cy="-161.5" rx="83.69" ry="18"/>
<text text-anchor="middle" x="1402" y="-157.8" font-family="Times,serif" font-size="14.00">edited_tweet_id</text>
</a>
</g>
</g>
<!-- http://openprovenance.org/var#edited_tweet_id&#45;&gt;http://openprovenance.org/var#edit_id -->
<g id="edge17" class="edge">
<title>http://openprovenance.org/var#edited_tweet_id&#45;&gt;http://openprovenance.org/var#edit_id</title>
<path fill="none" stroke="black" d="M1422.58,-178.97C1440.29,-194.59 1464.6,-219.8 1475,-248 1490.53,-290.12 1504.37,-315.06 1475,-349 1402.12,-433.22 1324.44,-331.05 1227,-385 1216.69,-390.71 1207.79,-400.01 1200.88,-409.02"/>
<polygon fill="black" stroke="black" points="1197.83,-407.27 1194.87,-417.45 1203.53,-411.34 1197.83,-407.27"/>
<text text-anchor="middle" x="1436.85" y="-172.47" font-family="Times,serif" font-size="8.00">gen</text>
</g>
<!-- http://openprovenance.org/var#edited_tweet_id&#45;&gt;http://openprovenance.org/var#original_tweet_id -->
<g id="edge16" class="edge">
<title>http://openprovenance.org/var#edited_tweet_id&#45;&gt;http://openprovenance.org/var#original_tweet_id</title>
<path fill="none" stroke="black" d="M1385.55,-179.32C1362.43,-202.97 1320.19,-246.17 1293.69,-273.27"/>
<polygon fill="black" stroke="black" points="1291.15,-270.87 1286.66,-280.46 1296.15,-275.76 1291.15,-270.87"/>
<text text-anchor="middle" x="1389.59" y="-191.87" font-family="Times,serif" font-size="8.00">der</text>
</g>
<!-- &#45;attrs5 -->
<g id="node12" class="node">
<title>&#45;attrs5</title>
<polygon fill="none" stroke="gray" points="1461,-75 1337,-75 1337,-39 1467,-39 1467,-69 1461,-75"/>
<polyline fill="none" stroke="gray" points="1461,-75 1461,-69 "/>
<polyline fill="none" stroke="gray" points="1467,-69 1461,-69 "/>
<text text-anchor="start" x="1347" y="-61" font-family="Times,serif" font-size="10.00">type:</text>
<text text-anchor="start" x="1380" y="-61" font-family="Times,serif" font-size="10.00">edited tweet</text>
<text text-anchor="start" x="1347" y="-48" font-family="Times,serif" font-size="10.00">value:</text>
<text text-anchor="start" x="1380" y="-48" font-family="Times,serif" font-size="10.00">var:edited_text</text>
</g>
<!-- &#45;attrs5&#45;&gt;http://openprovenance.org/var#edited_tweet_id -->
<g id="edge6" class="edge">
<title>&#45;attrs5&#45;&gt;http://openprovenance.org/var#edited_tweet_id</title>
<path fill="none" stroke="gray" stroke-dasharray="5,2" d="M1402,-75.39C1402,-94.35 1402,-124.51 1402,-143.37"/>
</g>
<!-- http://openprovenance.org/var#original_author_props_id -->
<g id="node13" class="node">
<title>http://openprovenance.org/var#original_author_props_id</title>
<g id="a_node13"><a xlink:href="http://openprovenance.org/var#original_author_props_id" xlink:title="original_author_props_id">
<ellipse fill="#fffc87" stroke="#808080" cx="508" cy="-435.5" rx="125.38" ry="18"/>
<text text-anchor="middle" x="508" y="-431.8" font-family="Times,serif" font-size="14.00">original_author_props_id</text>
</a>
</g>
</g>
<!-- http://openprovenance.org/var#original_author_props_id&#45;&gt;http://openprovenance.org/var#original_author_id -->
<g id="edge20" class="edge">
<title>http://openprovenance.org/var#original_author_props_id&#45;&gt;http://openprovenance.org/var#original_author_id</title>
<path fill="none" stroke="black" d="M546.06,-452.74C572.76,-463.56 609.53,-477.34 643,-486 711.97,-503.85 790.49,-516.59 854.58,-525.1"/>
<polygon fill="black" stroke="black" points="854.37,-528.6 864.74,-526.43 855.28,-521.66 854.37,-528.6"/>
<text text-anchor="middle" x="557.85" y="-441.57" font-family="Times,serif" font-size="8.00">att</text>
</g>
<!-- &#45;attrs6 -->
<g id="node14" class="node">
<title>&#45;attrs6</title>
<polygon fill="none" stroke="gray" points="702,-349 442,-349 442,-248 708,-248 708,-343 702,-349"/>
<polyline fill="none" stroke="gray" points="702,-349 702,-343 "/>
<polyline fill="none" stroke="gray" points="708,-343 702,-343 "/>
<text text-anchor="start" x="452" y="-334.5" font-family="Times,serif" font-size="10.00">type:</text>
<text text-anchor="start" x="538" y="-334.5" font-family="Times,serif" font-size="10.00">user properties</text>
<text text-anchor="start" x="452" y="-321.5" font-family="Times,serif" font-size="10.00">credible:</text>
<text text-anchor="start" x="538" y="-321.5" font-family="Times,serif" font-size="10.00">var:ORIGINAL_credible</text>
<text text-anchor="start" x="452" y="-308.5" font-family="Times,serif" font-size="10.00">name:</text>
<text text-anchor="start" x="538" y="-308.5" font-family="Times,serif" font-size="10.00">var:ORIGINAL_name</text>
<text text-anchor="start" x="452" y="-295.5" font-family="Times,serif" font-size="10.00">username:</text>
<text text-anchor="start" x="538" y="-295.5" font-family="Times,serif" font-size="10.00">var:ORIGINAL_username</text>
<text text-anchor="start" x="452" y="-282.5" font-family="Times,serif" font-size="10.00">verified:</text>
<text text-anchor="start" x="538" y="-282.5" font-family="Times,serif" font-size="10.00">var:ORIGINAL_verified</text>
<text text-anchor="start" x="452" y="-269.5" font-family="Times,serif" font-size="10.00">followers_count:</text>
<text text-anchor="start" x="538" y="-269.5" font-family="Times,serif" font-size="10.00">var:ORIGINAL_followers_count</text>
<text text-anchor="start" x="452" y="-256.5" font-family="Times,serif" font-size="10.00">following_count:</text>
<text text-anchor="start" x="538" y="-256.5" font-family="Times,serif" font-size="10.00">var:ORIGINAL_following_count</text>
</g>
<!-- &#45;attrs6&#45;&gt;http://openprovenance.org/var#original_author_props_id -->
<g id="edge7" class="edge">
<title>&#45;attrs6&#45;&gt;http://openprovenance.org/var#original_author_props_id</title>
<path fill="none" stroke="gray" stroke-dasharray="5,2" d="M550.43,-349C538.56,-372.93 525.06,-400.12 516.54,-417.28"/>
</g>
<!-- http://openprovenance.org/var#reaction_author_props_id -->
<g id="node15" class="node">
<title>http://openprovenance.org/var#reaction_author_props_id</title>
<g id="a_node15"><a xlink:href="http://openprovenance.org/var#reaction_author_props_id" xlink:title="reaction_author_props_id">
<ellipse fill="#fffc87" stroke="#808080" cx="144" cy="-298.5" rx="128.08" ry="18"/>
<text text-anchor="middle" x="144" y="-294.8" font-family="Times,serif" font-size="14.00">reaction_author_props_id</text>
</a>
</g>
</g>
<!-- http://openprovenance.org/var#reaction_author_props_id&#45;&gt;http://openprovenance.org/var#reaction_author_id -->
<g id="edge23" class="edge">
<title>http://openprovenance.org/var#reaction_author_props_id&#45;&gt;http://openprovenance.org/var#reaction_author_id</title>
<path fill="none" stroke="black" d="M156.79,-316.6C175.01,-340.95 208.44,-385.63 228.5,-412.45"/>
<polygon fill="black" stroke="black" points="225.96,-414.89 234.75,-420.8 231.56,-410.7 225.96,-414.89"/>
<text text-anchor="middle" x="171.69" y="-312.92" font-family="Times,serif" font-size="8.00">att</text>
</g>
<!-- &#45;attrs7 -->
<g id="node16" class="node">
<title>&#45;attrs7</title>
<polygon fill="none" stroke="gray" points="261,-212 21,-212 21,-111 267,-111 267,-206 261,-212"/>
<polyline fill="none" stroke="gray" points="261,-212 261,-206 "/>
<polyline fill="none" stroke="gray" points="267,-206 261,-206 "/>
<text text-anchor="start" x="31" y="-197.5" font-family="Times,serif" font-size="10.00">type:</text>
<text text-anchor="start" x="117" y="-197.5" font-family="Times,serif" font-size="10.00">user properties</text>
<text text-anchor="start" x="31" y="-184.5" font-family="Times,serif" font-size="10.00">credible:</text>
<text text-anchor="start" x="117" y="-184.5" font-family="Times,serif" font-size="10.00">var:REPLY_credible</text>
<text text-anchor="start" x="31" y="-171.5" font-family="Times,serif" font-size="10.00">name:</text>
<text text-anchor="start" x="117" y="-171.5" font-family="Times,serif" font-size="10.00">var:REPLY_name</text>
<text text-anchor="start" x="31" y="-158.5" font-family="Times,serif" font-size="10.00">username:</text>
<text text-anchor="start" x="117" y="-158.5" font-family="Times,serif" font-size="10.00">var:REPLY_username</text>
<text text-anchor="start" x="31" y="-145.5" font-family="Times,serif" font-size="10.00">verified:</text>
<text text-anchor="start" x="117" y="-145.5" font-family="Times,serif" font-size="10.00">var:REPLY_verified</text>
<text text-anchor="start" x="31" y="-132.5" font-family="Times,serif" font-size="10.00">followers_count:</text>
<text text-anchor="start" x="117" y="-132.5" font-family="Times,serif" font-size="10.00">var:REPLY_followers_count</text>
<text text-anchor="start" x="31" y="-119.5" font-family="Times,serif" font-size="10.00">following_count:</text>
<text text-anchor="start" x="117" y="-119.5" font-family="Times,serif" font-size="10.00">var:REPLY_following_count</text>
</g>
<!-- &#45;attrs7&#45;&gt;http://openprovenance.org/var#reaction_author_props_id -->
<g id="edge8" class="edge">
<title>&#45;attrs7&#45;&gt;http://openprovenance.org/var#reaction_author_props_id</title>
<path fill="none" stroke="gray" stroke-dasharray="5,2" d="M144,-212C144,-235.93 144,-263.12 144,-280.28"/>
</g>
<!-- http://openprovenance.org/var#reaction_tweet_id -->
<g id="node17" class="node">
<title>http://openprovenance.org/var#reaction_tweet_id</title>
<g id="a_node17"><a xlink:href="http://openprovenance.org/var#reaction_tweet_id" xlink:title="reaction_tweet_id">
<ellipse fill="#fffc87" stroke="#808080" cx="1027" cy="-161.5" rx="92.88" ry="18"/>
<text text-anchor="middle" x="1027" y="-157.8" font-family="Times,serif" font-size="14.00">reaction_tweet_id</text>
</a>
</g>
</g>
<!-- http://openprovenance.org/var#reaction_tweet_id&#45;&gt;http://openprovenance.org/var#react_id -->
<g id="edge24" class="edge">
<title>http://openprovenance.org/var#reaction_tweet_id&#45;&gt;http://openprovenance.org/var#react_id</title>
<path fill="none" stroke="black" d="M1025.99,-179.6C1024.64,-202.4 1022.23,-243.02 1020.62,-270.11"/>
<polygon fill="black" stroke="black" points="1017.13,-269.93 1020.03,-280.11 1024.12,-270.34 1017.13,-269.93"/>
<text text-anchor="middle" x="1038.51" y="-185.95" font-family="Times,serif" font-size="8.00">gen</text>
</g>
<!-- http://openprovenance.org/var#reaction_tweet_id&#45;&gt;http://openprovenance.org/var#reaction_tweet_id -->
<g id="edge26" class="edge">
<title>http://openprovenance.org/var#reaction_tweet_id&#45;&gt;http://openprovenance.org/var#reaction_tweet_id</title>
<path fill="none" stroke="black" d="M1066.81,-145.22C1101.38,-137.79 1137.94,-143.22 1137.94,-161.5 1137.94,-178 1108.17,-184.03 1076.96,-179.59"/>
<polygon fill="black" stroke="black" points="1077.27,-176.09 1066.81,-177.78 1076.04,-182.98 1077.27,-176.09"/>
<text text-anchor="middle" x="1071.93" y="-129.22" font-family="Times,serif" font-size="8.00">der</text>
</g>
<!-- &#45;attrs8 -->
<g id="node18" class="node">
<title>&#45;attrs8</title>
<polygon fill="none" stroke="gray" points="1107.5,-75 940.5,-75 940.5,-39 1113.5,-39 1113.5,-69 1107.5,-75"/>
<polyline fill="none" stroke="gray" points="1107.5,-75 1107.5,-69 "/>
<polyline fill="none" stroke="gray" points="1113.5,-69 1107.5,-69 "/>
<text text-anchor="start" x="951" y="-61" font-family="Times,serif" font-size="10.00">type:</text>
<text text-anchor="start" x="984" y="-61" font-family="Times,serif" font-size="10.00">var:reply/retweet/quote</text>
<text text-anchor="start" x="951" y="-48" font-family="Times,serif" font-size="10.00">value:</text>
<text text-anchor="start" x="984" y="-48" font-family="Times,serif" font-size="10.00">var:reaction_text</text>
</g>
<!-- &#45;attrs8&#45;&gt;http://openprovenance.org/var#reaction_tweet_id -->
<g id="edge9" class="edge">
<title>&#45;attrs8&#45;&gt;http://openprovenance.org/var#reaction_tweet_id</title>
<path fill="none" stroke="gray" stroke-dasharray="5,2" d="M1027,-75.39C1027,-94.35 1027,-124.51 1027,-143.37"/>
</g>
<!-- &#45;attrs9 -->
<g id="node20" class="node">
<title>&#45;attrs9</title>
<polygon fill="none" stroke="gray" points="958,-342.5 726,-342.5 726,-254.5 964,-254.5 964,-336.5 958,-342.5"/>
<polyline fill="none" stroke="gray" points="958,-342.5 958,-336.5 "/>
<polyline fill="none" stroke="gray" points="964,-336.5 958,-336.5 "/>
<text text-anchor="start" x="736" y="-328.5" font-family="Times,serif" font-size="10.00">type:</text>
<text text-anchor="start" x="818" y="-328.5" font-family="Times,serif" font-size="10.00">tweet properties</text>
<text text-anchor="start" x="736" y="-315.5" font-family="Times,serif" font-size="10.00">linked:</text>
<text text-anchor="start" x="818" y="-315.5" font-family="Times,serif" font-size="10.00">var:react_id</text>
<text text-anchor="start" x="736" y="-302.5" font-family="Times,serif" font-size="10.00">created_at:</text>
<text text-anchor="start" x="818" y="-302.5" font-family="Times,serif" font-size="10.00">var:REPLY_created_at</text>
<text text-anchor="start" x="736" y="-289.5" font-family="Times,serif" font-size="10.00">location:</text>
<text text-anchor="start" x="818" y="-289.5" font-family="Times,serif" font-size="10.00">var:REPLY_location</text>
<text text-anchor="start" x="736" y="-276.5" font-family="Times,serif" font-size="10.00">reference_type:</text>
<text text-anchor="start" x="818" y="-276.5" font-family="Times,serif" font-size="10.00">var:REPLY_reference_type</text>
<text text-anchor="start" x="736" y="-263.5" font-family="Times,serif" font-size="10.00">reference_id:</text>
<text text-anchor="start" x="818" y="-263.5" font-family="Times,serif" font-size="10.00">var:REPLY_reference_id</text>
</g>
<!-- &#45;attrs9&#45;&gt;http://openprovenance.org/var#reaction_tweet_props_id -->
<g id="edge10" class="edge">
<title>&#45;attrs9&#45;&gt;http://openprovenance.org/var#reaction_tweet_props_id</title>
<path fill="none" stroke="gray" stroke-dasharray="5,2" d="M822.66,-342.59C809.54,-367.9 793.67,-398.5 783.96,-417.23"/>
</g>
<!-- &#45;attrs10 -->
<g id="node22" class="node">
<title>&#45;attrs10</title>
<polygon fill="none" stroke="gray" points="1042,-453.5 916,-453.5 916,-417.5 1048,-417.5 1048,-447.5 1042,-453.5"/>
<polyline fill="none" stroke="gray" points="1042,-453.5 1042,-447.5 "/>
<polyline fill="none" stroke="gray" points="1048,-447.5 1042,-447.5 "/>
<text text-anchor="start" x="926" y="-439.5" font-family="Times,serif" font-size="10.00">type:</text>
<text text-anchor="start" x="960" y="-439.5" font-family="Times,serif" font-size="10.00">prov:Person</text>
<text text-anchor="start" x="926" y="-426.5" font-family="Times,serif" font-size="10.00">name:</text>
<text text-anchor="start" x="960" y="-426.5" font-family="Times,serif" font-size="10.00">var:ag_o_name</text>
</g>
<!-- &#45;attrs10&#45;&gt;http://openprovenance.org/var#original_author_id -->
<g id="edge11" class="edge">
<title>&#45;attrs10&#45;&gt;http://openprovenance.org/var#original_author_id</title>
<path fill="none" stroke="gray" stroke-dasharray="5,2" d="M982,-453.89C982,-473.99 982,-506.68 982,-525.15"/>
</g>
<!-- &#45;attrs11 -->
<g id="node24" class="node">
<title>&#45;attrs11</title>
<polygon fill="none" stroke="gray" points="417.5,-323 290.5,-323 290.5,-274 423.5,-274 423.5,-317 417.5,-323"/>
<polyline fill="none" stroke="gray" points="417.5,-323 417.5,-317 "/>
<polyline fill="none" stroke="gray" points="423.5,-317 417.5,-317 "/>
<text text-anchor="start" x="301" y="-308.5" font-family="Times,serif" font-size="10.00">type:</text>
<text text-anchor="start" x="338" y="-308.5" font-family="Times,serif" font-size="10.00">prov:Person</text>
<text text-anchor="start" x="301" y="-295.5" font-family="Times,serif" font-size="10.00">name:</text>
<text text-anchor="start" x="338" y="-295.5" font-family="Times,serif" font-size="10.00">var:ag_r_name</text>
<text text-anchor="start" x="301" y="-282.5" font-family="Times,serif" font-size="10.00">linked:</text>
<text text-anchor="start" x="338" y="-282.5" font-family="Times,serif" font-size="10.00">var:react_id</text>
</g>
<!-- &#45;attrs11&#45;&gt;http://openprovenance.org/var#reaction_author_id -->
<g id="edge12" class="edge">
<title>&#45;attrs11&#45;&gt;http://openprovenance.org/var#reaction_author_id</title>
<path fill="none" stroke="gray" stroke-dasharray="5,2" d="M337.49,-323.02C314.05,-351.27 275.5,-397.73 256.43,-420.73"/>
</g>
</g>
</svg>
