<?xml version="1.0" encoding="UTF-8" standalone="no"?>
<!DOCTYPE svg PUBLIC "-//W3C//DTD SVG 1.1//EN"
 "http://www.w3.org/Graphics/SVG/1.1/DTD/svg11.dtd">
<!-- Generated by graphviz version 2.43.0 (0)
 -->
<!-- Title: PROV Pages: 1 -->
<svg width="1152pt" height="445pt"
 viewBox="0.00 0.00 1152.00 444.70" xmlns="http://www.w3.org/2000/svg" xmlns:xlink="http://www.w3.org/1999/xlink">
<g id="graph0" class="graph" transform="scale(1.28 1.28) rotate(0) translate(4 565)">
<title>PROV</title>
<polygon fill="white" stroke="transparent" points="-4,4 -4,-565 1470,-565 1470,4 -4,4"/>
<g id="clust1" class="cluster">
<title>clusterhttp://openprovenance.org/vargen#bundle_id</title>
<g id="a_clust1"><a xlink:href="http://openprovenance.org/vargen#bundle_id" xlink:title="bundle_id">
<polygon fill="none" stroke="black" points="8,-8 8,-553 1458,-553 1458,-8 8,-8"/>
<text text-anchor="middle" x="733" y="-15.8" font-family="Times,serif" font-size="14.00">bundle_id</text>
</a>
</g>
</g>
<!-- http://openprovenance.org/var#post_id -->
<g id="node1" class="node">
<title>http://openprovenance.org/var#post_id</title>
<g id="a_node1"><a xlink:href="http://openprovenance.org/var#post_id" xlink:title="post_id">
<polygon fill="#9fb1fc" stroke="#0000ff" points="1182,-440.5 1114,-440.5 1114,-404.5 1182,-404.5 1182,-440.5"/>
<text text-anchor="middle" x="1148" y="-418.8" font-family="Times,serif" font-size="14.00">post_id</text>
</a>
</g>
</g>
<!-- http://openprovenance.org/var#original_tweet_props_id -->
<g id="node7" class="node">
<title>http://openprovenance.org/var#original_tweet_props_id</title>
<g id="a_node7"><a xlink:href="http://openprovenance.org/var#original_tweet_props_id" xlink:title="original_tweet_props_id">
<ellipse fill="#fffc87" stroke="#808080" cx="1276" cy="-527" rx="120.78" ry="18"/>
<text text-anchor="middle" x="1276" y="-523.3" font-family="Times,serif" font-size="14.00">original_tweet_props_id</text>
</a>
</g>
</g>
<!-- http://openprovenance.org/var#post_id&#45;&gt;http://openprovenance.org/var#original_tweet_props_id -->
<g id="edge13" class="edge">
<title>http://openprovenance.org/var#post_id&#45;&gt;http://openprovenance.org/var#original_tweet_props_id</title>
<path fill="none" stroke="black" d="M1160.82,-440.69C1168.83,-450.78 1179.74,-463.39 1191,-473 1204.58,-484.59 1220.95,-495.41 1235.67,-504.22"/>
<polygon fill="black" stroke="black" points="1234.19,-507.4 1244.59,-509.42 1237.72,-501.36 1234.19,-507.4"/>
<text text-anchor="middle" x="1175.64" y="-436.5" font-family="Times,serif" font-size="8.00">use</text>
</g>
<!-- http://openprovenance.org/var#original_author_id -->
<g id="node17" class="node">
<title>http://openprovenance.org/var#original_author_id</title>
<g id="a_node17"><a xlink:href="http://openprovenance.org/var#original_author_id" xlink:title="original_author_id">
<polygon fill="#fdb266" stroke="black" points="1088.09,-532.56 971,-545 853.91,-532.56 854.02,-512.44 1087.98,-512.44 1088.09,-532.56"/>
<text text-anchor="middle" x="971" y="-523.3" font-family="Times,serif" font-size="14.00">original_author_id</text>
</a>
</g>
</g>
<!-- http://openprovenance.org/var#post_id&#45;&gt;http://openprovenance.org/var#original_author_id -->
<g id="edge12" class="edge">
<title>http://openprovenance.org/var#post_id&#45;&gt;http://openprovenance.org/var#original_author_id</title>
<path fill="none" stroke="black" d="M1136.49,-440.51C1128.65,-451.04 1117.45,-464.19 1105,-473 1082.83,-488.7 1055.36,-500.61 1031.07,-509.13"/>
<polygon fill="black" stroke="black" points="1029.94,-505.82 1021.59,-512.35 1032.18,-512.45 1029.94,-505.82"/>
<text text-anchor="middle" x="1142.31" y="-452.43" font-family="Times,serif" font-size="8.00">assoc</text>
</g>
<!-- &#45;attrs0 -->
<g id="node2" class="node">
<title>&#45;attrs0</title>
<polygon fill="none" stroke="gray" points="1443.5,-303.5 1362.5,-303.5 1362.5,-267.5 1449.5,-267.5 1449.5,-297.5 1443.5,-303.5"/>
<polyline fill="none" stroke="gray" points="1443.5,-303.5 1443.5,-297.5 "/>
<polyline fill="none" stroke="gray" points="1449.5,-297.5 1443.5,-297.5 "/>
<text text-anchor="start" x="1373" y="-282.5" font-family="Times,serif" font-size="10.00">type:</text>
<text text-anchor="start" x="1401" y="-282.5" font-family="Times,serif" font-size="10.00">publish</text>
</g>
<!-- &#45;attrs0&#45;&gt;http://openprovenance.org/var#post_id -->
<g id="edge1" class="edge">
<title>&#45;attrs0&#45;&gt;http://openprovenance.org/var#post_id</title>
<path fill="none" stroke="gray" stroke-dasharray="5,2" d="M1391.97,-303.67C1382.16,-314.55 1368.15,-328.02 1353,-336 1287.75,-370.38 1254.37,-334.26 1191,-372 1177.7,-379.92 1166.39,-393.4 1158.72,-404.29"/>
</g>
<!-- http://openprovenance.org/var#react_id -->
<g id="node3" class="node">
<title>http://openprovenance.org/var#react_id</title>
<g id="a_node3"><a xlink:href="http://openprovenance.org/var#react_id" xlink:title="react_id">
<polygon fill="#9fb1fc" stroke="#0000ff" points="862,-303.5 788,-303.5 788,-267.5 862,-267.5 862,-303.5"/>
<text text-anchor="middle" x="825" y="-281.8" font-family="Times,serif" font-size="14.00">react_id</text>
</a>
</g>
</g>
<!-- http://openprovenance.org/var#react_id&#45;&gt;http://openprovenance.org/var#post_id -->
<g id="edge15" class="edge">
<title>http://openprovenance.org/var#react_id&#45;&gt;http://openprovenance.org/var#post_id</title>
<path fill="none" stroke="black" d="M836.19,-303.52C844.45,-314.63 856.7,-328.42 871,-336 963.97,-385.27 1012.87,-321.17 1105,-372 1115.53,-377.81 1124.69,-387.26 1131.82,-396.35"/>
<polygon fill="black" stroke="black" points="1129.05,-398.48 1137.78,-404.48 1134.7,-394.35 1129.05,-398.48"/>
<text text-anchor="middle" x="851.07" y="-299.71" font-family="Times,serif" font-size="8.00">inf</text>
</g>
<!-- http://openprovenance.org/var#reaction_tweet_props_id -->
<g id="node15" class="node">
<title>http://openprovenance.org/var#reaction_tweet_props_id</title>
<g id="a_node15"><a xlink:href="http://openprovenance.org/var#reaction_tweet_props_id" xlink:title="reaction_tweet_props_id">
<ellipse fill="#fffc87" stroke="#808080" cx="704" cy="-422.5" rx="123.48" ry="18"/>
<text text-anchor="middle" x="704" y="-418.8" font-family="Times,serif" font-size="14.00">reaction_tweet_props_id</text>
</a>
</g>
</g>
<!-- http://openprovenance.org/var#react_id&#45;&gt;http://openprovenance.org/var#reaction_tweet_props_id -->
<g id="edge19" class="edge">
<title>http://openprovenance.org/var#react_id&#45;&gt;http://openprovenance.org/var#reaction_tweet_props_id</title>
<path fill="none" stroke="black" d="M809.68,-303.6C788.49,-327.23 750.14,-370.02 725.93,-397.04"/>
<polygon fill="black" stroke="black" points="723.27,-394.76 719.2,-404.54 728.48,-399.43 723.27,-394.76"/>
<text text-anchor="middle" x="814.34" y="-315.95" font-family="Times,serif" font-size="8.00">use</text>
</g>
<!-- http://openprovenance.org/var#reaction_author_id -->
<g id="node19" class="node">
<title>http://openprovenance.org/var#reaction_author_id</title>
<g id="a_node19"><a xlink:href="http://openprovenance.org/var#reaction_author_id" xlink:title="reaction_author_id">
<polygon fill="#fdb266" stroke="black" points="412.91,-428.06 293,-440.5 173.09,-428.06 173.21,-407.94 412.79,-407.94 412.91,-428.06"/>
<text text-anchor="middle" x="293" y="-418.8" font-family="Times,serif" font-size="14.00">reaction_author_id</text>
</a>
</g>
</g>
<!-- http://openprovenance.org/var#react_id&#45;&gt;http://openprovenance.org/var#reaction_author_id -->
<g id="edge16" class="edge">
<title>http://openprovenance.org/var#react_id&#45;&gt;http://openprovenance.org/var#reaction_author_id</title>
<path fill="none" stroke="black" d="M813.93,-303.76C805.73,-314.97 793.5,-328.79 779,-336 636.2,-406.98 577.15,-335.11 422,-372 390.44,-379.5 356.23,-392.89 330.97,-403.85"/>
<polygon fill="black" stroke="black" points="329.49,-400.68 321.76,-407.92 332.32,-407.09 329.49,-400.68"/>
<text text-anchor="middle" x="819.81" y="-315.66" font-family="Times,serif" font-size="8.00">assoc</text>
</g>
<!-- &#45;attrs1 -->
<g id="node4" class="node">
<title>&#45;attrs1</title>
<polygon fill="none" stroke="gray" points="999,-173 839,-173 839,-137 1005,-137 1005,-167 999,-173"/>
<polyline fill="none" stroke="gray" points="999,-173 999,-167 "/>
<polyline fill="none" stroke="gray" points="1005,-167 999,-167 "/>
<text text-anchor="start" x="849" y="-159" font-family="Times,serif" font-size="10.00">type:</text>
<text text-anchor="start" x="886" y="-159" font-family="Times,serif" font-size="10.00">publish</text>
<text text-anchor="start" x="849" y="-146" font-family="Times,serif" font-size="10.00">linked:</text>
<text text-anchor="start" x="886" y="-146" font-family="Times,serif" font-size="10.00">var:reaction_tweet_id</text>
</g>
<!-- &#45;attrs1&#45;&gt;http://openprovenance.org/var#react_id -->
<g id="edge2" class="edge">
<title>&#45;attrs1&#45;&gt;http://openprovenance.org/var#react_id</title>
<path fill="none" stroke="gray" stroke-dasharray="5,2" d="M909.12,-173.06C890.57,-197.64 856.52,-242.75 837.93,-267.37"/>
</g>
<!-- http://openprovenance.org/var#original_tweet_id -->
<g id="node5" class="node">
<title>http://openprovenance.org/var#original_tweet_id</title>
<g id="a_node5"><a xlink:href="http://openprovenance.org/var#original_tweet_id" xlink:title="original_tweet_id">
<ellipse fill="#fffc87" stroke="#808080" cx="1254" cy="-285.5" rx="90.18" ry="18"/>
<text text-anchor="middle" x="1254" y="-281.8" font-family="Times,serif" font-size="14.00">original_tweet_id</text>
</a>
</g>
</g>
<!-- http://openprovenance.org/var#original_tweet_id&#45;&gt;http://openprovenance.org/var#post_id -->
<g id="edge11" class="edge">
<title>http://openprovenance.org/var#original_tweet_id&#45;&gt;http://openprovenance.org/var#post_id</title>
<path fill="none" stroke="black" d="M1240.79,-303.32C1222.38,-326.77 1188.88,-369.43 1167.57,-396.58"/>
<polygon fill="black" stroke="black" points="1164.8,-394.44 1161.38,-404.46 1170.31,-398.76 1164.8,-394.44"/>
<text text-anchor="middle" x="1246.37" y="-315.35" font-family="Times,serif" font-size="8.00">gen</text>
</g>
<!-- &#45;attrs2 -->
<g id="node6" class="node">
<title>&#45;attrs2</title>
<polygon fill="none" stroke="gray" points="1323,-173 1179,-173 1179,-137 1329,-137 1329,-167 1323,-173"/>
<polyline fill="none" stroke="gray" points="1323,-173 1323,-167 "/>
<polyline fill="none" stroke="gray" points="1329,-167 1323,-167 "/>
<text text-anchor="start" x="1189" y="-159" font-family="Times,serif" font-size="10.00">type:</text>
<text text-anchor="start" x="1222" y="-159" font-family="Times,serif" font-size="10.00">ORIGINAL TWEET</text>
<text text-anchor="start" x="1189" y="-146" font-family="Times,serif" font-size="10.00">value:</text>
<text text-anchor="start" x="1222" y="-146" font-family="Times,serif" font-size="10.00">var:original_text</text>
</g>
<!-- &#45;attrs2&#45;&gt;http://openprovenance.org/var#original_tweet_id -->
<g id="edge3" class="edge">
<title>&#45;attrs2&#45;&gt;http://openprovenance.org/var#original_tweet_id</title>
<path fill="none" stroke="gray" stroke-dasharray="5,2" d="M1254,-173.06C1254,-197.64 1254,-242.75 1254,-267.37"/>
</g>
<!-- &#45;attrs3 -->
<g id="node8" class="node">
<title>&#45;attrs3</title>
<polygon fill="none" stroke="gray" points="1444,-473 1200,-473 1200,-372 1450,-372 1450,-467 1444,-473"/>
<polyline fill="none" stroke="gray" points="1444,-473 1444,-467 "/>
<polyline fill="none" stroke="gray" points="1450,-467 1444,-467 "/>
<text text-anchor="start" x="1210" y="-458.5" font-family="Times,serif" font-size="10.00">type:</text>
<text text-anchor="start" x="1288" y="-458.5" font-family="Times,serif" font-size="10.00">var:ORIGINAL_properties</text>
<text text-anchor="start" x="1210" y="-445.5" font-family="Times,serif" font-size="10.00">created_at:</text>
<text text-anchor="start" x="1288" y="-445.5" font-family="Times,serif" font-size="10.00">var:ORIGINAL_created_at</text>
<text text-anchor="start" x="1210" y="-432.5" font-family="Times,serif" font-size="10.00">location:</text>
<text text-anchor="start" x="1288" y="-432.5" font-family="Times,serif" font-size="10.00">var:ORIGINAL_location</text>
<text text-anchor="start" x="1210" y="-419.5" font-family="Times,serif" font-size="10.00">like_count:</text>
<text text-anchor="start" x="1288" y="-419.5" font-family="Times,serif" font-size="10.00">var:ORIGINAL_like_count</text>
<text text-anchor="start" x="1210" y="-406.5" font-family="Times,serif" font-size="10.00">quote_count:</text>
<text text-anchor="start" x="1288" y="-406.5" font-family="Times,serif" font-size="10.00">var:ORIGINAL_quote_count</text>
<text text-anchor="start" x="1210" y="-393.5" font-family="Times,serif" font-size="10.00">reply_count:</text>
<text text-anchor="start" x="1288" y="-393.5" font-family="Times,serif" font-size="10.00">var:ORIGINAL_reply_count</text>
<text text-anchor="start" x="1210" y="-380.5" font-family="Times,serif" font-size="10.00">retweet_count:</text>
<text text-anchor="start" x="1288" y="-380.5" font-family="Times,serif" font-size="10.00">var:ORIGINAL_retweet_count</text>
</g>
<!-- &#45;attrs3&#45;&gt;http://openprovenance.org/var#original_tweet_props_id -->
<g id="edge4" class="edge">
<title>&#45;attrs3&#45;&gt;http://openprovenance.org/var#original_tweet_props_id</title>
<path fill="none" stroke="gray" stroke-dasharray="5,2" d="M1301.22,-473.25C1295.07,-486.1 1288.87,-499.08 1284.15,-508.95"/>
</g>
<!-- http://openprovenance.org/var#original_author_props_id -->
<g id="node9" class="node">
<title>http://openprovenance.org/var#original_author_props_id</title>
<g id="a_node9"><a xlink:href="http://openprovenance.org/var#original_author_props_id" xlink:title="original_author_props_id">
<ellipse fill="#fffc87" stroke="#808080" cx="971" cy="-422.5" rx="125.38" ry="18"/>
<text text-anchor="middle" x="971" y="-418.8" font-family="Times,serif" font-size="14.00">original_author_props_id</text>
</a>
</g>
</g>
<!-- http://openprovenance.org/var#original_author_props_id&#45;&gt;http://openprovenance.org/var#original_author_id -->
<g id="edge14" class="edge">
<title>http://openprovenance.org/var#original_author_props_id&#45;&gt;http://openprovenance.org/var#original_author_id</title>
<path fill="none" stroke="black" d="M971,-440.89C971,-457.69 971,-483.29 971,-502.03"/>
<polygon fill="black" stroke="black" points="967.5,-502.15 971,-512.15 974.5,-502.15 967.5,-502.15"/>
<text text-anchor="middle" x="983.99" y="-446.49" font-family="Times,serif" font-size="8.00">att</text>
</g>
<!-- &#45;attrs4 -->
<g id="node10" class="node">
<title>&#45;attrs4</title>
<polygon fill="none" stroke="gray" points="1140,-329.5 880,-329.5 880,-241.5 1146,-241.5 1146,-323.5 1140,-329.5"/>
<polyline fill="none" stroke="gray" points="1140,-329.5 1140,-323.5 "/>
<polyline fill="none" stroke="gray" points="1146,-323.5 1140,-323.5 "/>
<text text-anchor="start" x="890" y="-315.5" font-family="Times,serif" font-size="10.00">type:</text>
<text text-anchor="start" x="976" y="-315.5" font-family="Times,serif" font-size="10.00">user properties</text>
<text text-anchor="start" x="890" y="-302.5" font-family="Times,serif" font-size="10.00">credible:</text>
<text text-anchor="start" x="976" y="-302.5" font-family="Times,serif" font-size="10.00">var:ORIGINAL_credible</text>
<text text-anchor="start" x="890" y="-289.5" font-family="Times,serif" font-size="10.00">username:</text>
<text text-anchor="start" x="976" y="-289.5" font-family="Times,serif" font-size="10.00">var:ORIGINAL_username</text>
<text text-anchor="start" x="890" y="-276.5" font-family="Times,serif" font-size="10.00">verified:</text>
<text text-anchor="start" x="976" y="-276.5" font-family="Times,serif" font-size="10.00">var:ORIGINAL_verified</text>
<text text-anchor="start" x="890" y="-263.5" font-family="Times,serif" font-size="10.00">followers_count:</text>
<text text-anchor="start" x="976" y="-263.5" font-family="Times,serif" font-size="10.00">var:ORIGINAL_followers_count</text>
<text text-anchor="start" x="890" y="-250.5" font-family="Times,serif" font-size="10.00">following_count:</text>
<text text-anchor="start" x="976" y="-250.5" font-family="Times,serif" font-size="10.00">var:ORIGINAL_following_count</text>
</g>
<!-- &#45;attrs4&#45;&gt;http://openprovenance.org/var#original_author_props_id -->
<g id="edge5" class="edge">
<title>&#45;attrs4&#45;&gt;http://openprovenance.org/var#original_author_props_id</title>
<path fill="none" stroke="gray" stroke-dasharray="5,2" d="M999.6,-329.59C991.72,-354.9 982.2,-385.5 976.37,-404.23"/>
</g>
<!-- http://openprovenance.org/var#reaction_author_props_id -->
<g id="node11" class="node">
<title>http://openprovenance.org/var#reaction_author_props_id</title>
<g id="a_node11"><a xlink:href="http://openprovenance.org/var#reaction_author_props_id" xlink:title="reaction_author_props_id">
<ellipse fill="#fffc87" stroke="#808080" cx="370" cy="-285.5" rx="128.08" ry="18"/>
<text text-anchor="middle" x="370" y="-281.8" font-family="Times,serif" font-size="14.00">reaction_author_props_id</text>
</a>
</g>
</g>
<!-- http://openprovenance.org/var#reaction_author_props_id&#45;&gt;http://openprovenance.org/var#reaction_author_id -->
<g id="edge17" class="edge">
<title>http://openprovenance.org/var#reaction_author_props_id&#45;&gt;http://openprovenance.org/var#reaction_author_id</title>
<path fill="none" stroke="black" d="M360.25,-303.6C346.42,-327.84 321.1,-372.24 305.78,-399.09"/>
<polygon fill="black" stroke="black" points="302.73,-397.38 300.81,-407.8 308.81,-400.85 302.73,-397.38"/>
<text text-anchor="middle" x="367.82" y="-314.65" font-family="Times,serif" font-size="8.00">att</text>
</g>
<!-- &#45;attrs5 -->
<g id="node12" class="node">
<title>&#45;attrs5</title>
<polygon fill="none" stroke="gray" points="498.5,-199 235.5,-199 235.5,-111 504.5,-111 504.5,-193 498.5,-199"/>
<polyline fill="none" stroke="gray" points="498.5,-199 498.5,-193 "/>
<polyline fill="none" stroke="gray" points="504.5,-193 498.5,-193 "/>
<text text-anchor="start" x="246" y="-185" font-family="Times,serif" font-size="10.00">type:</text>
<text text-anchor="start" x="332" y="-185" font-family="Times,serif" font-size="10.00">user properties</text>
<text text-anchor="start" x="246" y="-172" font-family="Times,serif" font-size="10.00">credible:</text>
<text text-anchor="start" x="332" y="-172" font-family="Times,serif" font-size="10.00">var:REACTION_credible</text>
<text text-anchor="start" x="246" y="-159" font-family="Times,serif" font-size="10.00">username:</text>
<text text-anchor="start" x="332" y="-159" font-family="Times,serif" font-size="10.00">var:REACTION_username</text>
<text text-anchor="start" x="246" y="-146" font-family="Times,serif" font-size="10.00">verified:</text>
<text text-anchor="start" x="332" y="-146" font-family="Times,serif" font-size="10.00">var:REACTION_verified</text>
<text text-anchor="start" x="246" y="-133" font-family="Times,serif" font-size="10.00">followers_count:</text>
<text text-anchor="start" x="332" y="-133" font-family="Times,serif" font-size="10.00">var:REACTION_followers_count</text>
<text text-anchor="start" x="246" y="-120" font-family="Times,serif" font-size="10.00">following_count:</text>
<text text-anchor="start" x="332" y="-120" font-family="Times,serif" font-size="10.00">var:REACTION_following_count</text>
</g>
<!-- &#45;attrs5&#45;&gt;http://openprovenance.org/var#reaction_author_props_id -->
<g id="edge6" class="edge">
<title>&#45;attrs5&#45;&gt;http://openprovenance.org/var#reaction_author_props_id</title>
<path fill="none" stroke="gray" stroke-dasharray="5,2" d="M370,-199.15C370,-222.48 370,-249.99 370,-267.34"/>
</g>
<!-- http://openprovenance.org/var#reaction_tweet_id -->
<g id="node13" class="node">
<title>http://openprovenance.org/var#reaction_tweet_id</title>
<g id="a_node13"><a xlink:href="http://openprovenance.org/var#reaction_tweet_id" xlink:title="reaction_tweet_id">
<ellipse fill="#fffc87" stroke="#808080" cx="728" cy="-155" rx="92.88" ry="18"/>
<text text-anchor="middle" x="728" y="-151.3" font-family="Times,serif" font-size="14.00">reaction_tweet_id</text>
</a>
</g>
</g>
<!-- http://openprovenance.org/var#reaction_tweet_id&#45;&gt;http://openprovenance.org/var#react_id -->
<g id="edge18" class="edge">
<title>http://openprovenance.org/var#reaction_tweet_id&#45;&gt;http://openprovenance.org/var#react_id</title>
<path fill="none" stroke="black" d="M740.88,-173.06C757.55,-195.15 786.73,-233.8 805.96,-259.27"/>
<polygon fill="black" stroke="black" points="803.25,-261.49 812.07,-267.37 808.83,-257.28 803.25,-261.49"/>
<text text-anchor="middle" x="755.77" y="-169.32" font-family="Times,serif" font-size="8.00">gen</text>
</g>
<!-- &#45;attrs6 -->
<g id="node14" class="node">
<title>&#45;attrs6</title>
<polygon fill="none" stroke="gray" points="810.5,-75 639.5,-75 639.5,-39 816.5,-39 816.5,-69 810.5,-75"/>
<polyline fill="none" stroke="gray" points="810.5,-75 810.5,-69 "/>
<polyline fill="none" stroke="gray" points="816.5,-69 810.5,-69 "/>
<text text-anchor="start" x="650" y="-61" font-family="Times,serif" font-size="10.00">type:</text>
<text text-anchor="start" x="683" y="-61" font-family="Times,serif" font-size="10.00">var:reply_retweet_quote</text>
<text text-anchor="start" x="650" y="-48" font-family="Times,serif" font-size="10.00">value:</text>
<text text-anchor="start" x="683" y="-48" font-family="Times,serif" font-size="10.00">var:reaction_text</text>
</g>
<!-- &#45;attrs6&#45;&gt;http://openprovenance.org/var#reaction_tweet_id -->
<g id="edge7" class="edge">
<title>&#45;attrs6&#45;&gt;http://openprovenance.org/var#reaction_tweet_id</title>
<path fill="none" stroke="gray" stroke-dasharray="5,2" d="M728,-75.16C728,-92.64 728,-119.57 728,-136.99"/>
</g>
<!-- &#45;attrs7 -->
<g id="node16" class="node">
<title>&#45;attrs7</title>
<polygon fill="none" stroke="gray" points="763.5,-336 516.5,-336 516.5,-235 769.5,-235 769.5,-330 763.5,-336"/>
<polyline fill="none" stroke="gray" points="763.5,-336 763.5,-330 "/>
<polyline fill="none" stroke="gray" points="769.5,-330 763.5,-330 "/>
<text text-anchor="start" x="527" y="-321.5" font-family="Times,serif" font-size="10.00">type:</text>
<text text-anchor="start" x="605" y="-321.5" font-family="Times,serif" font-size="10.00">var:REACTION_properties</text>
<text text-anchor="start" x="527" y="-308.5" font-family="Times,serif" font-size="10.00">linked:</text>
<text text-anchor="start" x="605" y="-308.5" font-family="Times,serif" font-size="10.00">var:react_id</text>
<text text-anchor="start" x="527" y="-295.5" font-family="Times,serif" font-size="10.00">created_at:</text>
<text text-anchor="start" x="605" y="-295.5" font-family="Times,serif" font-size="10.00">var:REACTION_created_at</text>
<text text-anchor="start" x="527" y="-282.5" font-family="Times,serif" font-size="10.00">location:</text>
<text text-anchor="start" x="605" y="-282.5" font-family="Times,serif" font-size="10.00">var:REACTION_location</text>
<text text-anchor="start" x="527" y="-269.5" font-family="Times,serif" font-size="10.00">like_count:</text>
<text text-anchor="start" x="605" y="-269.5" font-family="Times,serif" font-size="10.00">var:REACTION_like_count</text>
<text text-anchor="start" x="527" y="-256.5" font-family="Times,serif" font-size="10.00">retweet_count:</text>
<text text-anchor="start" x="605" y="-256.5" font-family="Times,serif" font-size="10.00">var:REACTION_retweet_count</text>
<text text-anchor="start" x="527" y="-243.5" font-family="Times,serif" font-size="10.00">reference_id:</text>
<text text-anchor="start" x="605" y="-243.5" font-family="Times,serif" font-size="10.00">var:REACTION_reference_id</text>
</g>
<!-- &#45;attrs7&#45;&gt;http://openprovenance.org/var#reaction_tweet_props_id -->
<g id="edge8" class="edge">
<title>&#45;attrs7&#45;&gt;http://openprovenance.org/var#reaction_tweet_props_id</title>
<path fill="none" stroke="gray" stroke-dasharray="5,2" d="M665.37,-336C676.18,-359.93 688.46,-387.12 696.22,-404.28"/>
</g>
<!-- &#45;attrs8 -->
<g id="node18" class="node">
<title>&#45;attrs8</title>
<polygon fill="none" stroke="gray" points="557,-440.5 431,-440.5 431,-404.5 563,-404.5 563,-434.5 557,-440.5"/>
<polyline fill="none" stroke="gray" points="557,-440.5 557,-434.5 "/>
<polyline fill="none" stroke="gray" points="563,-434.5 557,-434.5 "/>
<text text-anchor="start" x="441" y="-426.5" font-family="Times,serif" font-size="10.00">type:</text>
<text text-anchor="start" x="475" y="-426.5" font-family="Times,serif" font-size="10.00">prov:Person</text>
<text text-anchor="start" x="441" y="-413.5" font-family="Times,serif" font-size="10.00">name:</text>
<text text-anchor="start" x="475" y="-413.5" font-family="Times,serif" font-size="10.00">var:ag_o_name</text>
</g>
<!-- &#45;attrs8&#45;&gt;http://openprovenance.org/var#original_author_id -->
<g id="edge9" class="edge">
<title>&#45;attrs8&#45;&gt;http://openprovenance.org/var#original_author_id</title>
<path fill="none" stroke="gray" stroke-dasharray="5,2" d="M517.26,-440.55C531.61,-451.67 551.83,-465.46 572,-473 662.82,-506.95 772.4,-519.67 853.73,-524.19"/>
</g>
<!-- &#45;attrs9 -->
<g id="node20" class="node">
<title>&#45;attrs9</title>
<polygon fill="none" stroke="gray" points="217.5,-316.5 16.5,-316.5 16.5,-254.5 223.5,-254.5 223.5,-310.5 217.5,-316.5"/>
<polyline fill="none" stroke="gray" points="217.5,-316.5 217.5,-310.5 "/>
<polyline fill="none" stroke="gray" points="223.5,-310.5 217.5,-310.5 "/>
<text text-anchor="start" x="27" y="-302.5" font-family="Times,serif" font-size="10.00">type:</text>
<text text-anchor="start" x="64" y="-302.5" font-family="Times,serif" font-size="10.00">prov:Person</text>
<text text-anchor="start" x="27" y="-289.5" font-family="Times,serif" font-size="10.00">name:</text>
<text text-anchor="start" x="64" y="-289.5" font-family="Times,serif" font-size="10.00">var:ag_r_name</text>
<text text-anchor="start" x="27" y="-276.5" font-family="Times,serif" font-size="10.00">linked:</text>
<text text-anchor="start" x="64" y="-276.5" font-family="Times,serif" font-size="10.00">var:react_id</text>
<text text-anchor="start" x="27" y="-263.5" font-family="Times,serif" font-size="10.00">linked:</text>
<text text-anchor="start" x="64" y="-263.5" font-family="Times,serif" font-size="10.00">var:reaction_author_props_id</text>
</g>
<!-- &#45;attrs9&#45;&gt;http://openprovenance.org/var#reaction_author_id -->
<g id="edge10" class="edge">
<title>&#45;attrs9&#45;&gt;http://openprovenance.org/var#reaction_author_id</title>
<path fill="none" stroke="gray" stroke-dasharray="5,2" d="M158.82,-316.8C195.29,-345.25 248.18,-386.53 275.39,-407.75"/>
</g>
</g>
</svg>
