<?xml version="1.0" encoding="UTF-8" standalone="no"?>
<!DOCTYPE svg PUBLIC "-//W3C//DTD SVG 1.1//EN"
 "http://www.w3.org/Graphics/SVG/1.1/DTD/svg11.dtd">
<!-- Generated by graphviz version 2.43.0 (0)
 -->
<!-- Title: PROV Pages: 1 -->
<svg width="1152pt" height="445pt"
 viewBox="0.00 0.00 1152.00 445.20" xmlns="http://www.w3.org/2000/svg" xmlns:xlink="http://www.w3.org/1999/xlink">
<g id="graph0" class="graph" transform="scale(1.31 1.31) rotate(0) translate(4 578)">
<title>PROV</title>
<polygon fill="white" stroke="transparent" points="-4,4 -4,-578 1502,-578 1502,4 -4,4"/>
<g id="clust1" class="cluster">
<title>clusterhttp://openprovenance.org/vargen#bundle_id</title>
<g id="a_clust1"><a xlink:href="http://openprovenance.org/vargen#bundle_id" xlink:title="bundle_id">
<polygon fill="none" stroke="black" points="8,-8 8,-566 1490,-566 1490,-8 8,-8"/>
<text text-anchor="middle" x="749" y="-15.8" font-family="Times,serif" font-size="14.00">bundle_id</text>
</a>
</g>
</g>
<!-- http://openprovenance.org/var#post_id -->
<g id="node1" class="node">
<title>http://openprovenance.org/var#post_id</title>
<g id="a_node1"><a xlink:href="http://openprovenance.org/var#post_id" xlink:title="post_id">
<polygon fill="#9fb1fc" stroke="#0000ff" points="1130,-453.5 1062,-453.5 1062,-417.5 1130,-417.5 1130,-453.5"/>
<text text-anchor="middle" x="1096" y="-431.8" font-family="Times,serif" font-size="14.00">post_id</text>
</a>
</g>
</g>
<!-- http://openprovenance.org/var#original_tweet_props_id -->
<g id="node9" class="node">
<title>http://openprovenance.org/var#original_tweet_props_id</title>
<g id="a_node9"><a xlink:href="http://openprovenance.org/var#original_tweet_props_id" xlink:title="original_tweet_props_id">
<ellipse fill="#fffc87" stroke="#808080" cx="1234" cy="-540" rx="120.78" ry="18"/>
<text text-anchor="middle" x="1234" y="-536.3" font-family="Times,serif" font-size="14.00">original_tweet_props_id</text>
</a>
</g>
</g>
<!-- http://openprovenance.org/var#post_id&#45;&gt;http://openprovenance.org/var#original_tweet_props_id -->
<g id="edge15" class="edge">
<title>http://openprovenance.org/var#post_id&#45;&gt;http://openprovenance.org/var#original_tweet_props_id</title>
<path fill="none" stroke="black" d="M1109.03,-453.85C1117.2,-464 1128.37,-476.62 1140,-486 1155.13,-498.21 1173.45,-509.23 1189.87,-518.02"/>
<polygon fill="black" stroke="black" points="1188.29,-521.14 1198.77,-522.66 1191.53,-514.93 1188.29,-521.14"/>
<text text-anchor="middle" x="1123.84" y="-449.55" font-family="Times,serif" font-size="8.00">use</text>
</g>
<!-- http://openprovenance.org/var#original_author_id -->
<g id="node21" class="node">
<title>http://openprovenance.org/var#original_author_id</title>
<g id="a_node21"><a xlink:href="http://openprovenance.org/var#original_author_id" xlink:title="original_author_id">
<polygon fill="#fdb266" stroke="black" points="1095.09,-545.56 978,-558 860.91,-545.56 861.02,-525.44 1094.98,-525.44 1095.09,-545.56"/>
<text text-anchor="middle" x="978" y="-536.3" font-family="Times,serif" font-size="14.00">original_author_id</text>
</a>
</g>
</g>
<!-- http://openprovenance.org/var#post_id&#45;&gt;http://openprovenance.org/var#original_author_id -->
<g id="edge14" class="edge">
<title>http://openprovenance.org/var#post_id&#45;&gt;http://openprovenance.org/var#original_author_id</title>
<path fill="none" stroke="black" d="M1082.6,-453.92C1074.56,-463.85 1063.81,-476.23 1053,-486 1039.39,-498.31 1022.86,-510.27 1008.78,-519.7"/>
<polygon fill="black" stroke="black" points="1006.81,-516.8 1000.38,-525.22 1010.66,-522.65 1006.81,-516.8"/>
<text text-anchor="middle" x="1087.91" y="-466.05" font-family="Times,serif" font-size="8.00">assoc</text>
</g>
<!-- &#45;attrs0 -->
<g id="node2" class="node">
<title>&#45;attrs0</title>
<polygon fill="none" stroke="gray" points="1151.5,-316.5 1070.5,-316.5 1070.5,-280.5 1157.5,-280.5 1157.5,-310.5 1151.5,-316.5"/>
<polyline fill="none" stroke="gray" points="1151.5,-316.5 1151.5,-310.5 "/>
<polyline fill="none" stroke="gray" points="1157.5,-310.5 1151.5,-310.5 "/>
<text text-anchor="start" x="1081" y="-295.5" font-family="Times,serif" font-size="10.00">type:</text>
<text text-anchor="start" x="1109" y="-295.5" font-family="Times,serif" font-size="10.00">publish</text>
</g>
<!-- &#45;attrs0&#45;&gt;http://openprovenance.org/var#post_id -->
<g id="edge1" class="edge">
<title>&#45;attrs0&#45;&gt;http://openprovenance.org/var#post_id</title>
<path fill="none" stroke="gray" stroke-dasharray="5,2" d="M1111.72,-316.6C1108.28,-342.42 1101.78,-391.12 1098.32,-417.11"/>
</g>
<!-- http://openprovenance.org/var#edit_id -->
<g id="node3" class="node">
<title>http://openprovenance.org/var#edit_id</title>
<g id="a_node3"><a xlink:href="http://openprovenance.org/var#edit_id" xlink:title="edit_id">
<polygon fill="#9fb1fc" stroke="#0000ff" points="1213.5,-453.5 1148.5,-453.5 1148.5,-417.5 1213.5,-417.5 1213.5,-453.5"/>
<text text-anchor="middle" x="1181" y="-431.8" font-family="Times,serif" font-size="14.00">edit_id</text>
</a>
</g>
</g>
<!-- http://openprovenance.org/var#edit_id&#45;&gt;http://openprovenance.org/var#original_tweet_props_id -->
<g id="edge19" class="edge">
<title>http://openprovenance.org/var#edit_id&#45;&gt;http://openprovenance.org/var#original_tweet_props_id</title>
<path fill="none" stroke="black" d="M1189.99,-453.89C1198.34,-470.04 1210.89,-494.3 1220.45,-512.8"/>
<polygon fill="black" stroke="black" points="1217.44,-514.59 1225.14,-521.87 1223.66,-511.38 1217.44,-514.59"/>
<text text-anchor="middle" x="1204.97" y="-452.68" font-family="Times,serif" font-size="8.00">use</text>
</g>
<!-- http://openprovenance.org/var#edit_id&#45;&gt;http://openprovenance.org/var#original_author_id -->
<g id="edge18" class="edge">
<title>http://openprovenance.org/var#edit_id&#45;&gt;http://openprovenance.org/var#original_author_id</title>
<path fill="none" stroke="black" d="M1170.01,-453.76C1162.45,-464.4 1151.53,-477.57 1139,-486 1114.22,-502.69 1083.77,-514.47 1056.05,-522.62"/>
<polygon fill="black" stroke="black" points="1055.04,-519.27 1046.37,-525.36 1056.94,-526.01 1055.04,-519.27"/>
<text text-anchor="middle" x="1176.11" y="-465.57" font-family="Times,serif" font-size="8.00">assoc</text>
</g>
<!-- &#45;attrs1 -->
<g id="node4" class="node">
<title>&#45;attrs1</title>
<polygon fill="none" stroke="gray" points="1455.5,-316.5 1374.5,-316.5 1374.5,-280.5 1461.5,-280.5 1461.5,-310.5 1455.5,-316.5"/>
<polyline fill="none" stroke="gray" points="1455.5,-316.5 1455.5,-310.5 "/>
<polyline fill="none" stroke="gray" points="1461.5,-310.5 1455.5,-310.5 "/>
<text text-anchor="start" x="1385" y="-295.5" font-family="Times,serif" font-size="10.00">type:</text>
<text text-anchor="start" x="1413" y="-295.5" font-family="Times,serif" font-size="10.00">publish</text>
</g>
<!-- &#45;attrs1&#45;&gt;http://openprovenance.org/var#edit_id -->
<g id="edge2" class="edge">
<title>&#45;attrs1&#45;&gt;http://openprovenance.org/var#edit_id</title>
<path fill="none" stroke="gray" stroke-dasharray="5,2" d="M1403.89,-316.52C1394.05,-327.34 1380.03,-340.79 1365,-349 1307.86,-380.2 1278.24,-350.54 1223,-385 1210,-393.11 1198.95,-406.58 1191.46,-417.41"/>
</g>
<!-- http://openprovenance.org/var#react_id -->
<g id="node5" class="node">
<title>http://openprovenance.org/var#react_id</title>
<g id="a_node5"><a xlink:href="http://openprovenance.org/var#react_id" xlink:title="react_id">
<polygon fill="#9fb1fc" stroke="#0000ff" points="1052,-316.5 978,-316.5 978,-280.5 1052,-280.5 1052,-316.5"/>
<text text-anchor="middle" x="1015" y="-294.8" font-family="Times,serif" font-size="14.00">react_id</text>
</a>
</g>
</g>
<!-- http://openprovenance.org/var#react_id&#45;&gt;http://openprovenance.org/var#post_id -->
<g id="edge21" class="edge">
<title>http://openprovenance.org/var#react_id&#45;&gt;http://openprovenance.org/var#post_id</title>
<path fill="none" stroke="black" d="M1025.26,-316.6C1039.18,-339.8 1064.18,-381.46 1080.42,-408.54"/>
<polygon fill="black" stroke="black" points="1077.42,-410.34 1085.57,-417.11 1083.42,-406.74 1077.42,-410.34"/>
<text text-anchor="middle" x="1040.26" y="-314.45" font-family="Times,serif" font-size="8.00">inf</text>
</g>
<!-- http://openprovenance.org/var#reaction_tweet_props_id -->
<g id="node19" class="node">
<title>http://openprovenance.org/var#reaction_tweet_props_id</title>
<g id="a_node19"><a xlink:href="http://openprovenance.org/var#reaction_tweet_props_id" xlink:title="reaction_tweet_props_id">
<ellipse fill="#fffc87" stroke="#808080" cx="771" cy="-435.5" rx="123.48" ry="18"/>
<text text-anchor="middle" x="771" y="-431.8" font-family="Times,serif" font-size="14.00">reaction_tweet_props_id</text>
</a>
</g>
</g>
<!-- http://openprovenance.org/var#react_id&#45;&gt;http://openprovenance.org/var#reaction_tweet_props_id -->
<g id="edge25" class="edge">
<title>http://openprovenance.org/var#react_id&#45;&gt;http://openprovenance.org/var#reaction_tweet_props_id</title>
<path fill="none" stroke="black" d="M1001.98,-316.8C993.48,-327.19 981.65,-340.07 969,-349 944.43,-366.35 872.73,-395.59 822.72,-414.97"/>
<polygon fill="black" stroke="black" points="821.41,-411.72 813.34,-418.59 823.93,-418.26 821.41,-411.72"/>
<text text-anchor="middle" x="1007.18" y="-328.97" font-family="Times,serif" font-size="8.00">use</text>
</g>
<!-- http://openprovenance.org/var#reaction_author_id -->
<g id="node23" class="node">
<title>http://openprovenance.org/var#reaction_author_id</title>
<g id="a_node23"><a xlink:href="http://openprovenance.org/var#reaction_author_id" xlink:title="reaction_author_id">
<polygon fill="#fdb266" stroke="black" points="360.91,-441.06 241,-453.5 121.09,-441.06 121.21,-420.94 360.79,-420.94 360.91,-441.06"/>
<text text-anchor="middle" x="241" y="-431.8" font-family="Times,serif" font-size="14.00">reaction_author_id</text>
</a>
</g>
</g>
<!-- http://openprovenance.org/var#react_id&#45;&gt;http://openprovenance.org/var#reaction_author_id -->
<g id="edge22" class="edge">
<title>http://openprovenance.org/var#react_id&#45;&gt;http://openprovenance.org/var#reaction_author_id</title>
<path fill="none" stroke="black" d="M1004.02,-316.95C995.86,-328.24 983.64,-342.09 969,-349 848.41,-405.92 500.33,-356.78 370,-385 337.98,-391.93 303.42,-405.55 278.13,-416.75"/>
<polygon fill="black" stroke="black" points="276.6,-413.61 268.92,-420.91 279.48,-419.99 276.6,-413.61"/>
<text text-anchor="middle" x="1009.97" y="-328.82" font-family="Times,serif" font-size="8.00">assoc</text>
</g>
<!-- &#45;attrs2 -->
<g id="node6" class="node">
<title>&#45;attrs2</title>
<polygon fill="none" stroke="gray" points="906.5,-179.5 825.5,-179.5 825.5,-143.5 912.5,-143.5 912.5,-173.5 906.5,-179.5"/>
<polyline fill="none" stroke="gray" points="906.5,-179.5 906.5,-173.5 "/>
<polyline fill="none" stroke="gray" points="912.5,-173.5 906.5,-173.5 "/>
<text text-anchor="start" x="836" y="-158.5" font-family="Times,serif" font-size="10.00">type:</text>
<text text-anchor="start" x="864" y="-158.5" font-family="Times,serif" font-size="10.00">publish</text>
</g>
<!-- &#45;attrs2&#45;&gt;http://openprovenance.org/var#react_id -->
<g id="edge3" class="edge">
<title>&#45;attrs2&#45;&gt;http://openprovenance.org/var#react_id</title>
<path fill="none" stroke="gray" stroke-dasharray="5,2" d="M885.86,-179.52C895.82,-189.32 908.82,-201.7 921,-212 941.36,-229.22 949.18,-230.16 969,-248 980.16,-258.04 991.66,-270.42 1000.37,-280.28"/>
</g>
<!-- http://openprovenance.org/var#original_tweet_id -->
<g id="node7" class="node">
<title>http://openprovenance.org/var#original_tweet_id</title>
<g id="a_node7"><a xlink:href="http://openprovenance.org/var#original_tweet_id" xlink:title="original_tweet_id">
<ellipse fill="#fffc87" stroke="#808080" cx="1266" cy="-298.5" rx="90.18" ry="18"/>
<text text-anchor="middle" x="1266" y="-294.8" font-family="Times,serif" font-size="14.00">original_tweet_id</text>
</a>
</g>
</g>
<!-- http://openprovenance.org/var#original_tweet_id&#45;&gt;http://openprovenance.org/var#post_id -->
<g id="edge13" class="edge">
<title>http://openprovenance.org/var#original_tweet_id&#45;&gt;http://openprovenance.org/var#post_id</title>
<path fill="none" stroke="black" d="M1238.04,-315.69C1211.52,-331.67 1171.2,-357.63 1140,-385 1131.49,-392.47 1123.01,-401.52 1115.8,-409.83"/>
<polygon fill="black" stroke="black" points="1113.1,-407.6 1109.32,-417.49 1118.45,-412.12 1113.1,-407.6"/>
<text text-anchor="middle" x="1238.39" y="-328.79" font-family="Times,serif" font-size="8.00">gen</text>
</g>
<!-- &#45;attrs3 -->
<g id="node8" class="node">
<title>&#45;attrs3</title>
<polygon fill="none" stroke="gray" points="1290.5,-179.5 1159.5,-179.5 1159.5,-143.5 1296.5,-143.5 1296.5,-173.5 1290.5,-179.5"/>
<polyline fill="none" stroke="gray" points="1290.5,-179.5 1290.5,-173.5 "/>
<polyline fill="none" stroke="gray" points="1296.5,-173.5 1290.5,-173.5 "/>
<text text-anchor="start" x="1170" y="-165.5" font-family="Times,serif" font-size="10.00">type:</text>
<text text-anchor="start" x="1203" y="-165.5" font-family="Times,serif" font-size="10.00">original tweet</text>
<text text-anchor="start" x="1170" y="-152.5" font-family="Times,serif" font-size="10.00">value:</text>
<text text-anchor="start" x="1203" y="-152.5" font-family="Times,serif" font-size="10.00">var:original_text</text>
</g>
<!-- &#45;attrs3&#45;&gt;http://openprovenance.org/var#original_tweet_id -->
<g id="edge4" class="edge">
<title>&#45;attrs3&#45;&gt;http://openprovenance.org/var#original_tweet_id</title>
<path fill="none" stroke="gray" stroke-dasharray="5,2" d="M1232.81,-179.6C1240.08,-205.42 1253.79,-254.12 1261.11,-280.11"/>
</g>
<!-- &#45;attrs4 -->
<g id="node10" class="node">
<title>&#45;attrs4</title>
<polygon fill="none" stroke="gray" points="1476,-486 1232,-486 1232,-385 1482,-385 1482,-480 1476,-486"/>
<polyline fill="none" stroke="gray" points="1476,-486 1476,-480 "/>
<polyline fill="none" stroke="gray" points="1482,-480 1476,-480 "/>
<text text-anchor="start" x="1242" y="-471.5" font-family="Times,serif" font-size="10.00">type:</text>
<text text-anchor="start" x="1320" y="-471.5" font-family="Times,serif" font-size="10.00">tweet properties</text>
<text text-anchor="start" x="1242" y="-458.5" font-family="Times,serif" font-size="10.00">created_at:</text>
<text text-anchor="start" x="1320" y="-458.5" font-family="Times,serif" font-size="10.00">var:ORIGINAL_created_at</text>
<text text-anchor="start" x="1242" y="-445.5" font-family="Times,serif" font-size="10.00">location:</text>
<text text-anchor="start" x="1320" y="-445.5" font-family="Times,serif" font-size="10.00">var:ORIGINAL_location</text>
<text text-anchor="start" x="1242" y="-432.5" font-family="Times,serif" font-size="10.00">like_count:</text>
<text text-anchor="start" x="1320" y="-432.5" font-family="Times,serif" font-size="10.00">var:ORIGINAL_like_count</text>
<text text-anchor="start" x="1242" y="-419.5" font-family="Times,serif" font-size="10.00">quote_count:</text>
<text text-anchor="start" x="1320" y="-419.5" font-family="Times,serif" font-size="10.00">var:ORIGINAL_quote_count</text>
<text text-anchor="start" x="1242" y="-406.5" font-family="Times,serif" font-size="10.00">reply_count:</text>
<text text-anchor="start" x="1320" y="-406.5" font-family="Times,serif" font-size="10.00">var:ORIGINAL_reply_count</text>
<text text-anchor="start" x="1242" y="-393.5" font-family="Times,serif" font-size="10.00">retweet_count:</text>
<text text-anchor="start" x="1320" y="-393.5" font-family="Times,serif" font-size="10.00">var:ORIGINAL_retweet_count</text>
</g>
<!-- &#45;attrs4&#45;&gt;http://openprovenance.org/var#original_tweet_props_id -->
<g id="edge5" class="edge">
<title>&#45;attrs4&#45;&gt;http://openprovenance.org/var#original_tweet_props_id</title>
<path fill="none" stroke="gray" stroke-dasharray="5,2" d="M1297.3,-486.25C1281.75,-499.2 1266.05,-512.29 1254.18,-522.18"/>
</g>
<!-- http://openprovenance.org/var#edited_tweet_id -->
<g id="node11" class="node">
<title>http://openprovenance.org/var#edited_tweet_id</title>
<g id="a_node11"><a xlink:href="http://openprovenance.org/var#edited_tweet_id" xlink:title="edited_tweet_id">
<ellipse fill="#fffc87" stroke="#808080" cx="1398" cy="-161.5" rx="83.69" ry="18"/>
<text text-anchor="middle" x="1398" y="-157.8" font-family="Times,serif" font-size="14.00">edited_tweet_id</text>
</a>
</g>
</g>
<!-- http://openprovenance.org/var#edited_tweet_id&#45;&gt;http://openprovenance.org/var#edit_id -->
<g id="edge17" class="edge">
<title>http://openprovenance.org/var#edited_tweet_id&#45;&gt;http://openprovenance.org/var#edit_id</title>
<path fill="none" stroke="black" d="M1418.58,-178.97C1436.29,-194.59 1460.6,-219.8 1471,-248 1486.53,-290.12 1500.37,-315.06 1471,-349 1398.12,-433.22 1320.44,-331.05 1223,-385 1212.69,-390.71 1203.79,-400.01 1196.88,-409.02"/>
<polygon fill="black" stroke="black" points="1193.83,-407.27 1190.87,-417.45 1199.53,-411.34 1193.83,-407.27"/>
<text text-anchor="middle" x="1432.85" y="-172.47" font-family="Times,serif" font-size="8.00">gen</text>
</g>
<!-- http://openprovenance.org/var#edited_tweet_id&#45;&gt;http://openprovenance.org/var#original_tweet_id -->
<g id="edge16" class="edge">
<title>http://openprovenance.org/var#edited_tweet_id&#45;&gt;http://openprovenance.org/var#original_tweet_id</title>
<path fill="none" stroke="black" d="M1381.55,-179.32C1358.43,-202.97 1316.19,-246.17 1289.69,-273.27"/>
<polygon fill="black" stroke="black" points="1287.15,-270.87 1282.66,-280.46 1292.15,-275.76 1287.15,-270.87"/>
<text text-anchor="middle" x="1385.59" y="-191.87" font-family="Times,serif" font-size="8.00">der</text>
</g>
<!-- &#45;attrs5 -->
<g id="node12" class="node">
<title>&#45;attrs5</title>
<polygon fill="none" stroke="gray" points="1457,-75 1333,-75 1333,-39 1463,-39 1463,-69 1457,-75"/>
<polyline fill="none" stroke="gray" points="1457,-75 1457,-69 "/>
<polyline fill="none" stroke="gray" points="1463,-69 1457,-69 "/>
<text text-anchor="start" x="1343" y="-61" font-family="Times,serif" font-size="10.00">type:</text>
<text text-anchor="start" x="1376" y="-61" font-family="Times,serif" font-size="10.00">edited tweet</text>
<text text-anchor="start" x="1343" y="-48" font-family="Times,serif" font-size="10.00">value:</text>
<text text-anchor="start" x="1376" y="-48" font-family="Times,serif" font-size="10.00">var:edited_text</text>
</g>
<!-- &#45;attrs5&#45;&gt;http://openprovenance.org/var#edited_tweet_id -->
<g id="edge6" class="edge">
<title>&#45;attrs5&#45;&gt;http://openprovenance.org/var#edited_tweet_id</title>
<path fill="none" stroke="gray" stroke-dasharray="5,2" d="M1398,-75.39C1398,-94.35 1398,-124.51 1398,-143.37"/>
</g>
<!-- http://openprovenance.org/var#original_author_props_id -->
<g id="node13" class="node">
<title>http://openprovenance.org/var#original_author_props_id</title>
<g id="a_node13"><a xlink:href="http://openprovenance.org/var#original_author_props_id" xlink:title="original_author_props_id">
<ellipse fill="#fffc87" stroke="#808080" cx="504" cy="-435.5" rx="125.38" ry="18"/>
<text text-anchor="middle" x="504" y="-431.8" font-family="Times,serif" font-size="14.00">original_author_props_id</text>
</a>
</g>
</g>
<!-- http://openprovenance.org/var#original_author_props_id&#45;&gt;http://openprovenance.org/var#original_author_id -->
<g id="edge20" class="edge">
<title>http://openprovenance.org/var#original_author_props_id&#45;&gt;http://openprovenance.org/var#original_author_id</title>
<path fill="none" stroke="black" d="M542.06,-452.74C568.76,-463.56 605.53,-477.34 639,-486 707.97,-503.85 786.49,-516.59 850.58,-525.1"/>
<polygon fill="black" stroke="black" points="850.37,-528.6 860.74,-526.43 851.28,-521.66 850.37,-528.6"/>
<text text-anchor="middle" x="553.85" y="-441.57" font-family="Times,serif" font-size="8.00">att</text>
</g>
<!-- &#45;attrs6 -->
<g id="node14" class="node">
<title>&#45;attrs6</title>
<polygon fill="none" stroke="gray" points="698,-349 438,-349 438,-248 704,-248 704,-343 698,-349"/>
<polyline fill="none" stroke="gray" points="698,-349 698,-343 "/>
<polyline fill="none" stroke="gray" points="704,-343 698,-343 "/>
<text text-anchor="start" x="448" y="-334.5" font-family="Times,serif" font-size="10.00">type:</text>
<text text-anchor="start" x="534" y="-334.5" font-family="Times,serif" font-size="10.00">user properties</text>
<text text-anchor="start" x="448" y="-321.5" font-family="Times,serif" font-size="10.00">credible:</text>
<text text-anchor="start" x="534" y="-321.5" font-family="Times,serif" font-size="10.00">var:ORIGINAL_credible</text>
<text text-anchor="start" x="448" y="-308.5" font-family="Times,serif" font-size="10.00">name:</text>
<text text-anchor="start" x="534" y="-308.5" font-family="Times,serif" font-size="10.00">var:ORIGINAL_name</text>
<text text-anchor="start" x="448" y="-295.5" font-family="Times,serif" font-size="10.00">username:</text>
<text text-anchor="start" x="534" y="-295.5" font-family="Times,serif" font-size="10.00">var:ORIGINAL_username</text>
<text text-anchor="start" x="448" y="-282.5" font-family="Times,serif" font-size="10.00">verified:</text>
<text text-anchor="start" x="534" y="-282.5" font-family="Times,serif" font-size="10.00">var:ORIGINAL_verified</text>
<text text-anchor="start" x="448" y="-269.5" font-family="Times,serif" font-size="10.00">followers_count:</text>
<text text-anchor="start" x="534" y="-269.5" font-family="Times,serif" font-size="10.00">var:ORIGINAL_followers_count</text>
<text text-anchor="start" x="448" y="-256.5" font-family="Times,serif" font-size="10.00">following_count:</text>
<text text-anchor="start" x="534" y="-256.5" font-family="Times,serif" font-size="10.00">var:ORIGINAL_following_count</text>
</g>
<!-- &#45;attrs6&#45;&gt;http://openprovenance.org/var#original_author_props_id -->
<g id="edge7" class="edge">
<title>&#45;attrs6&#45;&gt;http://openprovenance.org/var#original_author_props_id</title>
<path fill="none" stroke="gray" stroke-dasharray="5,2" d="M546.43,-349C534.56,-372.93 521.06,-400.12 512.54,-417.28"/>
</g>
<!-- http://openprovenance.org/var#reaction_author_props_id -->
<g id="node15" class="node">
<title>http://openprovenance.org/var#reaction_author_props_id</title>
<g id="a_node15"><a xlink:href="http://openprovenance.org/var#reaction_author_props_id" xlink:title="reaction_author_props_id">
<ellipse fill="#fffc87" stroke="#808080" cx="144" cy="-298.5" rx="128.08" ry="18"/>
<text text-anchor="middle" x="144" y="-294.8" font-family="Times,serif" font-size="14.00">reaction_author_props_id</text>
</a>
</g>
</g>
<!-- http://openprovenance.org/var#reaction_author_props_id&#45;&gt;http://openprovenance.org/var#reaction_author_id -->
<g id="edge23" class="edge">
<title>http://openprovenance.org/var#reaction_author_props_id&#45;&gt;http://openprovenance.org/var#reaction_author_id</title>
<path fill="none" stroke="black" d="M156.29,-316.6C173.78,-340.95 205.89,-385.63 225.15,-412.45"/>
<polygon fill="black" stroke="black" points="222.48,-414.72 231.16,-420.8 228.16,-410.64 222.48,-414.72"/>
<text text-anchor="middle" x="171.21" y="-313.21" font-family="Times,serif" font-size="8.00">att</text>
</g>
<!-- &#45;attrs7 -->
<g id="node16" class="node">
<title>&#45;attrs7</title>
<polygon fill="none" stroke="gray" points="261,-212 21,-212 21,-111 267,-111 267,-206 261,-212"/>
<polyline fill="none" stroke="gray" points="261,-212 261,-206 "/>
<polyline fill="none" stroke="gray" points="267,-206 261,-206 "/>
<text text-anchor="start" x="31" y="-197.5" font-family="Times,serif" font-size="10.00">type:</text>
<text text-anchor="start" x="117" y="-197.5" font-family="Times,serif" font-size="10.00">user properties</text>
<text text-anchor="start" x="31" y="-184.5" font-family="Times,serif" font-size="10.00">credible:</text>
<text text-anchor="start" x="117" y="-184.5" font-family="Times,serif" font-size="10.00">var:REPLY_credible</text>
<text text-anchor="start" x="31" y="-171.5" font-family="Times,serif" font-size="10.00">name:</text>
<text text-anchor="start" x="117" y="-171.5" font-family="Times,serif" font-size="10.00">var:REPLY_name</text>
<text text-anchor="start" x="31" y="-158.5" font-family="Times,serif" font-size="10.00">username:</text>
<text text-anchor="start" x="117" y="-158.5" font-family="Times,serif" font-size="10.00">var:REPLY_username</text>
<text text-anchor="start" x="31" y="-145.5" font-family="Times,serif" font-size="10.00">verified:</text>
<text text-anchor="start" x="117" y="-145.5" font-family="Times,serif" font-size="10.00">var:REPLY_verified</text>
<text text-anchor="start" x="31" y="-132.5" font-family="Times,serif" font-size="10.00">followers_count:</text>
<text text-anchor="start" x="117" y="-132.5" font-family="Times,serif" font-size="10.00">var:REPLY_followers_count</text>
<text text-anchor="start" x="31" y="-119.5" font-family="Times,serif" font-size="10.00">following_count:</text>
<text text-anchor="start" x="117" y="-119.5" font-family="Times,serif" font-size="10.00">var:REPLY_following_count</text>
</g>
<!-- &#45;attrs7&#45;&gt;http://openprovenance.org/var#reaction_author_props_id -->
<g id="edge8" class="edge">
<title>&#45;attrs7&#45;&gt;http://openprovenance.org/var#reaction_author_props_id</title>
<path fill="none" stroke="gray" stroke-dasharray="5,2" d="M144,-212C144,-235.93 144,-263.12 144,-280.28"/>
</g>
<!-- http://openprovenance.org/var#reaction_tweet_id -->
<g id="node17" class="node">
<title>http://openprovenance.org/var#reaction_tweet_id</title>
<g id="a_node17"><a xlink:href="http://openprovenance.org/var#reaction_tweet_id" xlink:title="reaction_tweet_id">
<ellipse fill="#fffc87" stroke="#808080" cx="1023" cy="-161.5" rx="92.88" ry="18"/>
<text text-anchor="middle" x="1023" y="-157.8" font-family="Times,serif" font-size="14.00">reaction_tweet_id</text>
</a>
</g>
</g>
<!-- http://openprovenance.org/var#reaction_tweet_id&#45;&gt;http://openprovenance.org/var#react_id -->
<g id="edge24" class="edge">
<title>http://openprovenance.org/var#reaction_tweet_id&#45;&gt;http://openprovenance.org/var#react_id</title>
<path fill="none" stroke="black" d="M1021.99,-179.6C1020.64,-202.4 1018.23,-243.02 1016.62,-270.11"/>
<polygon fill="black" stroke="black" points="1013.13,-269.93 1016.03,-280.11 1020.12,-270.34 1013.13,-269.93"/>
<text text-anchor="middle" x="1034.51" y="-185.95" font-family="Times,serif" font-size="8.00">gen</text>
</g>
<!-- http://openprovenance.org/var#reaction_tweet_id&#45;&gt;http://openprovenance.org/var#reaction_tweet_id -->
<g id="edge26" class="edge">
<title>http://openprovenance.org/var#reaction_tweet_id&#45;&gt;http://openprovenance.org/var#reaction_tweet_id</title>
<path fill="none" stroke="black" d="M1062.81,-145.22C1097.38,-137.79 1133.94,-143.22 1133.94,-161.5 1133.94,-178 1104.17,-184.03 1072.96,-179.59"/>
<polygon fill="black" stroke="black" points="1073.27,-176.09 1062.81,-177.78 1072.04,-182.98 1073.27,-176.09"/>
<text text-anchor="middle" x="1067.93" y="-129.22" font-family="Times,serif" font-size="8.00">der</text>
</g>
<!-- &#45;attrs8 -->
<g id="node18" class="node">
<title>&#45;attrs8</title>
<polygon fill="none" stroke="gray" points="1103.5,-75 936.5,-75 936.5,-39 1109.5,-39 1109.5,-69 1103.5,-75"/>
<polyline fill="none" stroke="gray" points="1103.5,-75 1103.5,-69 "/>
<polyline fill="none" stroke="gray" points="1109.5,-69 1103.5,-69 "/>
<text text-anchor="start" x="947" y="-61" font-family="Times,serif" font-size="10.00">type:</text>
<text text-anchor="start" x="980" y="-61" font-family="Times,serif" font-size="10.00">var:reply/retweet/quote</text>
<text text-anchor="start" x="947" y="-48" font-family="Times,serif" font-size="10.00">value:</text>
<text text-anchor="start" x="980" y="-48" font-family="Times,serif" font-size="10.00">var:reaction_text</text>
</g>
<!-- &#45;attrs8&#45;&gt;http://openprovenance.org/var#reaction_tweet_id -->
<g id="edge9" class="edge">
<title>&#45;attrs8&#45;&gt;http://openprovenance.org/var#reaction_tweet_id</title>
<path fill="none" stroke="gray" stroke-dasharray="5,2" d="M1023,-75.39C1023,-94.35 1023,-124.51 1023,-143.37"/>
</g>
<!-- &#45;attrs9 -->
<g id="node20" class="node">
<title>&#45;attrs9</title>
<polygon fill="none" stroke="gray" points="954,-336 722,-336 722,-261 960,-261 960,-330 954,-336"/>
<polyline fill="none" stroke="gray" points="954,-336 954,-330 "/>
<polyline fill="none" stroke="gray" points="960,-330 954,-330 "/>
<text text-anchor="start" x="732" y="-321.5" font-family="Times,serif" font-size="10.00">type:</text>
<text text-anchor="start" x="814" y="-321.5" font-family="Times,serif" font-size="10.00">tweet properties</text>
<text text-anchor="start" x="732" y="-308.5" font-family="Times,serif" font-size="10.00">created_at:</text>
<text text-anchor="start" x="814" y="-308.5" font-family="Times,serif" font-size="10.00">var:REPLY_created_at</text>
<text text-anchor="start" x="732" y="-295.5" font-family="Times,serif" font-size="10.00">location:</text>
<text text-anchor="start" x="814" y="-295.5" font-family="Times,serif" font-size="10.00">var:REPLY_location</text>
<text text-anchor="start" x="732" y="-282.5" font-family="Times,serif" font-size="10.00">reference_type:</text>
<text text-anchor="start" x="814" y="-282.5" font-family="Times,serif" font-size="10.00">var:REPLY_reference_type</text>
<text text-anchor="start" x="732" y="-269.5" font-family="Times,serif" font-size="10.00">reference_id:</text>
<text text-anchor="start" x="814" y="-269.5" font-family="Times,serif" font-size="10.00">var:REPLY_reference_id</text>
</g>
<!-- &#45;attrs9&#45;&gt;http://openprovenance.org/var#reaction_tweet_props_id -->
<g id="edge10" class="edge">
<title>&#45;attrs9&#45;&gt;http://openprovenance.org/var#reaction_tweet_props_id</title>
<path fill="none" stroke="gray" stroke-dasharray="5,2" d="M822.06,-336.03C808.37,-362.43 790.5,-396.88 779.94,-417.26"/>
</g>
<!-- &#45;attrs10 -->
<g id="node22" class="node">
<title>&#45;attrs10</title>
<polygon fill="none" stroke="gray" points="1038,-453.5 912,-453.5 912,-417.5 1044,-417.5 1044,-447.5 1038,-453.5"/>
<polyline fill="none" stroke="gray" points="1038,-453.5 1038,-447.5 "/>
<polyline fill="none" stroke="gray" points="1044,-447.5 1038,-447.5 "/>
<text text-anchor="start" x="922" y="-439.5" font-family="Times,serif" font-size="10.00">type:</text>
<text text-anchor="start" x="956" y="-439.5" font-family="Times,serif" font-size="10.00">prov:Person</text>
<text text-anchor="start" x="922" y="-426.5" font-family="Times,serif" font-size="10.00">name:</text>
<text text-anchor="start" x="956" y="-426.5" font-family="Times,serif" font-size="10.00">var:ag_o_name</text>
</g>
<!-- &#45;attrs10&#45;&gt;http://openprovenance.org/var#original_author_id -->
<g id="edge11" class="edge">
<title>&#45;attrs10&#45;&gt;http://openprovenance.org/var#original_author_id</title>
<path fill="none" stroke="gray" stroke-dasharray="5,2" d="M978,-453.89C978,-473.99 978,-506.68 978,-525.15"/>
</g>
<!-- &#45;attrs11 -->
<g id="node24" class="node">
<title>&#45;attrs11</title>
<polygon fill="none" stroke="gray" points="414,-316.5 290,-316.5 290,-280.5 420,-280.5 420,-310.5 414,-316.5"/>
<polyline fill="none" stroke="gray" points="414,-316.5 414,-310.5 "/>
<polyline fill="none" stroke="gray" points="420,-310.5 414,-310.5 "/>
<text text-anchor="start" x="300" y="-302.5" font-family="Times,serif" font-size="10.00">type:</text>
<text text-anchor="start" x="334" y="-302.5" font-family="Times,serif" font-size="10.00">prov:Person</text>
<text text-anchor="start" x="300" y="-289.5" font-family="Times,serif" font-size="10.00">name:</text>
<text text-anchor="start" x="334" y="-289.5" font-family="Times,serif" font-size="10.00">var:ag_r_name</text>
</g>
<!-- &#45;attrs11&#45;&gt;http://openprovenance.org/var#reaction_author_id -->
<g id="edge12" class="edge">
<title>&#45;attrs11&#45;&gt;http://openprovenance.org/var#reaction_author_id</title>
<path fill="none" stroke="gray" stroke-dasharray="5,2" d="M340.56,-316.6C317.67,-343.7 273.52,-395.99 252.57,-420.8"/>
</g>
</g>
</svg>
