<?xml version="1.0" encoding="UTF-8" standalone="no"?>
<!DOCTYPE svg PUBLIC "-//W3C//DTD SVG 1.1//EN"
 "http://www.w3.org/Graphics/SVG/1.1/DTD/svg11.dtd">
<!-- Generated by graphviz version 2.43.0 (0)
 -->
<!-- Title: PROV Pages: 1 -->
<svg width="1152pt" height="452pt"
 viewBox="0.00 0.00 1152.00 452.40" xmlns="http://www.w3.org/2000/svg" xmlns:xlink="http://www.w3.org/1999/xlink">
<g id="graph0" class="graph" transform="scale(1.29 1.29) rotate(0) translate(4 578)">
<title>PROV</title>
<polygon fill="white" stroke="transparent" points="-4,4 -4,-578 1478,-578 1478,4 -4,4"/>
<g id="clust1" class="cluster">
<title>clusterhttp://openprovenance.org/vargen#bundle_id</title>
<g id="a_clust1"><a xlink:href="http://openprovenance.org/vargen#bundle_id" xlink:title="bundle_id">
<polygon fill="none" stroke="black" points="8,-8 8,-566 1466,-566 1466,-8 8,-8"/>
<text text-anchor="middle" x="737" y="-15.8" font-family="Times,serif" font-size="14.00">bundle_id</text>
</a>
</g>
</g>
<!-- http://openprovenance.org/var#post_id -->
<g id="node1" class="node">
<title>http://openprovenance.org/var#post_id</title>
<g id="a_node1"><a xlink:href="http://openprovenance.org/var#post_id" xlink:title="post_id">
<polygon fill="#9fb1fc" stroke="#0000ff" points="1190,-453.5 1122,-453.5 1122,-417.5 1190,-417.5 1190,-453.5"/>
<text text-anchor="middle" x="1156" y="-431.8" font-family="Times,serif" font-size="14.00">post_id</text>
</a>
</g>
</g>
<!-- http://openprovenance.org/var#original_tweet_props_id -->
<g id="node7" class="node">
<title>http://openprovenance.org/var#original_tweet_props_id</title>
<g id="a_node7"><a xlink:href="http://openprovenance.org/var#original_tweet_props_id" xlink:title="original_tweet_props_id">
<ellipse fill="#fffc87" stroke="#808080" cx="1284" cy="-540" rx="120.78" ry="18"/>
<text text-anchor="middle" x="1284" y="-536.3" font-family="Times,serif" font-size="14.00">original_tweet_props_id</text>
</a>
</g>
</g>
<!-- http://openprovenance.org/var#post_id&#45;&gt;http://openprovenance.org/var#original_tweet_props_id -->
<g id="edge13" class="edge">
<title>http://openprovenance.org/var#post_id&#45;&gt;http://openprovenance.org/var#original_tweet_props_id</title>
<path fill="none" stroke="black" d="M1168.82,-453.69C1176.83,-463.78 1187.74,-476.39 1199,-486 1212.58,-497.59 1228.95,-508.41 1243.67,-517.22"/>
<polygon fill="black" stroke="black" points="1242.19,-520.4 1252.59,-522.42 1245.72,-514.36 1242.19,-520.4"/>
<text text-anchor="middle" x="1183.64" y="-449.5" font-family="Times,serif" font-size="8.00">use</text>
</g>
<!-- http://openprovenance.org/var#original_author_id -->
<g id="node17" class="node">
<title>http://openprovenance.org/var#original_author_id</title>
<g id="a_node17"><a xlink:href="http://openprovenance.org/var#original_author_id" xlink:title="original_author_id">
<polygon fill="#fdb266" stroke="black" points="1096.09,-545.56 979,-558 861.91,-545.56 862.02,-525.44 1095.98,-525.44 1096.09,-545.56"/>
<text text-anchor="middle" x="979" y="-536.3" font-family="Times,serif" font-size="14.00">original_author_id</text>
</a>
</g>
</g>
<!-- http://openprovenance.org/var#post_id&#45;&gt;http://openprovenance.org/var#original_author_id -->
<g id="edge12" class="edge">
<title>http://openprovenance.org/var#post_id&#45;&gt;http://openprovenance.org/var#original_author_id</title>
<path fill="none" stroke="black" d="M1144.49,-453.51C1136.65,-464.04 1125.45,-477.19 1113,-486 1090.83,-501.7 1063.36,-513.61 1039.07,-522.13"/>
<polygon fill="black" stroke="black" points="1037.94,-518.82 1029.59,-525.35 1040.18,-525.45 1037.94,-518.82"/>
<text text-anchor="middle" x="1150.31" y="-465.43" font-family="Times,serif" font-size="8.00">assoc</text>
</g>
<!-- &#45;attrs0 -->
<g id="node2" class="node">
<title>&#45;attrs0</title>
<polygon fill="none" stroke="gray" points="1451.5,-316.5 1370.5,-316.5 1370.5,-280.5 1457.5,-280.5 1457.5,-310.5 1451.5,-316.5"/>
<polyline fill="none" stroke="gray" points="1451.5,-316.5 1451.5,-310.5 "/>
<polyline fill="none" stroke="gray" points="1457.5,-310.5 1451.5,-310.5 "/>
<text text-anchor="start" x="1381" y="-295.5" font-family="Times,serif" font-size="10.00">type:</text>
<text text-anchor="start" x="1409" y="-295.5" font-family="Times,serif" font-size="10.00">publish</text>
</g>
<!-- &#45;attrs0&#45;&gt;http://openprovenance.org/var#post_id -->
<g id="edge1" class="edge">
<title>&#45;attrs0&#45;&gt;http://openprovenance.org/var#post_id</title>
<path fill="none" stroke="gray" stroke-dasharray="5,2" d="M1399.97,-316.67C1390.16,-327.55 1376.15,-341.02 1361,-349 1295.75,-383.38 1262.37,-347.26 1199,-385 1185.7,-392.92 1174.39,-406.4 1166.72,-417.29"/>
</g>
<!-- http://openprovenance.org/var#react_id -->
<g id="node3" class="node">
<title>http://openprovenance.org/var#react_id</title>
<g id="a_node3"><a xlink:href="http://openprovenance.org/var#react_id" xlink:title="react_id">
<polygon fill="#9fb1fc" stroke="#0000ff" points="870,-316.5 796,-316.5 796,-280.5 870,-280.5 870,-316.5"/>
<text text-anchor="middle" x="833" y="-294.8" font-family="Times,serif" font-size="14.00">react_id</text>
</a>
</g>
</g>
<!-- http://openprovenance.org/var#react_id&#45;&gt;http://openprovenance.org/var#post_id -->
<g id="edge15" class="edge">
<title>http://openprovenance.org/var#react_id&#45;&gt;http://openprovenance.org/var#post_id</title>
<path fill="none" stroke="black" d="M844.19,-316.52C852.45,-327.63 864.7,-341.42 879,-349 971.97,-398.27 1020.87,-334.17 1113,-385 1123.53,-390.81 1132.69,-400.26 1139.82,-409.35"/>
<polygon fill="black" stroke="black" points="1137.05,-411.48 1145.78,-417.48 1142.7,-407.35 1137.05,-411.48"/>
<text text-anchor="middle" x="859.07" y="-312.71" font-family="Times,serif" font-size="8.00">inf</text>
</g>
<!-- http://openprovenance.org/var#reaction_tweet_props_id -->
<g id="node15" class="node">
<title>http://openprovenance.org/var#reaction_tweet_props_id</title>
<g id="a_node15"><a xlink:href="http://openprovenance.org/var#reaction_tweet_props_id" xlink:title="reaction_tweet_props_id">
<ellipse fill="#fffc87" stroke="#808080" cx="712" cy="-435.5" rx="123.48" ry="18"/>
<text text-anchor="middle" x="712" y="-431.8" font-family="Times,serif" font-size="14.00">reaction_tweet_props_id</text>
</a>
</g>
</g>
<!-- http://openprovenance.org/var#react_id&#45;&gt;http://openprovenance.org/var#reaction_tweet_props_id -->
<g id="edge19" class="edge">
<title>http://openprovenance.org/var#react_id&#45;&gt;http://openprovenance.org/var#reaction_tweet_props_id</title>
<path fill="none" stroke="black" d="M817.68,-316.6C796.49,-340.23 758.14,-383.02 733.93,-410.04"/>
<polygon fill="black" stroke="black" points="731.27,-407.76 727.2,-417.54 736.48,-412.43 731.27,-407.76"/>
<text text-anchor="middle" x="822.34" y="-328.95" font-family="Times,serif" font-size="8.00">use</text>
</g>
<!-- http://openprovenance.org/var#reaction_author_id -->
<g id="node19" class="node">
<title>http://openprovenance.org/var#reaction_author_id</title>
<g id="a_node19"><a xlink:href="http://openprovenance.org/var#reaction_author_id" xlink:title="reaction_author_id">
<polygon fill="#fdb266" stroke="black" points="420.91,-441.06 301,-453.5 181.09,-441.06 181.21,-420.94 420.79,-420.94 420.91,-441.06"/>
<text text-anchor="middle" x="301" y="-431.8" font-family="Times,serif" font-size="14.00">reaction_author_id</text>
</a>
</g>
</g>
<!-- http://openprovenance.org/var#react_id&#45;&gt;http://openprovenance.org/var#reaction_author_id -->
<g id="edge16" class="edge">
<title>http://openprovenance.org/var#react_id&#45;&gt;http://openprovenance.org/var#reaction_author_id</title>
<path fill="none" stroke="black" d="M821.93,-316.76C813.73,-327.97 801.5,-341.79 787,-349 644.2,-419.98 585.15,-348.11 430,-385 398.44,-392.5 364.23,-405.89 338.97,-416.85"/>
<polygon fill="black" stroke="black" points="337.49,-413.68 329.76,-420.92 340.32,-420.09 337.49,-413.68"/>
<text text-anchor="middle" x="827.81" y="-328.66" font-family="Times,serif" font-size="8.00">assoc</text>
</g>
<!-- &#45;attrs1 -->
<g id="node4" class="node">
<title>&#45;attrs1</title>
<polygon fill="none" stroke="gray" points="1007,-179.5 847,-179.5 847,-143.5 1013,-143.5 1013,-173.5 1007,-179.5"/>
<polyline fill="none" stroke="gray" points="1007,-179.5 1007,-173.5 "/>
<polyline fill="none" stroke="gray" points="1013,-173.5 1007,-173.5 "/>
<text text-anchor="start" x="857" y="-165.5" font-family="Times,serif" font-size="10.00">type:</text>
<text text-anchor="start" x="894" y="-165.5" font-family="Times,serif" font-size="10.00">publish</text>
<text text-anchor="start" x="857" y="-152.5" font-family="Times,serif" font-size="10.00">linked:</text>
<text text-anchor="start" x="894" y="-152.5" font-family="Times,serif" font-size="10.00">var:reaction_tweet_id</text>
</g>
<!-- &#45;attrs1&#45;&gt;http://openprovenance.org/var#react_id -->
<g id="edge2" class="edge">
<title>&#45;attrs1&#45;&gt;http://openprovenance.org/var#react_id</title>
<path fill="none" stroke="gray" stroke-dasharray="5,2" d="M917.71,-179.6C899.16,-205.42 864.17,-254.12 845.49,-280.11"/>
</g>
<!-- http://openprovenance.org/var#original_tweet_id -->
<g id="node5" class="node">
<title>http://openprovenance.org/var#original_tweet_id</title>
<g id="a_node5"><a xlink:href="http://openprovenance.org/var#original_tweet_id" xlink:title="original_tweet_id">
<ellipse fill="#fffc87" stroke="#808080" cx="1262" cy="-298.5" rx="90.18" ry="18"/>
<text text-anchor="middle" x="1262" y="-294.8" font-family="Times,serif" font-size="14.00">original_tweet_id</text>
</a>
</g>
</g>
<!-- http://openprovenance.org/var#original_tweet_id&#45;&gt;http://openprovenance.org/var#post_id -->
<g id="edge11" class="edge">
<title>http://openprovenance.org/var#original_tweet_id&#45;&gt;http://openprovenance.org/var#post_id</title>
<path fill="none" stroke="black" d="M1248.79,-316.32C1230.38,-339.77 1196.88,-382.43 1175.57,-409.58"/>
<polygon fill="black" stroke="black" points="1172.8,-407.44 1169.38,-417.46 1178.31,-411.76 1172.8,-407.44"/>
<text text-anchor="middle" x="1254.37" y="-328.35" font-family="Times,serif" font-size="8.00">gen</text>
</g>
<!-- &#45;attrs2 -->
<g id="node6" class="node">
<title>&#45;attrs2</title>
<polygon fill="none" stroke="gray" points="1324.5,-179.5 1193.5,-179.5 1193.5,-143.5 1330.5,-143.5 1330.5,-173.5 1324.5,-179.5"/>
<polyline fill="none" stroke="gray" points="1324.5,-179.5 1324.5,-173.5 "/>
<polyline fill="none" stroke="gray" points="1330.5,-173.5 1324.5,-173.5 "/>
<text text-anchor="start" x="1204" y="-165.5" font-family="Times,serif" font-size="10.00">type:</text>
<text text-anchor="start" x="1237" y="-165.5" font-family="Times,serif" font-size="10.00">original tweet</text>
<text text-anchor="start" x="1204" y="-152.5" font-family="Times,serif" font-size="10.00">value:</text>
<text text-anchor="start" x="1237" y="-152.5" font-family="Times,serif" font-size="10.00">var:original_text</text>
</g>
<!-- &#45;attrs2&#45;&gt;http://openprovenance.org/var#original_tweet_id -->
<g id="edge3" class="edge">
<title>&#45;attrs2&#45;&gt;http://openprovenance.org/var#original_tweet_id</title>
<path fill="none" stroke="gray" stroke-dasharray="5,2" d="M1262,-179.6C1262,-205.42 1262,-254.12 1262,-280.11"/>
</g>
<!-- &#45;attrs3 -->
<g id="node8" class="node">
<title>&#45;attrs3</title>
<polygon fill="none" stroke="gray" points="1452,-486 1208,-486 1208,-385 1458,-385 1458,-480 1452,-486"/>
<polyline fill="none" stroke="gray" points="1452,-486 1452,-480 "/>
<polyline fill="none" stroke="gray" points="1458,-480 1452,-480 "/>
<text text-anchor="start" x="1218" y="-471.5" font-family="Times,serif" font-size="10.00">type:</text>
<text text-anchor="start" x="1296" y="-471.5" font-family="Times,serif" font-size="10.00">tweet properties</text>
<text text-anchor="start" x="1218" y="-458.5" font-family="Times,serif" font-size="10.00">created_at:</text>
<text text-anchor="start" x="1296" y="-458.5" font-family="Times,serif" font-size="10.00">var:ORIGINAL_created_at</text>
<text text-anchor="start" x="1218" y="-445.5" font-family="Times,serif" font-size="10.00">location:</text>
<text text-anchor="start" x="1296" y="-445.5" font-family="Times,serif" font-size="10.00">var:ORIGINAL_location</text>
<text text-anchor="start" x="1218" y="-432.5" font-family="Times,serif" font-size="10.00">like_count:</text>
<text text-anchor="start" x="1296" y="-432.5" font-family="Times,serif" font-size="10.00">var:ORIGINAL_like_count</text>
<text text-anchor="start" x="1218" y="-419.5" font-family="Times,serif" font-size="10.00">quote_count:</text>
<text text-anchor="start" x="1296" y="-419.5" font-family="Times,serif" font-size="10.00">var:ORIGINAL_quote_count</text>
<text text-anchor="start" x="1218" y="-406.5" font-family="Times,serif" font-size="10.00">reply_count:</text>
<text text-anchor="start" x="1296" y="-406.5" font-family="Times,serif" font-size="10.00">var:ORIGINAL_reply_count</text>
<text text-anchor="start" x="1218" y="-393.5" font-family="Times,serif" font-size="10.00">retweet_count:</text>
<text text-anchor="start" x="1296" y="-393.5" font-family="Times,serif" font-size="10.00">var:ORIGINAL_retweet_count</text>
</g>
<!-- &#45;attrs3&#45;&gt;http://openprovenance.org/var#original_tweet_props_id -->
<g id="edge4" class="edge">
<title>&#45;attrs3&#45;&gt;http://openprovenance.org/var#original_tweet_props_id</title>
<path fill="none" stroke="gray" stroke-dasharray="5,2" d="M1309.22,-486.25C1303.07,-499.1 1296.87,-512.08 1292.15,-521.95"/>
</g>
<!-- http://openprovenance.org/var#original_author_props_id -->
<g id="node9" class="node">
<title>http://openprovenance.org/var#original_author_props_id</title>
<g id="a_node9"><a xlink:href="http://openprovenance.org/var#original_author_props_id" xlink:title="original_author_props_id">
<ellipse fill="#fffc87" stroke="#808080" cx="979" cy="-435.5" rx="125.38" ry="18"/>
<text text-anchor="middle" x="979" y="-431.8" font-family="Times,serif" font-size="14.00">original_author_props_id</text>
</a>
</g>
</g>
<!-- http://openprovenance.org/var#original_author_props_id&#45;&gt;http://openprovenance.org/var#original_author_id -->
<g id="edge14" class="edge">
<title>http://openprovenance.org/var#original_author_props_id&#45;&gt;http://openprovenance.org/var#original_author_id</title>
<path fill="none" stroke="black" d="M979,-453.89C979,-470.69 979,-496.29 979,-515.03"/>
<polygon fill="black" stroke="black" points="975.5,-515.15 979,-525.15 982.5,-515.15 975.5,-515.15"/>
<text text-anchor="middle" x="991.99" y="-459.49" font-family="Times,serif" font-size="8.00">att</text>
</g>
<!-- &#45;attrs4 -->
<g id="node10" class="node">
<title>&#45;attrs4</title>
<polygon fill="none" stroke="gray" points="1148,-349 888,-349 888,-248 1154,-248 1154,-343 1148,-349"/>
<polyline fill="none" stroke="gray" points="1148,-349 1148,-343 "/>
<polyline fill="none" stroke="gray" points="1154,-343 1148,-343 "/>
<text text-anchor="start" x="898" y="-334.5" font-family="Times,serif" font-size="10.00">type:</text>
<text text-anchor="start" x="984" y="-334.5" font-family="Times,serif" font-size="10.00">user properties</text>
<text text-anchor="start" x="898" y="-321.5" font-family="Times,serif" font-size="10.00">credible:</text>
<text text-anchor="start" x="984" y="-321.5" font-family="Times,serif" font-size="10.00">var:ORIGINAL_credible</text>
<text text-anchor="start" x="898" y="-308.5" font-family="Times,serif" font-size="10.00">name:</text>
<text text-anchor="start" x="984" y="-308.5" font-family="Times,serif" font-size="10.00">var:ORIGINAL_name</text>
<text text-anchor="start" x="898" y="-295.5" font-family="Times,serif" font-size="10.00">username:</text>
<text text-anchor="start" x="984" y="-295.5" font-family="Times,serif" font-size="10.00">var:ORIGINAL_username</text>
<text text-anchor="start" x="898" y="-282.5" font-family="Times,serif" font-size="10.00">verified:</text>
<text text-anchor="start" x="984" y="-282.5" font-family="Times,serif" font-size="10.00">var:ORIGINAL_verified</text>
<text text-anchor="start" x="898" y="-269.5" font-family="Times,serif" font-size="10.00">followers_count:</text>
<text text-anchor="start" x="984" y="-269.5" font-family="Times,serif" font-size="10.00">var:ORIGINAL_followers_count</text>
<text text-anchor="start" x="898" y="-256.5" font-family="Times,serif" font-size="10.00">following_count:</text>
<text text-anchor="start" x="984" y="-256.5" font-family="Times,serif" font-size="10.00">var:ORIGINAL_following_count</text>
</g>
<!-- &#45;attrs4&#45;&gt;http://openprovenance.org/var#original_author_props_id -->
<g id="edge5" class="edge">
<title>&#45;attrs4&#45;&gt;http://openprovenance.org/var#original_author_props_id</title>
<path fill="none" stroke="gray" stroke-dasharray="5,2" d="M1005.6,-349C998.15,-372.93 989.7,-400.12 984.36,-417.28"/>
</g>
<!-- http://openprovenance.org/var#reaction_author_props_id -->
<g id="node11" class="node">
<title>http://openprovenance.org/var#reaction_author_props_id</title>
<g id="a_node11"><a xlink:href="http://openprovenance.org/var#reaction_author_props_id" xlink:title="reaction_author_props_id">
<ellipse fill="#fffc87" stroke="#808080" cx="370" cy="-298.5" rx="128.08" ry="18"/>
<text text-anchor="middle" x="370" y="-294.8" font-family="Times,serif" font-size="14.00">reaction_author_props_id</text>
</a>
</g>
</g>
<!-- http://openprovenance.org/var#reaction_author_props_id&#45;&gt;http://openprovenance.org/var#reaction_author_id -->
<g id="edge17" class="edge">
<title>http://openprovenance.org/var#reaction_author_props_id&#45;&gt;http://openprovenance.org/var#reaction_author_id</title>
<path fill="none" stroke="black" d="M361.26,-316.6C348.92,-340.74 326.37,-384.85 312.63,-411.74"/>
<polygon fill="black" stroke="black" points="309.44,-410.3 308,-420.8 315.67,-413.49 309.44,-410.3"/>
<text text-anchor="middle" x="369.41" y="-327.29" font-family="Times,serif" font-size="8.00">att</text>
</g>
<!-- &#45;attrs5 -->
<g id="node12" class="node">
<title>&#45;attrs5</title>
<polygon fill="none" stroke="gray" points="498.5,-212 235.5,-212 235.5,-111 504.5,-111 504.5,-206 498.5,-212"/>
<polyline fill="none" stroke="gray" points="498.5,-212 498.5,-206 "/>
<polyline fill="none" stroke="gray" points="504.5,-206 498.5,-206 "/>
<text text-anchor="start" x="246" y="-197.5" font-family="Times,serif" font-size="10.00">type:</text>
<text text-anchor="start" x="332" y="-197.5" font-family="Times,serif" font-size="10.00">user properties</text>
<text text-anchor="start" x="246" y="-184.5" font-family="Times,serif" font-size="10.00">credible:</text>
<text text-anchor="start" x="332" y="-184.5" font-family="Times,serif" font-size="10.00">var:REACTION_credible</text>
<text text-anchor="start" x="246" y="-171.5" font-family="Times,serif" font-size="10.00">name:</text>
<text text-anchor="start" x="332" y="-171.5" font-family="Times,serif" font-size="10.00">var:REACTION_name</text>
<text text-anchor="start" x="246" y="-158.5" font-family="Times,serif" font-size="10.00">username:</text>
<text text-anchor="start" x="332" y="-158.5" font-family="Times,serif" font-size="10.00">var:REACTION_username</text>
<text text-anchor="start" x="246" y="-145.5" font-family="Times,serif" font-size="10.00">verified:</text>
<text text-anchor="start" x="332" y="-145.5" font-family="Times,serif" font-size="10.00">var:REACTION_verified</text>
<text text-anchor="start" x="246" y="-132.5" font-family="Times,serif" font-size="10.00">followers_count:</text>
<text text-anchor="start" x="332" y="-132.5" font-family="Times,serif" font-size="10.00">var:REACTION_followers_count</text>
<text text-anchor="start" x="246" y="-119.5" font-family="Times,serif" font-size="10.00">following_count:</text>
<text text-anchor="start" x="332" y="-119.5" font-family="Times,serif" font-size="10.00">var:REACTION_following_count</text>
</g>
<!-- &#45;attrs5&#45;&gt;http://openprovenance.org/var#reaction_author_props_id -->
<g id="edge6" class="edge">
<title>&#45;attrs5&#45;&gt;http://openprovenance.org/var#reaction_author_props_id</title>
<path fill="none" stroke="gray" stroke-dasharray="5,2" d="M370,-212C370,-235.93 370,-263.12 370,-280.28"/>
</g>
<!-- http://openprovenance.org/var#reaction_tweet_id -->
<g id="node13" class="node">
<title>http://openprovenance.org/var#reaction_tweet_id</title>
<g id="a_node13"><a xlink:href="http://openprovenance.org/var#reaction_tweet_id" xlink:title="reaction_tweet_id">
<ellipse fill="#fffc87" stroke="#808080" cx="736" cy="-161.5" rx="92.88" ry="18"/>
<text text-anchor="middle" x="736" y="-157.8" font-family="Times,serif" font-size="14.00">reaction_tweet_id</text>
</a>
</g>
</g>
<!-- http://openprovenance.org/var#reaction_tweet_id&#45;&gt;http://openprovenance.org/var#react_id -->
<g id="edge18" class="edge">
<title>http://openprovenance.org/var#reaction_tweet_id&#45;&gt;http://openprovenance.org/var#react_id</title>
<path fill="none" stroke="black" d="M748.29,-179.6C765.03,-202.9 795.15,-244.83 814.6,-271.89"/>
<polygon fill="black" stroke="black" points="811.83,-274.04 820.51,-280.11 817.52,-269.95 811.83,-274.04"/>
<text text-anchor="middle" x="763.21" y="-176.21" font-family="Times,serif" font-size="8.00">gen</text>
</g>
<!-- &#45;attrs6 -->
<g id="node14" class="node">
<title>&#45;attrs6</title>
<polygon fill="none" stroke="gray" points="818.5,-75 647.5,-75 647.5,-39 824.5,-39 824.5,-69 818.5,-75"/>
<polyline fill="none" stroke="gray" points="818.5,-75 818.5,-69 "/>
<polyline fill="none" stroke="gray" points="824.5,-69 818.5,-69 "/>
<text text-anchor="start" x="658" y="-61" font-family="Times,serif" font-size="10.00">type:</text>
<text text-anchor="start" x="691" y="-61" font-family="Times,serif" font-size="10.00">var:reply_retweet_quote</text>
<text text-anchor="start" x="658" y="-48" font-family="Times,serif" font-size="10.00">value:</text>
<text text-anchor="start" x="691" y="-48" font-family="Times,serif" font-size="10.00">var:reaction_text</text>
</g>
<!-- &#45;attrs6&#45;&gt;http://openprovenance.org/var#reaction_tweet_id -->
<g id="edge7" class="edge">
<title>&#45;attrs6&#45;&gt;http://openprovenance.org/var#reaction_tweet_id</title>
<path fill="none" stroke="gray" stroke-dasharray="5,2" d="M736,-75.39C736,-94.35 736,-124.51 736,-143.37"/>
</g>
<!-- &#45;attrs7 -->
<g id="node16" class="node">
<title>&#45;attrs7</title>
<polygon fill="none" stroke="gray" points="772,-342.5 516,-342.5 516,-254.5 778,-254.5 778,-336.5 772,-342.5"/>
<polyline fill="none" stroke="gray" points="772,-342.5 772,-336.5 "/>
<polyline fill="none" stroke="gray" points="778,-336.5 772,-336.5 "/>
<text text-anchor="start" x="526" y="-328.5" font-family="Times,serif" font-size="10.00">type:</text>
<text text-anchor="start" x="608" y="-328.5" font-family="Times,serif" font-size="10.00">tweet properties</text>
<text text-anchor="start" x="526" y="-315.5" font-family="Times,serif" font-size="10.00">linked:</text>
<text text-anchor="start" x="608" y="-315.5" font-family="Times,serif" font-size="10.00">var:react_id</text>
<text text-anchor="start" x="526" y="-302.5" font-family="Times,serif" font-size="10.00">created_at:</text>
<text text-anchor="start" x="608" y="-302.5" font-family="Times,serif" font-size="10.00">var:REACTION_created_at</text>
<text text-anchor="start" x="526" y="-289.5" font-family="Times,serif" font-size="10.00">location:</text>
<text text-anchor="start" x="608" y="-289.5" font-family="Times,serif" font-size="10.00">var:REACTION_location</text>
<text text-anchor="start" x="526" y="-276.5" font-family="Times,serif" font-size="10.00">reference_type:</text>
<text text-anchor="start" x="608" y="-276.5" font-family="Times,serif" font-size="10.00">var:REACTION_reference_type</text>
<text text-anchor="start" x="526" y="-263.5" font-family="Times,serif" font-size="10.00">reference_id:</text>
<text text-anchor="start" x="608" y="-263.5" font-family="Times,serif" font-size="10.00">var:REACTION_reference_id</text>
</g>
<!-- &#45;attrs7&#45;&gt;http://openprovenance.org/var#reaction_tweet_props_id -->
<g id="edge8" class="edge">
<title>&#45;attrs7&#45;&gt;http://openprovenance.org/var#reaction_tweet_props_id</title>
<path fill="none" stroke="gray" stroke-dasharray="5,2" d="M667.75,-342.59C679.93,-367.9 694.67,-398.5 703.68,-417.23"/>
</g>
<!-- &#45;attrs8 -->
<g id="node18" class="node">
<title>&#45;attrs8</title>
<polygon fill="none" stroke="gray" points="565,-453.5 439,-453.5 439,-417.5 571,-417.5 571,-447.5 565,-453.5"/>
<polyline fill="none" stroke="gray" points="565,-453.5 565,-447.5 "/>
<polyline fill="none" stroke="gray" points="571,-447.5 565,-447.5 "/>
<text text-anchor="start" x="449" y="-439.5" font-family="Times,serif" font-size="10.00">type:</text>
<text text-anchor="start" x="483" y="-439.5" font-family="Times,serif" font-size="10.00">prov:Person</text>
<text text-anchor="start" x="449" y="-426.5" font-family="Times,serif" font-size="10.00">name:</text>
<text text-anchor="start" x="483" y="-426.5" font-family="Times,serif" font-size="10.00">var:ag_o_name</text>
</g>
<!-- &#45;attrs8&#45;&gt;http://openprovenance.org/var#original_author_id -->
<g id="edge9" class="edge">
<title>&#45;attrs8&#45;&gt;http://openprovenance.org/var#original_author_id</title>
<path fill="none" stroke="gray" stroke-dasharray="5,2" d="M525.26,-453.55C539.61,-464.67 559.83,-478.46 580,-486 670.82,-519.95 780.4,-532.67 861.73,-537.19"/>
</g>
<!-- &#45;attrs9 -->
<g id="node20" class="node">
<title>&#45;attrs9</title>
<polygon fill="none" stroke="gray" points="217.5,-329.5 16.5,-329.5 16.5,-267.5 223.5,-267.5 223.5,-323.5 217.5,-329.5"/>
<polyline fill="none" stroke="gray" points="217.5,-329.5 217.5,-323.5 "/>
<polyline fill="none" stroke="gray" points="223.5,-323.5 217.5,-323.5 "/>
<text text-anchor="start" x="27" y="-315.5" font-family="Times,serif" font-size="10.00">type:</text>
<text text-anchor="start" x="64" y="-315.5" font-family="Times,serif" font-size="10.00">prov:Person</text>
<text text-anchor="start" x="27" y="-302.5" font-family="Times,serif" font-size="10.00">name:</text>
<text text-anchor="start" x="64" y="-302.5" font-family="Times,serif" font-size="10.00">var:ag_r_name</text>
<text text-anchor="start" x="27" y="-289.5" font-family="Times,serif" font-size="10.00">linked:</text>
<text text-anchor="start" x="64" y="-289.5" font-family="Times,serif" font-size="10.00">var:react_id</text>
<text text-anchor="start" x="27" y="-276.5" font-family="Times,serif" font-size="10.00">linked:</text>
<text text-anchor="start" x="64" y="-276.5" font-family="Times,serif" font-size="10.00">var:reaction_author_props_id</text>
</g>
<!-- &#45;attrs9&#45;&gt;http://openprovenance.org/var#reaction_author_id -->
<g id="edge10" class="edge">
<title>&#45;attrs9&#45;&gt;http://openprovenance.org/var#reaction_author_id</title>
<path fill="none" stroke="gray" stroke-dasharray="5,2" d="M160.62,-329.8C198.77,-358.25 254.11,-399.53 282.57,-420.75"/>
</g>
</g>
</svg>
