<?xml version="1.0" encoding="UTF-8" standalone="no"?>
<!DOCTYPE svg PUBLIC "-//W3C//DTD SVG 1.1//EN"
 "http://www.w3.org/Graphics/SVG/1.1/DTD/svg11.dtd">
<!-- Generated by graphviz version 2.43.0 (0)
 -->
<!-- Title: PROV Pages: 1 -->
<svg width="1152pt" height="417pt"
 viewBox="0.00 0.00 1152.00 416.96" xmlns="http://www.w3.org/2000/svg" xmlns:xlink="http://www.w3.org/1999/xlink">
<g id="graph0" class="graph" transform="scale(1.4 1.4) rotate(0) translate(4 578)">
<title>PROV</title>
<polygon fill="white" stroke="transparent" points="-4,4 -4,-578 1604,-578 1604,4 -4,4"/>
<g id="clust1" class="cluster">
<title>clusterhttp://openprovenance.org/vargen#bundle_id</title>
<g id="a_clust1"><a xlink:href="http://openprovenance.org/vargen#bundle_id" xlink:title="bundle_id">
<polygon fill="none" stroke="black" points="8,-8 8,-566 1592,-566 1592,-8 8,-8"/>
<text text-anchor="middle" x="800" y="-15.8" font-family="Times,serif" font-size="14.00">bundle_id</text>
</a>
</g>
</g>
<!-- http://openprovenance.org/var#post_id -->
<g id="node1" class="node">
<title>http://openprovenance.org/var#post_id</title>
<g id="a_node1"><a xlink:href="http://openprovenance.org/var#post_id" xlink:title="post_id">
<polygon fill="#9fb1fc" stroke="#0000ff" points="1232,-453.5 1164,-453.5 1164,-417.5 1232,-417.5 1232,-453.5"/>
<text text-anchor="middle" x="1198" y="-431.8" font-family="Times,serif" font-size="14.00">post_id</text>
</a>
</g>
</g>
<!-- http://openprovenance.org/var#original_tweet_props_id -->
<g id="node9" class="node">
<title>http://openprovenance.org/var#original_tweet_props_id</title>
<g id="a_node9"><a xlink:href="http://openprovenance.org/var#original_tweet_props_id" xlink:title="original_tweet_props_id">
<ellipse fill="#fffc87" stroke="#808080" cx="1336" cy="-540" rx="120.78" ry="18"/>
<text text-anchor="middle" x="1336" y="-536.3" font-family="Times,serif" font-size="14.00">original_tweet_props_id</text>
</a>
</g>
</g>
<!-- http://openprovenance.org/var#post_id&#45;&gt;http://openprovenance.org/var#original_tweet_props_id -->
<g id="edge15" class="edge">
<title>http://openprovenance.org/var#post_id&#45;&gt;http://openprovenance.org/var#original_tweet_props_id</title>
<path fill="none" stroke="black" d="M1211.03,-453.85C1219.2,-464 1230.37,-476.62 1242,-486 1257.13,-498.21 1275.45,-509.23 1291.87,-518.02"/>
<polygon fill="black" stroke="black" points="1290.29,-521.14 1300.77,-522.66 1293.53,-514.93 1290.29,-521.14"/>
<text text-anchor="middle" x="1225.84" y="-449.55" font-family="Times,serif" font-size="8.00">use</text>
</g>
<!-- http://openprovenance.org/var#original_author_id -->
<g id="node21" class="node">
<title>http://openprovenance.org/var#original_author_id</title>
<g id="a_node21"><a xlink:href="http://openprovenance.org/var#original_author_id" xlink:title="original_author_id">
<polygon fill="#fdb266" stroke="black" points="1197.09,-545.56 1080,-558 962.91,-545.56 963.02,-525.44 1196.98,-525.44 1197.09,-545.56"/>
<text text-anchor="middle" x="1080" y="-536.3" font-family="Times,serif" font-size="14.00">original_author_id</text>
</a>
</g>
</g>
<!-- http://openprovenance.org/var#post_id&#45;&gt;http://openprovenance.org/var#original_author_id -->
<g id="edge14" class="edge">
<title>http://openprovenance.org/var#post_id&#45;&gt;http://openprovenance.org/var#original_author_id</title>
<path fill="none" stroke="black" d="M1184.6,-453.92C1176.56,-463.85 1165.81,-476.23 1155,-486 1141.39,-498.31 1124.86,-510.27 1110.78,-519.7"/>
<polygon fill="black" stroke="black" points="1108.81,-516.8 1102.38,-525.22 1112.66,-522.65 1108.81,-516.8"/>
<text text-anchor="middle" x="1189.91" y="-466.05" font-family="Times,serif" font-size="8.00">assoc</text>
</g>
<!-- &#45;attrs0 -->
<g id="node2" class="node">
<title>&#45;attrs0</title>
<polygon fill="none" stroke="gray" points="1253.5,-316.5 1172.5,-316.5 1172.5,-280.5 1259.5,-280.5 1259.5,-310.5 1253.5,-316.5"/>
<polyline fill="none" stroke="gray" points="1253.5,-316.5 1253.5,-310.5 "/>
<polyline fill="none" stroke="gray" points="1259.5,-310.5 1253.5,-310.5 "/>
<text text-anchor="start" x="1183" y="-295.5" font-family="Times,serif" font-size="10.00">type:</text>
<text text-anchor="start" x="1211" y="-295.5" font-family="Times,serif" font-size="10.00">publish</text>
</g>
<!-- &#45;attrs0&#45;&gt;http://openprovenance.org/var#post_id -->
<g id="edge1" class="edge">
<title>&#45;attrs0&#45;&gt;http://openprovenance.org/var#post_id</title>
<path fill="none" stroke="gray" stroke-dasharray="5,2" d="M1213.72,-316.6C1210.28,-342.42 1203.78,-391.12 1200.32,-417.11"/>
</g>
<!-- http://openprovenance.org/var#edit_id -->
<g id="node3" class="node">
<title>http://openprovenance.org/var#edit_id</title>
<g id="a_node3"><a xlink:href="http://openprovenance.org/var#edit_id" xlink:title="edit_id">
<polygon fill="#9fb1fc" stroke="#0000ff" points="1315.5,-453.5 1250.5,-453.5 1250.5,-417.5 1315.5,-417.5 1315.5,-453.5"/>
<text text-anchor="middle" x="1283" y="-431.8" font-family="Times,serif" font-size="14.00">edit_id</text>
</a>
</g>
</g>
<!-- http://openprovenance.org/var#edit_id&#45;&gt;http://openprovenance.org/var#original_tweet_props_id -->
<g id="edge19" class="edge">
<title>http://openprovenance.org/var#edit_id&#45;&gt;http://openprovenance.org/var#original_tweet_props_id</title>
<path fill="none" stroke="black" d="M1291.99,-453.89C1300.34,-470.04 1312.89,-494.3 1322.45,-512.8"/>
<polygon fill="black" stroke="black" points="1319.44,-514.59 1327.14,-521.87 1325.66,-511.38 1319.44,-514.59"/>
<text text-anchor="middle" x="1306.97" y="-452.68" font-family="Times,serif" font-size="8.00">use</text>
</g>
<!-- http://openprovenance.org/var#edit_id&#45;&gt;http://openprovenance.org/var#original_author_id -->
<g id="edge18" class="edge">
<title>http://openprovenance.org/var#edit_id&#45;&gt;http://openprovenance.org/var#original_author_id</title>
<path fill="none" stroke="black" d="M1272.01,-453.76C1264.45,-464.4 1253.53,-477.57 1241,-486 1216.22,-502.69 1185.77,-514.47 1158.05,-522.62"/>
<polygon fill="black" stroke="black" points="1157.04,-519.27 1148.37,-525.36 1158.94,-526.01 1157.04,-519.27"/>
<text text-anchor="middle" x="1278.11" y="-465.57" font-family="Times,serif" font-size="8.00">assoc</text>
</g>
<!-- &#45;attrs1 -->
<g id="node4" class="node">
<title>&#45;attrs1</title>
<polygon fill="none" stroke="gray" points="1557.5,-316.5 1476.5,-316.5 1476.5,-280.5 1563.5,-280.5 1563.5,-310.5 1557.5,-316.5"/>
<polyline fill="none" stroke="gray" points="1557.5,-316.5 1557.5,-310.5 "/>
<polyline fill="none" stroke="gray" points="1563.5,-310.5 1557.5,-310.5 "/>
<text text-anchor="start" x="1487" y="-295.5" font-family="Times,serif" font-size="10.00">type:</text>
<text text-anchor="start" x="1515" y="-295.5" font-family="Times,serif" font-size="10.00">publish</text>
</g>
<!-- &#45;attrs1&#45;&gt;http://openprovenance.org/var#edit_id -->
<g id="edge2" class="edge">
<title>&#45;attrs1&#45;&gt;http://openprovenance.org/var#edit_id</title>
<path fill="none" stroke="gray" stroke-dasharray="5,2" d="M1505.89,-316.52C1496.05,-327.34 1482.03,-340.79 1467,-349 1409.86,-380.2 1380.24,-350.54 1325,-385 1312,-393.11 1300.95,-406.58 1293.46,-417.41"/>
</g>
<!-- http://openprovenance.org/var#react_id -->
<g id="node5" class="node">
<title>http://openprovenance.org/var#react_id</title>
<g id="a_node5"><a xlink:href="http://openprovenance.org/var#react_id" xlink:title="react_id">
<polygon fill="#9fb1fc" stroke="#0000ff" points="1154,-316.5 1080,-316.5 1080,-280.5 1154,-280.5 1154,-316.5"/>
<text text-anchor="middle" x="1117" y="-294.8" font-family="Times,serif" font-size="14.00">react_id</text>
</a>
</g>
</g>
<!-- http://openprovenance.org/var#react_id&#45;&gt;http://openprovenance.org/var#post_id -->
<g id="edge21" class="edge">
<title>http://openprovenance.org/var#react_id&#45;&gt;http://openprovenance.org/var#post_id</title>
<path fill="none" stroke="black" d="M1127.26,-316.6C1141.18,-339.8 1166.18,-381.46 1182.42,-408.54"/>
<polygon fill="black" stroke="black" points="1179.42,-410.34 1187.57,-417.11 1185.42,-406.74 1179.42,-410.34"/>
<text text-anchor="middle" x="1142.26" y="-314.45" font-family="Times,serif" font-size="8.00">inf</text>
</g>
<!-- http://openprovenance.org/var#reaction_tweet_props_id -->
<g id="node19" class="node">
<title>http://openprovenance.org/var#reaction_tweet_props_id</title>
<g id="a_node19"><a xlink:href="http://openprovenance.org/var#reaction_tweet_props_id" xlink:title="reaction_tweet_props_id">
<ellipse fill="#fffc87" stroke="#808080" cx="873" cy="-435.5" rx="123.48" ry="18"/>
<text text-anchor="middle" x="873" y="-431.8" font-family="Times,serif" font-size="14.00">reaction_tweet_props_id</text>
</a>
</g>
</g>
<!-- http://openprovenance.org/var#react_id&#45;&gt;http://openprovenance.org/var#reaction_tweet_props_id -->
<g id="edge25" class="edge">
<title>http://openprovenance.org/var#react_id&#45;&gt;http://openprovenance.org/var#reaction_tweet_props_id</title>
<path fill="none" stroke="black" d="M1103.98,-316.8C1095.48,-327.19 1083.65,-340.07 1071,-349 1046.43,-366.35 974.73,-395.59 924.72,-414.97"/>
<polygon fill="black" stroke="black" points="923.41,-411.72 915.34,-418.59 925.93,-418.26 923.41,-411.72"/>
<text text-anchor="middle" x="1109.18" y="-328.97" font-family="Times,serif" font-size="8.00">use</text>
</g>
<!-- http://openprovenance.org/var#reaction_author_id -->
<g id="node23" class="node">
<title>http://openprovenance.org/var#reaction_author_id</title>
<g id="a_node23"><a xlink:href="http://openprovenance.org/var#reaction_author_id" xlink:title="reaction_author_id">
<polygon fill="#fdb266" stroke="black" points="462.91,-441.06 343,-453.5 223.09,-441.06 223.21,-420.94 462.79,-420.94 462.91,-441.06"/>
<text text-anchor="middle" x="343" y="-431.8" font-family="Times,serif" font-size="14.00">reaction_author_id</text>
</a>
</g>
</g>
<!-- http://openprovenance.org/var#react_id&#45;&gt;http://openprovenance.org/var#reaction_author_id -->
<g id="edge22" class="edge">
<title>http://openprovenance.org/var#react_id&#45;&gt;http://openprovenance.org/var#reaction_author_id</title>
<path fill="none" stroke="black" d="M1106.02,-316.95C1097.86,-328.24 1085.64,-342.09 1071,-349 950.41,-405.92 602.33,-356.78 472,-385 439.98,-391.93 405.42,-405.55 380.13,-416.75"/>
<polygon fill="black" stroke="black" points="378.6,-413.61 370.92,-420.91 381.48,-419.99 378.6,-413.61"/>
<text text-anchor="middle" x="1111.97" y="-328.82" font-family="Times,serif" font-size="8.00">assoc</text>
</g>
<!-- &#45;attrs2 -->
<g id="node6" class="node">
<title>&#45;attrs2</title>
<polygon fill="none" stroke="gray" points="1008,-179.5 848,-179.5 848,-143.5 1014,-143.5 1014,-173.5 1008,-179.5"/>
<polyline fill="none" stroke="gray" points="1008,-179.5 1008,-173.5 "/>
<polyline fill="none" stroke="gray" points="1014,-173.5 1008,-173.5 "/>
<text text-anchor="start" x="858" y="-165.5" font-family="Times,serif" font-size="10.00">type:</text>
<text text-anchor="start" x="895" y="-165.5" font-family="Times,serif" font-size="10.00">publish</text>
<text text-anchor="start" x="858" y="-152.5" font-family="Times,serif" font-size="10.00">linked:</text>
<text text-anchor="start" x="895" y="-152.5" font-family="Times,serif" font-size="10.00">var:reaction_tweet_id</text>
</g>
<!-- &#45;attrs2&#45;&gt;http://openprovenance.org/var#react_id -->
<g id="edge3" class="edge">
<title>&#45;attrs2&#45;&gt;http://openprovenance.org/var#react_id</title>
<path fill="none" stroke="gray" stroke-dasharray="5,2" d="M964.66,-179.65C994.13,-195.44 1037.37,-220.52 1071,-248 1082.81,-257.65 1094.49,-270.26 1103.12,-280.34"/>
</g>
<!-- http://openprovenance.org/var#original_tweet_id -->
<g id="node7" class="node">
<title>http://openprovenance.org/var#original_tweet_id</title>
<g id="a_node7"><a xlink:href="http://openprovenance.org/var#original_tweet_id" xlink:title="original_tweet_id">
<ellipse fill="#fffc87" stroke="#808080" cx="1368" cy="-298.5" rx="90.18" ry="18"/>
<text text-anchor="middle" x="1368" y="-294.8" font-family="Times,serif" font-size="14.00">original_tweet_id</text>
</a>
</g>
</g>
<!-- http://openprovenance.org/var#original_tweet_id&#45;&gt;http://openprovenance.org/var#post_id -->
<g id="edge13" class="edge">
<title>http://openprovenance.org/var#original_tweet_id&#45;&gt;http://openprovenance.org/var#post_id</title>
<path fill="none" stroke="black" d="M1340.04,-315.69C1313.52,-331.67 1273.2,-357.63 1242,-385 1233.49,-392.47 1225.01,-401.52 1217.8,-409.83"/>
<polygon fill="black" stroke="black" points="1215.1,-407.6 1211.32,-417.49 1220.45,-412.12 1215.1,-407.6"/>
<text text-anchor="middle" x="1340.39" y="-328.79" font-family="Times,serif" font-size="8.00">gen</text>
</g>
<!-- &#45;attrs3 -->
<g id="node8" class="node">
<title>&#45;attrs3</title>
<polygon fill="none" stroke="gray" points="1392.5,-179.5 1261.5,-179.5 1261.5,-143.5 1398.5,-143.5 1398.5,-173.5 1392.5,-179.5"/>
<polyline fill="none" stroke="gray" points="1392.5,-179.5 1392.5,-173.5 "/>
<polyline fill="none" stroke="gray" points="1398.5,-173.5 1392.5,-173.5 "/>
<text text-anchor="start" x="1272" y="-165.5" font-family="Times,serif" font-size="10.00">type:</text>
<text text-anchor="start" x="1305" y="-165.5" font-family="Times,serif" font-size="10.00">original tweet</text>
<text text-anchor="start" x="1272" y="-152.5" font-family="Times,serif" font-size="10.00">value:</text>
<text text-anchor="start" x="1305" y="-152.5" font-family="Times,serif" font-size="10.00">var:original_text</text>
</g>
<!-- &#45;attrs3&#45;&gt;http://openprovenance.org/var#original_tweet_id -->
<g id="edge4" class="edge">
<title>&#45;attrs3&#45;&gt;http://openprovenance.org/var#original_tweet_id</title>
<path fill="none" stroke="gray" stroke-dasharray="5,2" d="M1334.81,-179.6C1342.08,-205.42 1355.79,-254.12 1363.11,-280.11"/>
</g>
<!-- &#45;attrs4 -->
<g id="node10" class="node">
<title>&#45;attrs4</title>
<polygon fill="none" stroke="gray" points="1578,-486 1334,-486 1334,-385 1584,-385 1584,-480 1578,-486"/>
<polyline fill="none" stroke="gray" points="1578,-486 1578,-480 "/>
<polyline fill="none" stroke="gray" points="1584,-480 1578,-480 "/>
<text text-anchor="start" x="1344" y="-471.5" font-family="Times,serif" font-size="10.00">type:</text>
<text text-anchor="start" x="1422" y="-471.5" font-family="Times,serif" font-size="10.00">tweet properties</text>
<text text-anchor="start" x="1344" y="-458.5" font-family="Times,serif" font-size="10.00">created_at:</text>
<text text-anchor="start" x="1422" y="-458.5" font-family="Times,serif" font-size="10.00">var:ORIGINAL_created_at</text>
<text text-anchor="start" x="1344" y="-445.5" font-family="Times,serif" font-size="10.00">location:</text>
<text text-anchor="start" x="1422" y="-445.5" font-family="Times,serif" font-size="10.00">var:ORIGINAL_location</text>
<text text-anchor="start" x="1344" y="-432.5" font-family="Times,serif" font-size="10.00">like_count:</text>
<text text-anchor="start" x="1422" y="-432.5" font-family="Times,serif" font-size="10.00">var:ORIGINAL_like_count</text>
<text text-anchor="start" x="1344" y="-419.5" font-family="Times,serif" font-size="10.00">quote_count:</text>
<text text-anchor="start" x="1422" y="-419.5" font-family="Times,serif" font-size="10.00">var:ORIGINAL_quote_count</text>
<text text-anchor="start" x="1344" y="-406.5" font-family="Times,serif" font-size="10.00">reply_count:</text>
<text text-anchor="start" x="1422" y="-406.5" font-family="Times,serif" font-size="10.00">var:ORIGINAL_reply_count</text>
<text text-anchor="start" x="1344" y="-393.5" font-family="Times,serif" font-size="10.00">retweet_count:</text>
<text text-anchor="start" x="1422" y="-393.5" font-family="Times,serif" font-size="10.00">var:ORIGINAL_retweet_count</text>
</g>
<!-- &#45;attrs4&#45;&gt;http://openprovenance.org/var#original_tweet_props_id -->
<g id="edge5" class="edge">
<title>&#45;attrs4&#45;&gt;http://openprovenance.org/var#original_tweet_props_id</title>
<path fill="none" stroke="gray" stroke-dasharray="5,2" d="M1399.3,-486.25C1383.75,-499.2 1368.05,-512.29 1356.18,-522.18"/>
</g>
<!-- http://openprovenance.org/var#edited_tweet_id -->
<g id="node11" class="node">
<title>http://openprovenance.org/var#edited_tweet_id</title>
<g id="a_node11"><a xlink:href="http://openprovenance.org/var#edited_tweet_id" xlink:title="edited_tweet_id">
<ellipse fill="#fffc87" stroke="#808080" cx="1500" cy="-161.5" rx="83.69" ry="18"/>
<text text-anchor="middle" x="1500" y="-157.8" font-family="Times,serif" font-size="14.00">edited_tweet_id</text>
</a>
</g>
</g>
<!-- http://openprovenance.org/var#edited_tweet_id&#45;&gt;http://openprovenance.org/var#edit_id -->
<g id="edge17" class="edge">
<title>http://openprovenance.org/var#edited_tweet_id&#45;&gt;http://openprovenance.org/var#edit_id</title>
<path fill="none" stroke="black" d="M1520.58,-178.97C1538.29,-194.59 1562.6,-219.8 1573,-248 1588.53,-290.12 1602.37,-315.06 1573,-349 1500.12,-433.22 1422.44,-331.05 1325,-385 1314.69,-390.71 1305.79,-400.01 1298.88,-409.02"/>
<polygon fill="black" stroke="black" points="1295.83,-407.27 1292.87,-417.45 1301.53,-411.34 1295.83,-407.27"/>
<text text-anchor="middle" x="1534.85" y="-172.47" font-family="Times,serif" font-size="8.00">gen</text>
</g>
<!-- http://openprovenance.org/var#edited_tweet_id&#45;&gt;http://openprovenance.org/var#original_tweet_id -->
<g id="edge16" class="edge">
<title>http://openprovenance.org/var#edited_tweet_id&#45;&gt;http://openprovenance.org/var#original_tweet_id</title>
<path fill="none" stroke="black" d="M1483.55,-179.32C1460.43,-202.97 1418.19,-246.17 1391.69,-273.27"/>
<polygon fill="black" stroke="black" points="1389.15,-270.87 1384.66,-280.46 1394.15,-275.76 1389.15,-270.87"/>
<text text-anchor="middle" x="1487.59" y="-191.87" font-family="Times,serif" font-size="8.00">der</text>
</g>
<!-- &#45;attrs5 -->
<g id="node12" class="node">
<title>&#45;attrs5</title>
<polygon fill="none" stroke="gray" points="1559,-75 1435,-75 1435,-39 1565,-39 1565,-69 1559,-75"/>
<polyline fill="none" stroke="gray" points="1559,-75 1559,-69 "/>
<polyline fill="none" stroke="gray" points="1565,-69 1559,-69 "/>
<text text-anchor="start" x="1445" y="-61" font-family="Times,serif" font-size="10.00">type:</text>
<text text-anchor="start" x="1478" y="-61" font-family="Times,serif" font-size="10.00">edited tweet</text>
<text text-anchor="start" x="1445" y="-48" font-family="Times,serif" font-size="10.00">value:</text>
<text text-anchor="start" x="1478" y="-48" font-family="Times,serif" font-size="10.00">var:edited_text</text>
</g>
<!-- &#45;attrs5&#45;&gt;http://openprovenance.org/var#edited_tweet_id -->
<g id="edge6" class="edge">
<title>&#45;attrs5&#45;&gt;http://openprovenance.org/var#edited_tweet_id</title>
<path fill="none" stroke="gray" stroke-dasharray="5,2" d="M1500,-75.39C1500,-94.35 1500,-124.51 1500,-143.37"/>
</g>
<!-- http://openprovenance.org/var#original_author_props_id -->
<g id="node13" class="node">
<title>http://openprovenance.org/var#original_author_props_id</title>
<g id="a_node13"><a xlink:href="http://openprovenance.org/var#original_author_props_id" xlink:title="original_author_props_id">
<ellipse fill="#fffc87" stroke="#808080" cx="606" cy="-435.5" rx="125.38" ry="18"/>
<text text-anchor="middle" x="606" y="-431.8" font-family="Times,serif" font-size="14.00">original_author_props_id</text>
</a>
</g>
</g>
<!-- http://openprovenance.org/var#original_author_props_id&#45;&gt;http://openprovenance.org/var#original_author_id -->
<g id="edge20" class="edge">
<title>http://openprovenance.org/var#original_author_props_id&#45;&gt;http://openprovenance.org/var#original_author_id</title>
<path fill="none" stroke="black" d="M644.06,-452.74C670.76,-463.56 707.53,-477.34 741,-486 809.97,-503.85 888.49,-516.59 952.58,-525.1"/>
<polygon fill="black" stroke="black" points="952.37,-528.6 962.74,-526.43 953.28,-521.66 952.37,-528.6"/>
<text text-anchor="middle" x="655.85" y="-441.57" font-family="Times,serif" font-size="8.00">att</text>
</g>
<!-- &#45;attrs6 -->
<g id="node14" class="node">
<title>&#45;attrs6</title>
<polygon fill="none" stroke="gray" points="776,-349 516,-349 516,-248 782,-248 782,-343 776,-349"/>
<polyline fill="none" stroke="gray" points="776,-349 776,-343 "/>
<polyline fill="none" stroke="gray" points="782,-343 776,-343 "/>
<text text-anchor="start" x="526" y="-334.5" font-family="Times,serif" font-size="10.00">type:</text>
<text text-anchor="start" x="612" y="-334.5" font-family="Times,serif" font-size="10.00">user properties</text>
<text text-anchor="start" x="526" y="-321.5" font-family="Times,serif" font-size="10.00">credible:</text>
<text text-anchor="start" x="612" y="-321.5" font-family="Times,serif" font-size="10.00">var:ORIGINAL_credible</text>
<text text-anchor="start" x="526" y="-308.5" font-family="Times,serif" font-size="10.00">name:</text>
<text text-anchor="start" x="612" y="-308.5" font-family="Times,serif" font-size="10.00">var:ORIGINAL_name</text>
<text text-anchor="start" x="526" y="-295.5" font-family="Times,serif" font-size="10.00">username:</text>
<text text-anchor="start" x="612" y="-295.5" font-family="Times,serif" font-size="10.00">var:ORIGINAL_username</text>
<text text-anchor="start" x="526" y="-282.5" font-family="Times,serif" font-size="10.00">verified:</text>
<text text-anchor="start" x="612" y="-282.5" font-family="Times,serif" font-size="10.00">var:ORIGINAL_verified</text>
<text text-anchor="start" x="526" y="-269.5" font-family="Times,serif" font-size="10.00">followers_count:</text>
<text text-anchor="start" x="612" y="-269.5" font-family="Times,serif" font-size="10.00">var:ORIGINAL_followers_count</text>
<text text-anchor="start" x="526" y="-256.5" font-family="Times,serif" font-size="10.00">following_count:</text>
<text text-anchor="start" x="612" y="-256.5" font-family="Times,serif" font-size="10.00">var:ORIGINAL_following_count</text>
</g>
<!-- &#45;attrs6&#45;&gt;http://openprovenance.org/var#original_author_props_id -->
<g id="edge7" class="edge">
<title>&#45;attrs6&#45;&gt;http://openprovenance.org/var#original_author_props_id</title>
<path fill="none" stroke="gray" stroke-dasharray="5,2" d="M633.23,-349C625.61,-372.93 616.95,-400.12 611.48,-417.28"/>
</g>
<!-- http://openprovenance.org/var#reaction_author_props_id -->
<g id="node15" class="node">
<title>http://openprovenance.org/var#reaction_author_props_id</title>
<g id="a_node15"><a xlink:href="http://openprovenance.org/var#reaction_author_props_id" xlink:title="reaction_author_props_id">
<ellipse fill="#fffc87" stroke="#808080" cx="144" cy="-298.5" rx="128.08" ry="18"/>
<text text-anchor="middle" x="144" y="-294.8" font-family="Times,serif" font-size="14.00">reaction_author_props_id</text>
</a>
</g>
</g>
<!-- http://openprovenance.org/var#reaction_author_props_id&#45;&gt;http://openprovenance.org/var#reaction_author_id -->
<g id="edge23" class="edge">
<title>http://openprovenance.org/var#reaction_author_props_id&#45;&gt;http://openprovenance.org/var#reaction_author_id</title>
<path fill="none" stroke="black" d="M168.8,-316.32C205.9,-341.49 275.65,-388.81 314.69,-415.3"/>
<polygon fill="black" stroke="black" points="312.76,-418.21 323,-420.93 316.69,-412.42 312.76,-418.21"/>
<text text-anchor="middle" x="182.3" y="-307.89" font-family="Times,serif" font-size="8.00">att</text>
</g>
<!-- &#45;attrs7 -->
<g id="node16" class="node">
<title>&#45;attrs7</title>
<polygon fill="none" stroke="gray" points="279.5,-212 16.5,-212 16.5,-111 285.5,-111 285.5,-206 279.5,-212"/>
<polyline fill="none" stroke="gray" points="279.5,-212 279.5,-206 "/>
<polyline fill="none" stroke="gray" points="285.5,-206 279.5,-206 "/>
<text text-anchor="start" x="27" y="-197.5" font-family="Times,serif" font-size="10.00">type:</text>
<text text-anchor="start" x="113" y="-197.5" font-family="Times,serif" font-size="10.00">user properties</text>
<text text-anchor="start" x="27" y="-184.5" font-family="Times,serif" font-size="10.00">credible:</text>
<text text-anchor="start" x="113" y="-184.5" font-family="Times,serif" font-size="10.00">var:REACTION_credible</text>
<text text-anchor="start" x="27" y="-171.5" font-family="Times,serif" font-size="10.00">name:</text>
<text text-anchor="start" x="113" y="-171.5" font-family="Times,serif" font-size="10.00">var:REACTION_name</text>
<text text-anchor="start" x="27" y="-158.5" font-family="Times,serif" font-size="10.00">username:</text>
<text text-anchor="start" x="113" y="-158.5" font-family="Times,serif" font-size="10.00">var:REACTION_username</text>
<text text-anchor="start" x="27" y="-145.5" font-family="Times,serif" font-size="10.00">verified:</text>
<text text-anchor="start" x="113" y="-145.5" font-family="Times,serif" font-size="10.00">var:REACTION_verified</text>
<text text-anchor="start" x="27" y="-132.5" font-family="Times,serif" font-size="10.00">followers_count:</text>
<text text-anchor="start" x="113" y="-132.5" font-family="Times,serif" font-size="10.00">var:REACTION_followers_count</text>
<text text-anchor="start" x="27" y="-119.5" font-family="Times,serif" font-size="10.00">following_count:</text>
<text text-anchor="start" x="113" y="-119.5" font-family="Times,serif" font-size="10.00">var:REACTION_following_count</text>
</g>
<!-- &#45;attrs7&#45;&gt;http://openprovenance.org/var#reaction_author_props_id -->
<g id="edge8" class="edge">
<title>&#45;attrs7&#45;&gt;http://openprovenance.org/var#reaction_author_props_id</title>
<path fill="none" stroke="gray" stroke-dasharray="5,2" d="M148.43,-212C147.19,-235.93 145.78,-263.12 144.89,-280.28"/>
</g>
<!-- http://openprovenance.org/var#reaction_tweet_id -->
<g id="node17" class="node">
<title>http://openprovenance.org/var#reaction_tweet_id</title>
<g id="a_node17"><a xlink:href="http://openprovenance.org/var#reaction_tweet_id" xlink:title="reaction_tweet_id">
<ellipse fill="#fffc87" stroke="#808080" cx="1125" cy="-161.5" rx="92.88" ry="18"/>
<text text-anchor="middle" x="1125" y="-157.8" font-family="Times,serif" font-size="14.00">reaction_tweet_id</text>
</a>
</g>
</g>
<!-- http://openprovenance.org/var#reaction_tweet_id&#45;&gt;http://openprovenance.org/var#react_id -->
<g id="edge24" class="edge">
<title>http://openprovenance.org/var#reaction_tweet_id&#45;&gt;http://openprovenance.org/var#react_id</title>
<path fill="none" stroke="black" d="M1123.99,-179.6C1122.64,-202.4 1120.23,-243.02 1118.62,-270.11"/>
<polygon fill="black" stroke="black" points="1115.13,-269.93 1118.03,-280.11 1122.12,-270.34 1115.13,-269.93"/>
<text text-anchor="middle" x="1136.51" y="-185.95" font-family="Times,serif" font-size="8.00">gen</text>
</g>
<!-- http://openprovenance.org/var#reaction_tweet_id&#45;&gt;http://openprovenance.org/var#reaction_tweet_id -->
<g id="edge26" class="edge">
<title>http://openprovenance.org/var#reaction_tweet_id&#45;&gt;http://openprovenance.org/var#reaction_tweet_id</title>
<path fill="none" stroke="black" d="M1164.81,-145.22C1199.38,-137.79 1235.94,-143.22 1235.94,-161.5 1235.94,-178 1206.17,-184.03 1174.96,-179.59"/>
<polygon fill="black" stroke="black" points="1175.27,-176.09 1164.81,-177.78 1174.04,-182.98 1175.27,-176.09"/>
<text text-anchor="middle" x="1169.93" y="-129.22" font-family="Times,serif" font-size="8.00">der</text>
</g>
<!-- &#45;attrs8 -->
<g id="node18" class="node">
<title>&#45;attrs8</title>
<polygon fill="none" stroke="gray" points="1207.5,-75 1036.5,-75 1036.5,-39 1213.5,-39 1213.5,-69 1207.5,-75"/>
<polyline fill="none" stroke="gray" points="1207.5,-75 1207.5,-69 "/>
<polyline fill="none" stroke="gray" points="1213.5,-69 1207.5,-69 "/>
<text text-anchor="start" x="1047" y="-61" font-family="Times,serif" font-size="10.00">type:</text>
<text text-anchor="start" x="1080" y="-61" font-family="Times,serif" font-size="10.00">var:reply_retweet_quote</text>
<text text-anchor="start" x="1047" y="-48" font-family="Times,serif" font-size="10.00">value:</text>
<text text-anchor="start" x="1080" y="-48" font-family="Times,serif" font-size="10.00">var:reaction_text</text>
</g>
<!-- &#45;attrs8&#45;&gt;http://openprovenance.org/var#reaction_tweet_id -->
<g id="edge9" class="edge">
<title>&#45;attrs8&#45;&gt;http://openprovenance.org/var#reaction_tweet_id</title>
<path fill="none" stroke="gray" stroke-dasharray="5,2" d="M1125,-75.39C1125,-94.35 1125,-124.51 1125,-143.37"/>
</g>
<!-- &#45;attrs9 -->
<g id="node20" class="node">
<title>&#45;attrs9</title>
<polygon fill="none" stroke="gray" points="1056,-342.5 800,-342.5 800,-254.5 1062,-254.5 1062,-336.5 1056,-342.5"/>
<polyline fill="none" stroke="gray" points="1056,-342.5 1056,-336.5 "/>
<polyline fill="none" stroke="gray" points="1062,-336.5 1056,-336.5 "/>
<text text-anchor="start" x="810" y="-328.5" font-family="Times,serif" font-size="10.00">type:</text>
<text text-anchor="start" x="892" y="-328.5" font-family="Times,serif" font-size="10.00">tweet properties</text>
<text text-anchor="start" x="810" y="-315.5" font-family="Times,serif" font-size="10.00">linked:</text>
<text text-anchor="start" x="892" y="-315.5" font-family="Times,serif" font-size="10.00">var:react_id</text>
<text text-anchor="start" x="810" y="-302.5" font-family="Times,serif" font-size="10.00">created_at:</text>
<text text-anchor="start" x="892" y="-302.5" font-family="Times,serif" font-size="10.00">var:REACTION_created_at</text>
<text text-anchor="start" x="810" y="-289.5" font-family="Times,serif" font-size="10.00">location:</text>
<text text-anchor="start" x="892" y="-289.5" font-family="Times,serif" font-size="10.00">var:REACTION_location</text>
<text text-anchor="start" x="810" y="-276.5" font-family="Times,serif" font-size="10.00">reference_type:</text>
<text text-anchor="start" x="892" y="-276.5" font-family="Times,serif" font-size="10.00">var:REACTION_reference_type</text>
<text text-anchor="start" x="810" y="-263.5" font-family="Times,serif" font-size="10.00">reference_id:</text>
<text text-anchor="start" x="892" y="-263.5" font-family="Times,serif" font-size="10.00">var:REACTION_reference_id</text>
</g>
<!-- &#45;attrs9&#45;&gt;http://openprovenance.org/var#reaction_tweet_props_id -->
<g id="edge10" class="edge">
<title>&#45;attrs9&#45;&gt;http://openprovenance.org/var#reaction_tweet_props_id</title>
<path fill="none" stroke="gray" stroke-dasharray="5,2" d="M912.49,-342.59C901.61,-367.9 888.47,-398.5 880.42,-417.23"/>
</g>
<!-- &#45;attrs10 -->
<g id="node22" class="node">
<title>&#45;attrs10</title>
<polygon fill="none" stroke="gray" points="1140,-453.5 1014,-453.5 1014,-417.5 1146,-417.5 1146,-447.5 1140,-453.5"/>
<polyline fill="none" stroke="gray" points="1140,-453.5 1140,-447.5 "/>
<polyline fill="none" stroke="gray" points="1146,-447.5 1140,-447.5 "/>
<text text-anchor="start" x="1024" y="-439.5" font-family="Times,serif" font-size="10.00">type:</text>
<text text-anchor="start" x="1058" y="-439.5" font-family="Times,serif" font-size="10.00">prov:Person</text>
<text text-anchor="start" x="1024" y="-426.5" font-family="Times,serif" font-size="10.00">name:</text>
<text text-anchor="start" x="1058" y="-426.5" font-family="Times,serif" font-size="10.00">var:ag_o_name</text>
</g>
<!-- &#45;attrs10&#45;&gt;http://openprovenance.org/var#original_author_id -->
<g id="edge11" class="edge">
<title>&#45;attrs10&#45;&gt;http://openprovenance.org/var#original_author_id</title>
<path fill="none" stroke="gray" stroke-dasharray="5,2" d="M1080,-453.89C1080,-473.99 1080,-506.68 1080,-525.15"/>
</g>
<!-- &#45;attrs11 -->
<g id="node24" class="node">
<title>&#45;attrs11</title>
<polygon fill="none" stroke="gray" points="491.5,-329.5 290.5,-329.5 290.5,-267.5 497.5,-267.5 497.5,-323.5 491.5,-329.5"/>
<polyline fill="none" stroke="gray" points="491.5,-329.5 491.5,-323.5 "/>
<polyline fill="none" stroke="gray" points="497.5,-323.5 491.5,-323.5 "/>
<text text-anchor="start" x="301" y="-315.5" font-family="Times,serif" font-size="10.00">type:</text>
<text text-anchor="start" x="338" y="-315.5" font-family="Times,serif" font-size="10.00">prov:Person</text>
<text text-anchor="start" x="301" y="-302.5" font-family="Times,serif" font-size="10.00">name:</text>
<text text-anchor="start" x="338" y="-302.5" font-family="Times,serif" font-size="10.00">var:ag_r_name</text>
<text text-anchor="start" x="301" y="-289.5" font-family="Times,serif" font-size="10.00">linked:</text>
<text text-anchor="start" x="338" y="-289.5" font-family="Times,serif" font-size="10.00">var:react_id</text>
<text text-anchor="start" x="301" y="-276.5" font-family="Times,serif" font-size="10.00">linked:</text>
<text text-anchor="start" x="338" y="-276.5" font-family="Times,serif" font-size="10.00">var:reaction_author_props_id</text>
</g>
<!-- &#45;attrs11&#45;&gt;http://openprovenance.org/var#reaction_author_id -->
<g id="edge12" class="edge">
<title>&#45;attrs11&#45;&gt;http://openprovenance.org/var#reaction_author_id</title>
<path fill="none" stroke="gray" stroke-dasharray="5,2" d="M382.55,-329.8C371.81,-358.25 356.21,-399.53 348.19,-420.75"/>
</g>
</g>
</svg>
