<?xml version="1.0" encoding="UTF-8" standalone="no"?>
<!DOCTYPE svg PUBLIC "-//W3C//DTD SVG 1.1//EN"
 "http://www.w3.org/Graphics/SVG/1.1/DTD/svg11.dtd">
<!-- Generated by graphviz version 2.43.0 (0)
 -->
<!-- Title: PROV Pages: 1 -->
<svg width="521pt" height="380pt"
 viewBox="0.00 0.00 521.00 380.00" xmlns="http://www.w3.org/2000/svg" xmlns:xlink="http://www.w3.org/1999/xlink">
<g id="graph0" class="graph" transform="scale(1 1) rotate(0) translate(4 376)">
<title>PROV</title>
<polygon fill="white" stroke="transparent" points="-4,4 -4,-376 517,-376 517,4 -4,4"/>
<g id="clust1" class="cluster">
<title>clusterhttp://openprovenance.org/vargen#bundle_id</title>
<g id="a_clust1"><a xlink:href="http://openprovenance.org/vargen#bundle_id" xlink:title="bundle_id">
<polygon fill="none" stroke="black" points="8,-8 8,-364 505,-364 505,-8 8,-8"/>
<text text-anchor="middle" x="256.5" y="-15.8" font-family="Times,serif" font-size="14.00">bundle_id</text>
</a>
</g>
</g>
<!-- http://openprovenance.org/var#post_id -->
<g id="node1" class="node">
<title>http://openprovenance.org/var#post_id</title>
<g id="a_node1"><a xlink:href="http://openprovenance.org/var#post_id" xlink:title="post_id">
<polygon fill="#9fb1fc" stroke="#0000ff" points="254,-251.5 186,-251.5 186,-215.5 254,-215.5 254,-251.5"/>
<text text-anchor="middle" x="220" y="-229.8" font-family="Times,serif" font-size="14.00">post_id</text>
</a>
</g>
</g>
<!-- http://openprovenance.org/var#original_post_props_id -->
<g id="node5" class="node">
<title>http://openprovenance.org/var#original_post_props_id</title>
<g id="a_node5"><a xlink:href="http://openprovenance.org/var#original_post_props_id" xlink:title="original_post_props_id">
<ellipse fill="#fffc87" stroke="#808080" cx="383" cy="-338" rx="114.28" ry="18"/>
<text text-anchor="middle" x="383" y="-334.3" font-family="Times,serif" font-size="14.00">original_post_props_id</text>
</a>
</g>
</g>
<!-- http://openprovenance.org/var#post_id&#45;&gt;http://openprovenance.org/var#original_post_props_id -->
<g id="edge7" class="edge">
<title>http://openprovenance.org/var#post_id&#45;&gt;http://openprovenance.org/var#original_post_props_id</title>
<path fill="none" stroke="black" d="M231.98,-251.81C239.85,-262.2 250.91,-275.08 263,-284 281.91,-297.95 305.08,-309.27 325.99,-317.81"/>
<polygon fill="black" stroke="black" points="324.83,-321.11 335.42,-321.54 327.41,-314.6 324.83,-321.11"/>
<text text-anchor="middle" x="246.85" y="-247.92" font-family="Times,serif" font-size="8.00">use</text>
</g>
<!-- http://openprovenance.org/var#original_author_id -->
<g id="node7" class="node">
<title>http://openprovenance.org/var#original_author_id</title>
<g id="a_node7"><a xlink:href="http://openprovenance.org/var#original_author_id" xlink:title="original_author_id">
<polygon fill="#fdb266" stroke="black" points="250.09,-343.56 133,-356 15.91,-343.56 16.02,-323.44 249.98,-323.44 250.09,-343.56"/>
<text text-anchor="middle" x="133" y="-334.3" font-family="Times,serif" font-size="14.00">original_author_id</text>
</a>
</g>
</g>
<!-- http://openprovenance.org/var#post_id&#45;&gt;http://openprovenance.org/var#original_author_id -->
<g id="edge6" class="edge">
<title>http://openprovenance.org/var#post_id&#45;&gt;http://openprovenance.org/var#original_author_id</title>
<path fill="none" stroke="black" d="M205.24,-251.89C190.38,-269.4 167.41,-296.46 151.37,-315.36"/>
<polygon fill="black" stroke="black" points="148.56,-313.26 144.76,-323.15 153.9,-317.79 148.56,-313.26"/>
<text text-anchor="middle" x="210.29" y="-264.11" font-family="Times,serif" font-size="8.00">assoc</text>
</g>
<!-- &#45;attrs0 -->
<g id="node2" class="node">
<title>&#45;attrs0</title>
<polygon fill="none" stroke="gray" points="351.5,-147 270.5,-147 270.5,-111 357.5,-111 357.5,-141 351.5,-147"/>
<polyline fill="none" stroke="gray" points="351.5,-147 351.5,-141 "/>
<polyline fill="none" stroke="gray" points="357.5,-141 351.5,-141 "/>
<text text-anchor="start" x="281" y="-126" font-family="Times,serif" font-size="10.00">type:</text>
<text text-anchor="start" x="309" y="-126" font-family="Times,serif" font-size="10.00">publish</text>
</g>
<!-- &#45;attrs0&#45;&gt;http://openprovenance.org/var#post_id -->
<g id="edge1" class="edge">
<title>&#45;attrs0&#45;&gt;http://openprovenance.org/var#post_id</title>
<path fill="none" stroke="gray" stroke-dasharray="5,2" d="M296.77,-147.45C286.78,-157.69 274.03,-170.94 263,-183 253.32,-193.59 242.75,-205.74 234.52,-215.36"/>
</g>
<!-- http://openprovenance.org/var#original_tweet_id -->
<g id="node3" class="node">
<title>http://openprovenance.org/var#original_tweet_id</title>
<g id="a_node3"><a xlink:href="http://openprovenance.org/var#original_tweet_id" xlink:title="original_tweet_id">
<ellipse fill="#fffc87" stroke="#808080" cx="162" cy="-129" rx="90.18" ry="18"/>
<text text-anchor="middle" x="162" y="-125.3" font-family="Times,serif" font-size="14.00">original_tweet_id</text>
</a>
</g>
</g>
<!-- http://openprovenance.org/var#original_tweet_id&#45;&gt;http://openprovenance.org/var#post_id -->
<g id="edge5" class="edge">
<title>http://openprovenance.org/var#original_tweet_id&#45;&gt;http://openprovenance.org/var#post_id</title>
<path fill="none" stroke="black" d="M171.58,-146.93C180.72,-163.08 194.62,-187.64 205.18,-206.31"/>
<polygon fill="black" stroke="black" points="202.24,-208.23 210.21,-215.21 208.34,-204.78 202.24,-208.23"/>
<text text-anchor="middle" x="186.58" y="-145.16" font-family="Times,serif" font-size="8.00">gen</text>
</g>
<!-- &#45;attrs1 -->
<g id="node4" class="node">
<title>&#45;attrs1</title>
<polygon fill="none" stroke="gray" points="217.5,-75 100.5,-75 100.5,-39 223.5,-39 223.5,-69 217.5,-75"/>
<polyline fill="none" stroke="gray" points="217.5,-75 217.5,-69 "/>
<polyline fill="none" stroke="gray" points="223.5,-69 217.5,-69 "/>
<text text-anchor="start" x="111" y="-61" font-family="Times,serif" font-size="10.00">type:</text>
<text text-anchor="start" x="144" y="-61" font-family="Times,serif" font-size="10.00">original tweet</text>
<text text-anchor="start" x="111" y="-48" font-family="Times,serif" font-size="10.00">value:</text>
<text text-anchor="start" x="144" y="-48" font-family="Times,serif" font-size="10.00">var:text</text>
</g>
<!-- &#45;attrs1&#45;&gt;http://openprovenance.org/var#original_tweet_id -->
<g id="edge2" class="edge">
<title>&#45;attrs1&#45;&gt;http://openprovenance.org/var#original_tweet_id</title>
<path fill="none" stroke="gray" stroke-dasharray="5,2" d="M162,-75.3C162,-86.15 162,-100.08 162,-110.9"/>
</g>
<!-- &#45;attrs2 -->
<g id="node6" class="node">
<title>&#45;attrs2</title>
<polygon fill="none" stroke="gray" points="490,-284 272,-284 272,-183 496,-183 496,-278 490,-284"/>
<polyline fill="none" stroke="gray" points="490,-284 490,-278 "/>
<polyline fill="none" stroke="gray" points="496,-278 490,-278 "/>
<text text-anchor="start" x="282" y="-269.5" font-family="Times,serif" font-size="10.00">type:</text>
<text text-anchor="start" x="360" y="-269.5" font-family="Times,serif" font-size="10.00">original tweet properties</text>
<text text-anchor="start" x="282" y="-256.5" font-family="Times,serif" font-size="10.00">created_at:</text>
<text text-anchor="start" x="360" y="-256.5" font-family="Times,serif" font-size="10.00">var:created_at</text>
<text text-anchor="start" x="282" y="-243.5" font-family="Times,serif" font-size="10.00">location:</text>
<text text-anchor="start" x="360" y="-243.5" font-family="Times,serif" font-size="10.00">var:location</text>
<text text-anchor="start" x="282" y="-230.5" font-family="Times,serif" font-size="10.00">like_count:</text>
<text text-anchor="start" x="360" y="-230.5" font-family="Times,serif" font-size="10.00">var:like_count</text>
<text text-anchor="start" x="282" y="-217.5" font-family="Times,serif" font-size="10.00">quote_count:</text>
<text text-anchor="start" x="360" y="-217.5" font-family="Times,serif" font-size="10.00">var:quote_count</text>
<text text-anchor="start" x="282" y="-204.5" font-family="Times,serif" font-size="10.00">reply_count:</text>
<text text-anchor="start" x="360" y="-204.5" font-family="Times,serif" font-size="10.00">var:reply_count</text>
<text text-anchor="start" x="282" y="-191.5" font-family="Times,serif" font-size="10.00">retweet_count:</text>
<text text-anchor="start" x="360" y="-191.5" font-family="Times,serif" font-size="10.00">var:retweet_count</text>
</g>
<!-- &#45;attrs2&#45;&gt;http://openprovenance.org/var#original_post_props_id -->
<g id="edge3" class="edge">
<title>&#45;attrs2&#45;&gt;http://openprovenance.org/var#original_post_props_id</title>
<path fill="none" stroke="gray" stroke-dasharray="5,2" d="M383.51,-284.25C383.39,-297.1 383.26,-310.08 383.17,-319.95"/>
</g>
<!-- &#45;attrs3 -->
<g id="node8" class="node">
<title>&#45;attrs3</title>
<polygon fill="none" stroke="gray" points="161.5,-251.5 52.5,-251.5 52.5,-215.5 167.5,-215.5 167.5,-245.5 161.5,-251.5"/>
<polyline fill="none" stroke="gray" points="161.5,-251.5 161.5,-245.5 "/>
<polyline fill="none" stroke="gray" points="167.5,-245.5 161.5,-245.5 "/>
<text text-anchor="start" x="63" y="-237.5" font-family="Times,serif" font-size="10.00">type:</text>
<text text-anchor="start" x="97" y="-237.5" font-family="Times,serif" font-size="10.00">prov:Person</text>
<text text-anchor="start" x="63" y="-224.5" font-family="Times,serif" font-size="10.00">name:</text>
<text text-anchor="start" x="97" y="-224.5" font-family="Times,serif" font-size="10.00">var:name</text>
</g>
<!-- &#45;attrs3&#45;&gt;http://openprovenance.org/var#original_author_id -->
<g id="edge4" class="edge">
<title>&#45;attrs3&#45;&gt;http://openprovenance.org/var#original_author_id</title>
<path fill="none" stroke="gray" stroke-dasharray="5,2" d="M113.9,-251.89C118.41,-271.99 125.75,-304.68 129.89,-323.15"/>
</g>
</g>
</svg>
