<?xml version="1.0" encoding="UTF-8" standalone="no"?>
<!DOCTYPE svg PUBLIC "-//W3C//DTD SVG 1.1//EN"
 "http://www.w3.org/Graphics/SVG/1.1/DTD/svg11.dtd">
<!-- Generated by graphviz version 2.43.0 (0)
 -->
<!-- Title: PROV Pages: 1 -->
<svg width="695pt" height="406pt"
 viewBox="0.00 0.00 695.00 406.00" xmlns="http://www.w3.org/2000/svg" xmlns:xlink="http://www.w3.org/1999/xlink">
<g id="graph0" class="graph" transform="scale(1 1) rotate(0) translate(4 402)">
<title>PROV</title>
<polygon fill="white" stroke="transparent" points="-4,4 -4,-402 691,-402 691,4 -4,4"/>
<g id="clust1" class="cluster">
<title>clusterhttp://openprovenance.org/vargen#bundle_id</title>
<g id="a_clust1"><a xlink:href="http://openprovenance.org/vargen#bundle_id" xlink:title="bundle_id">
<polygon fill="none" stroke="black" points="8,-8 8,-390 679,-390 679,-8 8,-8"/>
<text text-anchor="middle" x="343.5" y="-15.8" font-family="Times,serif" font-size="14.00">bundle_id</text>
</a>
</g>
</g>
<!-- http://openprovenance.org/var#post_or_react_id -->
<g id="node1" class="node">
<title>http://openprovenance.org/var#post_or_react_id</title>
<g id="a_node1"><a xlink:href="http://openprovenance.org/var#post_or_react_id" xlink:title="post_or_react_id">
<polygon fill="#9fb1fc" stroke="#0000ff" points="670.5,-297 537.5,-297 537.5,-261 670.5,-261 670.5,-297"/>
<text text-anchor="middle" x="604" y="-275.3" font-family="Times,serif" font-size="14.00">post_or_react_id</text>
</a>
</g>
</g>
<!-- http://openprovenance.org/var#group_of_authors_id -->
<g id="node5" class="node">
<title>http://openprovenance.org/var#group_of_authors_id</title>
<g id="a_node5"><a xlink:href="http://openprovenance.org/var#group_of_authors_id" xlink:title="group_of_authors_id">
<polygon fill="#fdb266" stroke="black" points="534.19,-369.56 405,-382 275.81,-369.56 275.93,-349.44 534.07,-349.44 534.19,-369.56"/>
<text text-anchor="middle" x="405" y="-360.3" font-family="Times,serif" font-size="14.00">group_of_authors_id</text>
</a>
</g>
</g>
<!-- http://openprovenance.org/var#post_or_react_id&#45;&gt;http://openprovenance.org/var#group_of_authors_id -->
<g id="edge5" class="edge">
<title>http://openprovenance.org/var#post_or_react_id&#45;&gt;http://openprovenance.org/var#group_of_authors_id</title>
<path fill="none" stroke="black" d="M562.77,-297.2C528.99,-311.29 481.38,-331.14 447.31,-345.35"/>
<polygon fill="black" stroke="black" points="445.52,-342.31 437.64,-349.39 448.22,-348.77 445.52,-342.31"/>
<text text-anchor="middle" x="560.85" y="-310.17" font-family="Times,serif" font-size="8.00">assoc</text>
</g>
<!-- &#45;attrs0 -->
<g id="node2" class="node">
<title>&#45;attrs0</title>
<polygon fill="none" stroke="gray" points="652.5,-212 571.5,-212 571.5,-176 658.5,-176 658.5,-206 652.5,-212"/>
<polyline fill="none" stroke="gray" points="652.5,-212 652.5,-206 "/>
<polyline fill="none" stroke="gray" points="658.5,-206 652.5,-206 "/>
<text text-anchor="start" x="582" y="-191" font-family="Times,serif" font-size="10.00">type:</text>
<text text-anchor="start" x="610" y="-191" font-family="Times,serif" font-size="10.00">publish</text>
</g>
<!-- &#45;attrs0&#45;&gt;http://openprovenance.org/var#post_or_react_id -->
<g id="edge1" class="edge">
<title>&#45;attrs0&#45;&gt;http://openprovenance.org/var#post_or_react_id</title>
<path fill="none" stroke="gray" stroke-dasharray="5,2" d="M612.72,-212.2C610.83,-226.44 608.16,-246.59 606.28,-260.82"/>
</g>
<!-- http://openprovenance.org/var#all_textual_tweets_at_timepoint_id -->
<g id="node3" class="node">
<title>http://openprovenance.org/var#all_textual_tweets_at_timepoint_id</title>
<g id="a_node3"><a xlink:href="http://openprovenance.org/var#all_textual_tweets_at_timepoint_id" xlink:title="all_textual_tweets_at_timepoint_id">
<ellipse fill="#fffc87" stroke="#808080" cx="383" cy="-194" rx="170.87" ry="18"/>
<text text-anchor="middle" x="383" y="-190.3" font-family="Times,serif" font-size="14.00">all_textual_tweets_at_timepoint_id</text>
</a>
</g>
</g>
<!-- http://openprovenance.org/var#all_textual_tweets_at_timepoint_id&#45;&gt;http://openprovenance.org/var#post_or_react_id -->
<g id="edge4" class="edge">
<title>http://openprovenance.org/var#all_textual_tweets_at_timepoint_id&#45;&gt;http://openprovenance.org/var#post_or_react_id</title>
<path fill="none" stroke="black" d="M429.5,-211.45C458.25,-221.72 495.87,-235.36 529,-248 536.64,-250.91 544.69,-254.06 552.56,-257.17"/>
<polygon fill="black" stroke="black" points="551.46,-260.5 562.05,-260.94 554.05,-253.99 551.46,-260.5"/>
<text text-anchor="middle" x="440.94" y="-199.85" font-family="Times,serif" font-size="8.00">gen</text>
</g>
<!-- &#45;attrs1 -->
<g id="node4" class="node">
<title>&#45;attrs1</title>
<polygon fill="none" stroke="gray" points="571,-140 189,-140 189,-39 577,-39 577,-134 571,-140"/>
<polyline fill="none" stroke="gray" points="571,-140 571,-134 "/>
<polyline fill="none" stroke="gray" points="577,-134 571,-134 "/>
<text text-anchor="start" x="199" y="-125.5" font-family="Times,serif" font-size="10.00">type:</text>
<text text-anchor="start" x="361" y="-125.5" font-family="Times,serif" font-size="10.00">ALL TEXTUAL TWEETS AT TIMEPOINT</text>
<text text-anchor="start" x="199" y="-112.5" font-family="Times,serif" font-size="10.00">date:</text>
<text text-anchor="start" x="361" y="-112.5" font-family="Times,serif" font-size="10.00">var:date</text>
<text text-anchor="start" x="199" y="-99.5" font-family="Times,serif" font-size="10.00">time_interval:</text>
<text text-anchor="start" x="361" y="-99.5" font-family="Times,serif" font-size="10.00">var:time_interval</text>
<text text-anchor="start" x="199" y="-86.5" font-family="Times,serif" font-size="10.00">percentage_out_of_day_tweets:</text>
<text text-anchor="start" x="361" y="-86.5" font-family="Times,serif" font-size="10.00">var:percentage_out_of_day_tweets</text>
<text text-anchor="start" x="199" y="-73.5" font-family="Times,serif" font-size="10.00">number_of_original_tweets:</text>
<text text-anchor="start" x="361" y="-73.5" font-family="Times,serif" font-size="10.00">var:nr_of_original_tweets</text>
<text text-anchor="start" x="199" y="-60.5" font-family="Times,serif" font-size="10.00">number_of_replies:</text>
<text text-anchor="start" x="361" y="-60.5" font-family="Times,serif" font-size="10.00">var:nr_of_replies</text>
<text text-anchor="start" x="199" y="-47.5" font-family="Times,serif" font-size="10.00">number_of_quotes:</text>
<text text-anchor="start" x="361" y="-47.5" font-family="Times,serif" font-size="10.00">var:nr_of_quotes</text>
</g>
<!-- &#45;attrs1&#45;&gt;http://openprovenance.org/var#all_textual_tweets_at_timepoint_id -->
<g id="edge2" class="edge">
<title>&#45;attrs1&#45;&gt;http://openprovenance.org/var#all_textual_tweets_at_timepoint_id</title>
<path fill="none" stroke="gray" stroke-dasharray="5,2" d="M383,-140.25C383,-153.1 383,-166.08 383,-175.95"/>
</g>
<!-- &#45;attrs2 -->
<g id="node6" class="node">
<title>&#45;attrs2</title>
<polygon fill="none" stroke="gray" points="513.5,-310 16.5,-310 16.5,-248 519.5,-248 519.5,-304 513.5,-310"/>
<polyline fill="none" stroke="gray" points="513.5,-310 513.5,-304 "/>
<polyline fill="none" stroke="gray" points="519.5,-304 513.5,-304 "/>
<text text-anchor="start" x="27" y="-296" font-family="Times,serif" font-size="10.00">type:</text>
<text text-anchor="start" x="287" y="-296" font-family="Times,serif" font-size="10.00">GROUP OF USERS</text>
<text text-anchor="start" x="27" y="-283" font-family="Times,serif" font-size="10.00">number_of_distinct_authors:</text>
<text text-anchor="start" x="287" y="-283" font-family="Times,serif" font-size="10.00">var:nr_of_distinct_authors</text>
<text text-anchor="start" x="27" y="-270" font-family="Times,serif" font-size="10.00">average_number_of_followers_top_10_influencers:</text>
<text text-anchor="start" x="287" y="-270" font-family="Times,serif" font-size="10.00">var:avg_nr_of_followers_top_10_influencers</text>
<text text-anchor="start" x="27" y="-257" font-family="Times,serif" font-size="10.00">average_number_of_followers_all_users:</text>
<text text-anchor="start" x="287" y="-257" font-family="Times,serif" font-size="10.00">var:avg_nr_of_followers_all_users</text>
</g>
<!-- &#45;attrs2&#45;&gt;http://openprovenance.org/var#group_of_authors_id -->
<g id="edge3" class="edge">
<title>&#45;attrs2&#45;&gt;http://openprovenance.org/var#group_of_authors_id</title>
<path fill="none" stroke="gray" stroke-dasharray="5,2" d="M317.85,-310.2C340.03,-323.64 365.05,-338.8 382.57,-349.41"/>
</g>
</g>
</svg>
