<?xml version="1.0" encoding="UTF-8" standalone="no"?>
<!DOCTYPE svg PUBLIC "-//W3C//DTD SVG 1.1//EN"
 "http://www.w3.org/Graphics/SVG/1.1/DTD/svg11.dtd">
<!-- Generated by graphviz version 2.43.0 (0)
 -->
<!-- Title: PROV Pages: 1 -->
<svg width="794pt" height="432pt"
 viewBox="0.00 0.00 794.00 432.00" xmlns="http://www.w3.org/2000/svg" xmlns:xlink="http://www.w3.org/1999/xlink">
<g id="graph0" class="graph" transform="scale(1 1) rotate(0) translate(4 428)">
<title>PROV</title>
<polygon fill="white" stroke="transparent" points="-4,4 -4,-428 790,-428 790,4 -4,4"/>
<g id="clust1" class="cluster">
<title>clusterhttp://openprovenance.org/vargen#bundle_id</title>
<g id="a_clust1"><a xlink:href="http://openprovenance.org/vargen#bundle_id" xlink:title="bundle_id">
<polygon fill="none" stroke="black" points="8,-8 8,-416 778,-416 778,-8 8,-8"/>
<text text-anchor="middle" x="393" y="-15.8" font-family="Times,serif" font-size="14.00">bundle_id</text>
</a>
</g>
</g>
<!-- http://openprovenance.org/var#post_id -->
<g id="node1" class="node">
<title>http://openprovenance.org/var#post_id</title>
<g id="a_node1"><a xlink:href="http://openprovenance.org/var#post_id" xlink:title="post_id">
<polygon fill="#9fb1fc" stroke="#0000ff" points="502,-303.5 434,-303.5 434,-267.5 502,-267.5 502,-303.5"/>
<text text-anchor="middle" x="468" y="-281.8" font-family="Times,serif" font-size="14.00">post_id</text>
</a>
</g>
</g>
<!-- http://openprovenance.org/var#original_tweet_props_id -->
<g id="node5" class="node">
<title>http://openprovenance.org/var#original_tweet_props_id</title>
<g id="a_node5"><a xlink:href="http://openprovenance.org/var#original_tweet_props_id" xlink:title="original_tweet_props_id">
<ellipse fill="#fffc87" stroke="#808080" cx="596" cy="-390" rx="120.78" ry="18"/>
<text text-anchor="middle" x="596" y="-386.3" font-family="Times,serif" font-size="14.00">original_tweet_props_id</text>
</a>
</g>
</g>
<!-- http://openprovenance.org/var#post_id&#45;&gt;http://openprovenance.org/var#original_tweet_props_id -->
<g id="edge8" class="edge">
<title>http://openprovenance.org/var#post_id&#45;&gt;http://openprovenance.org/var#original_tweet_props_id</title>
<path fill="none" stroke="black" d="M480.82,-303.69C488.83,-313.78 499.74,-326.39 511,-336 524.58,-347.59 540.95,-358.41 555.67,-367.22"/>
<polygon fill="black" stroke="black" points="554.19,-370.4 564.59,-372.42 557.72,-364.36 554.19,-370.4"/>
<text text-anchor="middle" x="495.64" y="-299.5" font-family="Times,serif" font-size="8.00">use</text>
</g>
<!-- http://openprovenance.org/var#original_author_id -->
<g id="node9" class="node">
<title>http://openprovenance.org/var#original_author_id</title>
<g id="a_node9"><a xlink:href="http://openprovenance.org/var#original_author_id" xlink:title="original_author_id">
<polygon fill="#fdb266" stroke="black" points="408.09,-395.56 291,-408 173.91,-395.56 174.02,-375.44 407.98,-375.44 408.09,-395.56"/>
<text text-anchor="middle" x="291" y="-386.3" font-family="Times,serif" font-size="14.00">original_author_id</text>
</a>
</g>
</g>
<!-- http://openprovenance.org/var#post_id&#45;&gt;http://openprovenance.org/var#original_author_id -->
<g id="edge7" class="edge">
<title>http://openprovenance.org/var#post_id&#45;&gt;http://openprovenance.org/var#original_author_id</title>
<path fill="none" stroke="black" d="M456.49,-303.51C448.65,-314.04 437.45,-327.19 425,-336 402.83,-351.7 375.36,-363.61 351.07,-372.13"/>
<polygon fill="black" stroke="black" points="349.94,-368.82 341.59,-375.35 352.18,-375.45 349.94,-368.82"/>
<text text-anchor="middle" x="462.31" y="-315.43" font-family="Times,serif" font-size="8.00">assoc</text>
</g>
<!-- &#45;attrs0 -->
<g id="node2" class="node">
<title>&#45;attrs0</title>
<polygon fill="none" stroke="gray" points="657.5,-173 576.5,-173 576.5,-137 663.5,-137 663.5,-167 657.5,-173"/>
<polyline fill="none" stroke="gray" points="657.5,-173 657.5,-167 "/>
<polyline fill="none" stroke="gray" points="663.5,-167 657.5,-167 "/>
<text text-anchor="start" x="587" y="-152" font-family="Times,serif" font-size="10.00">type:</text>
<text text-anchor="start" x="615" y="-152" font-family="Times,serif" font-size="10.00">publish</text>
</g>
<!-- &#45;attrs0&#45;&gt;http://openprovenance.org/var#post_id -->
<g id="edge1" class="edge">
<title>&#45;attrs0&#45;&gt;http://openprovenance.org/var#post_id</title>
<path fill="none" stroke="gray" stroke-dasharray="5,2" d="M600.03,-173.08C590.27,-181.19 578.23,-190.87 567,-199 543.03,-216.35 533.37,-215.64 511,-235 499.81,-244.68 488.9,-257.3 480.86,-267.37"/>
</g>
<!-- http://openprovenance.org/var#original_tweet_id -->
<g id="node3" class="node">
<title>http://openprovenance.org/var#original_tweet_id</title>
<g id="a_node3"><a xlink:href="http://openprovenance.org/var#original_tweet_id" xlink:title="original_tweet_id">
<ellipse fill="#fffc87" stroke="#808080" cx="468" cy="-155" rx="90.18" ry="18"/>
<text text-anchor="middle" x="468" y="-151.3" font-family="Times,serif" font-size="14.00">original_tweet_id</text>
</a>
</g>
</g>
<!-- http://openprovenance.org/var#original_tweet_id&#45;&gt;http://openprovenance.org/var#post_id -->
<g id="edge6" class="edge">
<title>http://openprovenance.org/var#original_tweet_id&#45;&gt;http://openprovenance.org/var#post_id</title>
<path fill="none" stroke="black" d="M468,-173.06C468,-194.57 468,-231.79 468,-257.25"/>
<polygon fill="black" stroke="black" points="464.5,-257.37 468,-267.37 471.5,-257.37 464.5,-257.37"/>
<text text-anchor="middle" x="480.99" y="-178.66" font-family="Times,serif" font-size="8.00">gen</text>
</g>
<!-- &#45;attrs1 -->
<g id="node4" class="node">
<title>&#45;attrs1</title>
<polygon fill="none" stroke="gray" points="537,-75 393,-75 393,-39 543,-39 543,-69 537,-75"/>
<polyline fill="none" stroke="gray" points="537,-75 537,-69 "/>
<polyline fill="none" stroke="gray" points="543,-69 537,-69 "/>
<text text-anchor="start" x="403" y="-61" font-family="Times,serif" font-size="10.00">type:</text>
<text text-anchor="start" x="436" y="-61" font-family="Times,serif" font-size="10.00">ORIGINAL TWEET</text>
<text text-anchor="start" x="403" y="-48" font-family="Times,serif" font-size="10.00">value:</text>
<text text-anchor="start" x="436" y="-48" font-family="Times,serif" font-size="10.00">var:original_text</text>
</g>
<!-- &#45;attrs1&#45;&gt;http://openprovenance.org/var#original_tweet_id -->
<g id="edge2" class="edge">
<title>&#45;attrs1&#45;&gt;http://openprovenance.org/var#original_tweet_id</title>
<path fill="none" stroke="gray" stroke-dasharray="5,2" d="M468,-75.16C468,-92.64 468,-119.57 468,-136.99"/>
</g>
<!-- &#45;attrs2 -->
<g id="node6" class="node">
<title>&#45;attrs2</title>
<polygon fill="none" stroke="gray" points="764,-336 520,-336 520,-235 770,-235 770,-330 764,-336"/>
<polyline fill="none" stroke="gray" points="764,-336 764,-330 "/>
<polyline fill="none" stroke="gray" points="770,-330 764,-330 "/>
<text text-anchor="start" x="530" y="-321.5" font-family="Times,serif" font-size="10.00">type:</text>
<text text-anchor="start" x="608" y="-321.5" font-family="Times,serif" font-size="10.00">var:ORIGINAL_properties</text>
<text text-anchor="start" x="530" y="-308.5" font-family="Times,serif" font-size="10.00">created_at:</text>
<text text-anchor="start" x="608" y="-308.5" font-family="Times,serif" font-size="10.00">var:ORIGINAL_created_at</text>
<text text-anchor="start" x="530" y="-295.5" font-family="Times,serif" font-size="10.00">location:</text>
<text text-anchor="start" x="608" y="-295.5" font-family="Times,serif" font-size="10.00">var:ORIGINAL_location</text>
<text text-anchor="start" x="530" y="-282.5" font-family="Times,serif" font-size="10.00">like_count:</text>
<text text-anchor="start" x="608" y="-282.5" font-family="Times,serif" font-size="10.00">var:ORIGINAL_like_count</text>
<text text-anchor="start" x="530" y="-269.5" font-family="Times,serif" font-size="10.00">quote_count:</text>
<text text-anchor="start" x="608" y="-269.5" font-family="Times,serif" font-size="10.00">var:ORIGINAL_quote_count</text>
<text text-anchor="start" x="530" y="-256.5" font-family="Times,serif" font-size="10.00">reply_count:</text>
<text text-anchor="start" x="608" y="-256.5" font-family="Times,serif" font-size="10.00">var:ORIGINAL_reply_count</text>
<text text-anchor="start" x="530" y="-243.5" font-family="Times,serif" font-size="10.00">retweet_count:</text>
<text text-anchor="start" x="608" y="-243.5" font-family="Times,serif" font-size="10.00">var:ORIGINAL_retweet_count</text>
</g>
<!-- &#45;attrs2&#45;&gt;http://openprovenance.org/var#original_tweet_props_id -->
<g id="edge3" class="edge">
<title>&#45;attrs2&#45;&gt;http://openprovenance.org/var#original_tweet_props_id</title>
<path fill="none" stroke="gray" stroke-dasharray="5,2" d="M621.22,-336.25C615.07,-349.1 608.87,-362.08 604.15,-371.95"/>
</g>
<!-- http://openprovenance.org/var#original_author_props_id -->
<g id="node7" class="node">
<title>http://openprovenance.org/var#original_author_props_id</title>
<g id="a_node7"><a xlink:href="http://openprovenance.org/var#original_author_props_id" xlink:title="original_author_props_id">
<ellipse fill="#fffc87" stroke="#808080" cx="291" cy="-285.5" rx="125.38" ry="18"/>
<text text-anchor="middle" x="291" y="-281.8" font-family="Times,serif" font-size="14.00">original_author_props_id</text>
</a>
</g>
</g>
<!-- http://openprovenance.org/var#original_author_props_id&#45;&gt;http://openprovenance.org/var#original_author_id -->
<g id="edge9" class="edge">
<title>http://openprovenance.org/var#original_author_props_id&#45;&gt;http://openprovenance.org/var#original_author_id</title>
<path fill="none" stroke="black" d="M291,-303.89C291,-320.69 291,-346.29 291,-365.03"/>
<polygon fill="black" stroke="black" points="287.5,-365.15 291,-375.15 294.5,-365.15 287.5,-365.15"/>
<text text-anchor="middle" x="303.99" y="-309.49" font-family="Times,serif" font-size="8.00">att</text>
</g>
<!-- &#45;attrs3 -->
<g id="node8" class="node">
<title>&#45;attrs3</title>
<polygon fill="none" stroke="gray" points="354,-199 94,-199 94,-111 360,-111 360,-193 354,-199"/>
<polyline fill="none" stroke="gray" points="354,-199 354,-193 "/>
<polyline fill="none" stroke="gray" points="360,-193 354,-193 "/>
<text text-anchor="start" x="104" y="-185" font-family="Times,serif" font-size="10.00">type:</text>
<text text-anchor="start" x="190" y="-185" font-family="Times,serif" font-size="10.00">USER properties</text>
<text text-anchor="start" x="104" y="-172" font-family="Times,serif" font-size="10.00">credible:</text>
<text text-anchor="start" x="190" y="-172" font-family="Times,serif" font-size="10.00">var:ORIGINAL_credible</text>
<text text-anchor="start" x="104" y="-159" font-family="Times,serif" font-size="10.00">username:</text>
<text text-anchor="start" x="190" y="-159" font-family="Times,serif" font-size="10.00">var:ORIGINAL_username</text>
<text text-anchor="start" x="104" y="-146" font-family="Times,serif" font-size="10.00">verified:</text>
<text text-anchor="start" x="190" y="-146" font-family="Times,serif" font-size="10.00">var:ORIGINAL_verified</text>
<text text-anchor="start" x="104" y="-133" font-family="Times,serif" font-size="10.00">followers_count:</text>
<text text-anchor="start" x="190" y="-133" font-family="Times,serif" font-size="10.00">var:ORIGINAL_followers_count</text>
<text text-anchor="start" x="104" y="-120" font-family="Times,serif" font-size="10.00">following_count:</text>
<text text-anchor="start" x="190" y="-120" font-family="Times,serif" font-size="10.00">var:ORIGINAL_following_count</text>
</g>
<!-- &#45;attrs3&#45;&gt;http://openprovenance.org/var#original_author_props_id -->
<g id="edge4" class="edge">
<title>&#45;attrs3&#45;&gt;http://openprovenance.org/var#original_author_props_id</title>
<path fill="none" stroke="gray" stroke-dasharray="5,2" d="M248.49,-199.15C260.11,-222.48 273.81,-249.99 282.45,-267.34"/>
</g>
<!-- &#45;attrs4 -->
<g id="node10" class="node">
<title>&#45;attrs4</title>
<polygon fill="none" stroke="gray" points="142,-303.5 16,-303.5 16,-267.5 148,-267.5 148,-297.5 142,-303.5"/>
<polyline fill="none" stroke="gray" points="142,-303.5 142,-297.5 "/>
<polyline fill="none" stroke="gray" points="148,-297.5 142,-297.5 "/>
<text text-anchor="start" x="26" y="-289.5" font-family="Times,serif" font-size="10.00">type:</text>
<text text-anchor="start" x="60" y="-289.5" font-family="Times,serif" font-size="10.00">prov:Person</text>
<text text-anchor="start" x="26" y="-276.5" font-family="Times,serif" font-size="10.00">name:</text>
<text text-anchor="start" x="60" y="-276.5" font-family="Times,serif" font-size="10.00">var:ag_o_name</text>
</g>
<!-- &#45;attrs4&#45;&gt;http://openprovenance.org/var#original_author_id -->
<g id="edge5" class="edge">
<title>&#45;attrs4&#45;&gt;http://openprovenance.org/var#original_author_id</title>
<path fill="none" stroke="gray" stroke-dasharray="5,2" d="M105.22,-303.63C119.66,-313.82 138.87,-326.56 157,-336 187.18,-351.71 223.11,-365.69 250.17,-375.34"/>
</g>
</g>
</svg>
