<?xml version="1.0" encoding="UTF-8" standalone="no"?>
<!DOCTYPE svg PUBLIC "-//W3C//DTD SVG 1.1//EN"
 "http://www.w3.org/Graphics/SVG/1.1/DTD/svg11.dtd">
<!-- Generated by graphviz version 2.43.0 (0)
 -->
<!-- Title: PROV Pages: 1 -->
<svg width="729pt" height="406pt"
 viewBox="0.00 0.00 729.00 406.00" xmlns="http://www.w3.org/2000/svg" xmlns:xlink="http://www.w3.org/1999/xlink">
<g id="graph0" class="graph" transform="scale(1 1) rotate(0) translate(4 402)">
<title>PROV</title>
<polygon fill="white" stroke="transparent" points="-4,4 -4,-402 725,-402 725,4 -4,4"/>
<g id="clust1" class="cluster">
<title>clusterurn:uuid:2a095522&#45;4801&#45;473c&#45;a143&#45;5911496569bc</title>
<g id="a_clust1"><a xlink:href="urn:uuid:2a095522-4801-473c-a143-5911496569bc" xlink:title="2a095522&#45;4801&#45;473c&#45;a143&#45;5911496569bc">
<polygon fill="none" stroke="black" points="8,-8 8,-390 713,-390 713,-8 8,-8"/>
<text text-anchor="middle" x="360.5" y="-15.8" font-family="Times,serif" font-size="14.00">2a095522&#45;4801&#45;473c&#45;a143&#45;5911496569bc</text>
</a>
</g>
</g>
<!-- http://twitter.com/post_or_react_on_March_01_9AM_5PM -->
<g id="node1" class="node">
<title>http://twitter.com/post_or_react_on_March_01_9AM_5PM</title>
<g id="a_node1"><a xlink:href="http://twitter.com/post_or_react_on_March_01_9AM_5PM" xlink:title="post_or_react_on_March_01_9AM_5PM">
<polygon fill="#9fb1fc" stroke="#0000ff" points="704.5,-297 411.5,-297 411.5,-261 704.5,-261 704.5,-297"/>
<text text-anchor="middle" x="558" y="-275.3" font-family="Times,serif" font-size="14.00">post_or_react_on_March_01_9AM_5PM</text>
</a>
</g>
</g>
<!-- http://twitter.com/group_of_authors_on_March_01_9AM_5PM -->
<g id="node5" class="node">
<title>http://twitter.com/group_of_authors_on_March_01_9AM_5PM</title>
<g id="a_node5"><a xlink:href="http://twitter.com/group_of_authors_on_March_01_9AM_5PM" xlink:title="group_of_authors_on_March_01_9AM_5PM">
<polygon fill="#fdb266" stroke="black" points="617.77,-369.56 360,-382 102.23,-369.56 102.48,-349.44 617.52,-349.44 617.77,-369.56"/>
<text text-anchor="middle" x="360" y="-360.3" font-family="Times,serif" font-size="14.00">group_of_authors_on_March_01_9AM_5PM</text>
</a>
</g>
</g>
<!-- http://twitter.com/post_or_react_on_March_01_9AM_5PM&#45;&gt;http://twitter.com/group_of_authors_on_March_01_9AM_5PM -->
<g id="edge5" class="edge">
<title>http://twitter.com/post_or_react_on_March_01_9AM_5PM&#45;&gt;http://twitter.com/group_of_authors_on_March_01_9AM_5PM</title>
<path fill="none" stroke="black" d="M516.97,-297.2C483.37,-311.29 435.99,-331.14 402.1,-345.35"/>
<polygon fill="black" stroke="black" points="400.35,-342.29 392.48,-349.39 403.05,-348.75 400.35,-342.29"/>
<text text-anchor="middle" x="515.08" y="-310.18" font-family="Times,serif" font-size="8.00">assoc</text>
</g>
<!-- &#45;attrs0 -->
<g id="node2" class="node">
<title>&#45;attrs0</title>
<polygon fill="none" stroke="gray" points="646.5,-212 565.5,-212 565.5,-176 652.5,-176 652.5,-206 646.5,-212"/>
<polyline fill="none" stroke="gray" points="646.5,-212 646.5,-206 "/>
<polyline fill="none" stroke="gray" points="652.5,-206 646.5,-206 "/>
<text text-anchor="start" x="576" y="-191" font-family="Times,serif" font-size="10.00">type:</text>
<text text-anchor="start" x="604" y="-191" font-family="Times,serif" font-size="10.00">publish</text>
</g>
<!-- &#45;attrs0&#45;&gt;http://twitter.com/post_or_react_on_March_01_9AM_5PM -->
<g id="edge1" class="edge">
<title>&#45;attrs0&#45;&gt;http://twitter.com/post_or_react_on_March_01_9AM_5PM</title>
<path fill="none" stroke="gray" stroke-dasharray="5,2" d="M598.43,-212.2C589.68,-226.44 577.3,-246.59 568.55,-260.82"/>
</g>
<!-- http://twitter.com/all_textual_tweets_on_March_01_9AM_5PM -->
<g id="node3" class="node">
<title>http://twitter.com/all_textual_tweets_on_March_01_9AM_5PM</title>
<g id="a_node3"><a xlink:href="http://twitter.com/all_textual_tweets_on_March_01_9AM_5PM" xlink:title="all_textual_tweets_on_March_01_9AM_5PM">
<ellipse fill="#fffc87" stroke="#808080" cx="336" cy="-194" rx="211.76" ry="18"/>
<text text-anchor="middle" x="336" y="-190.3" font-family="Times,serif" font-size="14.00">all_textual_tweets_on_March_01_9AM_5PM</text>
</a>
</g>
</g>
<!-- http://twitter.com/all_textual_tweets_on_March_01_9AM_5PM&#45;&gt;http://twitter.com/post_or_react_on_March_01_9AM_5PM -->
<g id="edge4" class="edge">
<title>http://twitter.com/all_textual_tweets_on_March_01_9AM_5PM&#45;&gt;http://twitter.com/post_or_react_on_March_01_9AM_5PM</title>
<path fill="none" stroke="black" d="M380.66,-211.7C415.76,-224.82 464.84,-243.17 502.47,-257.24"/>
<polygon fill="black" stroke="black" points="501.68,-260.68 512.27,-260.9 504.13,-254.12 501.68,-260.68"/>
<text text-anchor="middle" x="392.23" y="-200.26" font-family="Times,serif" font-size="8.00">gen</text>
</g>
<!-- &#45;attrs1 -->
<g id="node4" class="node">
<title>&#45;attrs1</title>
<polygon fill="none" stroke="gray" points="524,-140 142,-140 142,-39 530,-39 530,-134 524,-140"/>
<polyline fill="none" stroke="gray" points="524,-140 524,-134 "/>
<polyline fill="none" stroke="gray" points="530,-134 524,-134 "/>
<text text-anchor="start" x="152" y="-125.5" font-family="Times,serif" font-size="10.00">type:</text>
<text text-anchor="start" x="314" y="-125.5" font-family="Times,serif" font-size="10.00">ALL TEXTUAL TWEETS AT TIMEPOINT</text>
<text text-anchor="start" x="152" y="-112.5" font-family="Times,serif" font-size="10.00">date:</text>
<text text-anchor="start" x="314" y="-112.5" font-family="Times,serif" font-size="10.00">March 01, 2021</text>
<text text-anchor="start" x="152" y="-99.5" font-family="Times,serif" font-size="10.00">time_interval:</text>
<text text-anchor="start" x="314" y="-99.5" font-family="Times,serif" font-size="10.00">9AM &#45; 5PM</text>
<text text-anchor="start" x="152" y="-86.5" font-family="Times,serif" font-size="10.00">percentage_out_of_day_tweets:</text>
<text text-anchor="start" x="314" y="-86.5" font-family="Times,serif" font-size="10.00">60.03%</text>
<text text-anchor="start" x="152" y="-73.5" font-family="Times,serif" font-size="10.00">number_of_original_tweets:</text>
<text text-anchor="start" x="314" y="-73.5" font-family="Times,serif" font-size="10.00">3363</text>
<text text-anchor="start" x="152" y="-60.5" font-family="Times,serif" font-size="10.00">number_of_replies:</text>
<text text-anchor="start" x="314" y="-60.5" font-family="Times,serif" font-size="10.00">666</text>
<text text-anchor="start" x="152" y="-47.5" font-family="Times,serif" font-size="10.00">number_of_quotes:</text>
<text text-anchor="start" x="314" y="-47.5" font-family="Times,serif" font-size="10.00">757</text>
</g>
<!-- &#45;attrs1&#45;&gt;http://twitter.com/all_textual_tweets_on_March_01_9AM_5PM -->
<g id="edge2" class="edge">
<title>&#45;attrs1&#45;&gt;http://twitter.com/all_textual_tweets_on_March_01_9AM_5PM</title>
<path fill="none" stroke="gray" stroke-dasharray="5,2" d="M336,-140.25C336,-153.1 336,-166.08 336,-175.95"/>
</g>
<!-- &#45;attrs2 -->
<g id="node6" class="node">
<title>&#45;attrs2</title>
<polygon fill="none" stroke="gray" points="387.5,-310 16.5,-310 16.5,-248 393.5,-248 393.5,-304 387.5,-310"/>
<polyline fill="none" stroke="gray" points="387.5,-310 387.5,-304 "/>
<polyline fill="none" stroke="gray" points="393.5,-304 387.5,-304 "/>
<text text-anchor="start" x="27" y="-296" font-family="Times,serif" font-size="10.00">type:</text>
<text text-anchor="start" x="287" y="-296" font-family="Times,serif" font-size="10.00">GROUP OF USERS</text>
<text text-anchor="start" x="27" y="-283" font-family="Times,serif" font-size="10.00">number_of_distinct_authors:</text>
<text text-anchor="start" x="287" y="-283" font-family="Times,serif" font-size="10.00">3547</text>
<text text-anchor="start" x="27" y="-270" font-family="Times,serif" font-size="10.00">average_number_of_followers_top_10_influencers:</text>
<text text-anchor="start" x="287" y="-270" font-family="Times,serif" font-size="10.00">38,412,712</text>
<text text-anchor="start" x="27" y="-257" font-family="Times,serif" font-size="10.00">average_number_of_followers_all_users:</text>
<text text-anchor="start" x="287" y="-257" font-family="Times,serif" font-size="10.00">1,041,138</text>
</g>
<!-- &#45;attrs2&#45;&gt;http://twitter.com/group_of_authors_on_March_01_9AM_5PM -->
<g id="edge3" class="edge">
<title>&#45;attrs2&#45;&gt;http://twitter.com/group_of_authors_on_March_01_9AM_5PM</title>
<path fill="none" stroke="gray" stroke-dasharray="5,2" d="M261.4,-310.2C286.5,-323.64 314.8,-338.8 334.62,-349.41"/>
</g>
</g>
</svg>
