<?xml version="1.0" encoding="UTF-8" standalone="no"?>
<!DOCTYPE svg PUBLIC "-//W3C//DTD SVG 1.1//EN"
 "http://www.w3.org/Graphics/SVG/1.1/DTD/svg11.dtd">
<!-- Generated by graphviz version 2.43.0 (0)
 -->
<!-- Title: PROV Pages: 1 -->
<svg width="777pt" height="406pt"
 viewBox="0.00 0.00 777.00 406.00" xmlns="http://www.w3.org/2000/svg" xmlns:xlink="http://www.w3.org/1999/xlink">
<g id="graph0" class="graph" transform="scale(1 1) rotate(0) translate(4 402)">
<title>PROV</title>
<polygon fill="white" stroke="transparent" points="-4,4 -4,-402 773,-402 773,4 -4,4"/>
<g id="clust1" class="cluster">
<title>clusterurn:uuid:58ff2e7a&#45;07fc&#45;4472&#45;a500&#45;0831a5bb323b</title>
<g id="a_clust1"><a xlink:href="urn:uuid:58ff2e7a-07fc-4472-a500-0831a5bb323b" xlink:title="58ff2e7a&#45;07fc&#45;4472&#45;a500&#45;0831a5bb323b">
<polygon fill="none" stroke="black" points="8,-8 8,-390 761,-390 761,-8 8,-8"/>
<text text-anchor="middle" x="384.5" y="-15.8" font-family="Times,serif" font-size="14.00">58ff2e7a&#45;07fc&#45;4472&#45;a500&#45;0831a5bb323b</text>
</a>
</g>
</g>
<!-- http://twitter.com/post_or_react_on_March_01_MIDNIGHT_9AM -->
<g id="node1" class="node">
<title>http://twitter.com/post_or_react_on_March_01_MIDNIGHT_9AM</title>
<g id="a_node1"><a xlink:href="http://twitter.com/post_or_react_on_March_01_MIDNIGHT_9AM" xlink:title="post_or_react_on_March_01_MIDNIGHT_9AM">
<polygon fill="#9fb1fc" stroke="#0000ff" points="752.5,-297 411.5,-297 411.5,-261 752.5,-261 752.5,-297"/>
<text text-anchor="middle" x="582" y="-275.3" font-family="Times,serif" font-size="14.00">post_or_react_on_March_01_MIDNIGHT_9AM</text>
</a>
</g>
</g>
<!-- http://twitter.com/group_of_authors_on_March_01_MIDNIGHT_9AM -->
<g id="node5" class="node">
<title>http://twitter.com/group_of_authors_on_March_01_MIDNIGHT_9AM</title>
<g id="a_node5"><a xlink:href="http://twitter.com/group_of_authors_on_March_01_MIDNIGHT_9AM" xlink:title="group_of_authors_on_March_01_MIDNIGHT_9AM">
<polygon fill="#fdb266" stroke="black" points="679.78,-369.56 384,-382 88.22,-369.56 88.49,-349.44 679.51,-349.44 679.78,-369.56"/>
<text text-anchor="middle" x="384" y="-360.3" font-family="Times,serif" font-size="14.00">group_of_authors_on_March_01_MIDNIGHT_9AM</text>
</a>
</g>
</g>
<!-- http://twitter.com/post_or_react_on_March_01_MIDNIGHT_9AM&#45;&gt;http://twitter.com/group_of_authors_on_March_01_MIDNIGHT_9AM -->
<g id="edge5" class="edge">
<title>http://twitter.com/post_or_react_on_March_01_MIDNIGHT_9AM&#45;&gt;http://twitter.com/group_of_authors_on_March_01_MIDNIGHT_9AM</title>
<path fill="none" stroke="black" d="M540.97,-297.2C507.37,-311.29 459.99,-331.14 426.1,-345.35"/>
<polygon fill="black" stroke="black" points="424.35,-342.29 416.48,-349.39 427.05,-348.75 424.35,-342.29"/>
<text text-anchor="middle" x="539.08" y="-310.18" font-family="Times,serif" font-size="8.00">assoc</text>
</g>
<!-- &#45;attrs0 -->
<g id="node2" class="node">
<title>&#45;attrs0</title>
<polygon fill="none" stroke="gray" points="682.5,-212 601.5,-212 601.5,-176 688.5,-176 688.5,-206 682.5,-212"/>
<polyline fill="none" stroke="gray" points="682.5,-212 682.5,-206 "/>
<polyline fill="none" stroke="gray" points="688.5,-206 682.5,-206 "/>
<text text-anchor="start" x="612" y="-191" font-family="Times,serif" font-size="10.00">type:</text>
<text text-anchor="start" x="640" y="-191" font-family="Times,serif" font-size="10.00">publish</text>
</g>
<!-- &#45;attrs0&#45;&gt;http://twitter.com/post_or_react_on_March_01_MIDNIGHT_9AM -->
<g id="edge1" class="edge">
<title>&#45;attrs0&#45;&gt;http://twitter.com/post_or_react_on_March_01_MIDNIGHT_9AM</title>
<path fill="none" stroke="gray" stroke-dasharray="5,2" d="M631.95,-212.2C621.13,-226.44 605.84,-246.59 595.04,-260.82"/>
</g>
<!-- http://twitter.com/all_textual_tweets_on_March_01_MIDNIGHT_9AM -->
<g id="node3" class="node">
<title>http://twitter.com/all_textual_tweets_on_March_01_MIDNIGHT_9AM</title>
<g id="a_node3"><a xlink:href="http://twitter.com/all_textual_tweets_on_March_01_MIDNIGHT_9AM" xlink:title="all_textual_tweets_on_March_01_MIDNIGHT_9AM">
<ellipse fill="#fffc87" stroke="#808080" cx="340" cy="-194" rx="243.16" ry="18"/>
<text text-anchor="middle" x="340" y="-190.3" font-family="Times,serif" font-size="14.00">all_textual_tweets_on_March_01_MIDNIGHT_9AM</text>
</a>
</g>
</g>
<!-- http://twitter.com/all_textual_tweets_on_March_01_MIDNIGHT_9AM&#45;&gt;http://twitter.com/post_or_react_on_March_01_MIDNIGHT_9AM -->
<g id="edge4" class="edge">
<title>http://twitter.com/all_textual_tweets_on_March_01_MIDNIGHT_9AM&#45;&gt;http://twitter.com/post_or_react_on_March_01_MIDNIGHT_9AM</title>
<path fill="none" stroke="black" d="M388.68,-211.7C427.27,-224.93 481.36,-243.48 522.52,-257.6"/>
<polygon fill="black" stroke="black" points="521.56,-260.97 532.15,-260.9 523.83,-254.35 521.56,-260.97"/>
<text text-anchor="middle" x="399.99" y="-199.94" font-family="Times,serif" font-size="8.00">gen</text>
</g>
<!-- &#45;attrs1 -->
<g id="node4" class="node">
<title>&#45;attrs1</title>
<polygon fill="none" stroke="gray" points="528,-140 146,-140 146,-39 534,-39 534,-134 528,-140"/>
<polyline fill="none" stroke="gray" points="528,-140 528,-134 "/>
<polyline fill="none" stroke="gray" points="534,-134 528,-134 "/>
<text text-anchor="start" x="156" y="-125.5" font-family="Times,serif" font-size="10.00">type:</text>
<text text-anchor="start" x="318" y="-125.5" font-family="Times,serif" font-size="10.00">ALL TEXTUAL TWEETS AT TIMEPOINT</text>
<text text-anchor="start" x="156" y="-112.5" font-family="Times,serif" font-size="10.00">date:</text>
<text text-anchor="start" x="318" y="-112.5" font-family="Times,serif" font-size="10.00">March 01, 2021</text>
<text text-anchor="start" x="156" y="-99.5" font-family="Times,serif" font-size="10.00">time_interval:</text>
<text text-anchor="start" x="318" y="-99.5" font-family="Times,serif" font-size="10.00">MIDNIGHT &#45; 9AM</text>
<text text-anchor="start" x="156" y="-86.5" font-family="Times,serif" font-size="10.00">percentage_out_of_day_tweets:</text>
<text text-anchor="start" x="318" y="-86.5" font-family="Times,serif" font-size="10.00">17.95%</text>
<text text-anchor="start" x="156" y="-73.5" font-family="Times,serif" font-size="10.00">number_of_original_tweets:</text>
<text text-anchor="start" x="318" y="-73.5" font-family="Times,serif" font-size="10.00">1021</text>
<text text-anchor="start" x="156" y="-60.5" font-family="Times,serif" font-size="10.00">number_of_replies:</text>
<text text-anchor="start" x="318" y="-60.5" font-family="Times,serif" font-size="10.00">165</text>
<text text-anchor="start" x="156" y="-47.5" font-family="Times,serif" font-size="10.00">number_of_quotes:</text>
<text text-anchor="start" x="318" y="-47.5" font-family="Times,serif" font-size="10.00">245</text>
</g>
<!-- &#45;attrs1&#45;&gt;http://twitter.com/all_textual_tweets_on_March_01_MIDNIGHT_9AM -->
<g id="edge2" class="edge">
<title>&#45;attrs1&#45;&gt;http://twitter.com/all_textual_tweets_on_March_01_MIDNIGHT_9AM</title>
<path fill="none" stroke="gray" stroke-dasharray="5,2" d="M340,-140.25C340,-153.1 340,-166.08 340,-175.95"/>
</g>
<!-- &#45;attrs2 -->
<g id="node6" class="node">
<title>&#45;attrs2</title>
<polygon fill="none" stroke="gray" points="387.5,-310 16.5,-310 16.5,-248 393.5,-248 393.5,-304 387.5,-310"/>
<polyline fill="none" stroke="gray" points="387.5,-310 387.5,-304 "/>
<polyline fill="none" stroke="gray" points="393.5,-304 387.5,-304 "/>
<text text-anchor="start" x="27" y="-296" font-family="Times,serif" font-size="10.00">type:</text>
<text text-anchor="start" x="287" y="-296" font-family="Times,serif" font-size="10.00">GROUP OF USERS</text>
<text text-anchor="start" x="27" y="-283" font-family="Times,serif" font-size="10.00">number_of_distinct_authors:</text>
<text text-anchor="start" x="287" y="-283" font-family="Times,serif" font-size="10.00">1121</text>
<text text-anchor="start" x="27" y="-270" font-family="Times,serif" font-size="10.00">average_number_of_followers_top_10_influencers:</text>
<text text-anchor="start" x="287" y="-270" font-family="Times,serif" font-size="10.00">35,538,591</text>
<text text-anchor="start" x="27" y="-257" font-family="Times,serif" font-size="10.00">average_number_of_followers_all_users:</text>
<text text-anchor="start" x="287" y="-257" font-family="Times,serif" font-size="10.00">1,227,522</text>
</g>
<!-- &#45;attrs2&#45;&gt;http://twitter.com/group_of_authors_on_March_01_MIDNIGHT_9AM -->
<g id="edge3" class="edge">
<title>&#45;attrs2&#45;&gt;http://twitter.com/group_of_authors_on_March_01_MIDNIGHT_9AM</title>
<path fill="none" stroke="gray" stroke-dasharray="5,2" d="M269.88,-310.08C298.89,-323.54 331.65,-338.73 354.6,-349.37"/>
</g>
</g>
</svg>
