<?xml version="1.0" encoding="UTF-8" standalone="no"?>
<!DOCTYPE svg PUBLIC "-//W3C//DTD SVG 1.1//EN"
 "http://www.w3.org/Graphics/SVG/1.1/DTD/svg11.dtd">
<!-- Generated by graphviz version 2.43.0 (0)
 -->
<!-- Title: PROV Pages: 1 -->
<svg width="342pt" height="243pt"
 viewBox="0.00 0.00 342.00 243.00" xmlns="http://www.w3.org/2000/svg" xmlns:xlink="http://www.w3.org/1999/xlink">
<g id="graph0" class="graph" transform="scale(1 1) rotate(0) translate(4 239)">
<title>PROV</title>
<polygon fill="white" stroke="transparent" points="-4,4 -4,-239 338,-239 338,4 -4,4"/>
<g id="clust1" class="cluster">
<title>clusterurn:uuid:64b2b509&#45;1278&#45;4677&#45;8460&#45;8176906bd9fe</title>
<g id="a_clust1"><a xlink:href="urn:uuid:64b2b509-1278-4677-8460-8176906bd9fe" xlink:title="64b2b509&#45;1278&#45;4677&#45;8460&#45;8176906bd9fe">
<polygon fill="none" stroke="black" points="8,-8 8,-227 326,-227 326,-8 8,-8"/>
<text text-anchor="middle" x="167" y="-15.8" font-family="Times,serif" font-size="14.00">64b2b509&#45;1278&#45;4677&#45;8460&#45;8176906bd9fe</text>
</a>
</g>
</g>
<!-- http://example.com/#quote1 -->
<g id="node1" class="node">
<title>http://example.com/#quote1</title>
<g id="a_node1"><a xlink:href="http://example.com/#quote1" xlink:title="quote1">
<ellipse fill="#fffc87" stroke="#808080" cx="194" cy="-129" rx="42.79" ry="18"/>
<text text-anchor="middle" x="194" y="-125.3" font-family="Times,serif" font-size="14.00">quote1</text>
</a>
</g>
</g>
<!-- http://orcid.org/0000&#45;0002&#45;3494&#45;120X -->
<g id="node3" class="node">
<title>http://orcid.org/0000&#45;0002&#45;3494&#45;120X</title>
<g id="a_node3"><a xlink:href="http://orcid.org/0000-0002-3494-120X" xlink:title="0000&#45;0002&#45;3494&#45;120X">
<ellipse fill="#fffc87" stroke="#808080" cx="162" cy="-201" rx="113.98" ry="18"/>
<text text-anchor="middle" x="162" y="-197.3" font-family="Times,serif" font-size="14.00">0000&#45;0002&#45;3494&#45;120X</text>
</a>
</g>
</g>
<!-- http://example.com/#quote1&#45;&gt;http://orcid.org/0000&#45;0002&#45;3494&#45;120X -->
<g id="edge3" class="edge">
<title>http://example.com/#quote1&#45;&gt;http://orcid.org/0000&#45;0002&#45;3494&#45;120X</title>
<path fill="none" stroke="black" d="M186.25,-146.95C182.61,-154.91 178.19,-164.59 174.12,-173.49"/>
<polygon fill="black" stroke="black" points="170.87,-172.17 169.9,-182.72 177.24,-175.09 170.87,-172.17"/>
<text text-anchor="middle" x="194.95" y="-157.27" font-family="Times,serif" font-size="8.00">att</text>
</g>
<!-- &#45;attrs0 -->
<g id="node2" class="node">
<title>&#45;attrs0</title>
<polygon fill="none" stroke="gray" points="310.5,-75 71.5,-75 71.5,-39 316.5,-39 316.5,-69 310.5,-75"/>
<polyline fill="none" stroke="gray" points="310.5,-75 310.5,-69 "/>
<polyline fill="none" stroke="gray" points="316.5,-69 310.5,-69 "/>
<text text-anchor="start" x="82" y="-54" font-family="Times,serif" font-size="10.00">value:</text>
<text text-anchor="start" x="115" y="-54" font-family="Times,serif" font-size="10.00">A Little Provenance Goes a Long Way</text>
</g>
<!-- &#45;attrs0&#45;&gt;http://example.com/#quote1 -->
<g id="edge1" class="edge">
<title>&#45;attrs0&#45;&gt;http://example.com/#quote1</title>
<path fill="none" stroke="gray" stroke-dasharray="5,2" d="M194,-75.3C194,-86.15 194,-100.08 194,-110.9"/>
</g>
<!-- &#45;attrs1 -->
<g id="node4" class="node">
<title>&#45;attrs1</title>
<polygon fill="none" stroke="gray" points="127,-147 17,-147 17,-111 133,-111 133,-141 127,-147"/>
<polyline fill="none" stroke="gray" points="127,-147 127,-141 "/>
<polyline fill="none" stroke="gray" points="133,-141 127,-141 "/>
<text text-anchor="start" x="27" y="-133" font-family="Times,serif" font-size="10.00">type:</text>
<text text-anchor="start" x="61" y="-133" font-family="Times,serif" font-size="10.00">prov:Person</text>
<text text-anchor="start" x="27" y="-120" font-family="Times,serif" font-size="10.00">name:</text>
<text text-anchor="start" x="61" y="-120" font-family="Times,serif" font-size="10.00">Luc Moreau</text>
</g>
<!-- &#45;attrs1&#45;&gt;http://orcid.org/0000&#45;0002&#45;3494&#45;120X -->
<g id="edge2" class="edge">
<title>&#45;attrs1&#45;&gt;http://orcid.org/0000&#45;0002&#45;3494&#45;120X</title>
<path fill="none" stroke="gray" stroke-dasharray="5,2" d="M96.51,-147.3C110.09,-158.23 127.56,-172.29 141.04,-183.14"/>
</g>
</g>
</svg>
